<svg width="143" height="141" viewBox="0 0 143 141" fill="none" xmlns="http://www.w3.org/2000/svg">
<g clip-path="url(#clip0_17_852)">
<path d="M26.9261 52.0102C47.1877 40.1097 71.737 44.357 83.6869 64.5349L4.36612 110.794C-7.58377 90.6159 6.66436 63.9109 26.9261 52.0102Z" fill="#FC637D"/>
<path d="M83.8913 25.4997C88.5377 27.0241 92.2622 24.0251 95.9638 20.0131C101.591 13.9158 107.668 8.22556 113.559 2.368C116.757 -0.807296 118.574 -0.793726 121.83 2.43585C125.282 5.85992 128.725 9.28852 132.163 12.7262C135.529 16.087 135.552 17.8555 132.24 21.1575C125.105 28.2725 117.992 35.41 110.793 42.4572C109.544 43.6831 109.081 44.9179 109.113 46.6232C109.276 54.2991 109.358 61.975 106.733 69.3659C101.596 83.8266 91.7625 93.7054 77.2827 98.8392C58.9604 105.334 40.5746 111.64 22.2252 118.063C20.2358 118.759 18.4008 118.913 16.8247 117.294C15.344 115.774 15.4485 114.028 16.1162 112.133C22.6339 93.6962 29.1516 75.2641 35.5876 56.8004C41.8373 38.8748 59.3784 24.5453 83.8868 25.4997H83.8913ZM117.611 10.4555C116.898 11.1204 116.248 11.6949 115.635 12.301C109.372 18.5295 103.049 24.7081 96.8859 31.0361C94.892 33.0852 92.8162 34.1798 89.8912 33.9717C86.9843 33.7636 84.0503 33.9219 81.1298 33.9264C63.0119 33.9491 49.2543 43.665 43.2317 60.7084C39.212 72.0798 35.2198 83.4648 31.2182 94.8452C30.9458 95.6186 30.7187 96.4102 30.2645 97.8531C43.486 84.677 56.1763 72.03 68.5849 59.6681C70.8331 61.7126 72.8861 63.5717 75.3569 65.8196C62.5577 78.539 49.8856 91.1362 37.2773 103.67C37.3044 103.67 37.4952 103.756 37.6406 103.702C50.8123 99.0924 64.111 94.809 77.1056 89.743C88.3879 85.3465 95.5778 76.7704 99.125 65.2C101.292 58.1302 100.356 50.8614 100.742 43.6695C100.837 41.9235 101.65 39.8383 102.849 38.5899C109.213 31.9634 115.803 25.5585 122.307 19.0677C122.97 18.4073 123.606 17.7152 124.287 16.9961C122.007 14.7616 119.932 12.7307 117.615 10.46L117.611 10.4555Z" fill="#1947BA"/>
<path d="M40.0659 126.499C40.9991 126.499 41.7556 125.745 41.7556 124.816C41.7556 123.887 40.9991 123.133 40.0659 123.133C39.1329 123.133 38.3764 123.887 38.3764 124.816C38.3764 125.745 39.1329 126.499 40.0659 126.499Z" fill="#FC637D"/>
<path d="M40.0659 141C40.9991 141 41.7556 140.247 41.7556 139.317C41.7556 138.388 40.9991 137.635 40.0659 137.635C39.1329 137.635 38.3764 138.388 38.3764 139.317C38.3764 140.247 39.1329 141 40.0659 141Z" fill="#FC637D"/>
<path d="M56.2126 126.499C57.1458 126.499 57.9023 125.745 57.9023 124.816C57.9023 123.887 57.1458 123.133 56.2126 123.133C55.2796 123.133 54.5231 123.887 54.5231 124.816C54.5231 125.745 55.2796 126.499 56.2126 126.499Z" fill="#FC637D"/>
<path d="M56.2126 141C57.1458 141 57.9023 140.247 57.9023 139.317C57.9023 138.388 57.1458 137.635 56.2126 137.635C55.2796 137.635 54.5231 138.388 54.5231 139.317C54.5231 140.247 55.2796 141 56.2126 141Z" fill="#FC637D"/>
<path d="M72.3821 126.499C73.3152 126.499 74.0717 125.745 74.0717 124.816C74.0717 123.887 73.3152 123.133 72.3821 123.133C71.449 123.133 70.6925 123.887 70.6925 124.816C70.6925 125.745 71.449 126.499 72.3821 126.499Z" fill="#FC637D"/>
<path d="M72.3821 141C73.3152 141 74.0717 140.247 74.0717 139.317C74.0717 138.388 73.3152 137.635 72.3821 137.635C71.449 137.635 70.6925 138.388 70.6925 139.317C70.6925 140.247 71.449 141 72.3821 141Z" fill="#FC637D"/>
</g>
<defs>
<clipPath id="clip0_17_852">
<rect width="143" height="141" fill="white"/>
</clipPath>
</defs>
</svg>
