<svg width="134" height="113" viewBox="0 0 134 113" fill="none" xmlns="http://www.w3.org/2000/svg">
<path d="M129.067 56.2763L120.094 49.9908C125.257 42.6324 123.465 32.4496 116.102 27.2939C108.74 22.1344 98.5545 23.9258 93.3923 31.284L84.4199 24.9984C93.0489 12.6954 110.085 9.7026 122.395 18.3266C134.705 26.9505 137.7 43.9768 129.07 56.2799" fill="#FC637D"/>
<path d="M108.54 41.6925L91.4719 38.0616C91.4719 39.9198 91.1029 41.7638 90.3861 43.4792C89.6695 45.1983 88.6194 46.7569 87.2935 48.0659C84.6095 50.7265 80.9794 52.2174 77.1918 52.2174C74.3858 52.2174 71.6444 51.3863 69.3153 49.8241C66.9859 48.262 65.1871 46.0436 64.1371 43.4543C63.4455 41.7389 63.1015 39.9056 63.1337 38.0581V23.2462C64.6854 21.9408 65.911 20.2966 66.7207 18.4456C67.5306 16.5909 67.8998 14.5795 67.7994 12.5608C67.6991 10.542 67.1366 8.57332 66.151 6.80787C65.1655 5.04242 63.7824 3.52661 62.1125 2.37466C60.439 1.2191 58.5218 0.45943 56.5114 0.152704C54.4975 -0.154022 52.4406 0.00290596 50.4984 0.609216C48.5561 1.21554 46.7751 2.25341 45.2987 3.64788C43.8224 5.04242 42.6828 6.7544 41.9697 8.65532C41.0308 11.1877 40.8983 13.9482 41.5899 16.5589C42.2814 19.1696 43.7651 21.5057 45.8399 23.2498V38.3505C45.7216 42.0883 44.1413 45.6299 41.4357 48.2228C38.7231 50.805 35.1146 52.2459 31.3626 52.2494C29.4848 52.2601 27.625 51.8999 25.8907 51.1901C24.1562 50.4805 22.5759 49.4354 21.2465 48.1194C19.917 46.7998 18.8634 45.234 18.1467 43.5078C17.43 41.7816 17.0645 39.9305 17.0681 38.0652L0 41.6925C0.74178 47.859 3.31114 53.669 7.37839 58.3803C11.4456 63.0918 16.8316 66.4943 22.8447 68.1528V83.4675C22.9772 88.1648 24.2386 92.762 26.5142 96.8815C28.7932 100.997 32.0256 104.514 35.9423 107.135L36.0641 107.217C41.5182 110.67 47.8431 112.521 54.3077 112.56H54.3828C62.675 112.564 70.6303 109.293 76.5001 103.465C82.3698 97.6375 85.6775 89.7269 85.6918 81.4774V68.1528C90.7838 66.7404 95.4424 64.0834 99.2408 60.4239C104.408 55.4272 107.691 48.8149 108.536 41.6925H108.54ZM71.7771 91.6421C69.9889 94.6451 67.4446 97.1346 64.3987 98.868C61.3527 100.598 57.9054 101.511 54.3937 101.518H54.347C50.0075 101.486 45.761 100.248 42.0915 97.9406C39.6727 96.2929 37.6732 94.1066 36.2576 91.5529C34.8458 88.9993 34.0609 86.1531 33.9642 83.2428V69.2121C41.751 68.6021 49.0327 65.1283 54.3901 59.4717C59.6828 65.1283 66.9142 68.6021 74.6582 69.2192V81.481C74.6332 85.069 73.6405 88.582 71.7807 91.6564V91.6493L71.7771 91.6421Z" fill="#1947BA"/>
<path d="M72.099 91.7683C70.2736 94.831 67.6764 97.3697 64.5672 99.1375C61.4579 100.902 57.9389 101.833 54.3542 101.84H54.3066C49.8768 101.807 45.542 100.545 41.7963 98.1918C39.3271 96.5113 37.286 94.2817 35.8411 91.6774C34.3998 89.0731 33.5988 86.1705 33.5 83.2024V68.8934C41.4487 68.2715 48.8819 64.7287 54.3505 58.96C59.7533 64.7287 67.1351 68.2715 75.04 68.9006V81.4056C75.0144 85.0648 74.0011 88.6475 72.1026 91.7829V91.7756L72.099 91.7683Z" fill="#FC637D"/>
</svg>
