<svg width="24" height="24" viewBox="0 0 24 24" fill="none" xmlns="http://www.w3.org/2000/svg">
<path fill-rule="evenodd" clip-rule="evenodd" d="M12.3989 11.2751C12.0669 10.9432 12.0669 10.405 12.3989 10.073L18.0557 4.41618C18.3877 4.08423 18.9259 4.08423 19.2578 4.41618C19.5898 4.74812 19.5898 5.28631 19.2578 5.61826L13.601 11.2751C13.269 11.6071 12.7308 11.6071 12.3989 11.2751Z" fill="black"/>
<path fill-rule="evenodd" clip-rule="evenodd" d="M14.2725 4.30871C14.2725 3.83927 14.653 3.45871 15.1225 3.45871L18.3846 3.45871C19.4064 3.45871 20.2346 4.28698 20.2346 5.30871L20.2346 8.55411C20.2346 9.02355 19.8541 9.40411 19.3846 9.40411C18.9152 9.40411 18.5346 9.02355 18.5346 8.55411L18.5346 5.30871C18.5346 5.22587 18.4675 5.15871 18.3846 5.15871L15.1225 5.15871C14.653 5.15871 14.2725 4.77815 14.2725 4.30871Z" fill="black"/>
<path fill-rule="evenodd" clip-rule="evenodd" d="M8.9999 4.84999C7.26021 4.84999 5.8499 6.2603 5.8499 7.99999V15C5.8499 16.7397 7.26021 18.15 8.9999 18.15H15.9999C17.7396 18.15 19.1499 16.7397 19.1499 15V11.4286C19.1499 10.9591 19.5305 10.5786 19.9999 10.5786C20.4693 10.5786 20.8499 10.9591 20.8499 11.4286V15C20.8499 17.6786 18.6785 19.85 15.9999 19.85H8.9999C6.32132 19.85 4.1499 17.6786 4.1499 15V7.99999C4.1499 5.32141 6.32132 3.14999 8.9999 3.14999H11.8213C12.2908 3.14999 12.6713 3.53055 12.6713 3.99999C12.6713 4.46944 12.2908 4.84999 11.8213 4.84999H8.9999Z" fill="black"/>
</svg>
