<svg width="48" height="48" viewBox="0 0 48 48" fill="none" xmlns="http://www.w3.org/2000/svg">
<path fill-rule="evenodd" clip-rule="evenodd" d="M23.9998 23.7C23.0609 23.7 22.2998 22.9389 22.2998 22L22.2998 6.00001C22.2998 5.06113 23.0609 4.30001 23.9998 4.30001C24.9387 4.30001 25.6998 5.06113 25.6998 6.00001L25.6998 22C25.6998 22.9389 24.9387 23.7 23.9998 23.7Z" fill="white"/>
<path fill-rule="evenodd" clip-rule="evenodd" d="M16.7978 11.1982C16.1339 10.5343 16.1339 9.4579 16.7978 8.79401L21.4112 4.1806C22.8561 2.73566 25.1988 2.73566 26.6438 4.1806L31.2335 8.7703C31.8974 9.43419 31.8974 10.5106 31.2335 11.1745C30.5696 11.8383 29.4932 11.8383 28.8293 11.1745L24.2396 6.58477C24.1225 6.46761 23.9325 6.46761 23.8154 6.58477L19.2019 11.1982C18.5381 11.8621 17.4617 11.8621 16.7978 11.1982Z" fill="white"/>
<path fill-rule="evenodd" clip-rule="evenodd" d="M17.9998 17.7C14.5204 17.7 11.6998 20.5206 11.6998 24V32C11.6998 35.4794 14.5204 38.3 17.9998 38.3H30.9998C34.4792 38.3 37.2998 35.4794 37.2998 32V24C37.2998 20.5206 34.4792 17.7 30.9998 17.7H28.6427C27.7038 17.7 26.9427 16.9389 26.9427 16C26.9427 15.0611 27.7038 14.3 28.6427 14.3H30.9998C36.357 14.3 40.6998 18.6428 40.6998 24V32C40.6998 37.3572 36.357 41.7 30.9998 41.7H17.9998C12.6426 41.7 8.2998 37.3572 8.2998 32V24C8.2998 18.6428 12.6426 14.3 17.9998 14.3H19.3212C20.2601 14.3 21.0212 15.0611 21.0212 16C21.0212 16.9389 20.2601 17.7 19.3212 17.7H17.9998Z" fill="white"/>
</svg>
