<svg width="141" height="152" viewBox="0 0 141 152" fill="none" xmlns="http://www.w3.org/2000/svg">
<g clip-path="url(#clip0_17_49)">
<path d="M17.1304 141.139C22.8218 135.429 28.4897 129.751 34.0448 124.177C31.9721 122.095 29.8056 119.918 27.8223 117.925C22.2108 123.55 16.5149 129.256 10.8987 134.887C12.9195 136.918 15.0626 139.066 17.1304 141.139Z" fill="#FC637D"/>
<path d="M139.488 24.0439C141.814 37.2179 134.675 49.4494 121.535 51.7817L112.596 0.273212C125.736 -2.05908 137.161 10.8699 139.488 24.0439Z" fill="#FC637D"/>
<path d="M46.6352 128.455C47.4906 129.181 48.0545 129.562 48.4963 130.053C49.7277 131.419 49.6901 133.096 48.4587 134.255C47.2885 135.363 45.6247 135.363 44.37 134.133C42.4384 132.243 40.5725 130.279 38.7491 128.417C32.9496 134.241 27.2865 139.928 21.1956 146.044C21.628 146.313 22.2954 146.567 22.7418 147.034C23.9121 148.263 23.8604 150.021 22.7371 151.137C21.6045 152.258 19.8328 152.325 18.6343 151.133C12.6985 145.229 6.78631 139.297 0.897562 133.346C-0.300867 132.135 -0.263268 130.382 0.836465 129.233C1.9315 128.092 3.6798 128.041 4.93932 129.167C5.39519 129.577 5.74767 130.104 6.00616 130.415C11.8385 124.568 17.5299 118.862 23.3387 113.038C21.6609 111.371 19.7153 109.495 17.8447 107.545C16.1528 105.778 16.8202 103.064 19.1231 102.64C19.9644 102.484 21.017 102.946 21.8442 103.379C22.4223 103.686 22.7794 104.421 23.6348 105.443C24.1659 104.614 24.4197 104.016 24.8474 103.587C44.7554 83.595 64.6775 63.622 84.5996 43.6443C86.6862 41.5524 87.7061 41.4534 90.2157 43.2674C91.353 42.0564 92.4951 40.7937 93.6887 39.578C95.9635 37.2646 96.8658 37.2081 99.5587 39.2766C100.644 38.1363 101.725 36.9489 102.867 35.8229C104.395 34.3103 105.936 34.3198 107.473 35.837C108.145 36.5014 108.733 37.2505 109.433 38.0468C109.997 37.5238 110.378 37.1892 110.735 36.8265C116.045 31.507 121.351 26.1827 126.662 20.8585C126.93 20.5899 127.193 20.3119 127.47 20.0527C128.8 18.8419 130.521 18.823 131.681 20.0009C132.814 21.1553 132.762 22.9033 131.55 24.2273C131.258 24.543 130.948 24.8398 130.647 25.1414C125.374 30.4279 120.097 35.7192 114.823 41.0105C114.494 41.3403 114.18 41.689 113.71 42.1883C114.471 42.9093 115.218 43.5595 115.9 44.271C117.328 45.7599 117.347 47.3288 115.919 48.7943C114.791 49.9485 113.592 51.037 112.403 52.1772C112.826 52.7238 113.183 53.1101 113.456 53.5484C114.212 54.7686 114.015 56.1398 112.868 57.3082C111.435 58.7642 109.95 60.1683 108.507 61.5724C110.265 64.1827 110.175 65.0684 108.009 67.2358C88.0868 87.2136 68.1693 107.191 48.2378 127.16C47.8384 127.555 47.3637 127.871 46.6399 128.45L46.6352 128.455ZM55.3627 81.4936C56.044 82.2993 56.9088 83.0861 57.4775 84.052C58.1354 85.1733 57.9616 86.4173 56.9934 87.3173C56.5093 87.7648 55.7808 88.0852 55.1183 88.1794C53.1396 88.4669 52.3595 86.5916 51.1093 85.7482C49.535 87.3031 47.9934 88.8297 46.2122 90.5918C47.1851 91.4635 48.2143 92.307 49.1496 93.2492C50.5876 94.6958 50.6487 96.4532 49.394 97.6641C48.1532 98.8609 46.3955 98.7526 44.9857 97.3203C44.0645 96.3873 43.2279 95.3695 42.5559 94.6157C40.737 96.4203 39.205 97.9421 37.4849 99.6525C37.9595 100.048 38.5987 100.486 39.1157 101.038C40.3612 102.362 40.3563 104.082 39.1721 105.245C37.9783 106.419 36.3052 106.404 34.9706 105.123C34.4066 104.581 33.9836 103.884 33.617 103.417C31.4692 105.552 29.6552 107.351 28.0008 108.996C32.9402 113.971 37.9454 119.013 42.8238 123.927C62.6425 104.053 82.5411 84.0944 102.256 64.3241C97.3311 59.3909 92.3118 54.3588 87.504 49.5386C85.7934 51.2491 83.965 53.0819 82.0053 55.0419C82.856 55.8382 83.8569 56.7194 84.7875 57.6711C86.1504 59.0658 86.1974 60.7667 84.985 61.9824C83.7724 63.1932 82.0476 63.1414 80.6707 61.7986C79.6931 60.8468 78.7766 59.8337 77.9683 58.9951C76.281 60.7054 74.7584 62.2461 73.0806 63.9424C73.5646 64.3712 74.2226 64.8564 74.7631 65.4548C75.9379 66.7553 75.905 68.4044 74.7631 69.5588C73.6351 70.699 71.9291 70.7414 70.6789 69.5588C70.0681 68.984 69.6122 68.2442 69.2832 67.8342C67.4268 69.6531 65.8852 71.1655 64.1417 72.8711C64.5694 73.2197 65.1052 73.6155 65.594 74.0632C66.0873 74.5108 66.5479 74.9913 67.0038 75.4766C68.3056 76.8714 68.3855 78.6194 67.2059 79.8068C65.998 81.0271 64.2874 80.9941 62.9057 79.6278C61.9328 78.6618 61.0586 77.5922 60.1987 76.6358C58.4315 78.4121 56.8994 79.9529 55.3627 81.4936ZM17.1304 141.139C22.8217 135.433 28.4896 129.751 34.0447 124.177C31.9721 122.094 29.8056 119.918 27.8222 117.924C22.2108 123.55 16.5147 129.256 10.8986 134.887C12.9194 136.917 15.0625 139.066 17.1304 141.139Z" fill="#1947BA"/>
<path d="M83.293 115.748C82.339 115.748 81.5682 114.975 81.5682 114.019C81.5682 113.062 82.339 112.29 83.293 112.29C84.2471 112.29 85.0179 113.062 85.0179 114.019C85.0179 114.975 84.2471 115.748 83.293 115.748Z" fill="#FC637D"/>
<path d="M68.4326 115.753C69.3852 115.753 70.1574 114.979 70.1574 114.023C70.1574 113.068 69.3852 112.294 68.4326 112.294C67.48 112.294 66.7079 113.068 66.7079 114.023C66.7079 114.979 67.48 115.753 68.4326 115.753Z" fill="#FC637D"/>
<path d="M83.293 133.021C82.339 133.021 81.5682 132.249 81.5682 131.292C81.5682 130.336 82.339 129.563 83.293 129.563C84.2471 129.563 85.0179 130.336 85.0179 131.292C85.0179 132.249 84.2471 133.021 83.293 133.021Z" fill="#FC637D"/>
<path d="M68.4326 133.021C67.4785 133.021 66.7079 132.249 66.7079 131.292C66.7079 130.336 67.4785 129.563 68.4326 129.563C69.3867 129.563 70.1574 130.336 70.1574 131.292C70.1574 132.249 69.3867 133.021 68.4326 133.021Z" fill="#FC637D"/>
<path d="M83.293 149.394C82.339 149.394 81.5682 148.621 81.5682 147.665C81.5682 146.709 82.339 145.936 83.293 145.936C84.2471 145.936 85.0179 146.709 85.0179 147.665C85.0179 148.621 84.2471 149.394 83.293 149.394Z" fill="#FC637D"/>
<path d="M68.4326 149.394C69.3852 149.394 70.1574 148.62 70.1574 147.665C70.1574 146.71 69.3852 145.936 68.4326 145.936C67.48 145.936 66.7079 146.71 66.7079 147.665C66.7079 148.62 67.48 149.394 68.4326 149.394Z" fill="#FC637D"/>
</g>
<defs>
<clipPath id="clip0_17_49">
<rect width="141" height="152" fill="white"/>
</clipPath>
</defs>
</svg>
