<svg width="133" height="133" viewBox="0 0 133 133" fill="none" xmlns="http://www.w3.org/2000/svg">
<g clip-path="url(#clip0_93_8148)">
<path fill-rule="evenodd" clip-rule="evenodd" d="M89.0396 89.0395C101.505 76.5736 101.505 56.3624 89.0396 43.8966C76.5737 31.4307 56.3626 31.4307 43.8967 43.8966C31.4309 56.3624 31.4309 76.5736 43.8967 89.0395C56.3626 101.505 76.5737 101.505 89.0396 89.0395ZM93.7478 39.1884C108.814 54.2545 108.814 78.6815 93.7478 93.7476C78.6816 108.814 54.2547 108.814 39.1886 93.7476C24.1225 78.6815 24.1225 54.2545 39.1886 39.1884C54.2547 24.1223 78.6816 24.1223 93.7478 39.1884Z" fill="#FC637D"/>
<path fill-rule="evenodd" clip-rule="evenodd" d="M79.9003 53.0359C81.2004 54.3361 81.2004 56.444 79.9003 57.7441L57.7443 79.9001C56.4442 81.2002 54.3363 81.2002 53.0362 79.9001C51.736 78.6 51.736 76.4921 53.0362 75.192L75.1922 53.0359C76.4923 51.7358 78.6002 51.7358 79.9003 53.0359Z" fill="#FC637D"/>
<path fill-rule="evenodd" clip-rule="evenodd" d="M53.0361 53.036C54.3362 51.7358 56.4441 51.7358 57.7442 53.036L79.9002 75.192C81.2003 76.4921 81.2003 78.6 79.9002 79.9001C78.6001 81.2002 76.4922 81.2002 75.1921 79.9001L53.0361 57.7441C51.7359 56.444 51.7359 54.3361 53.0361 53.036Z" fill="#FC637D"/>
</g>
<defs>
<clipPath id="clip0_93_8148">
<rect width="94" height="94" fill="white" transform="translate(66.4683) rotate(45)"/>
</clipPath>
</defs>
</svg>
