<svg width="182" height="162" viewBox="0 0 182 162" fill="none" xmlns="http://www.w3.org/2000/svg">
<path d="M103.782 64.4932C103.782 67.801 100.967 70.4902 97.5035 70.4902C94.0409 70.4902 91.2255 67.801 91.2255 64.4932H83.6189C83.6189 71.8054 89.8494 77.7569 97.5035 77.7569C104.612 77.7569 110.491 72.6256 111.293 66.0372L103.782 64.4932Z" fill="#1947BA"/>
<path d="M83.6214 64.4932C83.6214 67.801 80.8065 70.4902 77.3434 70.4902C73.8809 70.4902 71.0654 67.801 71.0654 64.4932H71.0609L63.5549 66.0372C64.3557 72.6256 70.2308 77.7615 77.3434 77.7615C85.0026 77.7615 91.228 71.81 91.228 64.4977H83.6214V64.4932Z" fill="#1947BA"/>
<path d="M91.3342 55.646H83.7276V69.3041H91.3342V55.646Z" fill="#1947BA"/>
<path d="M93.3953 53.9284C93.3953 57.0211 90.7715 59.5316 87.5293 59.5316C84.2872 59.5316 81.6639 57.0256 81.6639 53.9284C81.6639 50.8311 84.2872 48.325 87.5293 48.325C90.7715 48.325 93.3953 50.8311 93.3953 53.9284Z" fill="#1947BA"/>
<path d="M80.1831 149.726H102.264V122.474C102.264 118.506 99.7512 114.131 96.2932 112.069C93.5975 110.461 90.6481 109.65 87.7558 109.65C85.3292 109.65 82.9409 110.223 80.768 111.373C76.164 113.811 73.3055 118.447 73.3055 123.473V149.721H80.1781L80.1831 149.726Z" fill="#FC637D"/>
<path d="M147.552 53.9146C148.162 54.3637 148.761 54.8264 149.389 55.2526C151.413 56.618 152.876 58.2901 152.037 60.8148C151.164 63.4397 148.972 64.1272 146.32 63.9895C145.183 63.9303 144.037 63.9804 142.641 63.9804C142.003 69.8818 141.365 75.609 140.761 81.3402C138.694 101.005 136.636 120.669 134.574 140.329C134.335 142.615 134.09 144.901 133.855 147.188C133.471 150.894 131.994 152.255 128.152 152.269C121.126 152.296 114.095 152.278 107.069 152.278C87.3332 152.278 67.5973 152.278 47.8567 152.278C42.9791 152.278 41.7417 151.229 41.2573 146.624C38.3893 119.464 35.5356 92.2995 32.6723 65.1352C32.6436 64.8694 32.5572 64.6081 32.4181 63.9804C31.0657 63.9804 29.6556 63.9485 28.2504 63.9895C25.7564 64.0584 23.8908 63.1375 23.1138 60.8103C22.3704 58.5742 23.4639 56.9567 25.32 55.6009C40.207 44.6873 55.0798 33.7509 69.9426 22.8054C75.8369 18.4666 81.6927 14.0774 87.5728 9.72021C107.568 24.4502 127.562 39.1847 147.557 53.9146H147.552ZM106.062 143.22H124.949C125.188 141.241 125.438 139.426 125.63 137.603C128.023 114.562 130.392 91.5163 132.814 68.4754C133.251 64.3196 133.908 60.1825 134.531 55.5458C134.838 55.8758 134.675 55.6374 134.455 55.4724C119.289 44.307 104.105 33.1691 88.9783 21.9578C87.5683 20.9131 86.8201 21.5455 85.7791 22.3152C78.4748 27.7169 71.1367 33.0774 63.8178 38.4563C55.8947 44.2795 47.9766 50.1028 40.8736 55.3261C44.0246 85.0743 47.1085 114.159 50.2115 143.444H69.0938C69.0938 137.498 69.0745 131.986 69.0938 126.469C69.1418 116.046 77.127 108.125 87.5536 108.129C98.0282 108.129 105.99 115.996 106.052 126.433C106.086 131.949 106.057 137.466 106.057 143.211L106.062 143.22ZM78.3596 143.261H96.7911C96.7911 137.108 96.9398 131.143 96.7431 125.187C96.5894 120.569 92.3736 116.981 87.5875 116.976C82.7913 116.972 78.5562 120.545 78.4025 125.159C78.2064 131.115 78.355 137.085 78.355 143.261H78.3596Z" fill="#1947BA"/>
<path d="M174.436 55.9397L166.878 50.8767C171.228 44.9528 169.717 36.7516 163.516 32.6007C157.315 28.4451 148.734 29.8883 144.385 35.8124L136.826 30.7497C144.096 20.8442 158.447 18.4342 168.816 25.3754C179.185 32.3212 181.707 46.0295 174.436 55.9352" fill="#FC637D"/>
</svg>
