<svg width="193" height="69" viewBox="0 0 193 69" fill="none" xmlns="http://www.w3.org/2000/svg">
<path fill-rule="evenodd" clip-rule="evenodd" d="M33.1261 0.131422C25.7524 0.783723 17.2857 3.55646 12.5634 6.86539C10.5354 8.28662 7.78765 11.03 6.30438 13.1148C5.21425 14.6469 2.83355 19.0565 3.0052 19.2253C3.19284 19.4098 13.1653 17.3467 17.9357 16.1365C23.3216 14.7703 30.4115 12.6465 33.2456 11.5507C34.1894 11.1859 35.3437 10.8872 35.8102 10.8872C36.2769 10.8872 39.2085 11.7156 42.3251 12.7282C49.3792 15.0201 56.4843 16.8858 63.2951 18.2349C66.1798 18.806 68.7063 19.2735 68.9099 19.2735C69.4131 19.2735 69.201 18.6073 67.7843 15.7355C63.935 7.93413 56.2985 2.59543 46.2685 0.694094C43.0895 0.0913253 36.6801 -0.183065 33.1261 0.131422ZM33.3948 12.8768C25.0736 15.8194 12.4981 19.0562 4.47567 20.3202C3.37621 20.4935 1.99689 20.7157 1.41051 20.814L0.344369 20.9927L0.133007 27.7987C-0.164447 37.3791 0.019995 41.9837 0.85905 45.919C2.14322 51.9417 3.59211 55.5269 6.08262 58.8466C7.40144 60.604 10.6353 63.8089 12.1101 64.82L12.9478 65.3942L13.5075 62.448C15.0825 54.1575 14.8378 49.2783 12.6301 44.9569C12.2497 44.2124 11.9387 43.5834 11.9384 43.5593C11.9384 43.5352 13.0981 43.5569 14.5158 43.6075C17.4725 43.7134 19.8854 43.2063 21.1494 42.213C22.3432 41.2751 21.7536 41.1461 20.0184 41.9656C18.7439 42.5676 18.017 42.717 15.9226 42.8072C10.8837 43.0242 7.30255 41.3023 6.62209 38.3354C6.28545 36.8681 6.75083 33.2929 7.45875 31.9057C8.42574 30.012 9.08834 29.6815 12.2633 29.5103L14.9913 29.3633L16.2752 27.4507C18.3856 24.3066 22.0092 22.4184 25.9326 22.4184C27.4063 22.4184 27.4503 22.4386 27.2951 23.0463C26.8788 24.6777 26.5459 29.3518 26.6866 31.5909C27.0574 37.4913 29.3952 42.3852 32.563 43.8932C33.1864 44.1899 33.9607 44.4325 34.2837 44.4325C34.7547 44.4325 34.8445 44.5494 34.7371 45.0222C34.4903 46.1108 33.0195 54.2469 32.8468 55.4792C32.7527 56.1496 32.7533 56.9381 32.8479 57.2311C33.1179 58.0674 35.1156 58.6749 37.6682 58.6967C41.7489 58.7315 42.0098 58.0716 40.8509 50.6445C39.9871 45.1074 39.6725 37.4022 40.183 34.2882C40.8466 30.2415 42.6159 26.5919 44.9587 24.4374C45.6957 23.7594 46.4015 23.2046 46.527 23.2046C46.8845 23.2046 48.0807 24.5561 48.5743 25.5177C48.8206 25.9973 49.1058 26.8726 49.2081 27.4628C49.3107 28.053 49.5613 28.5905 49.7654 28.6576C50.0626 28.7548 50.1029 28.5255 49.9683 27.4987C49.8761 26.7945 49.7239 25.9553 49.6306 25.6335C49.4944 25.1649 49.6026 24.9954 50.174 24.7818C51.7357 24.1979 54.7654 24.6696 55.8915 25.6715C56.3265 26.0586 56.4001 26.052 56.826 25.5892C57.4318 24.9311 58.6416 24.45 59.4167 24.559C60.3717 24.6934 60.7235 25.6935 60.6923 28.184C60.6593 30.8362 61.3094 32.542 63.2431 34.8763C64.8922 36.867 64.8599 37.4643 62.9536 40.2703C59.3168 45.6234 57.6949 51.0006 57.7058 57.6672C57.7111 60.8569 58.2901 65.0336 58.8506 65.9252C59.284 66.6144 64.0246 62.39 66.0231 59.534C68.5282 55.9535 70.7607 50.0406 71.5268 44.9567C71.7922 43.1953 71.9884 40.2548 71.9993 37.8807C72.0167 34.0238 71.6846 21.0556 71.5654 20.9503C71.5348 20.923 70.1301 20.7036 68.4443 20.4628C60.6374 19.3479 46.9892 15.8941 38.9177 12.9911C36.2649 12.0371 35.7971 12.0274 33.3948 12.8768ZM30.005 23.0869C32.3343 24.0422 34.0073 26.633 34.7523 30.4386C35.2384 32.9223 35.4479 41.5463 35.0556 42.9256C34.6904 44.2095 33.1488 43.7435 31.2226 41.7673C29.1294 39.6196 27.7816 36.0438 27.4857 31.853C27.3391 29.7756 27.7419 23.9937 28.0966 23.0846C28.296 22.5741 28.756 22.5746 30.005 23.0869ZM58.849 25.5064C58.6291 25.5798 57.9441 25.9928 57.3271 26.4247C56.0949 27.2864 56.3582 27.3312 54.3845 25.9262C53.868 25.5585 53.7848 25.5536 53.7848 25.8914C53.7848 26.5502 54.541 28.4361 55.1327 29.2533L55.6921 30.0258L56.17 29.4459C56.6306 28.8866 56.673 28.8819 57.3444 29.3143C58.1315 29.8214 58.4505 30.7321 58.2266 31.8328C58.0856 32.526 58.1888 32.6392 59.6614 33.411C60.5338 33.8684 61.2478 34.1737 61.2478 34.0896C61.2478 34.0054 60.8272 33.1152 60.3131 32.1114C59.47 30.4653 59.4023 30.1773 59.6238 29.1697C59.8381 28.1929 59.6606 25.7247 59.3573 25.4655C59.2976 25.4147 59.0689 25.433 58.849 25.5064ZM18.7399 27.7471C18.1567 28.6224 17.8659 30.3909 18.3302 30.2386C18.5189 30.1768 18.807 29.7187 18.9707 29.2208C19.3444 28.0839 19.7612 28.1455 19.9348 29.3633C20.1088 30.5833 20.5816 30.6674 20.6704 29.4944C20.8103 27.6462 19.5608 26.5154 18.7399 27.7471ZM22.9096 28.1316C22.4535 28.5252 21.8005 29.9679 21.8005 30.5817C21.8005 30.7044 21.9615 30.8047 22.1582 30.8047C22.3549 30.8047 22.6596 30.333 22.8352 29.7564C23.0108 29.1799 23.2558 28.7081 23.3795 28.7081C23.6396 28.7081 23.924 29.6228 23.9291 30.4771C23.9344 31.3194 24.3843 31.2073 24.5152 30.3309C24.6628 29.3418 24.2886 28.0118 23.8123 27.832C23.5996 27.7518 23.1934 27.8865 22.9096 28.1316ZM56.4502 30.4289C56.4502 31.1902 56.883 32.1151 57.2396 32.1151C57.6059 32.1151 57.7082 31.277 57.4398 30.4771C57.1309 29.5578 56.4502 29.5245 56.4502 30.4289ZM9.50814 30.9366C8.32445 31.5692 7.40757 34.2311 7.40757 37.0355V38.2156L8.95934 38.0773C12.4861 37.7628 14.8706 35.2555 14.8706 31.8614V30.5427L12.5384 30.5531C11.0447 30.5599 9.95538 30.6978 9.50814 30.9366ZM52.1856 31.4279C52.1856 32.3447 52.7544 33.0727 53.24 32.7773C53.6201 32.5465 53.5918 31.244 53.1984 30.8571C52.6033 30.2719 52.1856 30.5073 52.1856 31.4279ZM44.4561 34.462C44.4561 34.7791 45.652 34.9719 48.1625 35.0597C50.439 35.1394 51.1072 34.6512 49.093 34.3797C47.2267 34.1281 44.4561 34.1773 44.4561 34.462ZM55.1708 34.5262C54.67 35.0186 54.7929 35.5071 55.4968 35.8226C57.1106 36.5457 56.1799 38.8601 54.3893 38.576C53.4711 38.4303 52.9399 38.836 53.5508 39.2162C54.2688 39.6636 55.6543 39.4733 56.2993 38.8391C56.7474 38.3986 57.1405 38.2563 57.6904 38.3357C58.5345 38.4575 59.9151 37.594 59.9151 36.9443C59.9151 36.4199 59.5489 36.4789 58.9823 37.0945C57.8841 38.2877 56.6277 37.1642 57.2133 35.5123C57.3764 35.0521 57.4443 34.5712 57.3641 34.4436C57.149 34.1013 55.5413 34.1619 55.1708 34.5262ZM46.1763 36.8007C45.7671 37.203 46.2922 37.3566 48.0764 37.3566C49.5269 37.3566 50.0677 37.268 49.9915 37.0429C49.8899 36.7433 46.4564 36.5253 46.1763 36.8007ZM47.4055 39.5768C46.0228 39.8837 44.8433 40.2763 44.7847 40.4493C44.6421 40.8699 45.2402 40.8458 47.7816 40.3274C50.0259 39.8696 50.6042 39.6057 50.1732 39.2361C50.0341 39.1166 48.7886 39.2702 47.4055 39.5768Z" fill="#1947BA"/>
<path d="M82.972 24.306C81.9746 24.306 81.204 24.034 80.66 23.49C80.116 22.9233 79.844 22.1413 79.844 21.144V3.192C79.844 2.172 80.116 1.39 80.66 0.845998C81.2266 0.301998 82.0086 0.0299985 83.006 0.0299985H91.37C94.09 0.0299985 96.1866 0.732666 97.66 2.138C99.156 3.52067 99.904 5.436 99.904 7.884C99.904 10.332 99.156 12.2587 97.66 13.664C96.1866 15.0467 94.09 15.738 91.37 15.738H86.1V21.144C86.1 22.1413 85.8393 22.9233 85.318 23.49C84.7966 24.034 84.0146 24.306 82.972 24.306ZM86.1 10.944H90.282C91.4606 10.944 92.3673 10.6947 93.002 10.196C93.6366 9.67467 93.954 8.904 93.954 7.884C93.954 6.84133 93.6366 6.07067 93.002 5.572C92.3673 5.07333 91.4606 4.824 90.282 4.824H86.1V10.944Z" fill="#1947BA"/>
<path d="M110.562 24.374C108.522 24.374 106.754 24.0227 105.258 23.32C103.784 22.5947 102.651 21.5747 101.858 20.26C101.064 18.9453 100.668 17.3927 100.668 15.602C100.668 13.8793 101.042 12.372 101.79 11.08C102.56 9.76533 103.603 8.74533 104.918 8.02C106.255 7.272 107.774 6.898 109.474 6.898C110.72 6.898 111.854 7.102 112.874 7.51C113.894 7.89533 114.766 8.47333 115.492 9.244C116.217 9.992 116.761 10.8987 117.124 11.964C117.509 13.0293 117.702 14.2193 117.702 15.534C117.702 15.9873 117.577 16.3273 117.328 16.554C117.078 16.758 116.682 16.86 116.138 16.86H105.734V14.004H113.282L112.738 14.446C112.738 13.6073 112.624 12.9273 112.398 12.406C112.171 11.8847 111.831 11.488 111.378 11.216C110.947 10.944 110.403 10.808 109.746 10.808C109.043 10.808 108.431 10.978 107.91 11.318C107.411 11.6353 107.026 12.1113 106.754 12.746C106.482 13.3807 106.346 14.174 106.346 15.126V15.432C106.346 17.0413 106.697 18.1973 107.4 18.9C108.125 19.58 109.236 19.92 110.732 19.92C111.23 19.92 111.797 19.8633 112.432 19.75C113.089 19.614 113.712 19.4327 114.302 19.206C114.891 18.9793 115.401 18.9453 115.832 19.104C116.262 19.24 116.591 19.4893 116.818 19.852C117.067 20.192 117.203 20.5887 117.226 21.042C117.248 21.4727 117.146 21.9033 116.92 22.334C116.693 22.742 116.319 23.0593 115.798 23.286C115.004 23.6487 114.154 23.9207 113.248 24.102C112.364 24.2833 111.468 24.374 110.562 24.374Z" fill="#1947BA"/>
<path d="M128.948 24.374C127.248 24.374 125.843 24.1133 124.732 23.592C123.644 23.0707 122.828 22.2887 122.284 21.246C121.74 20.1807 121.468 18.8547 121.468 17.268V11.726H120.312C119.587 11.726 119.02 11.5333 118.612 11.148C118.227 10.7627 118.034 10.2073 118.034 9.482C118.034 8.75667 118.227 8.21267 118.612 7.85C119.02 7.46467 119.587 7.272 120.312 7.272H121.468V5.164C121.468 4.16667 121.729 3.40733 122.25 2.886C122.772 2.36466 123.52 2.104 124.494 2.104C125.469 2.104 126.217 2.36466 126.738 2.886C127.26 3.40733 127.52 4.16667 127.52 5.164V7.272H130.308C131.056 7.272 131.623 7.46467 132.008 7.85C132.416 8.21267 132.62 8.75667 132.62 9.482C132.62 10.2073 132.416 10.7627 132.008 11.148C131.623 11.5333 131.056 11.726 130.308 11.726H127.52V17.064C127.52 17.9027 127.713 18.526 128.098 18.934C128.506 19.3193 129.141 19.512 130.002 19.512C130.32 19.512 130.626 19.478 130.92 19.41C131.215 19.342 131.487 19.308 131.736 19.308C132.099 19.2853 132.394 19.3987 132.62 19.648C132.847 19.8747 132.96 20.4073 132.96 21.246C132.96 21.926 132.858 22.504 132.654 22.98C132.45 23.4333 132.088 23.762 131.566 23.966C131.249 24.0793 130.818 24.17 130.274 24.238C129.73 24.3287 129.288 24.374 128.948 24.374Z" fill="#1947BA"/>
<path d="M88.616 50.306C87.6186 50.306 86.848 50.034 86.304 49.49C85.76 48.9233 85.488 48.1413 85.488 47.144V31.13H80.15C79.3113 31.13 78.6653 30.9147 78.212 30.484C77.7813 30.0307 77.566 29.396 77.566 28.58C77.566 27.7413 77.7813 27.1067 78.212 26.676C78.6653 26.2453 79.3113 26.03 80.15 26.03H97.082C97.9206 26.03 98.5553 26.2453 98.986 26.676C99.4393 27.1067 99.666 27.7413 99.666 28.58C99.666 29.396 99.4393 30.0307 98.986 30.484C98.5553 30.9147 97.9206 31.13 97.082 31.13H91.744V47.144C91.744 48.1413 91.4833 48.9233 90.962 49.49C90.4406 50.034 89.6586 50.306 88.616 50.306Z" fill="#1947BA"/>
<path d="M107.093 50.374C105.235 50.374 103.614 50.0227 102.231 49.32C100.849 48.6173 99.772 47.6087 99.0014 46.294C98.2307 44.9793 97.8454 43.4267 97.8454 41.636C97.8454 40.276 98.0607 39.0633 98.4914 37.998C98.922 36.91 99.5454 35.992 100.361 35.244C101.177 34.4733 102.152 33.8953 103.285 33.51C104.419 33.102 105.688 32.898 107.093 32.898C108.952 32.898 110.573 33.2493 111.955 33.952C113.338 34.6547 114.403 35.6633 115.151 36.978C115.922 38.27 116.307 39.8227 116.307 41.636C116.307 42.9733 116.092 44.186 115.661 45.274C115.231 46.362 114.607 47.2913 113.791 48.062C112.998 48.81 112.023 49.388 110.867 49.796C109.734 50.1813 108.476 50.374 107.093 50.374ZM107.093 45.92C107.705 45.92 108.249 45.7727 108.725 45.478C109.201 45.1607 109.564 44.696 109.813 44.084C110.085 43.4493 110.221 42.6333 110.221 41.636C110.221 40.1173 109.927 39.0293 109.337 38.372C108.748 37.692 108 37.352 107.093 37.352C106.481 37.352 105.937 37.4993 105.461 37.794C104.985 38.0887 104.611 38.5533 104.339 39.188C104.067 39.8 103.931 40.616 103.931 41.636C103.931 43.132 104.226 44.22 104.815 44.9C105.405 45.58 106.164 45.92 107.093 45.92Z" fill="#1947BA"/>
<path d="M122.073 56.426C121.121 56.426 120.384 56.1653 119.863 55.644C119.341 55.1227 119.08 54.3633 119.08 53.366V35.992C119.08 35.0173 119.33 34.2693 119.828 33.748C120.35 33.2267 121.086 32.966 122.038 32.966C123.013 32.966 123.75 33.2267 124.248 33.748C124.77 34.2693 125.031 35.0173 125.031 35.992V37.964L124.657 36.298C124.974 35.278 125.631 34.462 126.629 33.85C127.649 33.2153 128.804 32.898 130.096 32.898C131.547 32.898 132.816 33.2493 133.904 33.952C135.015 34.6547 135.876 35.652 136.488 36.944C137.1 38.236 137.406 39.8 137.406 41.636C137.406 43.4267 137.1 44.9793 136.488 46.294C135.876 47.6087 135.015 48.6173 133.904 49.32C132.816 50.0227 131.547 50.374 130.096 50.374C128.85 50.374 127.728 50.0793 126.73 49.49C125.733 48.9007 125.065 48.13 124.725 47.178H125.132V53.366C125.132 54.3633 124.86 55.1227 124.316 55.644C123.795 56.1653 123.047 56.426 122.073 56.426ZM128.193 45.92C128.805 45.92 129.337 45.7727 129.79 45.478C130.266 45.1607 130.641 44.696 130.913 44.084C131.185 43.4493 131.32 42.6333 131.32 41.636C131.32 40.1173 131.026 39.0293 130.436 38.372C129.847 37.692 129.099 37.352 128.193 37.352C127.581 37.352 127.037 37.4993 126.561 37.794C126.085 38.0887 125.71 38.5533 125.438 39.188C125.166 39.8 125.031 40.616 125.031 41.636C125.031 43.132 125.325 44.22 125.914 44.9C126.504 45.58 127.263 45.92 128.193 45.92Z" fill="#1947BA"/>
<path d="M143.156 50.306C142.204 50.306 141.468 50.0227 140.946 49.456C140.425 48.8893 140.164 48.0733 140.164 47.008V36.264C140.164 35.1987 140.425 34.3827 140.946 33.816C141.468 33.2493 142.204 32.966 143.156 32.966C144.131 32.966 144.879 33.2493 145.4 33.816C145.944 34.3827 146.216 35.1987 146.216 36.264V47.008C146.216 48.0733 145.956 48.8893 145.434 49.456C144.913 50.0227 144.154 50.306 143.156 50.306ZM143.156 30.552C142.091 30.552 141.264 30.3027 140.674 29.804C140.108 29.3053 139.824 28.58 139.824 27.628C139.824 26.6987 140.108 25.9847 140.674 25.486C141.264 24.9873 142.091 24.738 143.156 24.738C144.267 24.738 145.106 24.9873 145.672 25.486C146.239 25.9847 146.522 26.6987 146.522 27.628C146.522 28.58 146.239 29.3053 145.672 29.804C145.106 30.3027 144.267 30.552 143.156 30.552Z" fill="#1947BA"/>
<path d="M155.541 50.374C154.249 50.374 153.104 50.136 152.107 49.66C151.132 49.184 150.362 48.538 149.795 47.722C149.251 46.8833 148.979 45.9313 148.979 44.866C148.979 43.642 149.296 42.6787 149.931 41.976C150.566 41.2733 151.586 40.7747 152.991 40.48C154.396 40.1627 156.266 40.004 158.601 40.004H160.471V42.86H158.601C157.717 42.86 156.98 42.928 156.391 43.064C155.824 43.1773 155.405 43.37 155.133 43.642C154.861 43.8913 154.725 44.22 154.725 44.628C154.725 45.1493 154.906 45.58 155.269 45.92C155.654 46.26 156.198 46.43 156.901 46.43C157.468 46.43 157.966 46.3053 158.397 46.056C158.85 45.8067 159.213 45.4667 159.485 45.036C159.757 44.5827 159.893 44.0613 159.893 43.472V39.528C159.893 38.712 159.678 38.134 159.247 37.794C158.839 37.454 158.125 37.284 157.105 37.284C156.561 37.284 155.949 37.352 155.269 37.488C154.589 37.6013 153.83 37.8167 152.991 38.134C152.379 38.3607 151.858 38.3947 151.427 38.236C150.996 38.0773 150.656 37.8053 150.407 37.42C150.18 37.0347 150.067 36.6153 150.067 36.162C150.09 35.7087 150.237 35.278 150.509 34.87C150.804 34.462 151.246 34.1447 151.835 33.918C152.923 33.51 153.92 33.238 154.827 33.102C155.756 32.966 156.606 32.898 157.377 32.898C159.236 32.898 160.766 33.17 161.967 33.714C163.191 34.2353 164.098 35.0513 164.687 36.162C165.299 37.25 165.605 38.6553 165.605 40.378V47.246C165.605 48.2433 165.367 49.0027 164.891 49.524C164.415 50.0453 163.724 50.306 162.817 50.306C161.888 50.306 161.174 50.0453 160.675 49.524C160.199 49.0027 159.961 48.2433 159.961 47.246V46.362L160.165 46.838C160.052 47.5633 159.791 48.1867 159.383 48.708C158.975 49.2293 158.442 49.6373 157.785 49.932C157.128 50.2267 156.38 50.374 155.541 50.374Z" fill="#1947BA"/>
<path d="M81.79 66V59.33H86.16V60.26H82.9V62.19H85.74V63.13H82.89V65.07H86.16V66H81.79Z" fill="#1947BA"/>
<path d="M89.0394 66H87.9994V59.08H89.0394V66Z" fill="#1947BA"/>
<path d="M95.2007 66H94.1607V59.08H95.2007V66Z" fill="#1947BA"/>
<path d="M99.3002 66.15C98.8402 66.15 98.4436 66.0767 98.1102 65.93C97.7836 65.7767 97.5302 65.55 97.3502 65.25C97.1702 64.95 97.0802 64.5767 97.0802 64.13V60.98H98.1302V63.98C98.1302 64.4067 98.2236 64.7233 98.4102 64.93C98.6036 65.13 98.9002 65.23 99.3002 65.23C99.7002 65.23 99.9936 65.13 100.18 64.93C100.374 64.7233 100.47 64.4067 100.47 63.98V60.98H101.48V64.13C101.48 64.7967 101.287 65.3 100.9 65.64C100.52 65.98 99.9869 66.15 99.3002 66.15Z" fill="#1947BA"/>
<path d="M105.349 66.15C104.862 66.1433 104.449 66.0433 104.109 65.85C103.776 65.65 103.522 65.3633 103.349 64.99C103.182 64.6167 103.099 64.1633 103.099 63.63C103.099 63.0633 103.169 62.6 103.309 62.24C103.456 61.88 103.652 61.6 103.899 61.4C104.152 61.2 104.436 61.0633 104.749 60.99C105.069 60.91 105.399 60.87 105.739 60.87C106.099 60.87 106.426 60.9167 106.719 61.01C107.012 61.1033 107.249 61.2467 107.429 61.44C107.609 61.6267 107.699 61.87 107.699 62.17V66.15C107.699 66.4167 107.656 66.6633 107.569 66.89C107.489 67.1233 107.356 67.33 107.169 67.51C106.989 67.69 106.749 67.83 106.449 67.93C106.149 68.03 105.782 68.08 105.349 68.08C105.002 68.08 104.692 68.05 104.419 67.99C104.146 67.9367 103.919 67.88 103.739 67.82V66.86C103.846 66.9 103.979 66.9433 104.139 66.99C104.299 67.0367 104.476 67.0767 104.669 67.11C104.869 67.15 105.072 67.17 105.279 67.17C105.672 67.17 105.966 67.12 106.159 67.02C106.359 66.92 106.492 66.79 106.559 66.63C106.626 66.4767 106.659 66.31 106.659 66.13V65.37L106.939 65.6C106.819 65.7 106.669 65.7933 106.489 65.88C106.316 65.96 106.129 66.0233 105.929 66.07C105.736 66.1233 105.542 66.15 105.349 66.15ZM105.519 65.3C105.712 65.3 105.909 65.2767 106.109 65.23C106.309 65.1767 106.492 65.1 106.659 65V62.37C106.659 62.1967 106.612 62.07 106.519 61.99C106.432 61.9033 106.312 61.8433 106.159 61.81C106.006 61.7767 105.842 61.76 105.669 61.76C105.262 61.76 104.949 61.8433 104.729 62.01C104.516 62.17 104.369 62.39 104.289 62.67C104.209 62.95 104.169 63.26 104.169 63.6C104.169 64.1067 104.279 64.5167 104.499 64.83C104.719 65.1433 105.059 65.3 105.519 65.3Z" fill="#1947BA"/>
<path d="M111.37 66.15C111.11 66.15 110.86 66.1233 110.62 66.07C110.38 66.0233 110.16 65.94 109.96 65.82C109.767 65.7 109.61 65.5367 109.49 65.33C109.377 65.1167 109.32 64.8533 109.32 64.54C109.32 64.1667 109.393 63.86 109.54 63.62C109.687 63.38 109.897 63.2 110.17 63.08C110.443 62.96 110.77 62.9 111.15 62.9C111.403 62.9 111.63 62.92 111.83 62.96C112.037 63 112.22 63.0567 112.38 63.13C112.547 63.1967 112.687 63.2733 112.8 63.36L112.91 64.05C112.763 63.95 112.567 63.8667 112.32 63.8C112.073 63.7267 111.807 63.69 111.52 63.69C111.14 63.69 110.85 63.7567 110.65 63.89C110.457 64.0233 110.36 64.2233 110.36 64.49C110.36 64.69 110.417 64.8533 110.53 64.98C110.643 65.1 110.783 65.19 110.95 65.25C111.123 65.3033 111.303 65.33 111.49 65.33C111.883 65.33 112.173 65.3033 112.36 65.25C112.547 65.1967 112.64 65.0733 112.64 64.88V62.78C112.64 62.4267 112.533 62.17 112.32 62.01C112.107 61.8433 111.803 61.76 111.41 61.76C111.13 61.76 110.84 61.8067 110.54 61.9C110.24 61.9867 109.993 62.11 109.8 62.27V61.29C109.987 61.1633 110.257 61.0633 110.61 60.99C110.97 60.91 111.34 60.87 111.72 60.87C111.907 60.87 112.093 60.89 112.28 60.93C112.473 60.9633 112.653 61.02 112.82 61.1C112.987 61.1733 113.133 61.2767 113.26 61.41C113.393 61.5367 113.497 61.6933 113.57 61.88C113.643 62.0667 113.68 62.2867 113.68 62.54V64.94C113.68 65.2667 113.577 65.52 113.37 65.7C113.17 65.8733 112.897 65.99 112.55 66.05C112.203 66.1167 111.81 66.15 111.37 66.15Z" fill="#1947BA"/>
<path d="M115.556 66V61.44C115.642 61.3867 115.802 61.3133 116.036 61.22C116.269 61.1267 116.546 61.0467 116.866 60.98C117.186 60.9067 117.509 60.87 117.836 60.87C118.002 60.87 118.139 60.8833 118.246 60.91C118.352 60.9367 118.442 60.9667 118.516 61V61.84C118.362 61.82 118.202 61.8067 118.036 61.8C117.869 61.7867 117.702 61.7867 117.536 61.8C117.369 61.8067 117.206 61.82 117.046 61.84C116.886 61.86 116.739 61.88 116.606 61.9V66H115.556Z" fill="#1947BA"/>
<path d="M125.412 66.15C125.105 66.15 124.805 66.11 124.512 66.03C124.218 65.9567 123.952 65.8233 123.712 65.63C123.472 65.43 123.282 65.1533 123.142 64.8C123.002 64.4467 122.932 63.99 122.932 63.43C122.932 62.6367 123.125 62.01 123.512 61.55C123.898 61.09 124.485 60.86 125.272 60.86C125.398 60.86 125.555 60.8767 125.742 60.91C125.928 60.9433 126.118 60.9933 126.312 61.06C126.505 61.12 126.668 61.2 126.802 61.3L126.532 61.65V58.88H127.572V64.95C127.572 65.1567 127.505 65.3367 127.372 65.49C127.245 65.6433 127.075 65.77 126.862 65.87C126.648 65.9633 126.415 66.0333 126.162 66.08C125.908 66.1267 125.658 66.15 125.412 66.15ZM125.442 65.24C125.742 65.24 125.998 65.2033 126.212 65.13C126.425 65.0567 126.532 64.96 126.532 64.84V62.05C126.358 61.95 126.175 61.8767 125.982 61.83C125.788 61.7833 125.602 61.76 125.422 61.76C125.095 61.76 124.825 61.8267 124.612 61.96C124.405 62.0867 124.252 62.2767 124.152 62.53C124.052 62.7767 124.002 63.0833 124.002 63.45C124.002 63.7833 124.042 64.0867 124.122 64.36C124.202 64.6267 124.345 64.84 124.552 65C124.765 65.16 125.062 65.24 125.442 65.24Z" fill="#1947BA"/>
<path d="M131.611 66.15C131.118 66.15 130.688 66.05 130.321 65.85C129.961 65.65 129.681 65.3533 129.481 64.96C129.288 64.5667 129.191 64.0867 129.191 63.52C129.191 62.6467 129.394 61.9867 129.801 61.54C130.214 61.0867 130.788 60.86 131.521 60.86C132.061 60.86 132.498 60.98 132.831 61.22C133.164 61.46 133.404 61.7967 133.551 62.23C133.704 62.6567 133.778 63.1567 133.771 63.73H129.821L129.791 62.95H132.971L132.721 63.2C132.701 62.6867 132.594 62.3133 132.401 62.08C132.208 61.84 131.904 61.72 131.491 61.72C131.224 61.72 130.998 61.7767 130.811 61.89C130.624 61.9967 130.481 62.1833 130.381 62.45C130.288 62.71 130.241 63.07 130.241 63.53C130.241 64.09 130.371 64.5167 130.631 64.81C130.891 65.0967 131.274 65.24 131.781 65.24C132.008 65.24 132.218 65.22 132.411 65.18C132.611 65.14 132.794 65.09 132.961 65.03C133.128 64.9633 133.271 64.9 133.391 64.84V65.81C133.158 65.91 132.894 65.99 132.601 66.05C132.308 66.1167 131.978 66.15 131.611 66.15Z" fill="#1947BA"/>
<path d="M140.41 66.13C139.957 66.13 139.597 66.01 139.33 65.77C139.07 65.53 138.94 65.1767 138.94 64.71V61.85H138.13V60.98H138.94V59.58H140.02V60.98H141.24V61.85H140.02V64.5C140.02 64.7333 140.06 64.91 140.14 65.03C140.227 65.1433 140.383 65.2 140.61 65.2C140.723 65.2 140.837 65.1867 140.95 65.16C141.063 65.1267 141.16 65.0867 141.24 65.04V65.97C141.12 66.0233 140.983 66.0633 140.83 66.09C140.683 66.1167 140.543 66.13 140.41 66.13Z" fill="#1947BA"/>
<path d="M145.078 66.15C144.618 66.15 144.221 66.0767 143.888 65.93C143.561 65.7767 143.308 65.55 143.128 65.25C142.948 64.95 142.858 64.5767 142.858 64.13V60.98H143.908V63.98C143.908 64.4067 144.001 64.7233 144.188 64.93C144.381 65.13 144.678 65.23 145.078 65.23C145.478 65.23 145.771 65.13 145.958 64.93C146.151 64.7233 146.248 64.4067 146.248 63.98V60.98H147.258V64.13C147.258 64.7967 147.065 65.3 146.678 65.64C146.298 65.98 145.765 66.15 145.078 66.15Z" fill="#1947BA"/>
<path d="M156.729 62.68V66H155.679V62.82C155.679 62.6933 155.662 62.57 155.629 62.45C155.602 62.3233 155.545 62.21 155.459 62.11C155.379 62.0033 155.259 61.92 155.099 61.86C154.945 61.8 154.742 61.77 154.489 61.77C154.309 61.77 154.129 61.7867 153.949 61.82C153.769 61.8533 153.595 61.9 153.429 61.96V66H152.379V61.39C152.525 61.3167 152.689 61.25 152.869 61.19C153.055 61.1233 153.252 61.0667 153.459 61.02C153.665 60.9733 153.875 60.9367 154.089 60.91C154.302 60.8833 154.509 60.87 154.709 60.87C155.182 60.87 155.565 60.9367 155.859 61.07C156.152 61.1967 156.369 61.3967 156.509 61.67C156.655 61.9367 156.729 62.2733 156.729 62.68ZM155.529 61.65C155.742 61.4767 155.975 61.3333 156.229 61.22C156.489 61.1067 156.755 61.02 157.029 60.96C157.309 60.9 157.582 60.87 157.849 60.87C158.322 60.87 158.705 60.9367 158.999 61.07C159.292 61.1967 159.509 61.3967 159.649 61.67C159.795 61.9367 159.869 62.2733 159.869 62.68V66H158.819V62.82C158.819 62.6933 158.802 62.57 158.769 62.45C158.742 62.3233 158.685 62.21 158.599 62.11C158.519 62.0033 158.399 61.92 158.239 61.86C158.085 61.8 157.882 61.77 157.629 61.77C157.449 61.77 157.269 61.7967 157.089 61.85C156.909 61.9033 156.735 61.9867 156.569 62.1L155.529 61.65Z" fill="#1947BA"/>
<path d="M163.573 66.15C163.313 66.15 163.063 66.1233 162.823 66.07C162.583 66.0233 162.363 65.94 162.163 65.82C161.97 65.7 161.813 65.5367 161.693 65.33C161.58 65.1167 161.523 64.8533 161.523 64.54C161.523 64.1667 161.597 63.86 161.743 63.62C161.89 63.38 162.1 63.2 162.373 63.08C162.647 62.96 162.973 62.9 163.353 62.9C163.607 62.9 163.833 62.92 164.033 62.96C164.24 63 164.423 63.0567 164.583 63.13C164.75 63.1967 164.89 63.2733 165.003 63.36L165.113 64.05C164.967 63.95 164.77 63.8667 164.523 63.8C164.277 63.7267 164.01 63.69 163.723 63.69C163.343 63.69 163.053 63.7567 162.853 63.89C162.66 64.0233 162.563 64.2233 162.563 64.49C162.563 64.69 162.62 64.8533 162.733 64.98C162.847 65.1 162.987 65.19 163.153 65.25C163.327 65.3033 163.507 65.33 163.693 65.33C164.087 65.33 164.377 65.3033 164.563 65.25C164.75 65.1967 164.843 65.0733 164.843 64.88V62.78C164.843 62.4267 164.737 62.17 164.523 62.01C164.31 61.8433 164.007 61.76 163.613 61.76C163.333 61.76 163.043 61.8067 162.743 61.9C162.443 61.9867 162.197 62.11 162.003 62.27V61.29C162.19 61.1633 162.46 61.0633 162.813 60.99C163.173 60.91 163.543 60.87 163.923 60.87C164.11 60.87 164.297 60.89 164.483 60.93C164.677 60.9633 164.857 61.02 165.023 61.1C165.19 61.1733 165.337 61.2767 165.463 61.41C165.597 61.5367 165.7 61.6933 165.773 61.88C165.847 62.0667 165.883 62.2867 165.883 62.54V64.94C165.883 65.2667 165.78 65.52 165.573 65.7C165.373 65.8733 165.1 65.99 164.753 66.05C164.407 66.1167 164.013 66.15 163.573 66.15Z" fill="#1947BA"/>
<path d="M169.209 66.15C168.849 66.15 168.542 66.11 168.289 66.03C168.042 65.9567 167.799 65.8633 167.559 65.75V64.76C167.732 64.8667 167.902 64.9633 168.069 65.05C168.235 65.13 168.409 65.1933 168.589 65.24C168.775 65.2867 168.982 65.31 169.209 65.31C169.495 65.31 169.719 65.25 169.879 65.13C170.045 65.01 170.129 64.86 170.129 64.68C170.129 64.5267 170.075 64.4067 169.969 64.32C169.869 64.2333 169.739 64.16 169.579 64.1C169.419 64.04 169.252 63.98 169.079 63.92C168.899 63.8733 168.719 63.82 168.539 63.76C168.359 63.6933 168.192 63.6067 168.039 63.5C167.892 63.3867 167.772 63.2433 167.679 63.07C167.592 62.8967 167.549 62.6833 167.549 62.43C167.549 62.15 167.605 61.9133 167.719 61.72C167.832 61.52 167.979 61.36 168.159 61.24C168.345 61.1133 168.549 61.0233 168.769 60.97C168.995 60.91 169.215 60.88 169.429 60.88C169.782 60.8867 170.069 60.93 170.289 61.01C170.515 61.09 170.735 61.1867 170.949 61.3L170.959 62.2C170.719 62.0733 170.492 61.9633 170.279 61.87C170.065 61.7767 169.819 61.73 169.539 61.73C169.279 61.73 169.062 61.78 168.889 61.88C168.715 61.9733 168.629 62.1133 168.629 62.3C168.629 62.46 168.675 62.5867 168.769 62.68C168.869 62.7733 168.995 62.8467 169.149 62.9C169.309 62.9533 169.479 63.0067 169.659 63.06C169.825 63.1133 169.999 63.17 170.179 63.23C170.359 63.2833 170.525 63.3633 170.679 63.47C170.832 63.5767 170.955 63.7167 171.049 63.89C171.149 64.0633 171.199 64.29 171.199 64.57C171.192 64.9433 171.092 65.2467 170.899 65.48C170.712 65.7133 170.465 65.8833 170.159 65.99C169.852 66.0967 169.535 66.15 169.209 66.15Z" fill="#1947BA"/>
<path d="M175.037 66.1C174.73 66.1 174.43 66.0567 174.137 65.97C173.843 65.8833 173.577 65.7433 173.337 65.55C173.103 65.35 172.917 65.0867 172.777 64.76C172.637 64.4267 172.567 64.0133 172.567 63.52C172.567 63.0133 172.633 62.59 172.767 62.25C172.9 61.91 173.083 61.64 173.317 61.44C173.55 61.2333 173.813 61.0867 174.107 61C174.407 60.9133 174.713 60.87 175.027 60.87C175.293 60.87 175.56 60.8967 175.827 60.95C176.093 60.9967 176.34 61.07 176.567 61.17V62.11C176.34 62.01 176.113 61.9333 175.887 61.88C175.66 61.82 175.423 61.79 175.177 61.79C174.657 61.79 174.263 61.92 173.997 62.18C173.737 62.44 173.607 62.86 173.607 63.44C173.607 64.04 173.73 64.48 173.977 64.76C174.23 65.0333 174.64 65.17 175.207 65.17C175.453 65.17 175.693 65.14 175.927 65.08C176.16 65.0133 176.377 64.9333 176.577 64.84V65.78C176.343 65.8867 176.1 65.9667 175.847 66.02C175.593 66.0733 175.323 66.1 175.037 66.1Z" fill="#1947BA"/>
<path d="M180.338 66.15C179.524 66.15 178.918 65.92 178.518 65.46C178.124 65 177.928 64.3433 177.928 63.49C177.928 62.5833 178.131 61.92 178.538 61.5C178.951 61.0733 179.544 60.86 180.318 60.86C180.871 60.86 181.328 60.9633 181.688 61.17C182.048 61.37 182.314 61.6667 182.488 62.06C182.661 62.4533 182.748 62.93 182.748 63.49C182.748 64.3367 182.538 64.9933 182.118 65.46C181.704 65.92 181.111 66.15 180.338 66.15ZM180.328 65.26C180.668 65.26 180.938 65.1867 181.138 65.04C181.338 64.8867 181.481 64.6767 181.568 64.41C181.661 64.1433 181.708 63.8367 181.708 63.49C181.708 63.1033 181.661 62.78 181.568 62.52C181.474 62.26 181.328 62.0667 181.128 61.94C180.928 61.8067 180.661 61.74 180.328 61.74C179.994 61.74 179.728 61.81 179.528 61.95C179.328 62.09 179.184 62.29 179.098 62.55C179.011 62.81 178.968 63.1233 178.968 63.49C178.968 64.0433 179.071 64.4767 179.278 64.79C179.484 65.1033 179.834 65.26 180.328 65.26Z" fill="#1947BA"/>
<path d="M186.159 66.13C185.706 66.13 185.346 66.01 185.079 65.77C184.819 65.53 184.689 65.1767 184.689 64.71V61.85H183.879V60.98H184.689V59.58H185.769V60.98H186.989V61.85H185.769V64.5C185.769 64.7333 185.809 64.91 185.889 65.03C185.976 65.1433 186.132 65.2 186.359 65.2C186.472 65.2 186.586 65.1867 186.699 65.16C186.812 65.1267 186.909 65.0867 186.989 65.04V65.97C186.869 66.0233 186.732 66.0633 186.579 66.09C186.432 66.1167 186.292 66.13 186.159 66.13Z" fill="#1947BA"/>
<path d="M190.427 66.15C190.167 66.15 189.917 66.1233 189.677 66.07C189.437 66.0233 189.217 65.94 189.017 65.82C188.823 65.7 188.667 65.5367 188.547 65.33C188.433 65.1167 188.377 64.8533 188.377 64.54C188.377 64.1667 188.45 63.86 188.597 63.62C188.743 63.38 188.953 63.2 189.227 63.08C189.5 62.96 189.827 62.9 190.207 62.9C190.46 62.9 190.687 62.92 190.887 62.96C191.093 63 191.277 63.0567 191.437 63.13C191.603 63.1967 191.743 63.2733 191.857 63.36L191.967 64.05C191.82 63.95 191.623 63.8667 191.377 63.8C191.13 63.7267 190.863 63.69 190.577 63.69C190.197 63.69 189.907 63.7567 189.707 63.89C189.513 64.0233 189.417 64.2233 189.417 64.49C189.417 64.69 189.473 64.8533 189.587 64.98C189.7 65.1 189.84 65.19 190.007 65.25C190.18 65.3033 190.36 65.33 190.547 65.33C190.94 65.33 191.23 65.3033 191.417 65.25C191.603 65.1967 191.697 65.0733 191.697 64.88V62.78C191.697 62.4267 191.59 62.17 191.377 62.01C191.163 61.8433 190.86 61.76 190.467 61.76C190.187 61.76 189.897 61.8067 189.597 61.9C189.297 61.9867 189.05 62.11 188.857 62.27V61.29C189.043 61.1633 189.313 61.0633 189.667 60.99C190.027 60.91 190.397 60.87 190.777 60.87C190.963 60.87 191.15 60.89 191.337 60.93C191.53 60.9633 191.71 61.02 191.877 61.1C192.043 61.1733 192.19 61.2767 192.317 61.41C192.45 61.5367 192.553 61.6933 192.627 61.88C192.7 62.0667 192.737 62.2867 192.737 62.54V64.94C192.737 65.2667 192.633 65.52 192.427 65.7C192.227 65.8733 191.953 65.99 191.607 66.05C191.26 66.1167 190.867 66.15 190.427 66.15Z" fill="#1947BA"/>
</svg>
