<svg width="24" height="24" viewBox="0 0 24 24" fill="none" xmlns="http://www.w3.org/2000/svg">
<path fill-rule="evenodd" clip-rule="evenodd" d="M9.08695 10.0497C9.02098 10.1102 9.02025 10.2116 9.08095 10.2723L14.1616 15.353C14.2223 15.4137 14.3237 15.413 14.3842 15.347C15.0305 14.6423 15.9825 13.6134 16.5306 13.0652C17.3145 12.2814 17.3145 11.0105 16.5306 10.2267L14.2073 7.90332C13.4234 7.11948 12.1526 7.11948 11.3688 7.90332C10.8206 8.45147 9.79162 9.4035 9.08695 10.0497ZM7.87887 11.4744C7.1313 10.7268 7.16146 9.5089 7.93794 8.79681C8.64894 8.14478 9.6494 7.21851 10.1667 6.70124C11.6144 5.25351 13.9616 5.25351 15.4094 6.70124L17.7327 9.02459C19.1804 10.4723 19.1804 12.8196 17.7327 14.2673C17.2154 14.7846 16.2892 15.785 15.6371 16.496C14.9251 17.2725 13.7071 17.3027 12.9595 16.5551L7.87887 11.4744Z" fill="#1947BA"/>
<path fill-rule="evenodd" clip-rule="evenodd" d="M15.8819 4.80544C15.8599 4.82391 15.8194 4.8663 15.8002 4.98379L15.5001 6.82251L17.6116 8.93398L19.4503 8.63384C19.5678 8.61467 19.6102 8.57422 19.6287 8.55218C19.6525 8.52369 19.6897 8.4588 19.6971 8.33188C19.7127 8.06653 19.583 7.622 19.1551 7.19419L17.2399 5.27895C16.8121 4.85114 16.3676 4.72141 16.1022 4.73698C15.9753 4.74443 15.9104 4.78155 15.8819 4.80544ZM16.0027 3.0399C16.8464 2.9904 17.7434 3.37824 18.442 4.07687L20.3572 5.99211C21.0559 6.69074 21.4437 7.58774 21.3942 8.43144C21.3691 8.85904 21.228 9.29056 20.9314 9.64441C20.6293 10.0047 20.2087 10.2325 19.7242 10.3116L17.0256 10.7521L13.682 7.40852L14.1225 4.70992C14.2015 4.22538 14.4294 3.80482 14.7897 3.50273C15.1435 3.20606 15.5751 3.06499 16.0027 3.0399Z" fill="#1947BA"/>
<path fill-rule="evenodd" clip-rule="evenodd" d="M5.11576 19.3179C4.78381 18.9859 4.78381 18.4477 5.11576 18.1158L10.4191 12.8125C10.751 12.4805 11.2892 12.4805 11.6211 12.8125C11.9531 13.1444 11.9531 13.6826 11.6211 14.0146L6.31784 19.3179C5.98589 19.6498 5.4477 19.6498 5.11576 19.3179Z" fill="#1947BA"/>
</svg>
