<svg xmlns="http://www.w3.org/2000/svg" viewBox="0 0 500 500"><g id="freepik--background-complete--inject-3"><rect y="382.4" width="500" height="0.25" style="fill:#ebebeb"></rect><rect x="328.88" y="390.34" width="33.12" height="0.25" style="fill:#ebebeb"></rect><rect x="399.78" y="390.47" width="41.14" height="0.25" style="fill:#ebebeb"></rect><rect x="356.76" y="397" width="19.19" height="0.25" style="fill:#ebebeb"></rect><rect x="174" y="395.11" width="51.67" height="0.25" style="fill:#ebebeb"></rect><rect x="130.71" y="395.11" width="34.39" height="0.25" style="fill:#ebebeb"></rect><rect x="63.29" y="390.89" width="46.84" height="0.25" style="fill:#ebebeb"></rect><path d="M237,337.8H43.91a5.71,5.71,0,0,1-5.7-5.71V60.66A5.71,5.71,0,0,1,43.91,55H237a5.71,5.71,0,0,1,5.71,5.71V332.09A5.71,5.71,0,0,1,237,337.8ZM43.91,55.2a5.46,5.46,0,0,0-5.45,5.46V332.09a5.46,5.46,0,0,0,5.45,5.46H237a5.47,5.47,0,0,0,5.46-5.46V60.66A5.47,5.47,0,0,0,237,55.2Z" style="fill:#ebebeb"></path><path d="M453.31,337.8H260.21a5.72,5.72,0,0,1-5.71-5.71V60.66A5.72,5.72,0,0,1,260.21,55h193.1A5.71,5.71,0,0,1,459,60.66V332.09A5.71,5.71,0,0,1,453.31,337.8ZM260.21,55.2a5.47,5.47,0,0,0-5.46,5.46V332.09a5.47,5.47,0,0,0,5.46,5.46h193.1a5.47,5.47,0,0,0,5.46-5.46V60.66a5.47,5.47,0,0,0-5.46-5.46Z" style="fill:#ebebeb"></path><path d="M377.77,221.78c0,6.77-4.71,9.43-10.51,9.43s-10.5-2.66-10.5-9.43,4.7-12.25,10.5-12.25S377.77,215,377.77,221.78Z" style="fill:#e0e0e0"></path><path d="M356.79,207.61s-.48,6.07,2.7,9.15l6.11-4.35C364.28,209.51,356.79,207.61,356.79,207.61Z" style="fill:#e0e0e0"></path><path d="M380.34,208.43s-6.91.13-10.07,3.6l5.53,5.65C379,216.07,380.34,208.43,380.34,208.43Z" style="fill:#e0e0e0"></path><path d="M360.18,226.44c-.41,9.34,1.36,36.23,3.78,40.06-2.92-.83-4.67,1.33-3.38,3.54h44.3s5.33-28.37-22-30.71c-5.16-5.55-7.43-14.94-7.43-14.94Z" style="fill:#e0e0e0"></path><path d="M402.55,262.83a5.67,5.67,0,0,0,4,.55,11.83,11.83,0,0,0,4.27-1.64,13,13,0,0,0,5.61-7.2,14.4,14.4,0,0,0-.61-9.21,24.66,24.66,0,0,0-2.2-4.31c-.41-.71-.94-1.35-1.39-2s-1.06-1.43-1.55-2.18a27.69,27.69,0,0,1-2.58-4.81,16.63,16.63,0,0,1-1.23-5.59,10.65,10.65,0,0,1,1.47-5.9,10.84,10.84,0,0,1,4.58-4.15,17.06,17.06,0,0,1,11.56-.76,24,24,0,0,1,5.33,2.07,31.94,31.94,0,0,1,4.73,3.16,2.77,2.77,0,0,1-3.46,4.33,2.09,2.09,0,0,1-.22-.2h0a20.28,20.28,0,0,0-7.67-4.87,12.59,12.59,0,0,0-8.58-.06,6.7,6.7,0,0,0-3.1,2.46,7,7,0,0,0-1.11,3.9,13.29,13.29,0,0,0,.8,4.45,24.93,24.93,0,0,0,2.1,4.32c.42.71.89,1.37,1.35,2.07s1,1.46,1.48,2.25a26.52,26.52,0,0,1,2.37,4.88,17.4,17.4,0,0,1,.5,11,15.65,15.65,0,0,1-6.73,8.72,14.92,14.92,0,0,1-5.22,2.14,10,10,0,0,1-3,.15,7.47,7.47,0,0,1-3.06-.93,1.5,1.5,0,0,1,1.51-2.6l.05,0Z" style="fill:#e0e0e0"></path><path d="M226.06,140.56c3-11.78,1.44-18.36,1.44-18.36s-2.23-2.76-.95-5.42a40.86,40.86,0,0,1,5.39,3.22c1.12-1.28,10-.56,12.78.33-1.22-1.72-.28-4.11-.28-4.11a12.91,12.91,0,0,1,5.95,6c2.17,4.41,1.75,14.3,1.75,14.3s33.19-10.33,35.92,24.17h-60S223.63,150.06,226.06,140.56Z" style="fill:#e0e0e0"></path><path d="M78.73,307.9c2-1,6.53-1.85,10.47-5.82.36-4.92,6.89-10.84,17.63-10.2,11,.66,15.93,28.73,6.76,20.34,2.14,6.92,2.78,22.68,21.87,37.47,13.71,10.62,13.78,31.2,3,31.2H86.25c-4.78,0,0-8.95,5.48-8.23,5-3.58,4.06-25.54,4.06-25.54s-7.5-22-2.47-29.56C87.5,320.52,74.26,317.86,78.73,307.9Z" style="fill:#e0e0e0"></path><path d="M158.54,346.53c3.81,11.28-1.08,25.15-15.76,22.16l1.08,3C160.17,381.19,175.67,360,158.54,346.53Z" style="fill:#e0e0e0"></path><path d="M176.16,273.6V380.46H54.93V273.6H176.16m1.94-1.93H53V382.4H178.1V271.67Z" style="fill:#f0f0f0"></path><rect x="58.04" y="271.67" width="1.93" height="110.73" style="fill:#f0f0f0"></rect><rect x="80.65" y="271.67" width="1.93" height="110.73" style="fill:#f0f0f0"></rect><rect x="103.27" y="271.67" width="1.93" height="110.73" style="fill:#f0f0f0"></rect><rect x="125.89" y="271.67" width="1.93" height="110.73" style="fill:#f0f0f0"></rect><rect x="148.51" y="271.67" width="1.93" height="110.73" style="fill:#f0f0f0"></rect><rect x="171.12" y="271.67" width="1.93" height="110.73" style="fill:#f0f0f0"></rect><rect x="53.62" y="327.03" width="18.71" height="18.17" style="fill:#f0f0f0"></rect><path d="M310.62,273.6V380.46H189.38V273.6H310.62m1.93-1.93H187.45V382.4h125.1V271.67Z" style="fill:#f0f0f0"></path><rect x="192.49" y="271.67" width="1.93" height="110.73" style="fill:#f0f0f0"></rect><rect x="215.1" y="271.67" width="1.93" height="110.73" style="fill:#f0f0f0"></rect><rect x="237.72" y="271.67" width="1.93" height="110.73" style="fill:#f0f0f0"></rect><rect x="260.34" y="271.67" width="1.93" height="110.73" style="fill:#f0f0f0"></rect><rect x="282.96" y="271.67" width="1.93" height="110.73" style="fill:#f0f0f0"></rect><rect x="305.58" y="271.67" width="1.93" height="110.73" style="fill:#f0f0f0"></rect><rect x="188.07" y="327.03" width="18.71" height="18.17" style="fill:#f0f0f0"></rect><path d="M445.07,273.6V380.46H323.84V273.6H445.07m1.93-1.93H321.9V382.4H447V271.67Z" style="fill:#f0f0f0"></path><rect x="326.94" y="271.67" width="1.93" height="110.73" style="fill:#f0f0f0"></rect><rect x="349.55" y="271.67" width="1.93" height="110.73" style="fill:#f0f0f0"></rect><rect x="372.17" y="271.67" width="1.93" height="110.73" style="fill:#f0f0f0"></rect><rect x="394.79" y="271.67" width="1.93" height="110.73" style="fill:#f0f0f0"></rect><rect x="417.41" y="271.67" width="1.93" height="110.73" style="fill:#f0f0f0"></rect><rect x="440.03" y="271.67" width="1.93" height="110.73" style="fill:#f0f0f0"></rect><rect x="322.52" y="327.03" width="18.71" height="18.17" style="fill:#f0f0f0"></rect><path d="M176.16,162.87V269.73H54.93V162.87H176.16m1.94-1.94H53V271.66H178.1V160.93Z" style="fill:#f0f0f0"></path><rect x="58.04" y="160.93" width="1.93" height="110.73" style="fill:#f0f0f0"></rect><rect x="80.65" y="160.93" width="1.93" height="110.73" style="fill:#f0f0f0"></rect><rect x="103.27" y="160.93" width="1.93" height="110.73" style="fill:#f0f0f0"></rect><rect x="125.89" y="160.93" width="1.93" height="110.73" style="fill:#f0f0f0"></rect><rect x="148.51" y="160.93" width="1.93" height="110.73" style="fill:#f0f0f0"></rect><rect x="171.12" y="160.93" width="1.93" height="110.73" style="fill:#f0f0f0"></rect><rect x="53.62" y="216.3" width="18.71" height="18.17" style="fill:#f0f0f0"></rect><path d="M310.62,162.87V269.73H189.38V162.87H310.62m1.93-1.94H187.45V271.66h125.1V160.93Z" style="fill:#f0f0f0"></path><rect x="192.49" y="160.93" width="1.93" height="110.73" style="fill:#f0f0f0"></rect><rect x="215.1" y="160.93" width="1.93" height="110.73" style="fill:#f0f0f0"></rect><rect x="237.72" y="160.93" width="1.93" height="110.73" style="fill:#f0f0f0"></rect><rect x="260.34" y="160.93" width="1.93" height="110.73" style="fill:#f0f0f0"></rect><rect x="282.96" y="160.93" width="1.93" height="110.73" style="fill:#f0f0f0"></rect><rect x="305.58" y="160.93" width="1.93" height="110.73" style="fill:#f0f0f0"></rect><rect x="188.07" y="216.3" width="18.71" height="18.17" style="fill:#f0f0f0"></rect><path d="M445.07,162.87V269.73H323.84V162.87H445.07m1.93-1.94H321.9V271.66H447V160.93Z" style="fill:#f0f0f0"></path><rect x="326.94" y="160.93" width="1.93" height="110.73" style="fill:#f0f0f0"></rect><rect x="349.55" y="160.93" width="1.93" height="110.73" style="fill:#f0f0f0"></rect><rect x="372.17" y="160.93" width="1.93" height="110.73" style="fill:#f0f0f0"></rect><rect x="394.79" y="160.93" width="1.93" height="110.73" style="fill:#f0f0f0"></rect><rect x="417.41" y="160.93" width="1.93" height="110.73" style="fill:#f0f0f0"></rect><rect x="440.03" y="160.93" width="1.93" height="110.73" style="fill:#f0f0f0"></rect><rect x="322.52" y="216.3" width="18.71" height="18.17" style="fill:#f0f0f0"></rect><path d="M176.16,85.38V159H54.93V85.38H176.16m1.94-1.94H53V161H178.1V83.44Z" style="fill:#f0f0f0"></path><rect x="58.04" y="83.45" width="1.93" height="77.51" style="fill:#f0f0f0"></rect><rect x="80.65" y="83.45" width="1.93" height="77.51" style="fill:#f0f0f0"></rect><rect x="103.27" y="83.45" width="1.93" height="77.51" style="fill:#f0f0f0"></rect><rect x="125.89" y="83.45" width="1.93" height="77.51" style="fill:#f0f0f0"></rect><rect x="148.51" y="83.45" width="1.93" height="77.51" style="fill:#f0f0f0"></rect><rect x="171.12" y="83.45" width="1.93" height="77.51" style="fill:#f0f0f0"></rect><rect x="53.62" y="105.6" width="18.71" height="18.17" style="fill:#f0f0f0"></rect><path d="M310.62,85.38V159H189.38V85.38H310.62m1.93-1.94H187.45V161h125.1V83.44Z" style="fill:#f0f0f0"></path><rect x="192.49" y="83.45" width="1.93" height="77.51" style="fill:#f0f0f0"></rect><rect x="215.1" y="83.45" width="1.93" height="77.51" style="fill:#f0f0f0"></rect><rect x="237.72" y="83.45" width="1.93" height="77.51" style="fill:#f0f0f0"></rect><rect x="260.34" y="83.45" width="1.93" height="77.51" style="fill:#f0f0f0"></rect><rect x="282.96" y="83.45" width="1.93" height="77.51" style="fill:#f0f0f0"></rect><rect x="305.58" y="83.45" width="1.93" height="77.51" style="fill:#f0f0f0"></rect><rect x="188.07" y="105.6" width="18.71" height="18.17" style="fill:#f0f0f0"></rect><path d="M445.07,85.38V159H323.84V85.38H445.07M447,83.44H321.9V161H447V83.44Z" style="fill:#f0f0f0"></path><rect x="326.94" y="83.45" width="1.93" height="77.51" style="fill:#f0f0f0"></rect><rect x="349.55" y="83.45" width="1.93" height="77.51" style="fill:#f0f0f0"></rect><rect x="372.17" y="83.45" width="1.93" height="77.51" style="fill:#f0f0f0"></rect><rect x="394.79" y="83.45" width="1.93" height="77.51" style="fill:#f0f0f0"></rect><rect x="417.41" y="83.45" width="1.93" height="77.51" style="fill:#f0f0f0"></rect><rect x="440.03" y="83.45" width="1.93" height="77.51" style="fill:#f0f0f0"></rect><rect x="322.52" y="105.6" width="18.71" height="18.17" style="fill:#f0f0f0"></rect></g><g id="freepik--Shadow--inject-3"><ellipse id="freepik--path--inject-3" cx="250" cy="416.24" rx="193.89" ry="11.32" style="fill:#f5f5f5"></ellipse></g><g id="freepik--character-1--inject-3"><path d="M133.45,108.66c-9.62,6.88,6.48,21.29-7.87,24.53s-4,28.35,9.75,29.83,39.59,5.43,42.92-15.1c3-18.74-6.55-18.51-5.37-26.27,1.44-9.47-1.29-15.45-10-20.49C151,94.22,130.45,93.2,133.45,108.66Z" style="fill:#263238"></path><path d="M179.37,411.69c-8.51-.65-12.9-6.47-12.59-12.64.16-3.4-10.72-3.7-10.72-3.7,2.23,10.54.14,12-.44,14.77s-.26,5.73,2,5.79c2.7.06,3.93-.45,7.28-.32,3.92.15,6.56.31,13.51.32C181.18,415.91,183.15,412,179.37,411.69Z" style="fill:#407BFF"></path><path d="M177.82,213.17s.84,49.39-4.57,86.6c-.2,31.49-5.73,100.72-5.73,100.72a23.54,23.54,0,0,1-11.28-.11s-16-50.56-10.91-101.14c-8-53-7.74-86.07-7.74-86.07Z" style="fill:#263238"></path><path d="M138.54,237.74c1,14.83,2.9,35.82,6.79,61.49-.38,3.8-.65,7.61-.8,11.39C161.49,280.13,163.55,232,138.54,237.74Z" style="opacity:0.2"></path><path d="M111.67,410.82a46.54,46.54,0,0,1,1-13.23s-9.39-2-9.69,1.28c-.53,6-3.87,11.58-11.27,12.55-4.23.55-2.65,4.49.37,4.49,7.56,0,5-.12,9.29-.27,3.67-.12,4.41.33,7.36.27C111.14,415.86,111.69,413.51,111.67,410.82Z" style="fill:#407BFF"></path><path d="M163.17,213.17s-14.38,68.64-23.85,98c-9.93,30.79-25.88,86.95-26,89.26-4.35.82-8.44,1.12-11.84,0,0,0-5.54-63.14,7.18-96.57,3.2-69.78,22-90.64,22-90.64Z" style="fill:#263238"></path><path d="M165.85,149.62a.27.27,0,0,1-.23-.12c-.11-.16-.24-.32-.36-.48-.83-1.07-1.85-2.4-.84-3.94,1.18-1.79,3.62-1.18,5.41-.73l.74.18a6.16,6.16,0,0,0,4.08-.17c1.62-.8,2.52-2.48,3.39-4.12a14.59,14.59,0,0,1,1.93-3c.21-.24.43-.47.66-.7a7.64,7.64,0,0,0,2-2.87.26.26,0,0,1,.34-.18.28.28,0,0,1,.19.35,8,8,0,0,1-2.16,3.09l-.64.68a14,14,0,0,0-1.85,2.9c-.91,1.71-1.85,3.48-3.64,4.36a6.68,6.68,0,0,1-4.44.21l-.76-.18c-1.71-.43-3.84-1-4.81.5-.79,1.2,0,2.22.82,3.29.12.17.25.33.37.49a.28.28,0,0,1-.06.39A.27.27,0,0,1,165.85,149.62Z" style="fill:#fff"></path><path d="M189.45,142.14l-2-3.58a8.51,8.51,0,0,0-3-3.16l-2.4-1.46a3.85,3.85,0,0,0-4.88.73l-1.86,2.09a3.84,3.84,0,0,0,.35,5.47l1.79,1.56s4.46,4.94,9.66,5.91l.92-1.17A7.28,7.28,0,0,0,189.45,142.14Z" style="fill:#ffc3bd"></path><path d="M175.94,155.28l.93,1.18c.36.45.74.91,1.13,1.36.79.9,1.58,1.8,2.42,2.64a40.46,40.46,0,0,0,5.19,4.55,25.21,25.21,0,0,0,5.44,3.09,21,21,0,0,0,2.74.85,10.59,10.59,0,0,0,1.37.23l.17,0h.09s.09,0,0,0h-.22l-.46,0-.51.09a5.33,5.33,0,0,0-1.19.39,6,6,0,0,0-1.23.7,6.29,6.29,0,0,0-1,.9,6.48,6.48,0,0,0-.66.89,7.21,7.21,0,0,0-.37.74,5.23,5.23,0,0,0-.19.55,2.7,2.7,0,0,0-.08.39,1.57,1.57,0,0,0,0,.37c0,.17,0,.09.06,0a5.79,5.79,0,0,0,0-1.16,29.71,29.71,0,0,0-.62-3.46c-.54-2.5-1.29-5.13-2.06-7.78l-4.92-16.12,0-.05a4.24,4.24,0,0,1,7.53-3.66,129.29,129.29,0,0,1,9.06,15.15,88.5,88.5,0,0,1,3.77,8.33,43.45,43.45,0,0,1,1.55,4.82,21,21,0,0,1,.55,3.08,13.37,13.37,0,0,1,0,2.15,10.09,10.09,0,0,1-.78,3.39,9.81,9.81,0,0,1-.61,1.21,9,9,0,0,1-2.37,2.58,8.78,8.78,0,0,1-1.69,1,8.34,8.34,0,0,1-1.7.54,7.42,7.42,0,0,1-.78.13q-.36,0-.72.06l-.51,0h-.54c-1,0-1.94,0-2.9-.1a30.68,30.68,0,0,1-5.61-1,37.07,37.07,0,0,1-9.86-4.48,48.2,48.2,0,0,1-8-6.38c-1.18-1.18-2.32-2.39-3.38-3.67-.53-.64-1.05-1.29-1.56-2l-.75-1.05-.39-.55-.45-.68a8.44,8.44,0,0,1,13.62-9.93Z" style="fill:#ffc3bd"></path><path d="M179.74,165.08c-.17,4,6.17,13.31-1.66,18.69,1.46,3.27,2.7,25.44-.26,29.4-4.32,3.18-27.71,2.56-47.1,0-.82-8,3.59-24.62-1.81-50.51A10.31,10.31,0,0,1,138,150.28c1.63-.17,3.35-.3,5.12-.39a130.36,130.36,0,0,1,18.55,0c2,.18,4.07.44,6,.72A14,14,0,0,1,179.74,165.08Z" style="fill:#407BFF"></path><path d="M142.53,129c1.48,6,2.92,15.71.57,20.89,0,0,7.89.39,19.15,9.38,5.3-7.79.09-9.31.09-9.31-4.68-1.1-5.43-6.79-5.42-11.23Z" style="fill:#ffc3bd"></path><path d="M156.92,138.73l-8.18-5.53a7.31,7.31,0,0,0,.73,3.63,15.52,15.52,0,0,0,7.92,7.1A25,25,0,0,1,156.92,138.73Z" style="opacity:0.2"></path><path d="M138.64,118.06c2.33,9.7,3.11,13.86,8.87,18,8.65,6.28,19.82,1.32,20.38-8.88.51-9.18-3.38-23.51-13.49-25.75S136.32,108.35,138.64,118.06Z" style="fill:#ffc3bd"></path><path d="M153.19,122.11c.14.8.68,1.37,1.2,1.28s.83-.82.69-1.61-.68-1.38-1.2-1.28S153.05,121.31,153.19,122.11Z" style="fill:#263238"></path><path d="M163,120.51c.14.8.68,1.37,1.2,1.28s.83-.82.69-1.61-.68-1.38-1.2-1.28S162.9,119.71,163,120.51Z" style="fill:#263238"></path><path d="M163.5,119l1.82-.89S164.61,119.76,163.5,119Z" style="fill:#263238"></path><path d="M160.65,121.16a22,22,0,0,0,3.75,4.6,3.47,3.47,0,0,1-2.75,1Z" style="fill:#ed847e"></path><path d="M157.58,130.56a8.26,8.26,0,0,0,1.36-.12.24.24,0,0,0,.19-.28.23.23,0,0,0-.27-.19,6.43,6.43,0,0,1-5.6-1.56.24.24,0,0,0-.34,0,.24.24,0,0,0,0,.33A6.63,6.63,0,0,0,157.58,130.56Z" style="fill:#263238"></path><path d="M137.93,127.1a6.44,6.44,0,0,0,3.94,3.51c2.21.61,3.31-1.82,2.68-4.28-.57-2.22-2.4-5.21-4.62-4.73S136.91,124.92,137.93,127.1Z" style="fill:#ffc3bd"></path><path d="M150.4,117.11a.47.47,0,0,0,.28-.24,3.83,3.83,0,0,1,2.7-2.14.47.47,0,1,0-.11-.94,4.71,4.71,0,0,0-3.44,2.65.48.48,0,0,0,.21.64A.5.5,0,0,0,150.4,117.11Z" style="fill:#263238"></path><path d="M166.67,114.52a.5.5,0,0,0,.31-.18.48.48,0,0,0-.09-.67,4.76,4.76,0,0,0-4.27-.85.48.48,0,1,0,.32.9,3.77,3.77,0,0,1,3.37.71A.48.48,0,0,0,166.67,114.52Z" style="fill:#263238"></path><path d="M153.65,120.58l1.83-.89S154.76,121.36,153.65,120.58Z" style="fill:#263238"></path><path d="M166.51,225.12s5.57-17.64-8.21-22c-8.42-2.64-11.4.72-11.4.72l2,16.8c5.64,6.61,15.59,9.86,22.78,11C176.91,232.52,166.51,225.12,166.51,225.12Z" style="fill:#e0e0e0"></path><path d="M151.37,178.57c-.51,6.35,12.57,9.23,16.81,8.41,0,0,4.54,5.19,7.73,3.38,1.39-.78-2.42-3.25-4.15-5.83s-8.47-3.73-9.9-6.91C159.34,172,152,171.2,151.37,178.57Z" style="fill:#fff"></path><path d="M141.73,179.84c-5.59,17.2-9.3,35.12-3.08,41.95S152.14,235,159.81,236c5.55.71-5.58-9-5.58-9s21-8.87,5.05-21.23c3.94-5.69.9-20.73,2.11-26.68S146.92,163.82,141.73,179.84Z" style="fill:#fff"></path><path d="M156.69,158.63c-.44-1.56,4-2,6.59-4.86,1.56,2.7-2.28,8.67-2.28,8.67S157.48,161.45,156.69,158.63Z" style="fill:#263238"></path><path d="M145.86,173.06c-.13-3.08-2.86-6.33-.92-11.21a10.75,10.75,0,0,1,11.29-6.56,9.64,9.64,0,0,1,8.38,9.06c.34,4.32-5.68,8.43-4.89,12.56S145.86,173.06,145.86,173.06Z" style="fill:#fff"></path><path d="M157.57,155.58c-1.33,1.42,3.16,3.8,5.37,3.84A9.4,9.4,0,0,0,157.57,155.58Z" style="fill:#e0e0e0"></path><path d="M139.14,261.75H139c-2.64-.05-4.9-1.75-6.22-4.65A1.37,1.37,0,0,1,135.3,256c.88,1.93,2.22,3,3.78,3a5.16,5.16,0,0,0,4.4-3.15c1.89-3.78.65-9.06-3.32-14.13-7.21-9.22-7.19-16-5.9-20,1.21-3.8,3.89-6.17,5.86-6.75a1.36,1.36,0,0,1,.78,2.61c-1.05.32-3.08,1.94-4,5-1.09,3.41-1,9.22,5.45,17.5,4.63,5.91,6,12.28,3.61,17A7.81,7.81,0,0,1,139.14,261.75Z" style="fill:#fff"></path><path d="M139.13,261.75c-2.61,0-5-1.68-6.32-4.65A1.37,1.37,0,0,1,135.3,256c1.09,2.41,2.95,3.48,4.95,2.87a1.36,1.36,0,0,1,.8,2.6A6.51,6.51,0,0,1,139.13,261.75Z" style="fill:#e0e0e0"></path><path d="M129.85,167.68a125.81,125.81,0,0,1,1.71,16.64c4.46-6.18,9.53-17.41,9.25-22.65Z" style="opacity:0.2"></path><path d="M157.45,184.59l4-5.41,7.4,8.22s-4.93,4.44-10.09,4.88L158,191A7.29,7.29,0,0,1,157.45,184.59Z" style="fill:#ffc3bd"></path><path d="M168.89,178.79l2.19,3.18a3.2,3.2,0,0,1-.79,4.44l-1.41,1-7.4-8.22,3.51-1.51A3.2,3.2,0,0,1,168.89,178.79Z" style="fill:#ffc3bd"></path><path d="M144.2,163.37l-.64,1.89-.67,2c-.43,1.36-.87,2.73-1.25,4.1-.81,2.74-1.48,5.48-2.06,8.18a56.63,56.63,0,0,0-1.06,7.79,20,20,0,0,0,.51,6.15l-1.59-2.38a3.62,3.62,0,0,0-1.69-.93c-.33,0-.35,0-.22.07a5.39,5.39,0,0,0,2,0,37.74,37.74,0,0,0,6.14-1.39c2.19-.63,4.43-1.4,6.69-2.19l6.79-2.45.14-.05a4.25,4.25,0,0,1,4.3,7.15,66.49,66.49,0,0,1-6.16,4.93,70.12,70.12,0,0,1-6.73,4.29,41.72,41.72,0,0,1-7.93,3.49,20.82,20.82,0,0,1-5.4,1,13,13,0,0,1-3.89-.43,11.16,11.16,0,0,1-4.89-2.76,6.83,6.83,0,0,1-1.46-2.08l-.13-.3a31.32,31.32,0,0,1-2.59-12.07c0-1.88,0-3.7.1-5.48s.35-3.51.6-5.22a86.31,86.31,0,0,1,2.14-9.94c.45-1.61.92-3.21,1.46-4.79.27-.79.54-1.58.83-2.37s.59-1.53,1-2.47a8.45,8.45,0,0,1,15.83,5.9Z" style="fill:#ffc3bd"></path><path d="M145,176.43c-3.58,5.26,5.15,14.48,8.55,17.13,0,0-.89,6.83,2.57,8,1.5.53.84-4,1.64-7s-2.39-9.69-2.32-13.17C155.53,175.31,149.14,170.32,145,176.43Z" style="fill:#263238"></path><path d="M149.47,158.32c.43-1.56-4-2-6.59-4.86-1.57,2.7,2.27,8.67,2.27,8.67S148.68,161.14,149.47,158.32Z" style="fill:#263238"></path><path d="M149.14,159.57c-.5,0-2.58.88-5.74-4-.74,2.22,2.6,6.63,2.6,6.63S148.7,162.05,149.14,159.57Z" style="fill:#fff;opacity:0.6000000000000001"></path><path d="M157.61,157.92a3.56,3.56,0,0,1,3.19.16c.56.38-.39,1.26-1,1.23S156.75,158.33,157.61,157.92Z" style="fill:#263238"></path><path d="M158.38,161.41a6.55,6.55,0,0,1-2.84-.82.17.17,0,1,1,.16-.3c2.15,1.09,3.44.88,3.94.33a1.29,1.29,0,0,0,0-1.57.18.18,0,0,1,0-.24.16.16,0,0,1,.23.05,1.6,1.6,0,0,1,0,2A1.94,1.94,0,0,1,158.38,161.41Z" style="fill:#263238"></path><path d="M162.21,161.53a5.37,5.37,0,0,1-2.3-1.11.17.17,0,1,1,.21-.27c.73.54,1.91,1.21,2.26,1,.14-.08.13-.35.09-.56a.16.16,0,0,1,.14-.19.15.15,0,0,1,.19.14q.12.68-.24.9A.68.68,0,0,1,162.21,161.53Z" style="fill:#263238"></path><path d="M154.67,156.23c-.71-.57-2.45-.07-2.51.74S155.94,157.24,154.67,156.23Z" style="fill:#263238"></path><path d="M159.7,156.52c.7-.29,2,.53,1.85,1.19S158.44,157,159.7,156.52Z" style="fill:#263238"></path><path d="M157.89,159.24a.13.13,0,0,1-.13.18.31.31,0,0,1-.26-.18.12.12,0,0,1,.12-.18A.31.31,0,0,1,157.89,159.24Z" style="fill:#263238"></path><path d="M156.57,158.77a.13.13,0,0,1-.13.18.32.32,0,0,1-.26-.17.12.12,0,0,1,.12-.18A.32.32,0,0,1,156.57,158.77Z" style="fill:#263238"></path><path d="M157.1,159.74a.12.12,0,0,1-.12.18.3.3,0,0,1-.26-.18.12.12,0,0,1,.12-.18A.3.3,0,0,1,157.1,159.74Z" style="fill:#263238"></path><path d="M162.2,159.2a.12.12,0,0,1-.13.17.32.32,0,0,1-.26-.17.12.12,0,0,1,.12-.18A.31.31,0,0,1,162.2,159.2Z" style="fill:#263238"></path><path d="M161.41,159.7c0,.09,0,.17-.12.17a.3.3,0,0,1-.26-.17.12.12,0,0,1,.12-.18A.31.31,0,0,1,161.41,159.7Z" style="fill:#263238"></path><circle cx="165.39" cy="150.17" r="2.69" style="fill:#263238"></circle><path d="M165.39,153.41a3.24,3.24,0,1,1,3.24-3.24A3.25,3.25,0,0,1,165.39,153.41Zm0-5.37a2.13,2.13,0,1,0,2.13,2.13A2.14,2.14,0,0,0,165.39,148Z" style="fill:#fff"></path><path d="M143.45,125c5.26-5.84,2-11.45,2-11.45s17.84-1,19.9-4.41c-2.07-7-9.47-12.59-21.93-7.72s-6.85,23.14-6.85,23.14Z" style="fill:#263238"></path></g><g id="freepik--character-2--inject-3"><path d="M332.78,409.42l-3.5-8.3a.8.8,0,0,1,.07-1.06l6.12-5.8a5,5,0,0,1,7,1.3c1.72,2.54,2.6,5.21,5.45,7.57,4.53,3.77,3,2.26,9.66,4.06,4,1.08,3.66,5.37,1.83,5.28-8.32-.43-15.84-.65-24.19-2A5.14,5.14,0,0,1,332.78,409.42Z" style="fill:#263238"></path><path d="M315.22,391.85c10.2-3.22,53.87-4.76,48.48-37l-39.36-2.7s-54.5,20-60.53,44.92c-7.73,31.94,69.13,15.16,69.13,15.16,3.87-.9,6.69-5.93,6.16-11.7C339.1,400.51,335.47,391.66,315.22,391.85Z" style="fill:#407BFF"></path><path d="M315.22,391.85c10.2-3.22,53.87-4.76,48.48-37l-39.36-2.7s-54.5,20-60.53,44.92c-7.73,31.94,69.13,15.16,69.13,15.16,3.87-.9,6.69-5.93,6.16-11.7C339.1,400.51,335.47,391.66,315.22,391.85Z" style="opacity:0.2"></path><path d="M375.36,410.53l-3.82-8.16a.79.79,0,0,1,0-1.06l5.89-6a5,5,0,0,1,7.06,1c1.82,2.48,2.81,5.11,5.74,7.36,4.68,3.6,3.07,2.15,9.81,3.68,4.08.93,3.86,5.24,2,5.21-8.33-.11-15.86,0-24.25-1.11A5.12,5.12,0,0,1,375.36,410.53Z" style="fill:#263238"></path><path d="M360.37,393.57c10.06-3.6,33.27-10.24,20.48-43.23l-41.93,4.32s-36.8,20.66-41.88,45.81c-6.5,32.22,78.58,12.85,78.58,12.85,3.83-1.05,6.46-6.18,5.71-11.93C381.33,401.39,380.59,392.61,360.37,393.57Z" style="fill:#407BFF"></path><path d="M327.38,289.09a47.53,47.53,0,0,1-5.74,9.49,75.7,75.7,0,0,1-6.82,7.69c-2.32,2.34-4.67,4.48-6.91,6.53s-4.36,4-6.18,5.89l-.66.69a6.52,6.52,0,0,1-2.69,1.69A42,42,0,0,1,286.77,323a75.54,75.54,0,0,1-10.61-.4c-3.44-.38-6.81-.92-10.13-1.62a93,93,0,0,1-9.87-2.63,4.51,4.51,0,0,1,1.39-8.78h.2c3.06,0,6.29,0,9.41-.08s6.24-.19,9.28-.44a82.62,82.62,0,0,0,8.81-1.06,31.43,31.43,0,0,0,7.35-2.12l-3.34,2.38c2.15-2.82,4.35-5.29,6.49-7.61s4.2-4.51,6.13-6.65,3.7-4.25,5.25-6.35a48.13,48.13,0,0,0,4-6.26l.08-.14a9,9,0,0,1,16.2,7.85Z" style="fill:#ffb573"></path><path d="M329.25,279.59c-2.33-7.3-9.64-17.18-26.78,9.86,4,9.92,19.74,19.63,19.74,19.63S334.79,296.94,329.25,279.59Z" style="fill:#263238"></path><path d="M262.2,312.57l-6.5-8-7.06,10.18s6.77,6.55,10.83,3.52Z" style="fill:#ffb573"></path><path d="M245,303.34l-1.87,4a3.59,3.59,0,0,0,1.21,4.47l4.26,2.93,7.06-10.18-5.83-2.89A3.58,3.58,0,0,0,245,303.34Z" style="fill:#ffb573"></path><path d="M321.44,270.93c14.34-3.48,20.51-3.89,31-4.18a21.76,21.76,0,0,1,22.46,22.14c-.32,33.92,5.4,53.62,6,61.45C358.5,365,326,364.84,320,358.83c-12.55-25.65-11.34-56.95-11.35-70.09C308.65,281.63,314,272.73,321.44,270.93Z" style="fill:#263238"></path><path d="M344.78,247.41c-.23,11.47,2.67,14.68,5,21.57-1,4.48-12.35,9.94-21.6,12.35-5.83-3-6.09-8-4.41-9.23,5.88-3.61,7.66-4.23,5-10.47Z" style="fill:#ffb573"></path><path d="M338.08,255l-3.74,1.7-5.58,4.95a16.16,16.16,0,0,1,1,2.95c3.09-.66,6.39-2.61,7.34-5.16A12.36,12.36,0,0,0,338.08,255Z" style="opacity:0.2"></path><path d="M315.94,222.78c-8.61,3.39-7.28,13.95.33,22C322.87,234.59,315.94,222.78,315.94,222.78Z" style="fill:#263238"></path><path d="M345.57,232.69c.32,11.38,1.08,18-4.13,24.3-7.83,9.44-22.31,5.39-26-5.7-3.35-10-3.31-26.91,7.39-32.32A15.7,15.7,0,0,1,345.57,232.69Z" style="fill:#ffb573"></path><path d="M345.17,245.62c-6.11.58-8.36-9.46-7.09-13.07s2.38-7.07-2.92-5.47-15.47,7.26-20.86,3.92c-5.67-3.52-9.29-13.76-2-18s11.85.36,11.85.36,7-8.9,19.84-5.17c7.79,2.27,4.78,7.84,4.78,7.84s9.93,2.73,6.49,13.42C352.31,238.56,347.84,238.69,345.17,245.62Z" style="fill:#263238"></path><path d="M351.09,243.06a10.71,10.71,0,0,1-4.73,6.75c-3.23,2-5.93-.62-5.94-4.21,0-3.22,1.64-8.16,5.31-8.71S351.81,239.64,351.09,243.06Z" style="fill:#ffb573"></path><path d="M329.59,241.16c.15.91-.21,1.73-.81,1.82s-1.21-.57-1.36-1.48.22-1.73.81-1.83S329.44,240.25,329.59,241.16Z" style="fill:#263238"></path><path d="M317.65,242.57c.15.92-.21,1.73-.81,1.83s-1.21-.57-1.36-1.49.21-1.73.81-1.82S317.5,241.66,317.65,242.57Z" style="fill:#263238"></path><path d="M321.43,241.07s-1.21,5.6-3.08,8.5c1.87,1.25,4.51.14,4.51.14Z" style="fill:#ed893e"></path><path d="M327.24,252.05a7.5,7.5,0,0,0,4.68-3.8.27.27,0,0,0-.5-.22,7.29,7.29,0,0,1-5.45,3.75.26.26,0,0,0-.22.31.27.27,0,0,0,.31.23A9.74,9.74,0,0,0,327.24,252.05Z" style="fill:#263238"></path><path d="M331.94,236.06a.58.58,0,0,0,.24-.14.54.54,0,0,0,0-.77,5.42,5.42,0,0,0-4.75-1.53.53.53,0,0,0-.4.65.55.55,0,0,0,.65.41h0a4.34,4.34,0,0,1,3.75,1.25A.55.55,0,0,0,331.94,236.06Z" style="fill:#263238"></path><path d="M312.89,237.9a.53.53,0,0,0,.42-.29,4.3,4.3,0,0,1,3.14-2.34.54.54,0,0,0,.49-.59.55.55,0,0,0-.6-.49,5.35,5.35,0,0,0-4,2.91.55.55,0,0,0,.23.74A.56.56,0,0,0,312.89,237.9Z" style="fill:#263238"></path><path d="M370.71,280.34a35.55,35.55,0,0,1,.65,7.83,52.53,52.53,0,0,1-.67,7,75.94,75.94,0,0,1-3.3,12.84,90.08,90.08,0,0,1-5.1,11.93c-1,1.94-2.06,3.87-3.29,5.78a49.94,49.94,0,0,1-4.28,5.8l-.3.34a6,6,0,0,1-.73.7,22.43,22.43,0,0,1-8.05,4,38.78,38.78,0,0,1-7.23,1.2,67.62,67.62,0,0,1-13.06-.44,115.13,115.13,0,0,1-24-5.76,4.49,4.49,0,0,1,1.89-8.7h.16c3.72.3,7.62.6,11.4.76s7.57.26,11.25.15a65,65,0,0,0,10.49-1,22.92,22.92,0,0,0,4.29-1.21,6.55,6.55,0,0,0,2.34-1.43l-1,1a37.58,37.58,0,0,0,2.38-4c.76-1.5,1.54-3.07,2.23-4.69a93,93,0,0,0,3.64-10,72,72,0,0,0,2.32-10.12,31.13,31.13,0,0,0,.29-8.68l0-.3a9,9,0,0,1,17.74-3.1Z" style="fill:#ffb573"></path><path d="M228,414.43c-18.68,1.22-34.71-11.87-32.5-34.58C205.72,399.73,221.49,412.26,228,414.43Z" style="fill:#263238"></path><path d="M228,414.43c-18.4-3.45-30.69-20.11-22.92-41.56C210.06,394.66,222.23,410.71,228,414.43Z" style="fill:#263238;opacity:0.1"></path><path d="M228,414.43c-17.68,6.18-36.63-2.14-40.58-24.6C202.59,406.25,221.15,414.09,228,414.43Z" style="fill:#263238;opacity:0.1"></path><path d="M281.06,330.71s9.2,46.8,1.26,81c5.25,0,6,5.52,2.86,8.64H221.07a8.52,8.52,0,0,1-8.51-8.91c.58-13.07,5.93-31.23,21.23-38.31,3.87-11.87,12.83-35.94,8.87-49.82S256.9,296.28,271,306c9.2-3.26,25.59-15.69,30.29-1.62S281.06,330.71,281.06,330.71Z" style="fill:#263238"></path><path d="M288.88,326c6.87-2.42,18.15-3.44,11.46-13.83C288.73,313.08,288.88,326,288.88,326Z" style="fill:#263238"></path><path d="M257.17,416.45l-.13,0a.45.45,0,0,1-.3-.56,4.2,4.2,0,0,0-1-3.8c-2-2.51-6.14-4.06-10-3.76a.44.44,0,0,1-.39-.18.47.47,0,0,1-.06-.43c6.61-17.89-4.36-28.91-4.47-29a.45.45,0,0,1,.63-.64c.12.11,11.24,11.25,4.91,29.33,4-.1,8,1.51,10.1,4.13a5,5,0,0,1,1.18,4.62A.44.44,0,0,1,257.17,416.45Z" style="fill:#fff;opacity:0.2"></path><path d="M294.14,298.43c-4.53-.59-8.17,2.83-4.17,4.67s.62-1.94,2.64-.61,4.29,1.86,4.73.61-.42-1.58-.89-2.34,2.24.63,1.68-.26A6.19,6.19,0,0,0,294.14,298.43Z" style="fill:#fff"></path><path d="M295.49,310.77c4.68,3.5,3,8.27,7.54,7,2.19-.63,2.65-6.9-1.27-10-1.36.9-3.05-1.32-3.05-1.32S297.9,309.77,295.49,310.77Z" style="fill:#ed847e"></path><path d="M290,312.62c-.51,0-.84,0-.89,0a.45.45,0,0,1-.4-.5.46.46,0,0,1,.49-.4c.06,0,5.75.55,8.38-3.53a2.44,2.44,0,0,0,.39-1.93,5.52,5.52,0,0,0-2.34-2.78.45.45,0,0,1-.16-.61.45.45,0,0,1,.62-.16,6.29,6.29,0,0,1,2.75,3.34,3.33,3.33,0,0,1-.5,2.63C296.05,312.2,291.85,312.62,290,312.62Z" style="fill:#fff"></path><path d="M301,308.44c-1.5,0-2.89-2-3-2.23a.45.45,0,1,1,.74-.5c.33.47,1.44,1.82,2.29,1.82h0c.11,0,.47,0,.84-.67a.45.45,0,1,1,.78.45,1.89,1.89,0,0,1-1.59,1.12Z" style="fill:#fff"></path><path d="M264.43,306.18c-3.85-3.42-10.81.38-10,5.62S271.27,312.25,264.43,306.18Z" style="fill:#fff"></path><path d="M263.21,306.79c-.77-1.17-2.66-.15-2.72,1.52S264.58,308.86,263.21,306.79Z" style="fill:#263238"></path><path d="M266.94,304.94c-.31,1.36,1.73,2,3,.93S267.5,302.52,266.94,304.94Z" style="fill:#263238"></path><path d="M248.77,311.6c-1.11-9.43-17.21,9.77-16.11,21.88s11.71,10.82,14.71,9.91S249.78,320,248.77,311.6Z" style="fill:#263238"></path><path d="M248.77,311.6c-1.11-9.43-17.21,9.77-16.11,21.88s11.71,10.82,14.71,9.91S249.78,320,248.77,311.6Z" style="fill:#fff;opacity:0.8"></path><path d="M278.13,420.37H262.39c-1.48-3.71-9.34-23.94-8.39-32.73a8.1,8.1,0,0,0-2.12,3,6.59,6.59,0,0,1,2-6.23c-.76-.47-2.35.35-2.35.35A5.42,5.42,0,0,1,254,381.3a5.46,5.46,0,0,1-1-1.47c-4.68-8.86-1.67-19.74,6.49-25.57,4.95-3.55,10.71-3.41,12,7.29s-4.39,40.43,1.28,53.77C276.46,414.78,277.77,418.83,278.13,420.37Z" style="fill:#fff"></path><path d="M266.32,333.9c-4.35,0-8.68-1.3-10.58-3.71a.45.45,0,0,1,.08-.63.46.46,0,0,1,.63.07c3,3.84,13.23,4.56,18.2,1.28a.45.45,0,1,1,.5.75A16.49,16.49,0,0,1,266.32,333.9Z" style="fill:#fff;opacity:0.2"></path><path d="M305.91,323.12,296,320.2l0,12.38s9.29,1.56,10.92-3.24Z" style="fill:#ffb573"></path><path d="M286.54,325.25l.72,4.34a3.57,3.57,0,0,0,3.53,3H296l0-12.38-6.44.92A3.59,3.59,0,0,0,286.54,325.25Z" style="fill:#ffb573"></path><path d="M367.12,272.93c-6.18-4.52-17.36-.88-19.35,24.91,9.34,5.2,25.49,0,25.49,0S378.1,280.93,367.12,272.93Z" style="fill:#263238"></path></g></svg>