<svg width="138" height="138" viewBox="0 0 138 138" fill="none" xmlns="http://www.w3.org/2000/svg">
<g clip-path="url(#clip0_17_110)">
<path d="M114.938 25.3122C113.903 27.0182 112.542 28.5035 110.933 29.6834C109.324 30.8633 107.498 31.7147 105.56 32.1889C103.622 32.6632 101.609 32.7511 99.6366 32.4475C97.6645 32.1441 95.7714 31.455 94.0654 30.4198C90.6203 28.3292 88.1466 24.9556 87.1888 21.0411C86.2309 17.1268 86.8674 12.9922 88.9579 9.54694L73.2328 0C68.7942 7.32926 67.323 16.0773 69.1201 24.4553C70.9173 32.8332 75.8471 40.2082 82.9012 45.072C89.9555 49.936 98.6014 51.9214 107.071 50.6223C115.54 49.3231 123.194 44.8377 128.466 38.0832L114.938 25.3122Z" fill="#FC637D"/>
<path d="M33.7894 95.6747C35.2453 95.6747 36.4256 94.4944 36.4256 93.0383C36.4256 91.5824 35.2453 90.4021 33.7894 90.4021C32.3334 90.4021 31.1531 91.5824 31.1531 93.0383C31.1531 94.4944 32.3334 95.6747 33.7894 95.6747Z" fill="#FC637D"/>
<path d="M39.8144 104.252C41.2704 104.252 42.4507 103.071 42.4507 101.615C42.4507 100.159 41.2704 98.979 39.8144 98.979C38.3585 98.979 37.1782 100.159 37.1782 101.615C37.1782 103.071 38.3585 104.252 39.8144 104.252Z" fill="#FC637D"/>
<path d="M35.2865 114.068C36.7426 114.068 37.9229 112.888 37.9229 111.432C37.9229 109.976 36.7426 108.796 35.2865 108.796C33.8306 108.796 32.6503 109.976 32.6503 111.432C32.6503 112.888 33.8306 114.068 35.2865 114.068Z" fill="#FC637D"/>
<path d="M86.4103 116.701C87.8662 116.701 89.0465 115.52 89.0465 114.064C89.0465 112.608 87.8662 111.428 86.4103 111.428C84.9543 111.428 83.774 112.608 83.774 114.064C83.774 115.52 84.9543 116.701 86.4103 116.701Z" fill="#FC637D"/>
<path d="M87.976 106.304C89.4319 106.304 90.6122 105.124 90.6122 103.668C90.6122 102.212 89.4319 101.032 87.976 101.032C86.5199 101.032 85.3396 102.212 85.3396 103.668C85.3396 105.124 86.5199 106.304 87.976 106.304Z" fill="#FC637D"/>
<path d="M75.5673 120.037C75.4425 111.476 74.1304 103.133 71.1399 95.0831C70.4299 93.1703 69.5713 91.3158 68.572 89.5369C64.9497 83.065 58.5099 82.9564 54.6823 89.4001C51.06 95.5098 49.3655 102.304 48.7014 109.307C48.2304 114.225 48.2224 119.184 47.9648 124.122C47.9072 126.271 47.7259 128.414 47.4215 130.542C46.8217 134.084 44.9623 136.76 41.3036 137.67C37.6451 138.58 34.4615 137.67 32.0143 134.732C27.6313 129.455 25.1721 123.229 24.2746 116.564C23.2681 109.112 22.6488 101.613 22.419 94.0971C22.1454 85.0653 20.0766 76.6615 15.4118 68.9378C11.0012 61.7677 8.55027 53.5654 8.30395 45.1508C7.7767 29.1361 15.9511 18.7077 31.9097 16.1478C41.3842 14.6305 50.75 15.1456 59.8542 18.599C60.9812 19.0297 62.567 18.8485 63.7583 18.4299C74.3196 14.7472 85.0055 14.0952 95.7558 17.2748C108.607 21.0743 114.995 30.0255 114.894 43.3599C114.826 52.0293 113.091 60.2119 108.454 67.6538C103.085 76.2911 100.992 85.7093 100.614 95.8519C100.246 104.53 99.2137 113.167 97.5268 121.687C96.7218 125.845 94.1621 129.761 91.9564 133.529C89.8796 137.07 86.4545 138.615 82.2968 137.734C78.1392 136.853 76.0704 133.903 75.6317 129.991C75.2734 126.711 75.5673 123.358 75.5673 120.037ZM69.9929 23.6945C71.7798 24.6523 73.5789 25.5902 75.3539 26.5722C77.0686 27.518 77.9902 28.9307 77.0644 30.8345C76.0421 32.9315 74.2471 32.9275 72.4037 31.9937C69.9123 30.7339 67.3847 29.5143 65.0141 28.0533C56.0387 22.5151 46.2583 21.0421 35.9103 21.8148C23.8882 22.7083 15.8144 29.2085 14.6632 39.5242C14.3211 42.5951 14.6109 45.7466 14.7438 48.8578C15.1462 58.779 21.7791 66.1647 25.3009 75.0917C28.726 72.9545 31.6038 73.5824 34.3246 75.9773C36.3049 77.716 38.4742 77.4986 40.539 76.0416C41.7465 75.1763 42.8854 74.158 44.1171 73.2926C50.6253 68.7244 55.5717 69.8353 59.6248 76.6815C60.0595 77.4181 60.8926 78.4726 61.5165 78.4565C65.8311 78.3398 69.0993 80.3845 71.9449 83.2502C77.7406 78.2432 79.6162 77.9936 85.8789 81.298C85.9996 81.0002 86.1365 80.7144 86.229 80.4126C88.9216 71.6586 89.1108 71.5257 98.3559 70.7852C99.0039 70.7329 99.8813 70.3826 100.195 69.8755C106.031 60.5701 109.903 50.7132 108.547 39.4437C107.867 33.8089 105.484 29.0756 100.497 26.1375C90.8576 20.4102 80.546 20.6476 69.9929 23.6945ZM30.9519 81.1653C29.5512 80.3603 27.6674 81.1653 27.4984 82.7752C27.4885 82.8876 27.4885 83.0008 27.4984 83.1133C28.0137 91.7989 28.5207 100.493 29.3458 109.15C30.022 116.246 31.3583 123.269 35.677 129.206C35.8969 129.491 36.1589 129.74 36.4538 129.946C36.9155 130.272 37.455 130.471 38.0179 130.522C38.5808 130.574 39.1473 130.476 39.6605 130.239C40.1736 130.002 40.6153 129.634 40.9413 129.172C41.2671 128.71 41.4657 128.171 41.517 127.608V127.564C41.9195 122.203 41.7303 116.789 42.2938 111.464C43.4007 100.879 45.0509 90.4224 52.5653 82.3003C53.1756 81.6674 53.5248 80.8276 53.5427 79.9485C53.5605 79.0695 53.246 78.2161 52.6619 77.559C51.4544 76.2831 50.1826 76.6292 47.7757 78.2996C47.4536 78.5249 46.9385 78.9194 46.6327 79.1608C40.543 83.9304 37.0414 84.6266 30.9599 81.1653H30.9519ZM95.945 79.6921C96.0658 77.9293 93.506 77.4463 93.0472 79.1528C93.049 79.173 93.049 79.1931 93.0472 79.2133C92.5682 81.0807 92.1053 82.9644 91.4816 84.7836C89.8152 89.6616 86.2008 90.5512 82.4014 87.0496C81.1939 85.9508 80.1113 84.4495 78.3404 85.9628C76.7304 87.3354 75.0038 88.6112 76.2475 91.3441C77.455 93.9642 78.2196 96.7898 79.0206 99.5709C81.6368 108.671 81.8823 117.985 81.6246 127.371C81.6191 127.612 81.6477 127.853 81.7092 128.087C82.3048 130.47 85.3839 131.238 87.1548 129.54C87.3036 129.396 87.4384 129.238 87.5572 129.069C91.9846 122.927 93.2484 115.694 93.8803 108.381C94.6852 98.935 95.2688 89.4846 95.945 79.6921Z" fill="#1947BA"/>
</g>
<defs>
<clipPath id="clip0_17_110">
<rect width="138" height="138" fill="white"/>
</clipPath>
</defs>
</svg>
