<svg width="422" height="444" viewBox="0 0 422 444" fill="none" xmlns="http://www.w3.org/2000/svg">
<g clip-path="url(#clip0_173_549)">
<path d="M399.34 113.25C386.43 119.94 376.52 131.45 369.4 144.12C362.28 156.79 357.69 170.7 353.15 184.51L349.17 255.72C364.2 230.17 376.26 200.14 379.51 170.68C376.18 170.38 372.84 170.09 369.51 169.79C376.21 168.77 381.84 163.91 385.42 158.16C389 152.4 390.84 145.76 392.64 139.23C388.57 139.83 384.51 140.44 380.44 141.04C389.99 134.67 396.92 124.48 399.33 113.25H399.34Z" fill="#E0E0E0"/>
<path d="M346.95 272.41C346.95 272.41 314.34 233.39 314.71 196.15H327.88C327.88 196.15 313.57 186.74 314.7 181.48C315.83 176.21 316.21 156.27 316.21 156.27L328.25 159.28C328.25 159.28 319.22 154.77 318.09 147.62C316.96 140.47 320.72 107.36 320.72 107.36C320.72 107.36 335.4 122.78 339.92 138.59C344.44 154.39 356.29 172.83 352.81 220.98C349.33 269.14 346.94 272.41 346.94 272.41H346.95Z" fill="#EBEBEB"/>
<path d="M363.48 276.09C363.48 276.09 398.81 252.56 406.66 222.54L396.07 219.66C396.07 219.66 409.63 215.23 409.88 210.75C410.12 206.27 414.18 190.15 414.18 190.15L403.84 189.94C403.84 189.94 412.09 188.29 414.56 182.79C417.03 177.29 421.25 149.85 421.25 149.85C421.25 149.85 406.07 159.04 398.98 170.76C391.89 182.48 378.32 194.7 370.58 234.18C362.84 273.66 363.47 276.1 363.47 276.1L363.48 276.09Z" fill="#EBEBEB"/>
<path d="M329.64 141.38C329.64 141.38 329.69 141.52 329.75 141.79C329.82 142.08 329.91 142.48 330.03 142.99C330.27 144.08 330.62 145.63 331.06 147.62C331.51 149.63 332.03 152.1 332.6 154.97C333.18 157.84 333.85 161.1 334.51 164.73C335.9 171.96 337.37 180.61 338.89 190.23C340.36 199.86 341.83 210.47 343.13 221.63C344.41 232.8 345.4 243.47 346.17 253.18C346.89 262.89 347.43 271.65 347.73 279.01C347.92 282.69 348 286.02 348.1 288.94C348.2 291.86 348.26 294.38 348.28 296.44C348.3 298.48 348.32 300.07 348.34 301.18C348.34 301.7 348.34 302.11 348.34 302.41C348.34 302.69 348.34 302.83 348.32 302.83C348.32 302.83 348.3 302.69 348.28 302.41C348.27 302.11 348.25 301.7 348.23 301.18C348.19 300.07 348.14 298.48 348.07 296.44C348.02 294.38 347.93 291.86 347.8 288.94C347.68 286.02 347.57 282.69 347.36 279.01C347.02 271.65 346.44 262.91 345.69 253.2C344.9 243.5 343.89 232.84 342.61 221.67C341.31 210.51 339.85 199.91 338.41 190.28C336.92 180.66 335.49 172.01 334.14 164.77C333.5 161.14 332.86 157.88 332.3 155C331.76 152.13 331.27 149.65 330.85 147.64C330.45 145.64 330.14 144.08 329.92 142.99C329.82 142.48 329.75 142.07 329.69 141.78C329.64 141.51 329.62 141.36 329.63 141.36L329.64 141.38Z" fill="#E0E0E0"/>
<path d="M342.42 296.3C342.42 296.3 312.58 262.45 303.31 241.99L310.31 239C305.24 239.84 300.04 237.66 296.11 234.35C292.18 231.04 289.29 226.69 286.46 222.4L295.68 220.84C287.3 218.49 279.92 212.77 275.54 205.25C286.41 207.04 296.25 213.01 304.36 220.47C310.93 226.51 316.49 233.53 321.82 240.7C324.42 244.2 326.7 247.92 328.6 251.85C333.61 262.21 342.43 283.86 342.42 296.29V296.3Z" fill="#EBEBEB"/>
<path d="M407.13 169.54C407.13 169.54 407.09 169.66 406.99 169.88C406.87 170.12 406.72 170.45 406.53 170.86C406.1 171.75 405.49 173 404.71 174.61C403.91 176.23 402.93 178.22 401.83 180.55C400.72 182.87 399.44 185.5 398.09 188.45C395.33 194.31 392.17 201.34 388.76 209.19C385.38 217.06 381.79 225.76 378.21 234.97C374.66 244.19 371.46 253.05 368.66 261.14C365.89 269.24 363.5 276.57 361.6 282.76C360.62 285.85 359.8 288.66 359.05 291.12C358.3 293.58 357.68 295.71 357.18 297.45C356.68 299.16 356.28 300.51 356 301.45C355.87 301.89 355.76 302.23 355.68 302.49C355.61 302.72 355.56 302.84 355.55 302.84C355.55 302.84 355.57 302.71 355.62 302.48C355.69 302.22 355.78 301.87 355.89 301.43C356.15 300.48 356.51 299.13 356.97 297.4C357.44 295.65 358.03 293.51 358.75 291.04C359.47 288.57 360.26 285.75 361.22 282.65C363.08 276.44 365.43 269.09 368.18 260.98C370.96 252.87 374.14 244.01 377.7 234.78C381.28 225.56 384.89 216.86 388.29 209C391.72 201.15 394.93 194.13 397.73 188.29C399.1 185.36 400.41 182.73 401.55 180.42C402.68 178.11 403.68 176.13 404.51 174.52C405.33 172.93 405.97 171.69 406.42 170.81C406.63 170.41 406.8 170.09 406.93 169.85C407.05 169.64 407.11 169.53 407.12 169.53L407.13 169.54Z" fill="#E0E0E0"/>
<path d="M344.96 310.8C344.96 310.8 344.9 310.59 344.83 310.18C344.76 309.71 344.66 309.12 344.55 308.38C344.44 307.6 344.3 306.64 344.09 305.54C343.89 304.44 343.7 303.17 343.4 301.79C342.87 299.02 342.1 295.74 341.13 292.14C340.12 288.55 338.89 284.64 337.38 280.61C335.85 276.59 334.19 272.83 332.57 269.47C330.92 266.12 329.33 263.16 327.9 260.73C327.21 259.5 326.52 258.42 325.94 257.46C325.36 256.5 324.84 255.69 324.41 255.03C324.01 254.4 323.69 253.89 323.43 253.49C323.21 253.14 323.1 252.94 323.12 252.93C323.13 252.92 323.27 253.09 323.52 253.43C323.79 253.81 324.14 254.31 324.58 254.91C325.04 255.55 325.59 256.35 326.19 257.3C326.8 258.25 327.51 259.31 328.22 260.53C329.7 262.94 331.33 265.9 333.01 269.25C334.66 272.61 336.34 276.38 337.88 280.42C339.4 284.47 340.62 288.4 341.61 292.01C342.56 295.63 343.29 298.92 343.78 301.71C344.06 303.1 344.22 304.37 344.39 305.48C344.57 306.59 344.68 307.55 344.76 308.34C344.84 309.08 344.9 309.68 344.95 310.15C344.99 310.56 345 310.78 344.98 310.79L344.96 310.8Z" fill="#E0E0E0"/>
<path d="M384.34 302.84H319.02V316.16H384.34V302.84Z" fill="#E0E0E0"/>
<path d="M325.24 316.16L332.31 360.95H371.78L378.36 316.16H325.24Z" fill="#E0E0E0"/>
<path d="M380.33 316.16C380.33 316.3 367.97 316.42 352.73 316.42C337.49 316.42 325.13 316.3 325.13 316.16C325.13 316.02 337.48 315.9 352.73 315.9C367.98 315.9 380.33 316.02 380.33 316.16Z" fill="#EBEBEB"/>
<path d="M277.85 59.8701C276.47 65.2801 273.49 69.1901 273.49 69.1901L277.78 73.2001L296.08 89.7101L295.65 89.9101C295.65 89.9101 311.49 78.8501 315.86 75.2401C319.47 72.2601 329.14 66.1201 329.92 60.1601C330.2 58.0101 329.04 55.8701 327.08 54.9301C325.96 54.3901 324.5 54.2001 322.9 55.2601C322.9 55.2601 327.16 50.2701 323.79 46.9801C320.42 43.7001 317.79 46.2701 317.79 46.2701C317.79 46.2701 321.96 39.9201 318.09 36.4001C318.09 36.4001 315.64 34.3101 312.44 36.1101L314.01 34.4301L322.11 25.7701C324.08 23.6601 324.18 20.3101 322.15 18.2601C320.04 16.1401 316.62 16.1901 314.57 18.3301L291.77 42.1101L292.93 29.1501C293.22 25.7801 288.67 23.3401 286.65 24.5801C286.65 24.5801 283.54 25.7901 282.69 31.0601C282.05 35.0001 277.83 59.8801 277.83 59.8801L277.85 59.8701Z" fill="#F5F5F5"/>
<path d="M277.85 59.87C277.85 59.87 277.87 59.65 277.93 59.22C278 58.77 278.09 58.15 278.22 57.33C278.49 55.65 278.89 53.21 279.39 50.06C279.91 46.9 280.55 43.03 281.29 38.54C281.66 36.29 282.06 33.89 282.48 31.33C282.69 30.05 282.99 28.71 283.65 27.47C284.29 26.23 285.21 25.06 286.6 24.37L286.57 24.39C287.37 23.94 288.33 23.97 289.17 24.21C290.02 24.45 290.82 24.89 291.5 25.49C292.18 26.08 292.75 26.86 293.03 27.77C293.1 28 293.12 28.24 293.17 28.47C293.17 28.71 293.17 28.95 293.17 29.19C293.13 29.64 293.09 30.1 293.05 30.56C292.73 34.24 292.39 38.1 292.04 42.11L291.63 41.92C297.99 35.28 304.95 28 312.36 20.26C312.82 19.78 313.29 19.29 313.75 18.8C314.21 18.33 314.67 17.79 315.27 17.38C316.45 16.57 317.96 16.23 319.39 16.49C320.82 16.73 322.15 17.58 322.98 18.79C323.82 20 324.11 21.57 323.83 23.02C323.69 23.75 323.41 24.45 323.01 25.08C322.61 25.73 322.06 26.22 321.59 26.74C320.61 27.78 319.63 28.83 318.65 29.89C316.68 32 314.69 34.13 312.68 36.28L312.33 35.84C313.43 35.22 314.87 34.86 316.24 35.21C316.8 35.34 317.34 35.55 317.83 35.84C318.07 35.98 318.34 36.17 318.51 36.39C318.69 36.61 318.92 36.8 319.07 37.04C319.75 37.97 320.05 39.13 320.05 40.24C320.03 42.49 319.17 44.56 318.06 46.41L317.63 46.05C318.74 45.06 320.34 44.76 321.7 45.25C322.38 45.47 322.97 45.87 323.51 46.3C323.77 46.53 324.04 46.74 324.26 47.02L324.6 47.42L324.87 47.88C325.6 49.13 325.48 50.66 325.08 51.93C324.66 53.22 323.99 54.37 323.15 55.42L322.79 55.01C323.95 54.18 325.57 53.94 326.89 54.51C328.21 55.03 329.27 56.09 329.82 57.37C330.09 58.01 330.25 58.69 330.26 59.39C330.29 60.09 330.09 60.75 329.94 61.4C329.52 62.68 328.82 63.81 328.06 64.86C324.86 68.98 320.68 71.82 316.93 74.72C313.22 77.72 309.47 80.36 305.94 82.91C302.38 85.42 298.99 87.81 295.8 90.07L295.59 89.71C295.74 89.64 295.88 89.58 296.02 89.51L295.97 89.85C288.63 83.19 282.5 77.63 277.72 73.29H277.91L277.82 73.39L277.72 73.3C276.05 71.72 274.68 70.43 273.45 69.27L273.38 69.2L273.44 69.12C275.38 66.42 276.41 64.01 277.04 62.39C277.35 61.57 277.55 60.94 277.68 60.51C277.81 60.08 277.89 59.87 277.89 59.87C277.89 59.87 277.73 60.78 277.15 62.44C276.55 64.08 275.56 66.51 273.62 69.26V69.11C274.85 70.26 276.23 71.54 277.91 73.1H277.71L277.8 73L277.9 73.09C282.71 77.4 288.87 82.93 296.25 89.55L296.48 89.76L296.19 89.89C296.05 89.95 295.92 90.02 295.76 90.09L295.55 89.73C298.73 87.47 302.11 85.07 305.66 82.54C309.19 79.98 312.92 77.33 316.61 74.33C320.37 71.42 324.51 68.57 327.62 64.55C328.35 63.53 329.02 62.44 329.41 61.24C329.55 60.63 329.73 60.02 329.7 59.4C329.69 58.78 329.54 58.16 329.3 57.59C328.8 56.44 327.84 55.49 326.67 55.03C325.5 54.54 324.14 54.74 323.08 55.48L321.5 56.59L322.72 55.07C323.5 54.1 324.15 52.97 324.54 51.77C324.91 50.59 325 49.24 324.37 48.16C323.76 47.11 322.68 46.21 321.52 45.79C320.35 45.35 318.95 45.64 318.03 46.46L316.64 47.69L317.6 46.1C318.65 44.35 319.48 42.32 319.5 40.25C319.54 38.2 318.25 36.12 316.14 35.76C314.92 35.46 313.64 35.77 312.63 36.34L311.04 37.22L312.28 35.89C314.29 33.74 316.28 31.61 318.25 29.5C319.24 28.45 320.22 27.4 321.19 26.35C321.68 25.81 322.19 25.34 322.54 24.77C322.9 24.2 323.16 23.57 323.29 22.91C323.55 21.59 323.29 20.18 322.54 19.1C321.79 18.01 320.6 17.25 319.31 17.03C318.02 16.8 316.66 17.09 315.6 17.83C315.07 18.18 314.64 18.69 314.16 19.18C313.69 19.67 313.23 20.15 312.76 20.63C305.34 28.36 298.36 35.62 291.99 42.25L291.51 42.74L291.57 42.06C291.94 38.05 292.29 34.19 292.62 30.51C292.68 29.58 292.89 28.68 292.62 27.88C292.38 27.06 291.86 26.35 291.23 25.8C290.6 25.25 289.85 24.83 289.07 24.6C288.29 24.38 287.44 24.37 286.79 24.73L286.76 24.75C285.55 25.34 284.61 26.47 284.01 27.65C283.37 28.84 283.07 30.13 282.86 31.39C282.42 33.94 282.01 36.35 281.62 38.59C280.84 43.08 280.18 46.94 279.63 50.1C279.08 53.23 278.65 55.67 278.35 57.35C278.2 58.16 278.09 58.78 278 59.23C277.92 59.65 277.86 59.87 277.86 59.87H277.85Z" fill="#E0E0E0"/>
<path d="M267.75 69.1318L267.539 69.3583C265.939 71.0689 266.03 73.752 267.74 75.3511L290.292 96.432C292.002 98.0311 294.685 97.9407 296.284 96.23L296.496 96.0036C298.095 94.2929 298.005 91.6098 296.294 90.0107L273.743 68.9299C272.032 67.3308 269.349 67.4212 267.75 69.1318Z" fill="#F5F5F5"/>
<path d="M290.27 96.4C290.27 96.4 290.51 96.6 291.02 96.89C291.52 97.17 292.36 97.51 293.47 97.41C294.01 97.36 294.61 97.2 295.19 96.87C295.76 96.54 296.3 96.01 296.74 95.38C297.62 94.14 297.78 92.04 296.52 90.54C290.6 85.02 282.49 77.46 273.54 69.11C272.49 68.12 270.92 67.79 269.59 68.24C268.93 68.47 268.34 68.85 267.87 69.37C267.37 69.88 267.02 70.46 266.83 71.12C266.44 72.43 266.79 73.88 267.66 74.85C268.61 75.8 269.65 76.73 270.61 77.64C274.47 81.28 277.96 84.57 280.9 87.34C283.78 90.09 286.13 92.32 287.8 93.92C288.58 94.68 289.2 95.28 289.66 95.73C290.08 96.15 290.29 96.37 290.28 96.39C290.27 96.41 290.03 96.21 289.58 95.81C289.1 95.38 288.46 94.8 287.65 94.08C285.95 92.52 283.56 90.33 280.62 87.64C277.65 84.89 274.14 81.64 270.25 78.03C269.27 77.11 268.28 76.23 267.25 75.21C266.25 74.11 265.85 72.46 266.29 70.97C266.5 70.23 266.92 69.53 267.46 68.99C267.97 68.41 268.67 67.96 269.42 67.7C270.94 67.19 272.74 67.56 273.94 68.69C282.91 77.1 291.03 84.64 296.85 90.28C298.21 91.96 297.99 94.24 297.01 95.56C296.52 96.23 295.96 96.75 295.33 97.1C294.71 97.44 294.07 97.59 293.49 97.62C292.33 97.68 291.47 97.29 290.97 96.97C290.47 96.64 290.28 96.38 290.28 96.38L290.27 96.4Z" fill="#E0E0E0"/>
<path d="M304.02 44.75C303.91 44.64 305.76 42.47 308.16 39.9C310.56 37.33 312.61 35.33 312.72 35.44C312.83 35.55 310.98 37.72 308.58 40.29C306.18 42.86 304.13 44.86 304.02 44.75Z" fill="#E0E0E0"/>
<path d="M312.63 51.61C312.52 51.5 313.58 50.18 315.01 48.65C316.44 47.12 317.69 45.97 317.81 46.08C317.92 46.19 316.86 47.51 315.43 49.04C314 50.57 312.75 51.72 312.63 51.61Z" fill="#E0E0E0"/>
<path d="M317.77 60.7701C317.66 60.6601 318.72 59.3401 320.15 57.8101C321.58 56.2801 322.83 55.1301 322.95 55.2401C323.07 55.3501 322 56.6701 320.57 58.2001C319.14 59.7301 317.89 60.8801 317.77 60.7701Z" fill="#E0E0E0"/>
<path d="M316.84 12.6C316.69 12.65 315.56 9.90998 314.32 6.47998C313.08 3.03998 312.19 0.219975 312.34 0.159975C312.49 0.109975 313.61 2.84998 314.86 6.27998C316.1 9.70998 316.99 12.54 316.84 12.59V12.6Z" fill="#E0E0E0"/>
<path d="M322.79 14.05C322.66 13.96 324.69 10.75 327.32 6.86999C329.95 2.98999 332.19 -0.0800141 332.32 0.00998595C332.45 0.099986 330.42 3.30999 327.79 7.18999C325.16 11.07 322.92 14.14 322.79 14.05Z" fill="#E0E0E0"/>
<path d="M327.12 19.1399C327.09 18.9899 330.08 18.2199 333.8 17.4399C337.52 16.6499 340.56 16.1399 340.6 16.2899C340.64 16.4399 337.64 17.2099 333.92 17.9899C330.2 18.7799 327.16 19.2899 327.13 19.1399H327.12Z" fill="#E0E0E0"/>
<path d="M40.4198 231.12L8.31982 360.94H16.7698L49.6698 231.12H40.4198Z" fill="#F5F5F5"/>
<path d="M100.9 231.12L130.94 360.94H122.49L91.6597 231.12H100.9Z" fill="#F5F5F5"/>
<path d="M75.7998 359.03H65.9597L64.4897 210.03H74.3298L75.7998 359.03Z" fill="#F5F5F5"/>
<path d="M138.83 122.52H0V211.46H138.83V122.52Z" fill="#EBEBEB"/>
<path d="M104.29 229.75H34.6099V238.34H104.29V229.75Z" fill="#F5F5F5"/>
<path d="M9.23014 199.86C9.23014 199.86 9.29014 200.37 9.33014 201.49H9.14014C9.00014 197.14 8.89014 182.73 8.89014 165.65C8.93014 155.34 8.96014 146.02 8.99014 139.15C9.03014 135.83 9.07014 133.11 9.10014 131.12C9.13014 130.23 9.15014 129.51 9.16014 128.94C9.18014 128.44 9.21014 128.18 9.23014 128.18C9.25014 128.18 9.28014 128.44 9.30014 128.94C9.32014 129.51 9.34014 130.24 9.36014 131.12C9.39014 133.11 9.42014 135.83 9.47014 139.15C9.50014 146.01 9.53014 155.34 9.57014 165.65C9.57014 182.73 9.47014 197.14 9.32014 201.49H9.13014C9.16014 200.37 9.19014 199.86 9.22014 199.86H9.23014Z" fill="#F5F5F5"/>
<path d="M19.5602 199.86C19.5602 199.86 19.6202 200.37 19.6602 201.49H19.4702C19.3302 197.14 19.2202 182.73 19.2202 165.65C19.2602 155.34 19.2902 146.02 19.3202 139.15C19.3602 135.83 19.4002 133.11 19.4302 131.12C19.4602 130.23 19.4802 129.51 19.4902 128.94C19.5102 128.44 19.5402 128.18 19.5602 128.18C19.5802 128.18 19.6102 128.44 19.6302 128.94C19.6502 129.51 19.6702 130.24 19.6902 131.12C19.7202 133.11 19.7502 135.83 19.8002 139.15C19.8302 146.01 19.8602 155.34 19.9002 165.65C19.9002 182.73 19.8002 197.14 19.6502 201.49H19.4602C19.4902 200.37 19.5202 199.86 19.5602 199.86Z" fill="#F5F5F5"/>
<path d="M29.8898 199.86C29.8898 199.86 29.9498 200.37 29.9898 201.49H29.7998C29.6598 197.14 29.5498 182.73 29.5498 165.65C29.5898 155.34 29.6198 146.02 29.6498 139.15C29.6898 135.83 29.7298 133.11 29.7598 131.12C29.7898 130.23 29.8098 129.51 29.8198 128.94C29.8398 128.44 29.8698 128.18 29.8898 128.18C29.9098 128.18 29.9398 128.44 29.9598 128.94C29.9798 129.51 29.9998 130.24 30.0198 131.12C30.0498 133.11 30.0798 135.83 30.1298 139.15C30.1598 146.01 30.1898 155.34 30.2298 165.65C30.2298 182.73 30.1298 197.14 29.9798 201.49H29.7898C29.8198 200.37 29.8498 199.86 29.8898 199.86Z" fill="#F5F5F5"/>
<path d="M40.2199 199.86C40.2199 199.86 40.2799 200.37 40.3199 201.49H40.1299C39.9899 197.14 39.8799 182.73 39.8799 165.65C39.9199 155.34 39.9499 146.02 39.9799 139.15C40.0199 135.83 40.0599 133.11 40.0899 131.12C40.1199 130.23 40.1399 129.51 40.1499 128.94C40.1699 128.44 40.1999 128.18 40.2199 128.18C40.2399 128.18 40.2699 128.44 40.2899 128.94C40.3099 129.51 40.3299 130.24 40.3499 131.12C40.3799 133.11 40.4099 135.83 40.4599 139.15C40.4899 146.01 40.5199 155.34 40.5599 165.65C40.5599 182.73 40.4599 197.14 40.3099 201.49H40.1199C40.1499 200.37 40.1799 199.86 40.2099 199.86H40.2199Z" fill="#F5F5F5"/>
<path d="M50.5602 199.86C50.5602 199.86 50.6202 200.37 50.6602 201.49H50.4702C50.3302 197.14 50.2202 182.73 50.2202 165.65C50.2602 155.34 50.2902 146.02 50.3202 139.15C50.3702 135.83 50.4002 133.11 50.4302 131.12C50.4602 130.23 50.4802 129.51 50.4902 128.94C50.5102 128.44 50.5402 128.18 50.5602 128.18C50.5802 128.18 50.6102 128.44 50.6302 128.94C50.6502 129.51 50.6702 130.24 50.6902 131.12C50.7202 133.11 50.7502 135.83 50.8002 139.15C50.8302 146.01 50.8602 155.34 50.9002 165.65C50.9002 182.73 50.8002 197.14 50.6502 201.49H50.4602C50.4902 200.37 50.5202 199.86 50.5502 199.86H50.5602Z" fill="#F5F5F5"/>
<path d="M60.8898 199.86C60.8898 199.86 60.9498 200.37 60.9898 201.49H60.7998C60.6598 197.14 60.5498 182.73 60.5498 165.65C60.5898 155.34 60.6198 146.02 60.6498 139.15C60.6998 135.83 60.7298 133.11 60.7598 131.12C60.7898 130.23 60.8098 129.51 60.8198 128.94C60.8398 128.44 60.8698 128.18 60.8898 128.18C60.9098 128.18 60.9398 128.44 60.9598 128.94C60.9798 129.51 60.9998 130.24 61.0198 131.12C61.0498 133.11 61.0798 135.83 61.1298 139.15C61.1598 146.01 61.1898 155.34 61.2298 165.65C61.2298 182.73 61.1298 197.14 60.9798 201.49H60.7898C60.8198 200.37 60.8498 199.86 60.8798 199.86H60.8898Z" fill="#F5F5F5"/>
<path d="M71.2199 199.86C71.2199 199.86 71.2799 200.37 71.3199 201.49H71.1299C70.9899 197.14 70.8799 182.73 70.8799 165.65C70.9199 155.34 70.9499 146.02 70.9799 139.15C71.0199 135.83 71.0599 133.11 71.0899 131.12C71.1199 130.23 71.1399 129.51 71.1499 128.94C71.1699 128.44 71.1999 128.18 71.2199 128.18C71.2399 128.18 71.2699 128.44 71.2899 128.94C71.3099 129.51 71.3299 130.24 71.3499 131.12C71.3799 133.11 71.4099 135.83 71.4599 139.15C71.4899 146.01 71.5199 155.34 71.5599 165.65C71.5599 182.73 71.4599 197.14 71.3099 201.49H71.1199C71.1499 200.37 71.1799 199.86 71.2099 199.86H71.2199Z" fill="#F5F5F5"/>
<path d="M81.5502 199.86C81.5502 199.86 81.6102 200.37 81.6402 201.49H81.4502C81.3102 197.14 81.2002 182.73 81.2002 165.65C81.2402 155.34 81.2702 146.02 81.3002 139.15C81.3402 135.83 81.3802 133.11 81.4102 131.12C81.4402 130.23 81.4602 129.51 81.4702 128.94C81.4902 128.44 81.5202 128.18 81.5402 128.18C81.5602 128.18 81.5902 128.44 81.6102 128.94C81.6302 129.51 81.6502 130.24 81.6702 131.12C81.7002 133.11 81.7302 135.83 81.7802 139.15C81.8102 146.01 81.8402 155.34 81.8802 165.65C81.8802 182.73 81.7802 197.14 81.6302 201.49H81.4402C81.4702 200.37 81.5002 199.86 81.5402 199.86H81.5502Z" fill="#F5F5F5"/>
<path d="M91.89 199.86C91.89 199.86 91.95 200.37 91.98 201.49H91.79C91.65 197.14 91.54 182.73 91.54 165.65C91.58 155.34 91.61 146.02 91.64 139.15C91.68 135.83 91.72 133.11 91.75 131.12C91.78 130.23 91.8 129.51 91.81 128.94C91.83 128.44 91.86 128.18 91.88 128.18C91.9 128.18 91.93 128.44 91.95 128.94C91.97 129.51 91.99 130.24 92.01 131.12C92.04 133.11 92.07 135.83 92.12 139.15C92.15 146.01 92.18 155.34 92.22 165.65C92.22 182.73 92.12 197.14 91.97 201.49H91.78C91.81 200.37 91.84 199.86 91.88 199.86H91.89Z" fill="#F5F5F5"/>
<path d="M102.22 199.86C102.22 199.86 102.28 200.37 102.31 201.49H102.12C101.98 197.14 101.87 182.73 101.87 165.65C101.91 155.34 101.94 146.02 101.97 139.15C102.01 135.83 102.05 133.11 102.08 131.12C102.11 130.23 102.13 129.51 102.14 128.94C102.16 128.44 102.19 128.18 102.21 128.18C102.23 128.18 102.26 128.44 102.28 128.94C102.3 129.51 102.32 130.24 102.34 131.12C102.37 133.11 102.4 135.83 102.45 139.15C102.48 146.01 102.51 155.34 102.55 165.65C102.55 182.73 102.45 197.14 102.3 201.49H102.11C102.14 200.37 102.17 199.86 102.21 199.86H102.22Z" fill="#F5F5F5"/>
<path d="M112.55 199.86C112.55 199.86 112.61 200.37 112.65 201.49H112.46C112.32 197.14 112.21 182.73 112.21 165.65C112.25 155.34 112.28 146.02 112.31 139.15C112.36 135.83 112.39 133.11 112.42 131.12C112.45 130.23 112.47 129.51 112.48 128.94C112.5 128.44 112.53 128.18 112.55 128.18C112.57 128.18 112.6 128.44 112.62 128.94C112.64 129.51 112.66 130.24 112.68 131.12C112.71 133.11 112.74 135.83 112.79 139.15C112.82 146.01 112.85 155.34 112.89 165.65C112.89 182.73 112.79 197.14 112.64 201.49H112.45C112.48 200.37 112.51 199.86 112.55 199.86V199.86Z" fill="#F5F5F5"/>
<path d="M122.88 199.86C122.88 199.86 122.94 200.37 122.98 201.49H122.79C122.65 197.14 122.54 182.73 122.54 165.65C122.58 155.34 122.61 146.02 122.64 139.15C122.69 135.83 122.72 133.11 122.75 131.12C122.78 130.23 122.8 129.51 122.81 128.94C122.83 128.44 122.86 128.18 122.88 128.18C122.9 128.18 122.93 128.44 122.95 128.94C122.97 129.51 122.99 130.24 123.01 131.12C123.04 133.11 123.07 135.83 123.12 139.15C123.15 146.01 123.18 155.34 123.22 165.65C123.22 182.73 123.12 197.14 122.97 201.49H122.78C122.81 200.37 122.84 199.86 122.88 199.86V199.86Z" fill="#F5F5F5"/>
<path d="M133.22 199.86C133.22 199.86 133.28 200.37 133.32 201.49H133.13C132.99 197.14 132.88 182.73 132.88 165.65C132.92 155.34 132.95 146.02 132.98 139.15C133.02 135.83 133.06 133.11 133.09 131.12C133.12 130.23 133.14 129.51 133.15 128.94C133.17 128.44 133.2 128.18 133.22 128.18C133.24 128.18 133.27 128.44 133.29 128.94C133.31 129.51 133.33 130.24 133.35 131.12C133.38 133.11 133.41 135.83 133.46 139.15C133.49 146.01 133.52 155.34 133.56 165.65C133.56 182.73 133.46 197.14 133.31 201.49H133.12C133.15 200.37 133.18 199.86 133.21 199.86H133.22Z" fill="#F5F5F5"/>
<path d="M157.179 58.9899L164.969 129.18C166.299 141.12 170.679 158.38 189.459 155.42C205.559 151.63 207.979 135.64 206.729 124.51C206.139 119.23 205.649 114.82 205.629 114.27C205.629 114.27 223.309 110.6 222.639 92.7799C222.309 84.1599 220.199 66.4699 218.099 50.4899C215.849 33.3199 200.769 20.7799 183.479 21.6499L181.759 21.7399C163.279 23.7499 154.659 40.5799 157.179 58.9999V58.9899Z" fill="#936760"/>
<path d="M205.64 114.27C205.64 114.27 194.44 115.49 182.1 108.58C182.1 108.58 188.41 121.31 206.11 118.81L205.64 114.27Z" fill="#6F4C47"/>
<path d="M188.839 61.4499C188.529 61.8499 186.289 60.4599 183.329 60.7499C180.359 60.9899 178.339 62.7599 177.979 62.4199C177.809 62.2699 178.089 61.5699 178.969 60.7799C179.839 59.9899 181.359 59.1499 183.209 58.9899C185.059 58.8299 186.679 59.3799 187.639 60.0099C188.619 60.6399 188.989 61.2799 188.839 61.4599V61.4499Z" fill="#263238"/>
<path d="M189.5 67.57C189.61 68.84 188.62 69.98 187.3 70.11C185.98 70.25 184.82 69.33 184.71 68.06C184.6 66.79 185.59 65.6501 186.91 65.5101C188.23 65.3701 189.39 66.29 189.5 67.56V67.57Z" fill="#263238"/>
<path d="M198.779 81.09C198.759 80.94 200.449 80.56 203.189 80.06C203.889 79.95 204.539 79.78 204.629 79.3C204.769 78.79 204.439 78.05 204.059 77.25C203.319 75.59 202.539 73.85 201.729 72.03C198.479 64.59 196.089 58.46 196.389 58.34C196.689 58.21 199.569 64.14 202.819 71.57C203.609 73.4 204.359 75.15 205.069 76.83C205.369 77.61 205.869 78.49 205.569 79.56C205.409 80.09 204.909 80.5 204.469 80.64C204.029 80.8 203.639 80.83 203.289 80.86C200.519 81.15 198.799 81.25 198.779 81.09V81.09Z" fill="#263238"/>
<path d="M186.199 50.49C185.999 51.18 183.569 50.98 180.749 51.48C177.919 51.92 175.679 52.89 175.279 52.3C175.099 52.02 175.459 51.36 176.349 50.65C177.229 49.95 178.659 49.25 180.349 48.97C182.039 48.69 183.609 48.89 184.669 49.28C185.729 49.66 186.279 50.17 186.199 50.5V50.49Z" fill="#263238"/>
<path d="M213.99 50.4799C213.75 51.0499 211.37 50.7399 208.56 50.9999C205.75 51.2099 203.48 51.8999 203.11 51.3799C202.95 51.1299 203.35 50.5899 204.27 50.0499C205.18 49.5099 206.64 48.9999 208.32 48.8599C210 48.7199 211.54 48.9799 212.56 49.3599C213.58 49.7399 214.09 50.1999 213.99 50.4799V50.4799Z" fill="#263238"/>
<path d="M159.299 72.1099C158.989 71.9899 146.879 69.0999 147.879 81.2699C148.879 93.4299 160.879 89.9199 160.879 89.5699C160.879 89.2199 159.309 72.1199 159.309 72.1199L159.299 72.1099Z" fill="#936760"/>
<path d="M156.779 85.2599C156.719 85.2299 156.579 85.4299 156.239 85.6199C155.899 85.8099 155.309 85.9699 154.659 85.7799C153.339 85.4099 152.089 83.4599 151.849 81.2799C151.729 80.1799 151.869 79.0999 152.189 78.1999C152.489 77.2799 153.009 76.6099 153.649 76.4399C154.279 76.2399 154.769 76.5899 154.949 76.9199C155.139 77.2499 155.079 77.4999 155.149 77.5099C155.189 77.5399 155.389 77.2799 155.249 76.7899C155.179 76.5499 155.009 76.2799 154.709 76.0699C154.399 75.8599 153.959 75.7699 153.509 75.8599C152.579 75.9999 151.799 76.9299 151.449 77.9299C151.049 78.9299 150.859 80.1399 150.989 81.3799C151.269 83.8199 152.709 86.0099 154.509 86.3799C155.379 86.5299 156.079 86.2199 156.419 85.8999C156.769 85.5699 156.809 85.2899 156.769 85.2699L156.779 85.2599Z" fill="#6F4C47"/>
<path d="M196.959 89.82C197.049 89.5 194.599 89.08 192.649 87.06C191.679 86.07 191.049 84.93 190.579 84.11C190.119 83.28 189.779 82.76 189.659 82.81C189.539 82.86 189.649 83.45 189.959 84.39C190.279 85.31 190.859 86.61 191.949 87.74C193.029 88.88 194.369 89.48 195.329 89.72C196.299 89.98 196.929 89.93 196.949 89.82H196.959Z" fill="#263238"/>
<path d="M214.859 57.61C214.549 58.01 212.309 56.62 209.349 56.91C206.379 57.15 204.359 58.92 203.999 58.58C203.829 58.43 204.109 57.73 204.989 56.94C205.859 56.15 207.379 55.31 209.229 55.15C211.079 54.99 212.699 55.54 213.659 56.17C214.639 56.8 215.009 57.44 214.859 57.62V57.61Z" fill="#263238"/>
<path d="M215.069 64.4099C215.179 65.6799 214.189 66.8199 212.869 66.9499C211.549 67.0899 210.389 66.1699 210.279 64.8999C210.169 63.6299 211.159 62.4899 212.479 62.3499C213.799 62.2099 214.959 63.1299 215.069 64.3999V64.4099Z" fill="#263238"/>
<path d="M149.69 61.2199C150.58 64.6099 152.7 72.35 155.74 71.66C161.75 70.29 161.38 79.9199 164.28 78.7799C167.14 77.6599 167.86 69.9999 167.54 66.9499C166.53 57.4299 162.88 50.5799 166.9 39.6999C169.53 35.3599 174.1 32.4699 179.17 32.4699C184.24 32.4699 189.09 35.1499 191.71 39.4899C192.33 36.1599 194.07 31.1599 197.08 29.6199C200.09 28.0799 204.06 28.3599 206.57 30.6299C209.08 32.8999 209.69 37.1299 207.6 39.7999C208.95 40.2699 210.59 39.7299 211.39 38.5299C211.48 40.0899 210.89 41.6799 209.8 42.7999C211.03 42.5199 212.15 41.7799 212.88 40.7599C212.55 42.1399 212.22 43.5099 211.89 44.8899C216.93 45.1399 221.97 40.3699 223.47 36.0599C225.74 29.5299 224.26 22.8499 220.72 16.8999C217.18 10.9599 210.68 6.67994 203.77 6.57994C196.85 6.47994 190.98 9.62994 188.17 15.9499C183.75 12.6699 174.69 11.3599 169.63 13.5199C164.57 15.6799 160.82 20.6499 160.14 26.1099C157.04 24.7099 153.26 25.6599 150.57 27.7399C150.35 27.9099 150.13 28.0899 149.92 28.2799C146.23 31.5399 144.63 36.5799 145.44 41.4399C145.76 43.3699 146.38 45.3699 146.73 46.9199C147.79 51.5199 149.69 61.2299 149.69 61.2299V61.2199Z" fill="#263238"/>
<path d="M212.2 38.2499C212.2 38.2499 212.35 38.1599 212.61 37.9399C212.87 37.7199 213.23 37.3799 213.63 36.8799C214.44 35.8999 215.4 34.2199 215.72 31.9199C216.06 29.6699 215.6 26.6699 213.55 24.3199C211.59 21.9899 208.22 20.2899 204.64 20.7199C202.87 20.9299 201.23 21.5999 199.83 22.4799C198.42 23.3699 197.22 24.4499 196.24 25.6099C194.25 27.9199 193.09 30.4599 192.47 32.6599C191.84 34.8699 191.74 36.7399 191.76 38.0099C191.79 38.6499 191.82 39.1399 191.87 39.4699C191.91 39.7999 191.95 39.9799 191.96 39.9699C192.1 39.9899 191.52 37.0999 192.82 32.7599C193.47 30.6199 194.65 28.1499 196.6 25.9199C198.51 23.7099 201.31 21.6499 204.7 21.2299C208.08 20.8199 211.3 22.4199 213.19 24.6299C215.16 26.8499 215.64 29.6799 215.36 31.8699C215.1 34.0899 214.21 35.7499 213.47 36.7499C212.72 37.7599 212.17 38.2099 212.21 38.2499H212.2Z" fill="#455A64"/>
<path d="M214.389 43.5699C214.389 43.5699 214.529 43.3799 214.759 42.9999C214.989 42.6199 215.309 42.0599 215.719 41.3199C216.519 39.8499 217.709 37.6999 218.639 34.8199C219.089 33.3799 219.449 31.7399 219.529 29.9499C219.599 28.1699 219.389 26.2199 218.639 24.3299C217.899 22.4399 216.529 20.6899 214.709 19.4299C212.889 18.1799 210.689 17.3599 208.359 17.1599C206.029 16.9499 203.739 17.3499 201.679 18.0699C199.609 18.7999 197.759 19.8499 196.149 21.0499C192.929 23.4499 190.769 26.5999 189.989 29.5499C189.189 32.5099 189.599 35.0599 190.169 36.6299C190.449 37.4299 190.789 37.9999 191.009 38.3799C191.259 38.7499 191.399 38.9399 191.409 38.9299C191.459 38.8999 190.879 38.1499 190.359 36.5699C189.849 35.0099 189.509 32.5099 190.339 29.6499C191.139 26.7999 193.259 23.7599 196.429 21.4399C199.559 19.1399 203.779 17.2999 208.309 17.6799C210.549 17.8699 212.669 18.6599 214.409 19.8499C216.149 21.0499 217.459 22.7099 218.179 24.5099C218.919 26.3099 219.129 28.1999 219.089 29.9299C219.039 31.6699 218.699 33.2799 218.279 34.6999C217.409 37.5499 216.269 39.7199 215.529 41.2099C215.169 41.9199 214.879 42.4899 214.659 42.9299C214.459 43.3299 214.369 43.5399 214.379 43.5499L214.389 43.5699Z" fill="#455A64"/>
<path d="M154.02 53.6999C154.08 53.6299 152.95 52.7899 151.56 51.0599C150.17 49.3499 148.59 46.6199 147.98 43.2899C147.37 39.9599 147.88 36.8499 148.57 34.7499C149.26 32.6299 150.02 31.4599 149.93 31.4099C149.9 31.3899 149.69 31.6699 149.36 32.2099C149.03 32.7499 148.62 33.5699 148.22 34.6299C147.42 36.7399 146.84 39.9399 147.47 43.3799C148.1 46.8199 149.79 49.5999 151.28 51.2899C152.03 52.1399 152.71 52.7599 153.21 53.1499C153.71 53.5399 154.01 53.7199 154.03 53.6999H154.02Z" fill="#455A64"/>
<path d="M164.759 53.6099C164.759 53.6099 164.179 53.3299 163.259 52.6799C162.359 52.0299 161.129 50.8699 160.369 49.0299L159.899 47.8899L159.979 49.1199C160.089 50.7799 160.219 52.6899 160.359 54.7699L160.749 54.5499C159.379 53.5799 158.059 52.2699 156.989 50.6899C155.619 48.6999 154.819 46.4899 154.499 44.4299C154.189 42.3599 154.339 40.4499 154.659 38.8999C155.329 35.7799 156.549 34.1199 156.439 34.0699C156.419 34.0699 156.349 34.1599 156.209 34.3499C156.069 34.5399 155.889 34.8399 155.669 35.2399C155.229 36.0299 154.689 37.2399 154.309 38.8199C153.929 40.3999 153.739 42.3599 154.029 44.4999C154.329 46.6299 155.149 48.9299 156.559 50.9899C157.669 52.6199 159.039 53.9599 160.469 54.9599L160.899 55.2599L160.859 54.7399C160.689 52.6699 160.529 50.7599 160.389 49.0999L159.999 49.1899C160.839 51.0999 162.169 52.2499 163.129 52.8699C163.619 53.1799 164.029 53.3699 164.309 53.4799C164.599 53.5899 164.749 53.6299 164.759 53.6099V53.6099Z" fill="#455A64"/>
<path d="M168.6 28.8899C168.7 28.9599 169.24 27.2299 171.4 25.5499C172.47 24.7399 173.93 23.9799 175.68 23.6799C177.42 23.3599 179.43 23.5699 181.34 24.3199C183.25 25.0799 184.85 26.2899 186.01 27.6399C187.19 28.9799 187.96 30.4199 188.47 31.6799C189.48 34.2099 189.55 35.9499 189.66 35.9299C189.69 35.9299 189.7 35.4999 189.6 34.7299C189.5 33.9599 189.29 32.8599 188.81 31.5499C188.33 30.2499 187.57 28.7499 186.37 27.3299C185.18 25.9099 183.52 24.6399 181.53 23.8399C179.54 23.0499 177.43 22.8499 175.6 23.2099C173.77 23.5599 172.26 24.3899 171.18 25.2699C170.1 26.1699 169.43 27.0999 169.06 27.7799C168.88 28.1199 168.75 28.3999 168.69 28.5899C168.62 28.7799 168.59 28.8799 168.61 28.8899H168.6Z" fill="#455A64"/>
<path d="M171.56 19.96C171.61 20.06 172.72 19.22 174.84 18.78C176.91 18.33 180.05 18.48 182.9 20.11C185.74 21.75 187.53 24.29 188.49 26.19C189.47 28.12 189.76 29.45 189.86 29.42C189.89 29.42 189.85 29.08 189.7 28.48C189.55 27.88 189.28 27.03 188.82 26.03C187.93 24.04 186.13 21.37 183.16 19.65C180.18 17.94 176.89 17.85 174.76 18.41C173.68 18.68 172.86 19.06 172.34 19.38C171.81 19.7 171.55 19.92 171.57 19.95L171.56 19.96Z" fill="#455A64"/>
<path d="M243.61 296.94L131.85 298.46C131.85 298.46 100.6 285.38 92.0098 285.03C83.4198 284.68 66.3798 285.77 58.4998 298.46C50.3498 311.58 49.2098 334.72 74.3298 351.53C98.7798 367.91 210.62 383.04 225.95 381.65L254.21 343.72C254.21 343.72 254.51 312.63 254.21 311.15C253.91 309.67 249.18 296.35 249.18 296.35L243.62 296.94H243.61Z" fill="#263238"/>
<path d="M176.71 349.42L118.81 370.93L145.2 443.11C151.94 440.17 152.13 397.76 152.13 397.76L189.8 385.5L176.72 349.42H176.71Z" fill="#FF725E"/>
<g opacity="0.6">
<path d="M147.09 374.3C146.2 373.04 144.27 372.65 142.98 373.49C141.69 374.33 141.27 376.28 142.14 377.56C143.01 378.83 145.31 379.37 146.5 378.39C147.69 377.41 148.05 375.09 146.9 374.06" fill="white"/>
</g>
<path d="M118.81 370.93L124.65 368.76L147.82 438.92C147.82 438.92 147.6 442.65 145.2 443.11L118.81 370.93V370.93Z" fill="#263238"/>
<path d="M152.92 398.8C152.56 398.92 151.76 397.21 149.99 395.89C148.26 394.52 146.4 394.19 146.43 393.81C146.38 393.46 148.68 393.22 150.79 394.85C152.92 396.47 153.27 398.75 152.92 398.79V398.8Z" fill="#263238"/>
<path d="M152.56 407.51C152.25 407.72 151.09 406.41 149.16 405.76C147.25 405.05 145.53 405.34 145.42 404.98C145.24 404.67 147.22 403.67 149.6 404.53C151.99 405.37 152.89 407.38 152.56 407.51V407.51Z" fill="#263238"/>
<path d="M145.07 415.13C144.88 414.84 146.46 413.7 148.72 413.9C150.98 414.08 152.35 415.47 152.11 415.72C151.89 416.03 150.47 415.33 148.61 415.2C146.76 415.02 145.23 415.46 145.07 415.13Z" fill="#263238"/>
<path d="M161.2 395.05C160.82 395.02 160.72 393.23 159.86 391.28C159.04 389.32 157.8 388.01 158.04 387.72C158.22 387.42 160.08 388.46 161.06 390.76C162.06 393.05 161.54 395.12 161.2 395.05V395.05Z" fill="#263238"/>
<path d="M169.13 390.2C168.99 390.26 168.26 388.94 167.83 386.58C167.62 385.4 167.5 383.96 167.61 382.37C167.66 381.57 167.77 380.74 167.95 379.89C168.04 379.48 168.11 379.01 168.4 378.49C168.62 377.96 169.48 377.4 170.22 377.64C170.91 377.81 171.39 378.37 171.59 378.89C171.8 379.42 171.85 379.89 171.9 380.31C172 381.19 172.01 382.04 171.95 382.84C171.83 384.45 171.44 385.86 170.98 386.97C170.04 389.21 168.93 390.26 168.82 390.17C168.65 390.05 169.45 388.83 170.11 386.66C170.44 385.58 170.7 384.25 170.75 382.77C170.77 382.03 170.74 381.25 170.63 380.46C170.55 379.62 170.32 378.97 169.91 378.9C169.75 378.88 169.7 378.89 169.53 379.13C169.38 379.37 169.3 379.75 169.2 380.16C169.02 380.95 168.89 381.73 168.81 382.47C168.65 383.96 168.66 385.32 168.75 386.45C168.93 388.73 169.33 390.12 169.14 390.19L169.13 390.2Z" fill="#263238"/>
<path d="M168.46 389.93C168.36 389.82 169.37 388.66 171.6 387.7C172.71 387.23 174.13 386.84 175.74 386.75C176.55 386.71 177.4 386.74 178.27 386.87C179.14 387.03 180.28 387.2 180.94 388.51C181.23 389.21 180.89 390.01 180.48 390.39C180.08 390.81 179.68 391.01 179.29 391.25C178.5 391.69 177.66 391.98 176.86 392.14C175.24 392.47 173.73 392.31 172.56 391.96C170.17 391.23 169.21 389.92 169.32 389.84C169.45 389.66 170.58 390.64 172.77 391.06C173.85 391.27 175.19 391.31 176.58 390.96C177.27 390.79 177.98 390.52 178.64 390.13C179.37 389.74 179.88 389.22 179.7 388.96C179.57 388.6 178.77 388.2 178.05 388.13C177.27 388 176.5 387.94 175.76 387.95C174.29 387.97 172.97 388.23 171.9 388.57C169.75 389.25 168.56 390.1 168.44 389.93H168.46Z" fill="#263238"/>
<path d="M224.47 340.5L280.5 366.49L248.52 436.37C242.03 432.91 245.17 390.62 245.17 390.62L208.58 375.44L224.46 340.5H224.47Z" fill="#FF725E"/>
<g opacity="0.6">
<path d="M252.04 367.63C253.03 366.45 254.98 366.21 256.2 367.15C257.42 368.09 257.68 370.07 256.71 371.27C255.74 372.47 253.41 372.83 252.3 371.76C251.19 370.69 251.01 368.35 252.24 367.42" fill="white"/>
</g>
<path d="M280.51 366.5L274.85 363.88L246.24 432C246.24 432 246.17 435.73 248.52 436.38L280.5 366.5H280.51Z" fill="#263238"/>
<path d="M244.31 391.6C244.66 391.74 245.59 390.11 247.46 388.93C249.29 387.7 251.17 387.52 251.18 387.14C251.26 386.8 248.98 386.37 246.75 387.83C244.5 389.27 243.97 391.52 244.31 391.59V391.6Z" fill="#263238"/>
<path d="M243.99 400.31C244.28 400.54 245.54 399.33 247.51 398.83C249.47 398.27 251.16 398.69 251.3 398.35C251.5 398.05 249.61 396.9 247.17 397.57C244.72 398.21 243.66 400.16 243.98 400.31H243.99Z" fill="#263238"/>
<path d="M250.85 408.49C251.06 408.21 249.58 406.96 247.31 406.98C245.04 406.98 243.57 408.26 243.78 408.53C243.97 408.85 245.45 408.27 247.31 408.29C249.17 408.26 250.66 408.82 250.84 408.49H250.85Z" fill="#263238"/>
<path d="M236.36 387.21C236.74 387.21 236.98 385.43 238 383.56C238.98 381.67 240.31 380.47 240.1 380.15C239.94 379.84 238.01 380.73 236.85 382.94C235.67 385.15 236.02 387.25 236.37 387.2L236.36 387.21Z" fill="#263238"/>
<path d="M228.83 381.75C228.97 381.82 229.8 380.57 230.41 378.24C230.72 377.08 230.94 375.66 230.96 374.06C230.96 373.26 230.92 372.42 230.81 371.56C230.75 371.14 230.72 370.67 230.47 370.13C230.29 369.59 229.48 368.96 228.73 369.14C228.03 369.25 227.51 369.78 227.27 370.28C227.02 370.79 226.93 371.25 226.85 371.68C226.68 372.54 226.61 373.39 226.6 374.2C226.6 375.81 226.87 377.25 227.24 378.4C228 380.71 229.02 381.85 229.14 381.76C229.32 381.66 228.62 380.38 228.13 378.16C227.89 377.06 227.73 375.71 227.8 374.23C227.84 373.49 227.93 372.72 228.1 371.94C228.24 371.11 228.53 370.48 228.94 370.44C229.1 370.43 229.15 370.44 229.3 370.7C229.43 370.95 229.49 371.34 229.55 371.75C229.67 372.55 229.74 373.33 229.76 374.08C229.81 375.58 229.69 376.93 229.51 378.06C229.15 380.32 228.64 381.68 228.83 381.76V381.75Z" fill="#263238"/>
<path d="M229.52 381.53C229.63 381.43 228.72 380.2 226.56 379.06C225.49 378.5 224.11 378.01 222.51 377.78C221.71 377.67 220.86 377.64 219.98 377.7C219.1 377.79 217.95 377.87 217.19 379.12C216.85 379.8 217.12 380.62 217.5 381.03C217.87 381.48 218.25 381.71 218.62 381.98C219.38 382.48 220.18 382.83 220.98 383.06C222.57 383.52 224.08 383.48 225.28 383.22C227.72 382.68 228.78 381.45 228.67 381.36C228.55 381.17 227.35 382.06 225.13 382.3C224.04 382.42 222.69 382.36 221.33 381.9C220.65 381.67 219.97 381.35 219.34 380.91C218.65 380.46 218.18 379.91 218.38 379.66C218.53 379.31 219.36 378.98 220.09 378.96C220.88 378.89 221.65 378.9 222.38 378.96C223.84 379.1 225.14 379.46 226.18 379.88C228.27 380.72 229.39 381.67 229.52 381.51V381.53Z" fill="#263238"/>
<path d="M249.17 296.35C249.17 296.35 297.43 278.33 315.19 280.66C325.12 281.96 340.65 289.54 341.84 302.27C343.02 315 339.92 332.03 322.75 340.32C305.58 348.61 237.04 379.37 220.76 384.1C204.48 388.84 163.88 399.93 163.88 399.93L148.45 355.97C148.45 355.97 232.6 326.84 237.04 323.58C241.48 320.32 252.73 315.88 252.73 315.88L249.18 296.34L249.17 296.35Z" fill="#263238"/>
<path d="M81.4099 302.33C81.4099 302.33 81.5299 302.31 81.7399 302.24C81.9799 302.17 82.2999 302.07 82.7099 301.95C83.5599 301.69 84.8199 301.33 86.4599 300.93C88.0999 300.54 90.1299 300.11 92.5099 299.88C94.8899 299.64 97.6299 299.63 100.63 299.89C103.63 300.15 106.9 300.7 110.29 301.73C111.98 302.25 113.7 302.88 115.38 303.72C117.08 304.55 118.84 305.41 120.63 306.28C127.85 309.73 135.91 313.26 144.5 316.66C161.7 323.55 178.2 326.82 189.97 329.49C195.88 330.8 200.65 331.87 203.94 332.65C205.56 333.03 206.83 333.33 207.73 333.55C208.14 333.64 208.47 333.72 208.72 333.77C208.94 333.82 209.06 333.84 209.06 333.83C209.06 333.83 208.95 333.78 208.73 333.72C208.48 333.65 208.16 333.56 207.75 333.45C206.89 333.22 205.62 332.87 203.98 332.46C200.7 331.62 195.94 330.49 190.04 329.13C178.29 326.36 161.82 323.04 144.68 316.17C136.1 312.78 128.05 309.27 120.82 305.84C119.02 304.97 117.27 304.12 115.56 303.3C113.84 302.46 112.1 301.83 110.39 301.31C106.96 300.28 103.66 299.76 100.64 299.52C97.6099 299.28 94.8599 299.32 92.4599 299.59C90.0599 299.85 88.0299 300.32 86.3899 300.74C84.7499 301.16 83.4999 301.56 82.6499 301.85C82.2499 301.99 81.9399 302.11 81.6999 302.19C81.4899 302.27 81.3799 302.32 81.3799 302.33H81.4099Z" fill="#455A64"/>
<path d="M83.9399 295.97C83.9599 296.05 85.4099 295.79 87.7699 295.54C90.1299 295.28 93.4099 295.09 97.0299 295.27C100.65 295.46 103.9 295.99 106.22 296.49C108.54 296.99 109.96 297.4 109.99 297.31C110 297.28 109.66 297.14 109.02 296.92C108.39 296.7 107.46 296.42 106.3 296.13C103.98 295.54 100.71 294.94 97.0599 294.75C93.4099 294.57 90.0899 294.82 87.7199 295.17C86.5399 295.34 85.5799 295.52 84.9299 295.68C84.2799 295.83 83.9199 295.93 83.9299 295.97H83.9399Z" fill="#455A64"/>
<path d="M269.47 309.12C269.53 309.19 270.86 308.16 273.18 306.72C275.49 305.29 278.82 303.52 282.73 302.14C286.64 300.76 290.35 300.04 293.04 299.71C295.74 299.37 297.43 299.34 297.43 299.25C297.43 299.21 297.01 299.19 296.24 299.19C295.47 299.18 294.37 299.22 293 299.35C290.27 299.59 286.51 300.26 282.55 301.65C278.6 303.05 275.25 304.89 272.97 306.41C271.83 307.17 270.94 307.83 270.35 308.32C269.76 308.81 269.44 309.09 269.46 309.11L269.47 309.12Z" fill="#455A64"/>
<path d="M245.25 374.68C245.25 374.68 245.12 374.72 244.87 374.82C244.61 374.93 244.25 375.08 243.77 375.28C242.8 375.67 241.39 376.34 239.51 377.06C235.75 378.55 230.2 380.6 223.07 382.94C208.81 387.6 188.32 393.53 163.8 399.71L164.08 399.86C159.51 387.17 154.47 373.17 149.16 358.45L149.02 358.78C154.94 356.35 161.17 353.79 167.5 351.2C208.23 334.44 244.83 319.37 269.74 309.12H269.77L269.8 309.08C273.96 304.67 277.79 300.79 281.38 297.66C284.97 294.53 288.27 292.11 291.09 290.35C293.89 288.56 296.2 287.43 297.75 286.63C298.53 286.27 299.12 285.99 299.54 285.8C299.94 285.61 300.14 285.5 300.14 285.5C300.14 285.5 299.93 285.58 299.52 285.75C299.1 285.93 298.5 286.2 297.71 286.54C296.15 287.3 293.82 288.41 290.99 290.18C288.15 291.93 284.82 294.33 281.2 297.45C277.58 300.57 273.73 304.45 269.55 308.84L269.61 308.8C244.69 319.01 208.06 334.02 167.31 350.72C160.98 353.32 154.75 355.88 148.84 358.31L148.61 358.4L148.69 358.63C154.01 373.35 159.07 387.35 163.65 400.03L163.72 400.23L163.93 400.18C188.45 393.96 208.93 387.96 223.17 383.22C230.29 380.84 235.83 378.75 239.58 377.21C241.46 376.46 242.86 375.77 243.82 375.36C244.29 375.15 244.64 374.98 244.9 374.87C245.14 374.76 245.26 374.69 245.26 374.69L245.25 374.68Z" fill="#455A64"/>
<path d="M125.97 142.55C125.97 142.55 112.07 150.55 109.26 159.96C107.55 165.67 94.59 238.72 92.54 253.13C90.47 267.67 94.82 278.21 100.96 282.98C107.1 287.76 125.73 294.12 125.73 294.12L151.93 302.61L159.44 283.5L134.5 247.67L136.91 223.54L125.98 142.55H125.97Z" fill="#FF725E"/>
<path d="M153.28 129.93L163.72 123.97C163.72 123.97 173.23 135.09 186.2 133.73C199.17 132.36 206.85 122.44 206.85 122.44L245.52 130.32C248.11 130.84 252.85 132.48 257.37 138.94C262.42 146.15 286.35 178.14 286.35 178.14H303.11C307.73 178.14 311.97 180.69 314.12 184.78C316.98 190.23 320.42 197.51 320.08 200.53C319.51 205.63 320.5 219.64 313.65 224.02C311.48 225.41 303.71 229.57 297.69 229.29C288.8 228.87 278.47 224.24 272.52 220.08C267.48 216.56 255.76 204.38 251.26 199.63V199.7L248.37 301.16L146.97 298.27L125.96 142.56C125.96 142.56 152.25 129.94 153.27 129.94L153.28 129.93Z" fill="#FF725E"/>
<path d="M251.64 157.11C251.5 157.11 251.23 169.68 251.05 185.19C250.87 200.71 250.84 213.28 250.98 213.28C251.12 213.28 251.39 200.71 251.57 185.19C251.75 169.68 251.78 157.1 251.64 157.1V157.11Z" fill="#263238"/>
<path d="M113.69 239.13C113.69 239.18 114.55 239.27 116.08 239.56C117.61 239.84 119.8 240.45 122.36 241.56C124.92 242.66 127.79 244.37 130.72 246.61C133.65 248.85 136.62 251.64 139.53 254.75C142.43 257.88 145.08 260.98 147.57 263.73C150.06 266.48 152.39 268.89 154.48 270.77C156.57 272.65 158.37 274.05 159.67 274.92C160.31 275.38 160.84 275.68 161.19 275.9C161.54 276.12 161.73 276.22 161.74 276.21C161.74 276.19 161.58 276.06 161.25 275.82C160.92 275.57 160.41 275.24 159.79 274.76C158.53 273.83 156.77 272.41 154.73 270.5C152.68 268.6 150.39 266.18 147.93 263.41C145.47 260.65 142.83 257.54 139.92 254.4C137 251.27 134 248.47 131.02 246.23C128.04 243.99 125.12 242.3 122.51 241.22C119.91 240.14 117.68 239.58 116.12 239.36C115.35 239.21 114.73 239.2 114.32 239.15C113.91 239.12 113.69 239.11 113.69 239.13V239.13Z" fill="#263238"/>
<path d="M111.4 232.26C111.39 232.35 112.93 232.57 115.35 233.24C117.76 233.9 121.03 235.12 124.32 237.07C127.6 239.03 130.23 241.32 131.96 243.13C133.7 244.94 134.62 246.2 134.7 246.14C134.73 246.12 134.52 245.79 134.11 245.21C133.71 244.62 133.07 243.82 132.23 242.88C130.55 240.99 127.92 238.62 124.59 236.62C121.25 234.64 117.91 233.46 115.45 232.88C114.22 232.59 113.21 232.41 112.5 232.33C111.8 232.25 111.41 232.22 111.4 232.26V232.26Z" fill="#263238"/>
<g opacity="0.3">
<path d="M300.13 214.45C294.76 215.91 288.32 208.19 283.44 203.36C280.9 200.85 278.27 198.16 277.33 194.72C276.56 191.87 277.06 188.8 278.17 186.07C279.28 183.34 280.07 181.57 281.74 179.14C281.29 183.31 280.26 189.69 281.67 194.93C282.84 199.3 285.61 202.77 288.54 206.07C291.65 209.56 295.32 213.22 300.12 214.46" fill="black"/>
</g>
<path d="M277.18 210.03C277.28 210 276.66 208.26 276.16 205.35C275.9 203.9 275.73 202.15 275.67 200.2C275.65 198.25 275.76 196.11 276.09 193.88C276.45 191.66 277.01 189.59 277.63 187.74C278.29 185.91 278.99 184.29 279.69 182.99C281.07 180.38 282.19 178.92 282.11 178.85C282.08 178.83 281.79 179.18 281.29 179.85C281.03 180.18 280.73 180.59 280.42 181.09C280.1 181.59 279.72 182.15 279.37 182.81C278.62 184.1 277.88 185.72 277.19 187.57C276.53 189.43 275.95 191.54 275.59 193.79C275.25 196.05 275.15 198.23 275.2 200.2C275.29 202.17 275.5 203.95 275.81 205.41C275.93 206.15 276.13 206.79 276.27 207.37C276.41 207.95 276.57 208.43 276.71 208.82C276.99 209.61 277.15 210.03 277.19 210.02L277.18 210.03Z" fill="#263238"/>
<path d="M202.63 126.35C202.56 126.49 203.75 127.18 204.99 128.29C206.24 129.4 207.07 130.5 207.19 130.41C207.31 130.34 206.65 129.06 205.33 127.9C204.02 126.73 202.67 126.22 202.62 126.35H202.63Z" fill="#263238"/>
<path d="M192.08 132.48C191.97 132.59 192.99 133.69 193.81 135.3C194.65 136.91 194.94 138.38 195.1 138.35C195.23 138.35 195.16 136.76 194.28 135.06C193.41 133.35 192.17 132.37 192.09 132.47L192.08 132.48Z" fill="#263238"/>
<path d="M174.01 138.84C174.16 138.87 174.57 137.48 175.17 135.82C175.77 134.15 176.34 132.82 176.2 132.75C176.08 132.68 175.29 133.94 174.68 135.64C174.06 137.35 173.87 138.81 174.01 138.84V138.84Z" fill="#263238"/>
<path d="M162.39 133.35C162.54 133.38 162.94 131.61 164.09 129.75C165.21 127.87 166.6 126.7 166.5 126.58C166.44 126.47 164.83 127.51 163.65 129.48C162.45 131.45 162.27 133.35 162.4 133.35H162.39Z" fill="#263238"/>
<path d="M129 166.2C128.86 166.22 130.57 180.08 132.83 197.15C135.09 214.23 137.04 228.05 137.18 228.03C137.32 228.01 135.61 214.16 133.35 197.08C131.09 180.01 129.14 166.18 129 166.2Z" fill="#263238"/>
<path d="M280.96 188.64C280.96 188.64 280.94 189.15 280.99 190.07C280.99 190.53 281.08 191.09 281.2 191.74C281.26 192.07 281.31 192.41 281.38 192.78C281.46 193.14 281.57 193.52 281.67 193.92C282.04 195.53 282.77 197.37 283.67 199.37C284.65 201.32 285.85 203.42 287.4 205.42C288.96 207.41 290.65 209.14 292.35 210.52C294.09 211.85 295.77 212.92 297.32 213.52C297.7 213.68 298.06 213.84 298.41 213.97C298.77 214.07 299.11 214.16 299.43 214.25C299.74 214.33 300.04 214.42 300.31 214.49C300.58 214.55 300.84 214.56 301.07 214.6C301.99 214.71 302.5 214.75 302.5 214.71C302.53 214.57 300.44 214.53 297.46 213.18C295.96 212.55 294.33 211.47 292.64 210.14C290.98 208.77 289.34 207.05 287.8 205.09C286.28 203.12 285.08 201.06 284.09 199.15C283.18 197.2 282.43 195.4 282.02 193.82C281.11 190.68 281.08 188.63 280.96 188.64V188.64Z" fill="#263238"/>
<g opacity="0.3">
<path d="M132.26 304.62C127.96 302.54 126.98 296.96 126.54 292.21C125.25 278.27 123.97 264.34 122.68 250.4C122.08 243.85 121.78 236.37 126.4 231.68C130.62 227.4 137.33 227.14 143.34 227.16C180.45 227.27 213.22 228.35 250.32 228.46L248.43 293.37L132.25 304.62H132.26Z" fill="black"/>
</g>
<path d="M266.32 238.51L262.37 313.79C262.22 316.69 259.79 318.97 256.85 318.97L136.93 319.18C133.98 319.18 131.56 316.89 131.41 313.98L126.83 239.98C126.68 236.91 128.87 232.82 131.98 232.76H260.69C263.9 232.71 266.48 235.35 266.32 238.52V238.51Z" fill="#E0E0E0"/>
<path d="M266.32 238.51C266.32 238.51 266.32 238.42 266.33 238.23C266.34 238.04 266.33 237.76 266.29 237.39C266.18 236.67 265.87 235.53 264.87 234.46C264.37 233.93 263.71 233.42 262.86 233.1C262.03 232.75 261.01 232.67 259.96 232.7C257.85 232.7 255.41 232.68 252.67 232.68C241.69 232.66 225.82 232.63 206.21 232.59C186.59 232.57 163.23 232.55 137.3 232.53C135.68 232.53 134.05 232.53 132.41 232.53C131.59 232.49 130.66 232.69 129.93 233.16C129.19 233.61 128.58 234.25 128.1 234.96C127.15 236.38 126.58 238.07 126.59 239.82C126.69 241.5 126.79 243.19 126.89 244.88C127.31 251.66 127.73 258.57 128.17 265.62C129.04 279.71 129.94 294.29 130.86 309.22L131.03 312.02C131.11 312.96 131.1 313.86 131.26 314.84C131.62 316.77 133.06 318.41 134.88 319.08C135.78 319.44 136.8 319.49 137.7 319.46H140.46C142.3 319.46 144.12 319.45 145.95 319.44C153.24 319.43 160.42 319.41 167.48 319.4C181.59 319.37 195.21 319.34 208.18 319.31C221.15 319.28 233.47 319.25 245.01 319.22C247.89 319.22 250.73 319.21 253.51 319.2C254.21 319.2 254.9 319.2 255.59 319.2C256.28 319.19 256.96 319.23 257.67 319.13C259.07 318.94 260.38 318.21 261.27 317.14C262.18 316.09 262.62 314.68 262.61 313.35C262.68 312.04 262.74 310.74 262.81 309.46C262.94 306.9 263.07 304.39 263.2 301.94C264.19 282.36 265 266.51 265.55 255.54C265.82 250.07 266.02 245.82 266.16 242.92C266.22 241.49 266.27 240.39 266.31 239.64C266.34 238.9 266.34 238.52 266.34 238.52C266.34 238.52 266.3 238.9 266.25 239.64C266.2 240.39 266.14 241.49 266.05 242.92C265.89 245.81 265.65 250.06 265.34 255.53C264.75 266.49 263.88 282.34 262.82 301.92C262.69 304.37 262.55 306.88 262.42 309.44C262.35 310.72 262.28 312.02 262.21 313.33C262.21 314.63 261.8 315.89 260.96 316.88C260.13 317.87 258.92 318.55 257.62 318.72C256.98 318.81 256.28 318.77 255.59 318.78C254.9 318.78 254.21 318.78 253.51 318.78C250.73 318.78 247.89 318.78 245.01 318.78C233.48 318.79 221.15 318.81 208.18 318.82C195.21 318.84 181.59 318.86 167.48 318.88C160.42 318.89 153.24 318.9 145.95 318.91C144.13 318.91 142.3 318.91 140.46 318.91H137.7C136.76 318.94 135.91 318.9 135.07 318.57C133.42 317.96 132.1 316.46 131.78 314.71C131.63 313.86 131.63 312.88 131.56 311.96L131.39 309.16C130.46 294.22 129.56 279.64 128.69 265.56C128.25 258.52 127.82 251.6 127.4 244.82C127.3 243.13 127.2 241.45 127.1 239.77C127.09 238.16 127.62 236.53 128.52 235.2C129.41 233.87 130.82 232.86 132.43 232.98C134.07 232.98 135.7 232.98 137.32 232.98C163.25 232.96 186.61 232.94 206.23 232.93C225.84 232.9 241.71 232.87 252.69 232.85C255.43 232.85 257.87 232.83 259.98 232.83C261.04 232.79 262 232.86 262.83 233.2C263.66 233.51 264.31 234 264.81 234.52C265.81 235.56 266.13 236.68 266.25 237.39C266.36 238.12 266.31 238.5 266.33 238.5L266.32 238.51Z" fill="#263238"/>
<path d="M195.69 282.29C199.589 282.29 202.75 279.129 202.75 275.23C202.75 271.331 199.589 268.17 195.69 268.17C191.791 268.17 188.63 271.331 188.63 275.23C188.63 279.129 191.791 282.29 195.69 282.29Z" fill="white"/>
<path d="M188.63 275.23C188.69 275.23 188.66 274.6 188.95 273.53C189.23 272.48 189.95 270.94 191.53 269.76C192.31 269.18 193.3 268.69 194.43 268.5C195.55 268.31 196.82 268.36 198.02 268.82C199.22 269.25 200.37 270.07 201.18 271.2C202.02 272.32 202.49 273.75 202.5 275.22C202.49 276.7 202.02 278.13 201.18 279.24C200.37 280.37 199.22 281.19 198.02 281.63C196.82 282.09 195.55 282.13 194.43 281.95C193.3 281.76 192.32 281.27 191.53 280.69C189.95 279.51 189.23 277.97 188.95 276.92C188.66 275.85 188.69 275.22 188.63 275.22C188.61 275.22 188.6 275.38 188.6 275.67C188.6 275.97 188.63 276.41 188.75 276.97C188.98 278.06 189.67 279.7 191.31 280.98C192.12 281.61 193.15 282.15 194.35 282.37C195.54 282.59 196.89 282.56 198.18 282.08C199.47 281.63 200.71 280.76 201.59 279.55C202.49 278.36 203.01 276.81 203.02 275.22C203.01 273.63 202.49 272.09 201.59 270.89C200.71 269.68 199.47 268.81 198.18 268.36C196.89 267.88 195.54 267.85 194.35 268.07C193.15 268.29 192.12 268.83 191.31 269.46C189.67 270.74 188.99 272.38 188.75 273.47C188.63 274.03 188.59 274.47 188.6 274.77C188.6 275.07 188.61 275.22 188.63 275.22V275.23Z" fill="#263238"/>
<path d="M262.28 246.85C262.14 246.85 261.55 259.5 260.96 275.1C260.37 290.71 260.02 303.37 260.16 303.38C260.3 303.39 260.89 290.74 261.48 275.12C262.07 259.51 262.42 246.85 262.28 246.85Z" fill="#263238"/>
<path d="M298.33 148.62C299.03 148.03 295.96 136.2 295.96 136.2C295.96 136.2 304.1 122.93 304.31 118.64C304.52 114.36 301.1 105.58 301.1 105.58L277.76 99.59C277.76 99.59 270.26 113.51 268.77 118.43C267.27 123.35 271.34 140.05 271.34 140.05L275.29 148.61C275.29 148.61 287.21 158.03 298.33 148.61V148.62Z" fill="#936760"/>
<path d="M304.26 121.21C304.26 121.21 305.27 119.46 306.72 116.03C308.2 112.53 310.01 109.09 306.72 107.13C304.78 105.98 303.2 106.58 303.2 106.58C303.2 106.58 303.7 103.63 301.94 102.52C300.18 101.41 298.48 102.22 298.48 102.22C298.48 102.22 299.04 98.06 296.5 96.3C293.32 94.09 290.04 96.12 290.04 96.12C290.04 96.12 292.05 77.91 292.22 76.94C292.86 73.4 291.55 70.27 288.03 71.14C286.74 71.46 286.02 72.82 284.51 78.75C283 84.68 280.56 94.8 280.56 94.8C280.56 94.8 276.46 101.92 274.53 105.78C272.59 109.64 268.77 118.44 268.45 120.77C267.63 126.79 271.15 134.77 271.15 134.77L295.96 136.21C295.96 136.21 303.32 122.94 304.26 121.21V121.21Z" fill="#936760"/>
<path d="M302.72 107.36C302.66 107.32 301.93 108.35 300.8 110.04C300.21 110.93 299.55 111.93 298.84 113.02C298.48 113.58 298.08 114.18 297.77 114.88C297.47 115.57 297.28 116.41 297.48 117.25C297.65 118.07 298.23 118.86 299.05 119.09C299.86 119.34 300.65 119.1 301.27 118.82C301.91 118.53 302.44 118.14 302.93 117.8C303.42 117.45 303.86 117.11 304.27 116.8C305.07 116.17 305.7 115.63 306.12 115.25C306.54 114.86 306.76 114.63 306.73 114.61C306.68 114.55 305.7 115.34 304.05 116.51C303.21 117.07 302.25 117.85 301.08 118.39C300.5 118.65 299.82 118.82 299.21 118.62C298.59 118.44 298.14 117.85 298 117.15C297.84 116.45 297.98 115.74 298.25 115.1C298.52 114.45 298.9 113.87 299.25 113.29C299.93 112.18 300.56 111.15 301.12 110.25C302.17 108.51 302.79 107.41 302.73 107.37L302.72 107.36Z" fill="#6F4C47"/>
<path d="M282.37 109.52C282.5 109.52 282.63 107.74 282.11 105.62C281.6 103.5 280.68 101.97 280.56 102.03C280.42 102.1 281.11 103.68 281.6 105.74C282.1 107.79 282.21 109.52 282.37 109.52V109.52Z" fill="#6F4C47"/>
<path d="M272.54 114.85C274.76 112.59 277.75 111.19 280.84 110.52C283.93 109.85 287.14 109.87 290.29 110.16C292.81 110.39 295.69 111.04 296.84 113.3C298.02 115.62 296.6 118.62 294.36 119.96C292.12 121.3 289.35 121.35 286.76 121.11C284.16 120.87 281.54 120.39 278.97 120.79" fill="#936760"/>
<path d="M278.96 120.78C278.96 120.78 279.66 120.71 280.92 120.73C282.18 120.73 283.99 120.96 286.24 121.24C287.37 121.36 288.62 121.47 289.96 121.4C291.3 121.32 292.77 121.07 294.14 120.35C295.52 119.64 296.7 118.35 297.24 116.74C297.52 115.94 297.59 115.04 297.42 114.16C297.21 113.29 296.74 112.47 296.05 111.87C294.67 110.65 292.89 110.26 291.28 110.02C289.64 109.82 288.08 109.74 286.57 109.74C283.56 109.73 280.84 110.17 278.68 110.93C276.52 111.68 274.93 112.68 273.95 113.48C273.45 113.88 273.1 114.22 272.86 114.46C272.63 114.71 272.52 114.84 272.53 114.85C272.56 114.89 273.05 114.37 274.07 113.64C275.08 112.9 276.66 111.96 278.8 111.27C280.93 110.57 283.6 110.17 286.57 110.21C288.05 110.23 289.62 110.32 291.22 110.52C292.79 110.75 294.48 111.15 295.71 112.25C296.33 112.79 296.74 113.51 296.92 114.27C297.08 115.04 297.02 115.85 296.77 116.58C296.28 118.06 295.19 119.26 293.92 119.93C292.64 120.62 291.24 120.88 289.94 120.97C288.63 121.06 287.4 120.97 286.28 120.88C284.04 120.65 282.2 120.48 280.92 120.54C280.28 120.56 279.79 120.62 279.46 120.67C279.13 120.73 278.96 120.77 278.96 120.79V120.78Z" fill="#6F4C47"/>
<path d="M302.54 107.64C299.93 111.6 297.63 115.96 295.43 120.16C294.79 121.38 294.11 122.68 292.94 123.4C292 123.98 289.66 122.93 288.62 122.57L295.79 106.26" fill="#936760"/>
<path d="M295.77 106.27C295.77 106.27 295.52 106.69 295.13 107.48C294.72 108.36 294.19 109.51 293.54 110.89C292.21 113.8 290.39 117.86 288.36 122.46L288.25 122.71L288.51 122.8C289.28 123.08 290.11 123.43 291.01 123.65C291.36 123.74 291.73 123.81 292.11 123.81C292.3 123.81 292.5 123.81 292.7 123.75C292.9 123.71 293.1 123.58 293.24 123.48C293.84 123.06 294.31 122.5 294.68 121.94C295.42 120.78 295.94 119.62 296.52 118.55C297.65 116.38 298.68 114.44 299.57 112.82C300.46 111.2 301.22 109.91 301.74 109.02C302.26 108.13 302.55 107.64 302.52 107.62C302.49 107.6 302.14 108.06 301.57 108.92C300.99 109.78 300.19 111.04 299.25 112.64C298.31 114.24 297.24 116.17 296.09 118.32C295.5 119.39 294.95 120.57 294.25 121.65C293.89 122.19 293.47 122.69 292.94 123.05C292.49 123.42 291.79 123.28 291.14 123.13C290.29 122.92 289.49 122.58 288.68 122.3L288.83 122.65C290.85 118.04 292.61 113.95 293.85 111.01C294.44 109.6 294.92 108.43 295.29 107.53C295.62 106.71 295.78 106.25 295.75 106.24L295.77 106.27Z" fill="#6F4C47"/>
<path d="M297.71 101.43C295.41 107.21 293.1 112.98 290.8 118.76C290.31 119.99 289.81 121.24 288.94 122.24C288.08 123.24 286.77 123.95 285.46 123.76C283.66 123.49 282.48 121.58 282.39 119.76C282.3 117.94 283.02 116.19 283.68 114.5C285.75 109.23 287.41 103.8 288.64 98.2799" fill="#936760"/>
<path d="M288.64 98.2799C288.64 98.2799 288.56 98.4599 288.47 98.8099C288.36 99.2199 288.23 99.7199 288.06 100.34C287.7 101.67 287.18 103.59 286.45 105.94C285.72 108.29 284.78 111.06 283.59 114.09C283.01 115.6 282.27 117.2 282.14 119.05C282.07 119.96 282.23 120.94 282.66 121.8C283.08 122.66 283.77 123.46 284.74 123.83C285.7 124.22 286.8 124.05 287.64 123.59C288.5 123.14 289.19 122.44 289.68 121.67C290.66 120.11 291.14 118.46 291.77 116.96C292.95 113.94 294.02 111.22 294.92 108.9C295.78 106.65 296.49 104.81 297 103.45C297.22 102.85 297.4 102.35 297.54 101.96C297.66 101.62 297.71 101.43 297.7 101.43C297.68 101.43 297.6 101.59 297.45 101.92C297.28 102.31 297.07 102.79 296.82 103.37C296.26 104.71 295.51 106.53 294.58 108.76C293.64 111.06 292.54 113.78 291.32 116.78C290.68 118.27 290.17 119.94 289.25 121.39C288.78 122.11 288.17 122.73 287.4 123.13C286.64 123.53 285.73 123.66 284.92 123.34C284.12 123.03 283.5 122.33 283.12 121.56C282.73 120.78 282.59 119.92 282.64 119.07C282.74 117.35 283.45 115.78 284.03 114.26C285.2 111.21 286.11 108.42 286.8 106.05C287.49 103.68 287.96 101.74 288.25 100.39C288.4 99.7199 288.5 99.1899 288.57 98.8299C288.63 98.4699 288.66 98.2799 288.64 98.2799V98.2799Z" fill="#6F4C47"/>
<path d="M297.15 142.06C297.15 142.06 312.98 188.7 313.6 190.99C314.22 193.28 310.48 209.94 303.61 213.89C296.74 217.85 283.41 201.4 281.75 195.36C280.09 189.32 281.75 179.12 281.75 179.12L271.08 138.93" fill="#936760"/>
<path d="M281.74 134.81C281.74 134.87 282.33 134.88 283.23 134.61C284.13 134.35 285.32 133.77 286.38 132.8C287.44 131.83 288.12 130.69 288.46 129.82C288.8 128.95 288.84 128.37 288.78 128.35C288.63 128.29 288.08 130.57 286.03 132.41C284.02 134.29 281.7 134.64 281.75 134.8L281.74 134.81Z" fill="#6F4C47"/>
<path d="M397.81 360.94C397.81 361.08 309.7 361.2 201.03 361.2C92.36 361.2 4.22998 361.08 4.22998 360.94C4.22998 360.8 92.32 360.68 201.03 360.68C309.74 360.68 397.81 360.8 397.81 360.94Z" fill="#263238"/>
</g>
<defs>
<clipPath id="clip0_173_549">
<rect width="421.26" height="443.11" fill="white"/>
</clipPath>
</defs>
</svg>
