<svg width="67" height="67" viewBox="0 0 67 67" fill="none" xmlns="http://www.w3.org/2000/svg">
<g clip-path="url(#clip0_17_337)">
<path d="M33.5 67C52.0015 67 67 52.0015 67 33.5C67 14.9985 52.0015 0 33.5 0C14.9985 0 0 14.9985 0 33.5C0 52.0015 14.9985 67 33.5 67Z" fill="#3300FF"/>
<path d="M15.6771 39.0761C17.2209 37.7998 18.4381 36.7515 19.329 35.9328C20.2198 35.1143 20.9712 34.2547 21.5863 33.3571C22.2016 32.4599 22.5083 31.5837 22.5083 30.7341C22.5083 30.0875 22.3591 29.584 22.0588 29.2214C21.7586 28.8589 21.3107 28.6785 20.7119 28.6785C20.1131 28.6785 19.6439 28.9032 19.306 29.3526C18.9664 29.8023 18.7974 30.4354 18.7974 31.2557H14.8978C14.929 29.9169 15.2177 28.798 15.7608 27.8992C16.3038 27.0017 17.0207 26.3389 17.9115 25.914C18.8023 25.4892 19.79 25.2759 20.8776 25.2759C22.7528 25.2759 24.1669 25.7566 25.1201 26.718C26.0733 27.6794 26.5506 28.9326 26.5506 30.4764C26.5506 32.163 25.9749 33.7264 24.8248 35.1685C23.6748 36.6105 22.2098 38.0165 20.4281 39.3879H26.8098V42.674H14.9438V39.6716C15.4786 39.2467 15.7231 39.0498 15.6771 39.081V39.0761Z" fill="#FFE4E6"/>
<path d="M27.259 39.8346V36.5733L34.7284 25.8901H39.2432V36.337H41.1808V39.8346H39.2432V42.9074H35.201V39.8346H27.259ZM35.4848 30.3328L31.5145 36.3354H35.4848V30.3328Z" fill="#FFE4E6"/>
<path d="M51.0074 35.5417C51.5586 36.1454 51.8343 36.9739 51.8343 38.0271V42.6715H49.4128V38.3551C49.4128 37.8238 49.2752 37.4102 48.9994 37.1167C48.7237 36.8229 48.3531 36.6752 47.8888 36.6752C47.4244 36.6752 47.052 36.8229 46.7781 37.1167C46.5024 37.4102 46.3648 37.8238 46.3648 38.3551V42.6715H43.9286V32.1311H46.3648V35.7911C46.6109 35.4399 46.9487 35.1595 47.3752 34.951C47.8019 34.7428 48.2825 34.6377 48.8141 34.6377C49.7261 34.6377 50.4562 34.9397 51.0074 35.5417Z" fill="#FFE4E6"/>
<path d="M51.9505 7.16699C52.62 7.48689 52.8282 8.02828 52.838 8.75012C52.871 11.375 52.9514 13.9999 53.0037 16.6248C53.0251 17.7338 52.605 18.1488 51.4913 18.1734C48.9188 18.2325 46.3465 18.2948 43.7757 18.3572C43.6345 18.3604 43.4936 18.367 43.3523 18.3637C42.5682 18.3457 42.0448 17.8962 42.017 17.2236C41.9892 16.5542 42.478 16.0325 43.267 16.0063C45.5033 15.9341 47.7408 15.8963 49.9786 15.8471C50.1688 15.8422 50.3593 15.8471 50.6038 15.8471C50.6038 15.6076 50.6069 15.4206 50.6038 15.2336C50.5595 13.0484 50.5265 10.8648 50.4641 8.67957C50.443 7.93641 50.7087 7.42128 51.4222 7.16699H51.9505Z" fill="#FFE4E6"/>
<path d="M33.7458 7.69043C38.0802 7.73962 42.1847 8.71903 46.0483 10.691C46.7949 11.0716 47.0703 11.6802 46.7866 12.3217C46.4962 12.9812 45.8221 13.1682 45.0361 12.8303C43.8909 12.3364 42.7705 11.7541 41.5843 11.3882C32.4548 8.56648 24.2438 10.2694 17.1337 16.6692C12.9027 20.4769 10.3517 25.3132 9.61669 30.9583C8.42731 40.0896 11.4295 47.7049 18.5315 53.5584C23.5368 57.6828 29.4197 59.4694 35.8672 58.8231C45.0508 57.9026 51.7165 53.1533 55.8507 44.9144C57.437 41.753 58.1408 38.3507 58.1918 34.8136C58.2047 33.9063 58.5985 33.3994 59.3089 33.3569C60.0274 33.3141 60.577 33.8195 60.5327 34.6201C60.4492 36.1129 60.4 37.6189 60.1456 39.0872C59.112 45.0458 56.3411 50.0938 51.9052 54.1983C48.0761 57.7418 43.5776 60.0074 38.4248 60.8802C30.9339 62.1483 24.0519 60.5818 17.931 56.0866C11.9446 51.6883 8.28785 45.7447 7.27893 38.3834C6.01242 29.1503 8.86041 21.2249 15.6441 14.8219C19.8685 10.8354 24.9558 8.56975 30.7388 7.9004C31.0192 7.86759 31.2983 7.82987 31.5786 7.81183C32.2989 7.76753 33.0207 7.73308 33.7425 7.69535L33.7458 7.69043Z" fill="#FFE4E6"/>
</g>
<defs>
<clipPath id="clip0_17_337">
<rect width="67" height="67" fill="white"/>
</clipPath>
</defs>
</svg>
