<svg width="160" height="160" viewBox="0 0 160 160" fill="none" xmlns="http://www.w3.org/2000/svg">
<path d="M45.0256 82.1633C61.9397 82.1633 75.6514 68.4518 75.6514 51.5377C75.6514 34.6236 61.9397 20.9121 45.0256 20.9121C28.1115 20.9121 14.4 34.6236 14.4 51.5377C14.4 68.4518 28.1115 82.1633 45.0256 82.1633Z" fill="#F6D3D6"/>
<path d="M86.983 20.9122C92.7578 20.9122 97.439 16.2307 97.439 10.456C97.439 4.68133 92.7578 0 86.983 0C81.2083 0 76.5269 4.68133 76.5269 10.456C76.5269 16.2307 81.2083 20.9122 86.983 20.9122Z" fill="#1947BA"/>
<path d="M145.515 91.718C145.515 111.57 129.422 127.669 109.564 127.669C89.707 127.669 73.6133 111.575 73.6133 91.718C73.6133 71.8608 89.707 55.7671 109.564 55.7671C129.422 55.7671 145.515 71.8608 145.515 91.718Z" fill="#FC637D"/>
<path d="M115.965 135.243C115.965 141.413 110.942 146.436 104.772 146.436C98.6014 146.436 93.5782 141.413 93.5782 135.243H80.0141C80.0141 148.894 91.1205 160 104.772 160C117.45 160 127.927 150.42 129.36 138.126L115.97 135.243H115.965Z" fill="#1947BA"/>
<path d="M80.0089 135.237C80.0089 141.412 74.9858 146.43 68.8155 146.43C62.6453 146.43 57.6222 141.407 57.6222 135.237H57.6118L44.2269 138.115C45.6606 150.414 56.1373 159.995 68.8155 159.995C82.4667 159.995 93.5731 148.888 93.5731 135.237H80.0089Z" fill="#1947BA"/>
<path d="M93.7624 118.724H80.1982V144.214H93.7624V118.724Z" fill="#1947BA"/>
<path d="M97.4339 115.513C97.4339 121.289 92.7537 125.969 86.9779 125.969C81.2021 125.969 76.5219 121.289 76.5219 115.513C76.5219 109.737 81.2021 105.057 86.9779 105.057C92.7537 105.057 97.4339 109.737 97.4339 115.513Z" fill="#1947BA"/>
<path d="M136.974 45.0039H135.152C135.152 50.2472 133.032 54.9786 129.596 58.4144C126.16 61.8503 121.428 63.9703 116.185 63.9703C110.942 63.9703 106.21 61.8503 102.775 58.4144C99.3387 54.9786 97.2189 50.2472 97.2189 45.0039C97.2189 39.7605 99.3387 35.0291 102.775 31.5933C106.21 28.1575 110.942 26.0376 116.185 26.0376C121.428 26.0376 126.16 28.1575 129.596 31.5933C133.032 35.0291 135.152 39.7605 135.152 45.0039H138.797C138.797 38.7672 136.263 33.0987 132.176 29.0127C128.09 24.9213 122.427 22.3867 116.185 22.3919C109.948 22.3919 104.28 24.9264 100.194 29.0127C96.1026 33.0987 93.568 38.7621 93.5731 45.0039C93.5731 51.2407 96.1077 56.909 100.194 60.9952C104.28 65.0864 109.943 67.6211 116.185 67.616C122.422 67.616 128.09 65.0813 132.176 60.9952C136.268 56.909 138.802 51.2458 138.797 45.0039H136.974Z" fill="#1947BA"/>
</svg>
