<svg width="24" height="24" viewBox="0 0 24 24" fill="none" xmlns="http://www.w3.org/2000/svg">
<path fill-rule="evenodd" clip-rule="evenodd" d="M16 5.7H8C6.72975 5.7 5.7 6.72975 5.7 8V16C5.7 17.2703 6.72975 18.3 8 18.3H16C17.2703 18.3 18.3 17.2703 18.3 16V8C18.3 6.72975 17.2703 5.7 16 5.7ZM8 4C5.79086 4 4 5.79086 4 8V16C4 18.2091 5.79086 20 8 20H16C18.2091 20 20 18.2091 20 16V8C20 5.79086 18.2091 4 16 4H8Z" fill="#1947BA"/>
<path fill-rule="evenodd" clip-rule="evenodd" d="M8 8C5.79086 8 4 9.79086 4 12V16C4 18.2091 5.79086 20 8 20H16C18.2091 20 20 18.2091 20 16V12C20 9.79086 18.2091 8 16 8H8ZM8 11C7.44772 11 7 11.4477 7 12V14C7 14.5523 7.44772 15 8 15H10C10.5523 15 11 14.5523 11 14V12C11 11.4477 10.5523 11 10 11H8Z" fill="#1947BA"/>
<path fill-rule="evenodd" clip-rule="evenodd" d="M9.00039 6.84999C8.53095 6.84999 8.15039 6.46943 8.15039 5.99999V2.99999C8.15039 2.53055 8.53095 2.14999 9.00039 2.14999C9.46983 2.14999 9.85039 2.53055 9.85039 2.99999V5.99999C9.85039 6.46943 9.46983 6.84999 9.00039 6.84999Z" fill="#1947BA"/>
<path fill-rule="evenodd" clip-rule="evenodd" d="M15.0004 6.84999C14.5309 6.84999 14.1504 6.46943 14.1504 5.99999V2.99999C14.1504 2.53055 14.5309 2.14999 15.0004 2.14999C15.4698 2.14999 15.8504 2.53055 15.8504 2.99999V5.99999C15.8504 6.46943 15.4698 6.84999 15.0004 6.84999Z" fill="#1947BA"/>
</svg>
