<svg width="441" height="344" viewBox="0 0 441 344" fill="none" xmlns="http://www.w3.org/2000/svg">
<g clip-path="url(#clip0_93_7780)">
<path d="M239.45 343.83C350.327 343.83 440.21 339.689 440.21 334.58C440.21 329.471 350.327 325.33 239.45 325.33C128.573 325.33 38.6899 329.471 38.6899 334.58C38.6899 339.689 128.573 343.83 239.45 343.83Z" fill="#EAAFA0"/>
<path d="M246.24 154.08C245.89 160.03 246.76 166.05 248.78 171.65C249.26 172.99 249.82 174.31 250.63 175.47C252.31 177.87 255.11 179.44 258.03 179.63C265.04 180.09 272.39 181.13 279.21 179.46C286.04 177.79 323.55 164.51 326.18 163.31L350.84 113.12C344.01 110.93 332.9 112.35 322.33 118.95C316.25 122.75 284.36 135.46 278.08 137.11C276.22 120.61 274.77 59.82 273.79 57.2C272.81 54.58 265.95 52.75 263.22 52.14C260.49 51.53 256.29 53.69 254.86 56.1C251.26 62.15 246.57 62.42 246.64 69.46L246.23 154.08H246.24Z" fill="#F0A768"/>
<path d="M246.65 69.46C246.5 59.62 245.84 51.72 245.09 41.9C244.95 40.13 245.81 37.6 248.37 37.29C250.37 37.05 252.35 37.86 253.23 39.45C254.12 41.05 254.23 42.88 254.3 44.66C254.6 51.83 255.48 59.22 255.13 66.38" fill="#F0A768"/>
<path d="M256.23 54.32C256.19 48.6 256.16 42.88 256.12 37.16C256.12 35.71 256.11 34.22 256.59 32.85C257.08 31.48 258.16 30.23 259.58 29.96C261.2 29.65 262.84 30.7 263.7 32.1C264.56 33.51 264.78 35.2 264.88 36.85C265.34 44.13 263.86 51.49 264.88 58.72" fill="#F0A768"/>
<path d="M266.58 60.25C266.58 55.66 266.58 51.07 266.57 46.47C266.57 43.54 266.76 40.58 267.23 37.7C267.98 33.23 275.34 31.62 275.68 41.97C276.03 52.46 275.92 64.37 275.79 74.86" fill="#F0A768"/>
<path d="M274.75 70.19C275.78 68.51 278.74 65.63 280.43 64.61C281.28 64.1 282.25 63.68 283.25 63.75C285.44 63.91 286.8 66.45 286.55 68.63C286.3 70.81 284.93 72.68 283.65 74.46C279.96 79.62 276.39 85.74 273.02 90.6" fill="#F0A768"/>
<path d="M352.65 112.08C343.43 110.67 333.83 111.85 325.23 115.45C320.54 117.41 306.13 122.52 303.76 124.13C306.06 140.15 309.29 156.03 313.42 171.68C316.56 170.96 325.71 168.55 327.75 168.2C332.8 167.35 337.84 166.49 342.92 165.9C342.97 146.74 346.29 130.15 352.65 112.08Z" fill="#F4F0D3"/>
<path d="M309.91 121.96C312.43 138.02 316 153.91 320.6 169.5" stroke="#A55F38" stroke-width="1.32" stroke-linecap="round" stroke-linejoin="round"/>
<path d="M408.52 129.41C404.56 124.79 381.22 113.12 381.22 113.12L382.76 94.19L349.36 101.45C349.36 106.95 348.64 109.59 348.64 115.09C343.51 123.37 337.91 130.76 332.53 138.88C335.72 141.69 339.65 143.5 343.51 145.27C353.83 150 364.16 154.73 374.48 159.46C375.22 159.8 376.02 160.15 376.83 160.01C377.94 159.83 378.69 158.81 379.31 157.87C386.73 146.75 401.1 140.53 408.51 129.41H408.52Z" fill="#F0A768"/>
<path d="M399.93 55.23C399.93 77.88 393.43 95.38 373.43 100.6C351.66 106.28 320.53 116.16 323.43 62.45C325.15 30.51 341.67 21.43 364.17 21.43C386.67 21.43 399.93 32.57 399.93 55.23Z" fill="#F0A768"/>
<path d="M324.42 62.12C323.7 63.51 317.51 69.58 314.69 72.97C313.4 74.53 313.89 76.87 315.7 77.79C318.95 79.43 325.54 80.7 327.38 81.05" fill="#F0A768"/>
<path d="M366.88 72.04C368.12 69.98 370.76 68.88 373.09 69.45C375.42 70.02 377.26 72.21 377.42 74.61" stroke="#823521" stroke-width="1.42" stroke-linecap="round" stroke-linejoin="round"/>
<path d="M328.69 65.8C328.35 67.73 328.63 69.39 330.23 69.8C331.83 70.21 332.84 68.2 333.2 66.43" stroke="#6D2920" stroke-width="1.42" stroke-linecap="round" stroke-linejoin="round"/>
<path d="M326.11 88.65C329.03 89.85 330.88 88.53 332.48 85.81" stroke="#6D2920" stroke-width="1.42" stroke-linecap="round" stroke-linejoin="round"/>
<path d="M348.19 104.97C351.61 104.85 355.02 104.36 358.35 103.52" stroke="#6D2920" stroke-width="1.42" stroke-linecap="round" stroke-linejoin="round"/>
<path d="M335.56 17.83C333.19 18.42 330.86 19.33 328.58 20.63C322.55 24.09 319.45 30.43 320.74 37.29C321.9 43.43 326.64 49.43 332.42 51.91C334.75 52.91 349.52 54.79 349.97 50.45C349.1 59.02 356.4 66.37 364.42 69.51C365.67 68.51 366.45 67.31 367.88 66.59C370.15 65.45 372.77 64.64 375.23 65.28C378.24 66.06 380.41 68.97 380.82 72.05C381.23 75.13 380.09 78.27 378.22 80.75C377.43 81.8 376.51 82.75 375.5 83.57C373.99 84.8 383.62 95.43 385.84 95.19C390.8 94.65 395.62 86.25 397.71 82.46C401.39 75.77 404.09 68.42 404.66 60.8C405.23 53.18 402.19 39.65 397.27 33.81C382.91 16.8 364.2 21.42 361.99 20.69C353.45 17.86 344.27 15.67 335.57 17.83H335.56Z" fill="#C93F2D"/>
<path d="M381.66 34.54C382.06 28.37 382.4 18.92 385.18 13.41C387.96 7.89001 393.75 2.83001 399.7 1.13001C409.04 -1.52999 419.61 4.47001 423.31 13.46C427.01 22.45 424.38 33.3 417.98 40.62C413.09 46.2 404.86 45.65 397.51 46.65" fill="#C93F2D"/>
<path d="M352.58 47.76C350.82 49.75 347.12 53.81 344.47 54.11C340.1 54.6 335.62 55.09 331.37 53.97C325.48 52.42 320.56 47.65 318.79 41.82C317.02 35.99 318.45 29.31 322.42 24.69C326.83 19.57 334.03 17.23 340.73 18.12C347.43 19.01 353.55 22.86 357.83 28.1" stroke="#C93F2D" stroke-width="1.42" stroke-miterlimit="10"/>
<path d="M349.87 49.49C347.71 55.38 349.81 62.57 354.82 66.36C357.87 68.67 362.59 69.54 365.32 66.87" stroke="#C93F2D" stroke-width="1.42" stroke-miterlimit="10"/>
<path d="M385.62 38.28C382.29 30.53 382.09 20.36 384.48 12.34C387.47 2.31 397.39 -1.57 406.82 1.92C408.99 2.72 411.02 3.88 412.79 5.37C417.69 9.48 420.48 15.99 420.08 22.38" stroke="#C93F2D" stroke-width="1.32" stroke-miterlimit="10"/>
<path d="M321.96 39.92C321.33 33.82 320.83 27.18 324.18 22.05C325.32 20.3 326.86 18.84 328.54 17.59C334.42 13.23 342.23 11.57 349.38 13.16C356.53 14.75 362.9 19.57 366.37 26.01" stroke="#C93F2D" stroke-width="1.42" stroke-miterlimit="10"/>
<path d="M415.37 4.97C412.11 4 408.53 4.45 405.39 5.76C402.25 7.07 399.5 9.19 397.05 11.55C391.59 16.79 387.22 23.98 387.99 31.51" stroke="#A32A21" stroke-width="1.32" stroke-linecap="round" stroke-linejoin="round"/>
<path d="M416 5.75C418.8 12.57 417.65 20.6 414.09 27.06C410.53 33.52 404.8 38.56 398.54 42.47C398.4 42.56 398.21 42.65 398.07 42.54C397.93 42.43 398.17 42.17 398.23 42.33" stroke="#A32A21" stroke-width="1.32" stroke-linecap="round" stroke-linejoin="round"/>
<path d="M392.99 36.12C398.11 24.81 405.18 14.39 413.78 5.44001C414.14 5.06001 414.73 4.67001 415.13 5.00001" stroke="#A32A21" stroke-width="1.32" stroke-linecap="round" stroke-linejoin="round"/>
<path d="M398.38 42.25C403.49 41.95 408.98 41.51 412.92 38.23C414.03 37.3 414.97 36.18 415.82 35C418.77 30.91 420.71 26.09 421.41 21.09" stroke="#A32A21" stroke-width="1.32" stroke-linecap="round" stroke-linejoin="round"/>
<path d="M344.96 53.57C337.18 55.07 328.64 54 322.27 49.3C315.9 44.6 312.29 35.86 314.84 28.36C317.39 20.86 326.8 16.08 333.91 19.56" stroke="#C93F2D" stroke-width="1.42" stroke-miterlimit="10"/>
<path d="M387.12 30.77C384.6 23.28 386.88 14.4 392.71 9.05002" stroke="#A32A21" stroke-width="1.32" stroke-linecap="round" stroke-linejoin="round"/>
<path d="M322.45 40.84C324.54 36.3 327.02 31.85 330.6 28.37C338.08 21.13 350.25 19.27 359.54 23.95" stroke="#A32A21" stroke-width="1.32" stroke-linecap="round" stroke-linejoin="round"/>
<path d="M332.85 50.61C333.35 44.7 336.44 39.06 341.14 35.46C345.85 31.86 352.1 30.35 357.93 31.41" stroke="#A32A21" stroke-width="1.32" stroke-linecap="round" stroke-linejoin="round"/>
<path d="M326.76 47.07C326.93 42.07 329.59 37.21 333.71 34.37" stroke="#A32A21" stroke-width="1.32" stroke-linecap="round" stroke-linejoin="round"/>
<path d="M388.21 32.78C377.05 39.34 362.95 48.46 364.41 69.52" stroke="#A32A21" stroke-width="1.32" stroke-linecap="round" stroke-linejoin="round"/>
<path d="M397.63 42.21C402.32 59.5 396.81 79.17 383.83 91.52" stroke="#A32A21" stroke-width="1.32" stroke-linecap="round" stroke-linejoin="round"/>
<path d="M393 37.4C394.16 44.23 393.53 53.59 392.01 60.18C389.82 69.67 385.55 78.87 376.3 83.93" stroke="#A32A21" stroke-width="1.32" stroke-linecap="round" stroke-linejoin="round"/>
<path d="M348.75 52.26C347.75 44.25 356.18 38.86 362.41 35.96C370.99 31.96 379.02 31.3 388.38 32.12" stroke="#A32A21" stroke-width="1.32" stroke-linecap="round" stroke-linejoin="round"/>
<path d="M358.33 27.49C367.53 20.89 384.09 28.15 386.73 29.47" stroke="#A32A21" stroke-width="1.32" stroke-linecap="round" stroke-linejoin="round"/>
<path d="M396.39 39.12C401.45 33.05 405.77 26.36 409.22 19.25" stroke="#A32A21" stroke-width="1.32" stroke-linecap="round" stroke-linejoin="round"/>
<path d="M391.16 34.79C389.57 46.04 385.92 57 380.43 66.95" stroke="#A32A21" stroke-width="1.32" stroke-linecap="round" stroke-linejoin="round"/>
<path d="M382.1 22.43C386.3 32.6 393.89 41.17 403.67 46.2" stroke="#330D0B" stroke-width="1.32" stroke-linecap="round" stroke-linejoin="round"/>
<path d="M374.64 11.1C374.4 9.86 374.3 8.46 375.02 7.42C376.21 5.7 379.07 6.05 380.48 7.58C381.9 9.12 382.23 11.34 382.39 13.43C382.6 16.24 383.11 20.11 381.92 22.59C377.75 21.93 375.35 14.74 374.64 11.1Z" stroke="#330D0B" stroke-width="1.32" stroke-linecap="round" stroke-linejoin="round"/>
<path d="M388.13 12.98C389.08 12.13 390.13 11.34 391.34 10.94C392.55 10.54 393.96 10.57 395.02 11.28C396.82 12.48 396.96 15.24 395.85 17.1C394.75 18.96 392.76 20.1 390.81 21.03C389.86 21.48 388.89 21.9 387.88 22.19C386.09 22.7 383.38 23.48 381.61 23.38C380.83 20.13 385.92 14.95 388.13 12.99V12.98Z" stroke="#330D0B" stroke-width="1.32" stroke-linecap="round" stroke-linejoin="round"/>
<path d="M381.95 22.82C380.84 26.13 381.18 29.89 382.85 32.95" stroke="#330D0B" stroke-width="1.32" stroke-linecap="round" stroke-linejoin="round"/>
<path d="M372.46 18.22C374.32 21.61 378.25 23.75 382.11 23.49" stroke="#330D0B" stroke-width="1.32" stroke-linecap="round" stroke-linejoin="round"/>
<path d="M405.29 45.08C409.22 46.16 413.53 45.18 416.98 43.01C420.43 40.85 423.09 37.59 425.11 34.05C426.12 32.29 426.98 30.45 427.53 28.5C429.89 20.15 425.43 10.42 417.58 6.75" stroke="#C93F2D" stroke-width="1.32" stroke-miterlimit="10"/>
<path d="M386.08 94.83C394.6 91.97 401.48 84.91 404.6 76.48C407.72 68.05 407.19 58.44 403.65 50.18" stroke="#C93F2D" stroke-width="1.32" stroke-miterlimit="10"/>
<path d="M348.12 114.11C353.88 118.56 361.91 118.13 369.17 117.48C373.54 117.09 378.38 116.47 381.22 113.12C384.75 114.67 398.3 119.53 403.68 122.6C394.37 130.62 386.84 145.04 380.17 155.37C379.8 155.95 379.35 156.56 378.68 156.71C378.06 156.85 377.44 156.57 376.87 156.3C361.82 149.13 345.92 143.76 329.61 140.34C333.79 131.12 342.23 122.35 348.13 114.12L348.12 114.11Z" fill="#F4F0D3"/>
<path d="M346.25 120.39C357.33 125.11 370.58 124.39 381.08 118.51" stroke="#A55F38" stroke-width="1.32" stroke-linecap="round" stroke-linejoin="round"/>
<path d="M346.44 217.91C345.88 217.5 308.93 193.13 301.98 188.97C295.47 185.07 282.42 183.35 275.4 186.25C270.94 188.09 260.84 192.97 259.7 197.66C254.33 219.73 260.82 239.77 269.83 260.62C276.1 275.15 278.81 278.87 285.24 294.08C294.05 285.05 304.33 279.7 313.2 273.17C327.66 262.52 340.33 251.75 357.91 242.55L346.44 217.91ZM314.81 269.94C311.42 261.61 308.21 253.2 305.19 244.73C314.45 249.55 322.84 252 332.1 256.82L314.81 269.94Z" fill="#0E7289"/>
<path d="M402.35 275.14C413.72 266.6 418.07 255.42 419.28 241.25C420.5 227.08 417.76 212.9 415.11 198.93C412.46 184.96 408.95 170.8 404.52 156.59L367.12 147.02C356.94 144.51 342.68 139.87 332.97 135.91L330.25 136.45C328.23 140.68 326.68 144.74 325.13 149.16C324.21 151.79 323.88 154.15 323.64 156.92C323.35 160.44 324.76 169.14 325.46 172.6C326.86 179.57 328.73 181.04 330.14 188.01C330.52 189.88 335.43 210.85 335.43 210.85C341.76 221.68 348.81 232.32 357.01 241.81C352.99 242.94 349.37 245.16 345.8 247.35C340.81 250.42 311.03 264.08 303.1 270.03C296.83 274.73 289.25 278.51 284.8 285.21C281.25 290.56 284.06 299.78 287.08 305.39C289.92 310.67 294.85 316.15 300.55 318.33C308.17 321.25 316.7 319.1 324.53 316.83C339.39 312.51 354.12 307.76 368.71 302.6C368.88 296.84 369.64 291.09 370.97 285.49C377.56 282.81 396.65 279.41 402.34 275.13L402.35 275.14Z" fill="#0E7289"/>
<path d="M327.29 143.72C329.48 144.64 334.79 139.42 336.97 140.33C340.72 130.67 344.21 120.75 348.91 111.52C346.09 111.26 342.77 110.96 339.96 110.71C336.34 119.36 329.76 135.79 327.29 143.72Z" fill="#0E7289"/>
<path d="M374.67 153.3C376.32 146.86 380.39 138.9 384.81 132.92C389.22 126.94 400.92 120.94 400.92 120.94L390.52 116.73C389.15 116.98 388.63 117.52 387.58 118.43C375.96 128.44 367.78 142.46 363.77 157.26" fill="#0E7289"/>
<path d="M282.35 285.69C289.82 276.35 335.87 253.57 353.48 239.48" stroke="#0A505B" stroke-width="1.32" stroke-miterlimit="10"/>
<path d="M358.99 183.68C360.13 174.44 363.15 163.81 367.58 155.61C357.89 153.54 345.32 149.42 336.26 145.41C332.54 153.34 330.4 162.48 330.41 171.24" stroke="#0A505B" stroke-width="1.32" stroke-linecap="round" stroke-linejoin="round"/>
<path d="M367.14 146.99C370.16 147.31 373.15 148.01 376 149.07" stroke="#0A505B" stroke-width="1.32" stroke-linecap="round" stroke-linejoin="round"/>
<path d="M330.6 135.09L337.85 137.78" stroke="#0A505B" stroke-width="1.32" stroke-linecap="round" stroke-linejoin="round"/>
<path d="M296.19 241.61C300.27 243.6 304.49 245.32 308.79 246.75" stroke="#0A505B" stroke-width="1.32" stroke-linecap="round" stroke-linejoin="round"/>
<path d="M391.29 221.44C396.69 220.06 402.29 219.48 407.85 219.72" stroke="#0A505B" stroke-width="1.32" stroke-linecap="round" stroke-linejoin="round"/>
<path d="M390.17 221.37C394.56 223.65 399.12 225.6 403.8 227.21" stroke="#0A505B" stroke-width="1.32" stroke-linecap="round" stroke-linejoin="round"/>
<path d="M344.13 293.97C352.93 291.41 361.72 288.85 370.52 286.29" stroke="#0A505B" stroke-width="1.32" stroke-linecap="round" stroke-linejoin="round"/>
<path d="M295.29 303.36C296.38 305.79 297.9 308.03 299.76 309.94" stroke="#0A505B" stroke-width="1.32" stroke-linecap="round" stroke-linejoin="round"/>
<path d="M298 296.28C300.33 300.69 302.66 305.1 305 309.51" stroke="#0A505B" stroke-width="1.32" stroke-linecap="round" stroke-linejoin="round"/>
<path d="M292.07 308.61C288.32 310.28 283.33 313 278.46 315.7C271.98 319.29 269.43 327.3 272.63 333.98C283.26 334.36 316.04 333.51 332.44 331.35C335.79 330.91 337.9 327.47 336.65 324.33C335.19 320.65 333.17 316.97 332.21 313.44" fill="#220D09"/>
<path d="M400.39 274.1C402.93 275.21 406.21 275.6 408.33 275.74C409.54 275.82 410.48 276.83 410.46 278.05L410.2 293.72C410.18 294.96 409.17 295.96 407.93 295.96C406.63 295.96 405.51 296.84 405.16 298.1C403.73 303.26 399.85 312.07 396.75 318.76C394.19 324.27 388.69 327.82 382.61 327.89L370.39 328.03C370.39 328.03 369.45 326.59 368.21 324.69C365.31 320.24 366.7 314.27 371.28 311.58L371.32 311.56C373.96 309.99 373.99 306.17 371.44 304.48C369.67 303.31 368.16 302.32 368.33 302.46C369.07 296.88 370.65 284.85 370.65 284.85L400.38 274.13L400.39 274.1Z" fill="#220D09"/>
<path d="M345.55 81.85C349.466 81.85 352.64 78.6757 352.64 74.76C352.64 70.8443 349.466 67.67 345.55 67.67C341.634 67.67 338.46 70.8443 338.46 74.76C338.46 78.6757 341.634 81.85 345.55 81.85Z" fill="#EA7663"/>
<path d="M325.75 175.2C334.27 178.6 353.02 193.65 361.89 195.98C362.81 196.22 363.85 196.44 364.66 195.94C365.02 195.72 365.28 195.39 365.49 195.03C366.4 193.48 367.19 191.86 367.59 190.1L374.37 160.24C376 153.07 377.67 145.79 381.3 139.4C384.93 133.01 393.79 123.17 400.93 124.89C406.43 126.21 405.47 126.79 408.08 128.74C417.88 136.06 417.03 147.88 415.14 158.8C411.09 182.24 401.94 204.79 388.57 224.47C384.38 230.64 377.08 233.89 369.7 232.86C366.71 232.44 363.81 231.84 361.32 231.12C348.6 227.48 309.61 194.8 309.9 193.67C309.9 193.67 307.13 185.82 312.76 179.8C318 174.2 325.75 175.18 325.75 175.18V175.2Z" fill="#F0A768"/>
<path d="M379.27 142.24C385.32 128.52 394.83 116.18 408.08 124.35C414.18 128.11 418.69 134.45 420.83 141.29C422.96 148.13 423.44 155.37 423.89 162.52C424.41 170.69 422.09 179.35 422.61 187.52C422.77 189.95 372.72 181.05 368.02 178.27C368.02 178.27 370.5 171.08 371.9 164.96C373.04 159.99 375.48 150.84 379.27 142.23V142.24Z" fill="#F4F0D3"/>
<path d="M371.7 168.58C374.7 170.61 378.42 171.22 382 171.78C394.57 173.73 411.16 178.72 422.16 178.28" stroke="#A55F38" stroke-width="1.32" stroke-linecap="round" stroke-linejoin="round"/>
<path d="M417.26 187.08C418.06 178.45 418.44 169.78 418.41 161.11" stroke="#A55F38" stroke-width="1.32" stroke-linecap="round" stroke-linejoin="round"/>
<path d="M207.92 180.02C215.03 180.92 222.29 180.57 229.29 179.03C235.79 177.59 241.03 172.72 242.99 166.35C250.19 142.9 260.66 111.85 263.41 89.94L267.69 67.95C268.35 64.56 260.15 60.48 256.72 60.95C255.63 61.1 254.57 61.34 253.61 61.66C249.51 67.81 245.61 76.1 243.57 83.2C238.22 101.76 227.31 122.49 218.42 139.64C210.81 142.41 202.57 143.41 194.52 142.53" fill="#BF5526"/>
<path d="M260.11 71.74C260.36 68.73 262.51 65.96 265.37 64.97" stroke="#6D2920" stroke-width="1.32" stroke-linecap="round" stroke-linejoin="round"/>
<path d="M253.53 69.53C254.05 66.74 255.65 64.16 257.92 62.45" stroke="#6D2920" stroke-width="1.32" stroke-linecap="round" stroke-linejoin="round"/>
<path d="M234.05 145.02C235.17 145.38 237.51 137.14 237.51 137.14" stroke="#6D2920" stroke-width="1.32" stroke-linecap="round" stroke-linejoin="round"/>
<path d="M239.85 143.04L244.16 133.24" stroke="#6D2920" stroke-width="1.32" stroke-linecap="round" stroke-linejoin="round"/>
<path d="M53.72 316.94C36.29 316.44 19.1 310.28 5.22005 299.74C2.59004 297.74 -1.05995 300.52 0.300045 303.53C3.96005 311.62 11.41 317.27 21.23 321.64C28.55 324.9 56.3 334.58 75.23 331.5" fill="#CD6A35"/>
<path d="M187.94 267.66C184.15 275.82 174.07 283.73 165.59 288.93C160.87 291.83 147.52 298.7 137.26 302.09L136.92 302.13C137.12 303.7 137.36 305.25 137.68 306.75C138.55 310.91 138.44 312.25 141.27 315.42C144.59 319.14 151.69 319.55 156.68 319.54C162.68 319.54 169.55 318.18 173.98 322.23C177.18 325.15 177.83 330.04 177.05 334.3C161.66 334.72 143.47 336.27 128.07 336.69C102.77 337.38 76.2299 337.8 53.7399 326.19L49.9899 327.35C45.9399 318.61 47.6399 307.65 48.6399 298.39C51.6599 270.69 72.3499 251.76 89.6599 231.93C110.31 208.26 125.19 179.21 132.18 148.54C132.44 147.4 132.69 146.26 132.92 145.12C134.53 137.36 136.27 129.63 138.36 121.99C139.75 116.91 141.12 111.65 144.06 107.25C147.16 102.62 151.78 99.24 156.46 96.21C162.77 92.12 164.3 90.11 171.8 90.4C174.34 90.5 176.85 90.97 179.28 91.73L195.08 96.66C200.48 98.35 209.87 96.15 217.11 95.05C219.94 94.62 222.49 96.72 222.64 99.58C222.74 101.41 222.78 103.23 222.7 105.06C222.59 107.6 221.37 109.96 219.43 111.6C215.52 114.92 211.39 118.86 206.78 121.74C203.03 124.09 197.06 128.18 195.32 132.25C193.89 135.59 206.65 162.18 210.37 174.52C215.53 191.65 216.89 202.94 215.89 218.48C215.24 228.56 214.47 236.06 214.43 252.61C214.39 269.66 213.33 294.8 218.97 320.67C222.07 321.64 221.38 321.05 224.47 322.02C225.82 322.44 227.25 322.91 228.19 323.97C229.43 325.36 229.52 327.4 229.55 329.26C229.57 330.82 229.6 332.39 229.62 333.95H209.92C204.51 333.95 199.94 329.98 199.17 324.63C195.78 301.05 187.93 267.62 187.93 267.62" fill="#CD6A35"/>
<path d="M109.38 263.68C117.35 267.2 124.74 272.55 129.71 279.79C134.45 286.68 135.38 294.33 136.7 302.18C136.97 303.79 137.26 305.4 137.6 307.02" stroke="#6D2920" stroke-width="1.32" stroke-linecap="round" stroke-linejoin="round"/>
<path d="M164.93 98.94C161.73 99.71 158.68 101.06 155.97 102.93C153.73 104.47 152.47 107.12 152.66 109.83C153.25 118.44 155.72 125.63 159.25 133.95C159.79 135.23 160.91 135.35 161.76 134.24C166.92 127.55 170.58 119.72 172.42 111.48C172.59 110.73 172.55 109.96 172.34 109.22L170.31 102.14C169.65 99.82 167.28 98.37 164.93 98.93V98.94Z" fill="#7F2C21"/>
<path d="M217.63 95.15C219.09 94.81 220.58 94.58 222.08 94.46C222.35 94.44 222.65 94.43 222.87 94.58C223.21 94.82 223.22 95.3 223.19 95.71C223.09 96.93 222.9 98.15 222.61 99.34C222.55 99.58 222.48 99.84 222.27 99.97C221.87 100.22 221.39 99.8 221.11 99.42C220.14 98.15 219.17 96.87 218.2 95.59" fill="#72261C"/>
<path d="M185.98 108.55C186.97 108.91 188.03 109.06 189.08 108.99C190.4 108.91 191.23 107.53 190.74 106.3C190.41 105.48 189.6 104.92 188.72 104.52" stroke="#6D2920" stroke-width="1.32" stroke-linecap="round" stroke-linejoin="round"/>
<path d="M198.88 115.5C207.42 113.42 215.51 109.5 222.43 104.07" stroke="#6D2920" stroke-width="1.32" stroke-linecap="round" stroke-linejoin="round"/>
<path d="M184.86 246.7C186.78 255.47 188.38 264.31 189.63 273.21" stroke="#6D2920" stroke-width="1.32" stroke-linecap="round" stroke-linejoin="round"/>
<path d="M172.24 325.82C173.74 328.12 174.29 331.03 173.73 333.72" stroke="#6D2920" stroke-width="1.32" stroke-linecap="round" stroke-linejoin="round"/>
<path d="M168.65 329.94C168.91 331.27 169.18 332.59 169.44 333.92" stroke="#6D2920" stroke-width="1.32" stroke-linecap="round" stroke-linejoin="round"/>
<path d="M225.61 326.2C226.6 328.4 227.04 330.85 226.9 333.26" stroke="#6D2920" stroke-width="1.32" stroke-linecap="round" stroke-linejoin="round"/>
<path d="M221.6 329.08C221.79 330.64 222.06 332.19 222.42 333.72" stroke="#6D2920" stroke-width="1.32" stroke-linecap="round" stroke-linejoin="round"/>
<path d="M121.9 193.92C123.64 190.17 125.38 186.42 127.12 182.66" stroke="#6D2920" stroke-width="1.32" stroke-linecap="round" stroke-linejoin="round"/>
<path d="M129.09 189.26C131.11 184.65 133.13 180.05 135.15 175.44" stroke="#6D2920" stroke-width="1.32" stroke-linecap="round" stroke-linejoin="round"/>
<path d="M51.01 312.05C51.93 309.2 52.84 306.35 53.76 303.5" stroke="#6D2920" stroke-width="1.32" stroke-linecap="round" stroke-linejoin="round"/>
<path d="M57.1699 308.82C58.0899 305.75 59.0099 302.68 59.9299 299.61" stroke="#6D2920" stroke-width="1.32" stroke-linecap="round" stroke-linejoin="round"/>
<path d="M207.65 191.28C207.94 195.68 208.23 200.08 208.51 204.47" stroke="#6D2920" stroke-width="1.32" stroke-linecap="round" stroke-linejoin="round"/>
<path d="M213.93 201.89C213.1 205.33 212.93 208.93 213.43 212.44" stroke="#6D2920" stroke-width="1.32" stroke-linecap="round" stroke-linejoin="round"/>
</g>
<defs>
<clipPath id="clip0_93_7780">
<rect width="440.22" height="343.83" fill="white"/>
</clipPath>
</defs>
</svg>
