<svg width="24" height="24" viewBox="0 0 24 24" fill="none" xmlns="http://www.w3.org/2000/svg">
<path fill-rule="evenodd" clip-rule="evenodd" d="M12.8579 5.24469C14.2092 3.89338 16.4001 3.89338 17.7515 5.24469C19.1028 6.596 19.1028 8.78691 17.7515 10.1382L9.76498 18.1247C9.24034 18.6493 8.53178 18.9487 7.7899 18.9592L5.88604 18.986C4.84399 19.0007 3.99546 18.1522 4.01015 17.1101L4.03698 15.2062C4.04744 14.4644 4.3468 13.7558 4.87145 13.2312L12.8579 5.24469ZM16.5494 6.44677C15.862 5.75935 14.7474 5.75935 14.06 6.44677L6.07353 14.4332C5.86183 14.6449 5.74103 14.9309 5.73681 15.2302L5.70998 17.1341C5.70879 17.2186 5.77759 17.2874 5.86208 17.2862L7.76594 17.2593C8.06529 17.2551 8.3512 17.1343 8.5629 16.9226L16.5494 8.93614C17.2368 8.24872 17.2368 7.13419 16.5494 6.44677Z" fill="black"/>
<path fill-rule="evenodd" clip-rule="evenodd" d="M15.3049 10.7692L12.2293 7.69232L13.4312 6.48996L16.5067 9.56688L15.3049 10.7692Z" fill="black"/>
<path fill-rule="evenodd" clip-rule="evenodd" d="M12.3037 18.8151C12.3037 18.3457 12.6843 17.9651 13.1537 17.9651H20.1525C20.622 17.9651 21.0025 18.3457 21.0025 18.8151C21.0025 19.2846 20.622 19.6651 20.1525 19.6651H13.1537C12.6843 19.6651 12.3037 19.2846 12.3037 18.8151Z" fill="black"/>
</svg>
