<svg width="44" height="44" viewBox="0 0 44 44" fill="none" xmlns="http://www.w3.org/2000/svg">
<path fill-rule="evenodd" clip-rule="evenodd" d="M7.57959 22C7.57959 21.1394 8.27728 20.4417 9.13792 20.4417L23.8046 20.4417C24.6652 20.4417 25.3629 21.1394 25.3629 22C25.3629 22.8607 24.6652 23.5583 23.8046 23.5583L9.13792 23.5583C8.27728 23.5583 7.57959 22.8607 7.57959 22Z" fill="#FC637D"/>
<path fill-rule="evenodd" clip-rule="evenodd" d="M19.0397 15.3981C19.6483 14.7895 20.6349 14.7895 21.2435 15.3981L25.4725 19.6271C26.797 20.9516 26.797 23.0991 25.4725 24.4236L21.2653 28.6308C20.6567 29.2394 19.67 29.2394 19.0614 28.6308C18.4529 28.0223 18.4529 27.0356 19.0614 26.427L23.2687 22.2198C23.376 22.1124 23.376 21.9383 23.2687 21.8309L19.0397 17.6019C18.4311 16.9934 18.4311 16.0067 19.0397 15.3981Z" fill="#FC637D"/>
<path fill-rule="evenodd" clip-rule="evenodd" d="M14.3916 16.5C14.3916 13.3106 16.9771 10.725 20.1666 10.725H27.4999C30.6893 10.725 33.2749 13.3106 33.2749 16.5V28.4167C33.2749 31.6061 30.6893 34.1917 27.4999 34.1917H20.1666C16.9771 34.1917 14.3916 31.6061 14.3916 28.4167V26.256C14.3916 25.3953 13.6939 24.6976 12.8332 24.6976C11.9726 24.6976 11.2749 25.3953 11.2749 26.256V28.4167C11.2749 33.3274 15.2558 37.3083 20.1666 37.3083H27.4999C32.4106 37.3083 36.3916 33.3274 36.3916 28.4167V16.5C36.3916 11.5893 32.4106 7.60835 27.4999 7.60835H20.1666C15.2558 7.60835 11.2749 11.5893 11.2749 16.5V17.7113C11.2749 18.572 11.9726 19.2697 12.8332 19.2697C13.6939 19.2697 14.3916 18.572 14.3916 17.7113V16.5Z" fill="#FC637D"/>
</svg>
