<svg width="625" height="626" viewBox="0 0 625 626" fill="none" xmlns="http://www.w3.org/2000/svg">
<g style="mix-blend-mode:hard-light" opacity="0.7" filter="url(#filter0_f_93_7779)">
<circle cx="312.5" cy="290.5" r="173.5" fill="#EB5757"/>
</g>
<g opacity="0.5" filter="url(#filter1_f_93_7779)">
<circle cx="248" cy="399" r="112" fill="#FF3C78"/>
</g>
<path d="M0.162727 405.047C-1.72078 425.043 12.9632 442.779 32.9582 444.662C35.0287 444.858 37.0725 444.865 39.0796 444.717C45.3969 445.061 118.726 438.588 139.951 481.975C150.57 502.576 171.12 517.513 195.907 519.848C217.711 521.902 238.123 513.77 252.44 499.358L283.089 471.956C297.604 458.444 315.914 449.707 335.55 446.922L393.19 438.751C396.998 438.427 400.751 437.889 404.444 437.156L404.583 437.136L404.582 437.129C448.121 428.428 482.678 392.076 487.055 345.603C492.398 288.863 450.733 238.535 393.993 233.191C388.355 232.66 382.78 232.6 377.306 232.968L320.588 232.205C289.526 231.788 260.539 216.507 242.637 191.12C237.834 184.309 232.424 174.716 231.794 172.928C231.789 172.915 231.747 172.908 231.728 172.898C218.9 146.035 192.697 126.386 160.903 123.392C112.769 118.859 70.0739 154.204 65.541 202.337C65.4798 202.994 59.9796 299.755 59.9796 299.755C59.9707 299.896 59.9618 300.036 59.9518 300.176C58.4167 323.256 48.4938 344.982 32.2246 361.423L11.4827 381.952C5.2444 387.804 1.02767 395.862 0.162727 405.047Z" fill="url(#paint0_linear_93_7779)" fill-opacity="0.8"/>
<path d="M25.4062 461.454C28.3038 481.328 46.7637 495.09 66.6373 492.193C68.6956 491.893 70.6826 491.418 72.5984 490.799C78.8178 489.641 148.537 466.017 179.418 503.156C194.607 520.662 218.104 530.319 242.741 526.728C264.412 523.569 282.323 510.843 292.828 493.454L316.13 459.584C327.04 443.022 342.766 430.205 361.187 422.858L415.262 401.292C418.885 400.078 422.405 398.668 425.819 397.082L425.949 397.031L425.947 397.023C466.194 378.277 491.179 334.785 484.446 288.595C476.225 232.2 423.843 193.149 367.449 201.369C361.843 202.186 356.413 203.447 351.18 205.096L295.891 217.764C265.611 224.702 233.834 216.706 210.437 196.271C204.16 190.789 196.635 182.746 195.601 181.157C195.592 181.145 195.551 181.15 195.529 181.144C176.714 158.074 146.608 145.176 115.008 149.783C67.1672 156.757 34.0378 201.193 41.013 249.035C41.1076 249.688 58.638 345.006 58.638 345.006C58.6625 345.144 58.6859 345.283 58.7104 345.422C62.6744 368.209 58.1694 391.666 46.2472 411.487L30.9454 436.338C26.2667 443.498 24.0759 452.325 25.4062 461.454Z" fill="url(#paint1_linear_93_7779)" fill-opacity="0.7"/>
<path d="M232.313 548.575C232.438 546.3 233.561 544.834 235.84 544.512C237.934 544.216 240.049 546.09 239.997 548.202C239.94 550.499 238.648 551.99 236.36 552.107C234.069 552.221 232.747 550.83 232.313 548.575Z" fill="white"/>
<path d="M245.336 459.404C247.649 459.532 249.173 460.639 249.367 462.958C249.558 465.27 248.29 466.719 246.007 467.074C243.832 467.411 241.881 465.69 241.836 463.463C241.787 461.087 243.183 459.896 245.336 459.404Z" fill="white"/>
<path d="M266.774 475.86C266.851 478.279 265.68 479.696 263.442 480.111C261.331 480.502 259.25 478.748 259.201 476.565C259.149 474.249 260.363 472.715 262.66 472.537C264.928 472.363 266.343 473.648 266.774 475.86Z" fill="white"/>
<path d="M178.552 508.026C178.563 506.039 179.592 504.458 181.956 504.201C184.299 503.944 185.842 505.16 186.103 507.508C186.367 509.859 185.09 511.309 182.786 511.695C180.733 512.039 178.82 510.448 178.552 508.026Z" fill="white"/>
<path d="M168.926 494.614C168.79 496.892 167.712 498.456 165.338 498.609C162.979 498.76 161.51 497.43 161.338 495.096C161.165 492.741 162.472 491.265 164.828 491.1C167.201 490.93 168.491 492.309 168.926 494.614Z" fill="white"/>
<path d="M253.14 557.526C255.4 557.576 256.982 558.528 257.284 560.892C257.588 563.245 256.362 564.692 254.124 565.16C252.006 565.605 249.89 563.917 249.772 561.731C249.646 559.392 250.92 558.068 253.14 557.526Z" fill="white"/>
<path d="M211.37 465.184C213.85 465.367 215.407 466.499 215.505 468.849C215.603 471.163 214.302 472.666 211.925 472.781C209.56 472.892 208.135 471.582 207.995 469.225C207.852 466.818 209.344 465.651 211.37 465.184Z" fill="white"/>
<path d="M203.451 551.401C205.689 551.52 207.286 552.477 207.514 554.862C207.738 557.201 206.572 558.642 204.244 558.985C201.978 559.317 200.019 557.75 199.969 555.518C199.917 553.194 201.249 551.899 203.451 551.401Z" fill="white"/>
<path d="M132.129 497.973C134.448 498.086 136.053 499.063 136.271 501.468C136.486 503.839 135.281 505.293 132.905 505.55C130.474 505.813 129.058 504.449 128.785 502.191C128.497 499.82 129.969 498.542 132.129 497.973Z" fill="white"/>
<path d="M265.371 513.212C263.41 513.17 261.947 512.094 261.684 509.712C261.455 507.64 263.108 505.612 265.122 505.588C267.44 505.561 268.913 506.81 269.256 509.097C269.56 511.114 267.838 513 265.371 513.212Z" fill="white"/>
<path d="M209.322 432.141C211.234 432.141 212.762 433.085 213.089 435.466C213.403 437.746 211.881 439.645 209.615 439.731C207.261 439.82 205.887 438.509 205.531 436.281C205.213 434.291 206.905 432.392 209.322 432.141Z" fill="white"/>
<path d="M284.239 489.06C284.419 491.183 282.882 493.038 280.807 493.204C278.779 493.366 276.806 491.708 276.636 489.698C276.468 487.692 278.135 485.73 280.162 485.543C282.223 485.355 284.06 486.94 284.239 489.06Z" fill="white"/>
<path d="M147.555 477.98C149.558 477.966 150.987 479.186 151.383 481.432C151.742 483.451 150.046 485.433 147.935 485.553C145.588 485.687 144.121 484.552 143.835 482.16C143.571 479.968 145.025 478.221 147.555 477.98Z" fill="white"/>
<path d="M218.651 539.103C216.68 538.963 215.088 537.965 214.905 535.552C214.721 533.158 216.055 531.675 218.348 531.465C220.699 531.249 222.106 532.696 222.473 534.95C222.789 536.9 220.966 538.918 218.651 539.103Z" fill="white"/>
<path d="M190.085 541.872C190.258 543.944 188.673 545.764 186.549 545.93C184.431 546.096 182.569 544.537 182.421 542.476C182.274 540.445 183.943 538.481 185.949 538.321C187.955 538.161 189.916 539.845 190.085 541.872Z" fill="white"/>
<path d="M254.16 528.721C254.206 531.355 253.163 532.879 250.779 533.131C248.401 533.383 246.884 532.146 246.63 529.818C246.375 527.48 247.629 525.959 249.981 525.687C252.372 525.409 253.638 526.788 254.16 528.721Z" fill="white"/>
<path d="M223.018 449.387C222.986 447.108 223.991 445.552 226.378 445.286C228.776 445.02 230.228 446.302 230.486 448.621C230.747 450.954 229.553 452.534 227.193 452.771C224.875 453.001 223.433 451.784 223.018 449.387Z" fill="white"/>
<path d="M211.765 503.447C211.9 501.111 213.069 499.719 215.433 499.533C217.537 499.369 219.474 501.061 219.414 503.106C219.345 505.393 218.138 506.915 215.755 507.021C213.378 507.124 212.117 505.746 211.765 503.447Z" fill="white"/>
<path d="M167.171 524.109C169.471 524.241 170.958 525.37 171.066 527.756C171.173 530.12 169.898 531.55 167.522 531.692C165.101 531.834 163.75 530.436 163.599 528.128C163.444 525.748 164.845 524.474 167.171 524.109Z" fill="white"/>
<path d="M178.903 472.254C181.212 472.187 182.791 473.21 183.029 475.581C183.261 477.888 182.149 479.403 179.719 479.672C177.306 479.937 175.826 478.75 175.565 476.431C175.303 474.113 176.541 472.68 178.903 472.254Z" fill="white"/>
<path d="M173.18 443.137C173.202 440.668 174.437 439.229 176.769 439.111C179.118 438.992 180.564 440.342 180.687 442.703C180.811 445.081 179.494 446.487 177.128 446.62C174.722 446.754 173.485 445.369 173.18 443.137Z" fill="white"/>
<path d="M193.887 452.172C196.214 452.033 198.182 453.672 198.16 455.72C198.137 457.989 197.069 459.589 194.618 459.711C192.231 459.831 190.844 458.573 190.658 456.197C190.47 453.754 191.894 452.572 193.887 452.172Z" fill="white"/>
<path d="M165.74 462.603C165.644 464.891 164.707 466.416 162.239 466.614C159.803 466.811 158.394 465.563 158.176 463.26C157.958 460.921 159.233 459.434 161.596 459.226C163.962 459.018 165.292 460.313 165.74 462.603Z" fill="white"/>
<path d="M148.493 548.191C148.678 545.875 149.753 544.375 152.162 544.256C154.57 544.135 156.017 545.511 156.138 547.781C156.261 550.057 155.003 551.543 152.549 551.667C150.1 551.791 148.929 550.419 148.493 548.191Z" fill="white"/>
<path d="M224.804 568.69C224.782 570.551 223.597 571.955 221.224 572.077C218.813 572.198 217.53 570.829 217.343 568.481C217.174 566.348 218.823 564.431 220.89 564.513C223.137 564.602 224.668 565.686 224.804 568.69Z" fill="white"/>
<path d="M205.148 522.278C205.09 524.342 203.954 525.862 201.588 525.984C199.241 526.107 197.847 524.768 197.627 522.416C197.429 520.299 199.086 518.462 201.157 518.35C203.212 518.24 205.011 519.891 205.148 522.278Z" fill="white"/>
<path d="M146.307 515.18C146.301 512.626 147.574 511.202 149.875 511.091C152.18 510.983 153.666 512.268 153.752 514.682C153.837 517.048 152.619 518.475 150.225 518.604C147.798 518.733 146.623 517.318 146.307 515.18Z" fill="white"/>
<path d="M196.805 485.277C198.842 485.271 200.33 486.332 200.489 488.747C200.646 491.131 199.416 492.493 197.028 492.717C194.538 492.948 193.19 491.507 193.009 489.288C192.828 487.028 194.05 485.515 196.805 485.277Z" fill="white"/>
<path d="M140.731 450.062C140.805 447.642 142.008 446.247 144.362 446.113C146.767 445.977 148.199 447.4 148.316 449.658C148.433 451.934 147.142 453.417 144.713 453.54C142.268 453.663 141.094 452.289 140.731 450.062Z" fill="white"/>
<path d="M229.079 516.61C229.233 514.289 230.352 512.844 232.719 512.617C234.812 512.417 236.755 514.071 236.749 516.135C236.739 518.441 235.557 519.964 233.167 520.106C230.787 520.244 229.52 518.863 229.079 516.61Z" fill="white"/>
<path d="M226.846 483.779C226.662 481.11 228.016 479.674 230.244 479.504C232.467 479.336 234.072 480.533 234.243 482.988C234.412 485.396 233.185 486.804 230.834 487.009C228.437 487.219 227.145 485.901 226.846 483.779Z" fill="white"/>
<path d="M134.188 531.211C136.952 530.935 138.298 532.237 138.738 534.45C139.144 536.498 137.542 538.343 135.372 538.559C132.978 538.796 131.474 537.69 131.205 535.328C130.934 532.972 132.193 531.592 134.188 531.211Z" fill="white"/>
<path d="M264.102 542.982C264.002 540.361 265.176 538.925 267.528 538.748C269.868 538.573 271.311 539.767 271.511 542.182C271.709 544.622 270.395 545.968 268.097 546.198C265.7 546.435 264.434 545.073 264.102 542.982Z" fill="white"/>
<path d="M244.199 496.765C244.169 494.165 245.472 492.687 247.726 492.545C249.983 492.402 251.571 493.703 251.689 496.097C251.806 498.43 250.563 499.915 248.187 500.082C245.774 500.25 244.564 498.826 244.199 496.765Z" fill="white"/>
<path d="M188.311 571.484C190.841 571.562 192.271 572.702 192.395 575.091C192.52 577.488 191.224 578.887 188.873 579.003C186.524 579.12 185.151 577.868 184.99 575.457C184.824 572.97 186.292 571.903 188.311 571.484Z" fill="white"/>
<path d="M282.371 526.252C280.61 526.161 279.18 525.028 278.963 522.662C278.773 520.602 280.493 518.596 282.528 518.659C284.431 518.719 286.299 519.366 286.116 521.722C285.963 523.704 285.999 526.16 282.371 526.252Z" fill="white"/>
<path d="M167.441 562.374C167.524 560.032 168.645 558.575 171.036 558.475C173.4 558.377 174.749 559.62 174.895 562.025C175.04 564.495 173.68 565.759 171.379 565.911C168.984 566.071 167.743 564.688 167.441 562.374Z" fill="white"/>
<path d="M133.935 468.842C133.873 470.915 132.685 472.593 130.381 472.449C129.109 472.369 127.455 471.223 126.815 470.086C126.101 468.812 129.016 464.948 130.287 464.941C132.18 464.93 133.806 466.558 133.935 468.842Z" fill="white"/>
<g opacity="0.9">
<g opacity="0.9">
<path opacity="0.9" d="M72.4385 543.376C73.9661 542.653 75.7935 543.302 76.5188 544.83C77.2441 546.358 76.5955 548.187 75.0661 548.913C73.5379 549.638 71.71 548.988 70.9847 547.46C70.2594 545.931 70.9103 544.102 72.4385 543.376Z" fill="#FF3C78"/>
</g>
<g opacity="0.9">
<path opacity="0.9" d="M63.813 525.136C65.3423 524.41 67.1691 525.061 67.8951 526.59C68.6205 528.118 67.9692 529.947 66.4406 530.671C64.9124 531.397 63.0861 530.747 62.3601 529.218C61.6347 527.69 62.2848 525.862 63.813 525.136Z" fill="#FF3C78"/>
</g>
<g opacity="0.9">
<path opacity="0.9" d="M55.016 506.895C56.5453 506.169 58.3721 506.82 59.0976 508.348C59.8236 509.878 59.1729 511.704 57.6436 512.43C56.1154 513.156 54.2886 512.505 53.5631 510.977C52.8371 509.448 53.4878 507.621 55.016 506.895Z" fill="#FF3C78"/>
</g>
<g opacity="0.9">
<path opacity="0.9" d="M46.3903 488.655C47.9213 487.93 49.7459 488.579 50.4731 490.107C51.1974 491.636 50.5472 493.464 49.0179 494.19C47.4898 494.916 45.6629 494.265 44.9375 492.737C44.2115 491.207 44.8622 489.381 46.3903 488.655Z" fill="#FF3C78"/>
</g>
<g opacity="0.9">
<path opacity="0.9" d="M37.768 470.456C39.2955 469.732 41.123 470.381 41.849 471.911C42.5744 473.439 41.9243 475.267 40.3956 475.991C38.8685 476.716 37.04 476.068 36.314 474.538C35.5885 473.01 36.2398 471.182 37.768 470.456Z" fill="#FF3C78"/>
</g>
<g opacity="0.9">
<path opacity="0.9" d="M88.3066 535.831C89.8359 535.105 91.6622 535.754 92.3888 537.285C93.1142 538.813 92.4635 540.64 90.9342 541.366C89.4061 542.091 87.5798 541.442 86.8538 539.912C86.1278 538.383 86.7785 536.556 88.3066 535.831Z" fill="#FF3C78"/>
</g>
<g opacity="0.9">
<path opacity="0.9" d="M79.6823 517.633C81.2116 516.907 83.0378 517.557 83.7638 519.086C84.4898 520.615 83.8391 522.442 82.3098 523.168C80.7817 523.893 78.9548 523.243 78.2294 521.715C77.5034 520.185 78.1541 518.358 79.6823 517.633Z" fill="#FF3C78"/>
</g>
<g opacity="0.9">
<path opacity="0.9" d="M70.8851 499.392C72.4133 498.667 74.2407 499.316 74.9667 500.845C75.6922 502.373 75.0409 504.202 73.5127 504.927C71.9851 505.651 70.1577 505.002 69.4317 503.473C68.7063 501.944 69.3576 500.116 70.8851 499.392Z" fill="#FF3C78"/>
</g>
<g opacity="0.9">
<path opacity="0.9" d="M62.2606 481.151C63.7899 480.425 65.6168 481.076 66.3427 482.605C67.0682 484.133 66.4169 485.962 64.8882 486.686C63.36 487.412 61.5337 486.762 60.8078 485.233C60.0823 483.705 60.7325 481.877 62.2606 481.151Z" fill="#FF3C78"/>
</g>
<g opacity="0.9">
<path opacity="0.9" d="M53.636 462.91C55.1653 462.184 56.9916 462.834 57.7181 464.364C58.4435 465.892 57.7928 467.719 56.2636 468.445C54.7354 469.171 52.9091 468.521 52.1831 466.992C51.4577 465.464 52.1078 463.636 53.636 462.91Z" fill="#FF3C78"/>
</g>
<g opacity="0.9">
<path opacity="0.9" d="M104.176 528.327C105.705 527.601 107.531 528.251 108.257 529.78C108.983 531.308 108.333 533.136 106.803 533.862C105.275 534.588 103.448 533.937 102.723 532.409C101.997 530.88 102.648 529.051 104.176 528.327Z" fill="#FF3C78"/>
</g>
<g opacity="0.9">
<path opacity="0.9" d="M95.5515 510.087C97.0818 509.363 98.907 510.013 99.6339 511.54C100.36 513.068 99.7087 514.897 98.1801 515.622C96.6521 516.347 94.824 515.697 94.0994 514.169C93.3725 512.641 94.0235 510.813 95.5515 510.087Z" fill="#FF3C78"/>
</g>
<g opacity="0.9">
<path opacity="0.9" d="M86.7531 491.846C88.2824 491.12 90.1093 491.771 90.8364 493.3C91.5607 494.828 90.9111 496.655 89.3807 497.381C87.8537 498.106 86.0263 497.457 85.302 495.928C84.5748 494.4 85.225 492.572 86.7531 491.846Z" fill="#FF3C78"/>
</g>
<g opacity="0.9">
<path opacity="0.9" d="M78.1296 473.605C79.6589 472.879 81.4852 473.528 82.2118 475.059C82.9367 476.586 82.2865 478.414 80.7572 479.14C79.2291 479.865 77.4022 479.214 76.6768 477.686C75.9508 476.157 76.6015 474.33 78.1296 473.605Z" fill="#FF3C78"/>
</g>
<g opacity="0.9">
<path opacity="0.9" d="M69.5062 455.363C71.0338 454.64 72.8611 455.289 73.5865 456.817C74.3118 458.345 73.662 460.174 72.1338 460.899C70.6056 461.625 68.7776 460.974 68.0523 459.446C67.327 457.918 67.9773 456.09 69.5062 455.363Z" fill="#FF3C78"/>
</g>
<g opacity="0.9">
<path opacity="0.9" d="M120.045 520.781C121.574 520.055 123.401 520.706 124.127 522.235C124.852 523.763 124.201 525.592 122.672 526.316C121.144 527.041 119.318 526.392 118.592 524.862C117.867 523.334 118.516 521.507 120.045 520.781Z" fill="#FF3C78"/>
</g>
<g opacity="0.9">
<path opacity="0.9" d="M111.419 502.541C112.95 501.815 114.775 502.464 115.502 503.993C116.227 505.523 115.577 507.349 114.047 508.075C112.519 508.801 110.693 508.151 109.967 506.622C109.241 505.094 109.891 503.266 111.419 502.541Z" fill="#FF3C78"/>
</g>
<g opacity="0.9">
<path opacity="0.9" d="M102.622 484.3C104.152 483.574 105.978 484.223 106.705 485.752C107.429 487.281 106.779 489.109 105.25 489.835C103.722 490.56 101.895 489.909 101.17 488.381C100.444 486.852 101.095 485.023 102.622 484.3Z" fill="#FF3C78"/>
</g>
<g opacity="0.9">
<path opacity="0.9" d="M94.0001 466.058C95.5287 465.333 97.355 465.983 98.081 467.512C98.8065 469.04 98.1563 470.868 96.6276 471.593C95.0989 472.32 93.272 471.669 92.5466 470.141C91.8206 468.612 92.4708 466.784 94.0001 466.058Z" fill="#FF3C78"/>
</g>
<g opacity="0.9">
<path opacity="0.9" d="M85.3743 447.86C86.9036 447.134 88.7304 447.785 89.4564 449.314C90.1818 450.843 89.5305 452.671 88.0018 453.395C86.4737 454.121 84.6474 453.471 83.9214 451.942C83.196 450.414 83.845 448.586 85.3743 447.86Z" fill="#FF3C78"/>
</g>
<g opacity="0.9">
<path opacity="0.9" d="M135.914 513.235C137.444 512.51 139.27 513.159 139.996 514.687C140.721 516.216 140.071 518.044 138.543 518.769C137.015 519.495 135.186 518.844 134.461 517.316C133.735 515.788 134.386 513.96 135.914 513.235Z" fill="#FF3C78"/>
</g>
<g opacity="0.9">
<path opacity="0.9" d="M127.289 495.036C128.819 494.313 130.644 494.962 131.371 496.491C132.095 498.018 131.446 499.847 129.917 500.573C128.389 501.298 126.561 500.648 125.836 499.12C125.11 497.591 125.761 495.762 127.289 495.036Z" fill="#FF3C78"/>
</g>
<g opacity="0.9">
<path opacity="0.9" d="M118.494 476.795C120.021 476.072 121.849 476.721 122.575 478.25C123.3 479.778 122.649 481.607 121.121 482.33C119.593 483.056 117.766 482.407 117.04 480.877C116.314 479.349 116.966 477.521 118.494 476.795Z" fill="#FF3C78"/>
</g>
<g opacity="0.9">
<path opacity="0.9" d="M109.867 458.555C111.398 457.83 113.222 458.479 113.95 460.009C114.674 461.538 114.025 463.364 112.494 464.09C110.967 464.815 109.14 464.166 108.414 462.637C107.688 461.108 108.339 459.281 109.867 458.555Z" fill="#FF3C78"/>
</g>
<g opacity="0.9">
<path opacity="0.9" d="M101.242 440.315C102.773 439.589 104.598 440.238 105.325 441.767C106.049 443.296 105.399 445.124 103.87 445.85C102.343 446.574 100.515 445.924 99.7894 444.396C99.0634 442.867 99.7147 441.038 101.242 440.315Z" fill="#FF3C78"/>
</g>
</g>
<path d="M501.796 424.816C504.095 430.237 501.564 436.496 496.143 438.795C490.722 441.095 484.463 438.564 482.164 433.143C479.864 427.722 482.394 421.463 487.816 419.163C493.237 416.864 499.496 419.394 501.796 424.816Z" fill="url(#paint2_linear_93_7779)"/>
<g opacity="0.96">
<g opacity="0.96">
<path opacity="0.96" d="M78.0992 217.669L28.0646 197.457C26.6295 196.877 25.7161 195.455 25.7858 193.909L26.5746 176.399C26.7154 173.272 30.4653 171.758 32.7306 173.92C38.1092 179.052 46.4828 187.049 54.579 194.809C66.8641 206.583 78.5123 217.812 78.0992 217.669Z" fill="white"/>
</g>
</g>
<g opacity="0.96">
<g opacity="0.96">
<path opacity="0.96" d="M86.5014 215.954L68.749 164.994C68.2398 163.532 68.708 161.908 69.9173 160.942L83.6095 150.003C86.0556 148.048 89.6655 149.851 89.5315 152.979C88.7313 171.661 86.7742 216.626 86.5014 215.954Z" fill="white"/>
</g>
</g>
<g opacity="0.96">
<g opacity="0.96">
<path opacity="0.96" d="M82.3569 235.113L54.4672 241.804C52.9621 242.165 51.393 241.538 50.552 240.239L47.8612 236.081C46.1601 233.452 48.3327 230.043 51.4318 230.489C62.8935 232.139 82.702 235.011 82.3569 235.113Z" fill="white"/>
</g>
</g>
<g opacity="0.5">
<circle cx="385" cy="537" r="14" fill="white"/>
<circle cx="214" cy="79" r="14" fill="white"/>
<circle cx="443" cy="30" r="19" fill="white"/>
</g>
<path d="M501.304 501.595H175.321V592H501.304V501.595Z" fill="#C93F2D"/>
<path d="M519.814 587.691C519.005 587.162 544.935 585.373 559.946 586.276C566.65 586.68 573.043 583.46 576.714 577.829L623.705 505.919C626.069 502.311 625.105 497.473 621.558 495.031L617.11 491.967C609.208 486.538 598.599 487.3 591.569 493.802C586.653 498.344 581.691 502.839 576.698 507.288C573.198 510.399 569.636 513.526 565.421 515.563C550.193 522.921 521.836 521.101 521.836 521.101" fill="#220D09"/>
<path d="M595.38 494.564C599.548 491.982 604.51 490.691 609.41 490.924" stroke="#F4F0D3" stroke-width="1.32" stroke-linecap="round" stroke-linejoin="round"/>
<path d="M522.225 558.697C526.269 562.679 533.113 560.532 537.966 557.561C558.717 544.806 571.363 520.214 570.507 495.964C570.383 492.309 575.049 490.691 577.258 493.6C577.942 494.486 578.471 495.249 578.829 495.746C581.504 499.542 583.511 503.804 584.491 508.346C591.024 538.569 567.287 590.522 525.974 595.422" fill="#893728"/>
<path d="M576.371 499.62C581.955 517.912 579.202 538.553 569.029 554.746" stroke="#601E19" stroke-width="1.32" stroke-miterlimit="10"/>
<path d="M388.095 522.532C387.846 538.989 385.544 573.147 384.44 588.733C384.113 593.275 380.333 596.791 375.776 596.791H349.613C347.902 574.874 360.812 577.472 361.59 574.19C363.27 567.159 361.185 481.794 360.905 473.861L355.508 471.543L343.857 591.004C343.422 595.453 339.689 598.844 335.224 598.844H306.37C304.472 578.296 320.712 579.167 321.941 575.558C324.227 568.792 322.889 553.47 323.496 546.331C324.165 538.429 324.367 530.48 324.087 522.547L309.31 376.425C309.59 356.219 311.441 336.045 314.816 316.134L318.892 248.051C319.405 239.511 323.045 231.298 329.531 225.73C332.176 223.459 335.442 221.405 339.455 219.959C349.348 216.366 360.579 216.397 370.207 220.612C379.851 224.827 387.691 232.978 391.549 242.778C394.644 250.664 395.048 254.911 397.646 262.984C404.77 285.196 409.53 307.859 421.165 328.376C435.491 353.653 457.983 372.925 475.871 395.713C520.592 452.691 543.411 525.969 533.502 598.175L396.433 600.073C393.617 597.584 390.724 595.002 389.153 591.595C387.582 588.189 387.675 583.709 390.413 581.127C391.533 580.054 392.995 579.416 394.426 578.825C403.261 575.17 412.594 572.712 422.083 571.545L388.111 522.563L388.095 522.532Z" fill="#F4F0D3"/>
<path d="M329.065 224.75C333.855 228.856 331.227 241.72 329.718 250.337C327.478 263.123 325.611 276.314 322.64 288.96C320.307 298.869 317.087 308.575 313.012 317.908C312.234 319.697 311.316 321.423 310.134 322.979C305.063 329.667 298.701 330.616 292.806 328.532C283.333 325.172 278.48 314.75 280.813 304.982C288.062 274.619 307.132 247.149 329.049 224.765L329.065 224.75Z" fill="#893728"/>
<path d="M354.139 596.091C353.781 593.338 353.906 590.538 354.481 587.816" stroke="#893728" stroke-width="1.32" stroke-linecap="round" stroke-linejoin="round"/>
<path d="M360.268 596.091C359.941 594.022 360.143 591.875 360.859 589.915" stroke="#893728" stroke-width="1.32" stroke-linecap="round" stroke-linejoin="round"/>
<path d="M310.523 598.144C310.788 595.64 311.037 593.135 311.301 590.615" stroke="#893728" stroke-width="1.32" stroke-linecap="round" stroke-linejoin="round"/>
<path d="M316.854 598.237C316.512 595.951 316.699 593.571 317.43 591.378" stroke="#893728" stroke-width="1.32" stroke-linecap="round" stroke-linejoin="round"/>
<path d="M392.373 594.706C393.944 591.378 395.795 588.173 397.926 585.156" stroke="#893728" stroke-width="1.32" stroke-linecap="round" stroke-linejoin="round"/>
<path d="M397.693 596.697C398.968 593.649 401.27 591.036 404.148 589.418" stroke="#893728" stroke-width="1.32" stroke-linecap="round" stroke-linejoin="round"/>
<path d="M380.256 226.974C392.979 239.527 413.107 258.877 428.305 268.303C433.827 271.725 439.675 275.085 443.439 280.389C447.764 286.471 448.728 294.778 445.913 301.684C445.71 302.182 445.493 302.664 445.259 303.131C440.22 313.21 427.091 316.119 417.743 309.835C408.488 303.597 398.517 286.176 394.457 275.474C388.857 260.728 383.631 242.389 380.287 226.974H380.256Z" fill="#893728"/>
<path d="M426.609 272.628C435.74 276.718 441.495 287.265 439.986 297.158" stroke="#601E19" stroke-width="1.32" stroke-linecap="round" stroke-linejoin="round"/>
<path d="M489.202 534.509C490.213 537.605 491.208 540.684 492.22 543.78" stroke="#893728" stroke-width="1.32" stroke-linecap="round" stroke-linejoin="round"/>
<path d="M496.746 527.214C498.348 533.747 499.95 540.28 501.568 546.813" stroke="#893728" stroke-width="1.32" stroke-linecap="round" stroke-linejoin="round"/>
<path d="M360.874 575.232C363.861 574.874 366.832 574.532 369.818 574.174" stroke="#893728" stroke-width="1.32" stroke-linecap="round" stroke-linejoin="round"/>
<path d="M319.234 578.467C321.505 577.269 324.118 576.725 326.669 576.896" stroke="#893728" stroke-width="1.32" stroke-linecap="round" stroke-linejoin="round"/>
<path d="M508.334 447.153C493.573 451.975 474.083 444.726 465.419 431.847C456.334 418.314 456.692 396.973 465.434 383.207C485.406 400.162 498.535 422.856 508.319 447.153H508.334Z" fill="#893728"/>
<path d="M520.141 475.338C512.254 476.614 504.71 470.703 501.537 463.377C498.364 456.05 499.033 447.589 501.133 439.889C501.506 438.551 502.439 436.265 502.937 434.958C510.388 448.055 516.034 463.657 520.141 475.338Z" fill="#893728"/>
<path d="M498.13 428.363C503.279 439.796 508.039 451.415 512.379 463.175" stroke="#601E19" stroke-width="1.32" stroke-linecap="round" stroke-linejoin="round"/>
<path d="M413.979 419.808C414.694 422.514 416.063 425.034 417.93 427.118" stroke="#893728" stroke-width="1.32" stroke-linecap="round" stroke-linejoin="round"/>
<path d="M419.501 420.43C420.543 422.654 421.569 424.878 422.612 427.087" stroke="#893728" stroke-width="1.32" stroke-linecap="round" stroke-linejoin="round"/>
<path d="M371.156 277.527C371.001 280.576 373.303 283.703 375.854 283.889C378.405 284.076 380.645 281.292 380.427 278.212" stroke="#893728" stroke-width="1.21" stroke-linecap="round" stroke-linejoin="round"/>
<path d="M342.224 274.836C341.897 277.87 339.144 280.592 336.593 280.374C334.042 280.156 332.253 277.061 332.953 274.059" stroke="#893728" stroke-width="1.21" stroke-linecap="round" stroke-linejoin="round"/>
<path d="M342.706 242.824C341.306 246.791 344.993 251.597 349.193 251.255C353.392 250.913 356.27 245.593 354.263 241.907C353.424 241.86 352.599 241.829 351.759 241.782C350.204 246.013 352.832 251.302 357.157 252.608C361.481 253.915 366.598 250.96 367.625 246.558C368.667 242.156 365.401 237.24 360.952 236.478C362.616 242.607 372.183 244.473 376.025 239.418" stroke="#893728" stroke-width="1.32" stroke-linecap="round" stroke-linejoin="round"/>
<path d="M366.427 326.665C366.07 330.056 365.167 333.385 363.223 336.154C360.765 339.653 356.348 342.033 352.164 341.069C347.964 340.104 345.024 336.06 344.091 331.86C343.468 329.029 343.577 326.105 343.951 323.212C345.086 323.554 346.393 323.383 347.482 322.916C349.675 321.968 351.884 320.941 353.719 319.401C354.87 318.452 355.866 317.317 356.659 316.057C357.157 317.146 357.748 318.25 358.246 319.339C358.79 320.505 359.334 321.688 360.143 322.683C361.792 324.705 363.985 325.716 366.427 326.665Z" fill="#DD5941"/>
<path d="M356.846 315.497C356.846 315.497 357.903 308.217 357.561 308.73" stroke="#893728" stroke-width="1.32" stroke-linecap="round" stroke-linejoin="round"/>
<path d="M343.593 323.585C348.399 323.71 353.797 321.516 356.908 315.061C358.183 321.734 361.45 325.405 366.396 326.945" stroke="#893728" stroke-width="1.32" stroke-linecap="round" stroke-linejoin="round"/>
<path d="M354.808 326.634C355.57 323.43 356.332 320.225 357.094 317.021" stroke="#893728" stroke-width="1.32" stroke-linecap="round" stroke-linejoin="round"/>
<path d="M350.048 290.718C347.497 291.278 345.21 292.507 343.671 294.824C342.006 297.313 341.757 300.657 343.313 303.271C344.697 305.588 347.886 307.299 350.281 308.357C355.632 310.721 362.959 311.375 368.278 308.544C371.483 306.848 373.909 303.317 373.411 299.724C372.167 290.64 357.001 289.162 350.033 290.718H350.048Z" fill="#220D09"/>
<path d="M354.59 293.984C357.903 294.233 361.185 294.778 364.405 295.602" stroke="#F4F0D3" stroke-width="1.32" stroke-linecap="round" stroke-linejoin="round"/>
<path d="M377.176 316.523C377.837 316.523 378.373 315.987 378.373 315.326C378.373 314.664 377.837 314.128 377.176 314.128C376.514 314.128 375.978 314.664 375.978 315.326C375.978 315.987 376.514 316.523 377.176 316.523Z" fill="#893728"/>
<path d="M369.647 315.326C369.647 315.994 369.118 316.523 368.449 316.523C367.781 316.523 367.252 315.994 367.252 315.326C367.252 314.657 367.781 314.128 368.449 314.128C369.118 314.128 369.647 314.657 369.647 315.326Z" fill="#893728"/>
<path d="M373.069 321.485C373.069 322.154 372.54 322.683 371.871 322.683C371.203 322.683 370.674 322.154 370.674 321.485C370.674 320.816 371.203 320.288 371.871 320.288C372.54 320.288 373.069 320.816 373.069 321.485Z" fill="#893728"/>
<path d="M337.122 311.204C337.122 311.872 336.593 312.401 335.924 312.401C335.256 312.401 334.727 311.872 334.727 311.204C334.727 310.535 335.256 310.006 335.924 310.006C336.593 310.006 337.122 310.535 337.122 311.204Z" fill="#893728"/>
<path d="M343.453 314.283C344.114 314.283 344.651 313.747 344.651 313.086C344.651 312.424 344.114 311.888 343.453 311.888C342.791 311.888 342.255 312.424 342.255 313.086C342.255 313.747 342.791 314.283 343.453 314.283Z" fill="#893728"/>
<path d="M339.004 318.063C339.004 318.732 338.46 319.261 337.806 319.261C337.153 319.261 336.609 318.732 336.609 318.063C336.609 317.394 337.138 316.866 337.806 316.866C338.475 316.866 339.004 317.41 339.004 318.063Z" fill="#893728"/>
<path d="M153.808 269.765C160.792 252.188 167.776 234.611 174.76 217.034C178.805 206.846 182.896 196.58 188.9 187.402C194.904 178.225 203.024 170.105 213.165 165.952" stroke="#09505B" stroke-width="1.32" stroke-linecap="round" stroke-linejoin="round"/>
<path d="M328.442 233.398C322.563 270.808 310.819 286.409 306.137 313.272C293.055 310.83 273.347 305.075 260.856 300.471C276.925 271.461 297.441 245.998 320.416 222.074" fill="#0E7289"/>
<path d="M213.492 256.902C214.223 270.294 210.023 276.283 213.321 289.302C210.49 290.967 157.075 274.463 157.852 272.176C158.319 270.792 167.776 250.26 172.692 229.914C188.075 233.118 200.333 248.315 213.492 256.902Z" fill="#0E7289"/>
<path d="M294.486 305.044C295.808 298.869 297.13 292.693 298.453 286.518" stroke="#09505B" stroke-width="1.32" stroke-linecap="round" stroke-linejoin="round"/>
<path d="M162.41 273.576C167.387 261.024 171.572 248.16 174.947 235.094" stroke="#09505B" stroke-width="1.32" stroke-linecap="round" stroke-linejoin="round"/>
<path d="M208.375 275.77C176.689 283.811 154.975 296.162 141.364 318.53C104.11 379.692 95.8818 412.559 87.6689 472.834L87 489.587C102.415 492.667 127.987 490.971 140.633 490.878C169.239 490.66 266.068 508.439 272.569 480.378C273.518 476.287 294.751 483.256 297.908 467.359C299.759 458.01 314.848 344.351 312.297 335.189C309.31 324.519 285.573 293.58 275.758 288.462C265.943 283.345 253.966 280.623 243.14 278.352C231.66 275.925 219.761 272.908 208.39 275.785L208.375 275.77Z" fill="#F4F0D3"/>
<path d="M310.726 330.18C308.75 346.731 306.775 363.266 304.799 379.816" stroke="#A55F38" stroke-width="1.32" stroke-linecap="round" stroke-linejoin="round"/>
<path d="M199.99 279.658C201.064 295.369 211.003 310.161 225.143 317.099C234.258 321.563 245.162 322.792 254.697 319.292C264.232 315.792 272.025 307.222 273.472 297.173" stroke="#A55F38" stroke-width="1.32" stroke-linecap="round" stroke-linejoin="round"/>
<path d="M159.159 313.132C187.08 302.493 219.108 335.811 245.177 371.479L188.34 418.734C183.798 413.135 175.523 405.435 171.214 399.555C163.141 388.496 153.668 376.441 150.044 363.235" stroke="#A55F38" stroke-width="1.32" stroke-linecap="round" stroke-linejoin="round"/>
<path d="M181.076 406.99C198.871 392.68 216.261 377.856 233.231 362.566" stroke="#A55F38" stroke-width="1.32" stroke-linecap="round" stroke-linejoin="round"/>
<path d="M190.393 399.555C193.38 402.728 196.366 405.917 199.353 409.09" stroke="#A55F38" stroke-width="1.32" stroke-linecap="round" stroke-linejoin="round"/>
<path d="M201.468 392.618C203.646 395.651 205.839 398.7 208.017 401.733" stroke="#A55F38" stroke-width="1.32" stroke-linecap="round" stroke-linejoin="round"/>
<path d="M210.879 384.545C213.368 387.065 215.872 389.6 218.361 392.12" stroke="#A55F38" stroke-width="1.32" stroke-linecap="round" stroke-linejoin="round"/>
<path d="M220.694 374.139C222.467 378.012 225.174 381.449 228.518 384.078" stroke="#A55F38" stroke-width="1.32" stroke-linecap="round" stroke-linejoin="round"/>
<path d="M228.067 367.357C230.525 370.141 232.982 372.925 235.44 375.71" stroke="#A55F38" stroke-width="1.32" stroke-linecap="round" stroke-linejoin="round"/>
<path d="M179.489 304.779C188.464 311.048 196.88 318.094 204.61 325.841" stroke="#A55F38" stroke-width="1.32" stroke-linecap="round" stroke-linejoin="round"/>
<path d="M89.0999 477.127C132.965 462.552 182.833 451.851 227.631 440.464" stroke="#A55F38" stroke-width="1.32" stroke-linecap="round" stroke-linejoin="round"/>
<path d="M281.14 387.967C285.993 358.584 287.051 328.578 284.267 298.946" stroke="#A55F38" stroke-width="1.32" stroke-linecap="round" stroke-linejoin="round"/>
<path d="M199.648 436.436C208.577 436.202 215.654 437.058 224.552 437.913" stroke="#A55F38" stroke-width="1.32" stroke-linecap="round" stroke-linejoin="round"/>
<path d="M212.808 267.448C210.972 272.394 209.37 279.098 209.759 277.325C208.343 283.671 209.199 290.858 212.963 296.286C216.961 302.042 222.949 306.413 229.389 309.057C242.829 314.579 260.048 307.642 265.912 294.342" fill="#D3824A"/>
<path d="M413.31 561.683C413.31 560.719 428.989 581.438 436.44 594.504C439.769 600.337 445.959 603.915 452.679 603.915H538.589C542.897 603.915 546.428 600.477 546.522 596.153L546.646 590.755C546.864 581.174 540.44 572.712 531.138 570.363C524.651 568.73 518.181 567.034 511.71 565.277C507.199 564.048 502.626 562.772 498.613 560.361C484.131 551.635 470.147 526.903 470.147 526.903" fill="#220D09"/>
<path d="M249.719 151.3C248.739 157.304 243.389 164.428 239.873 169.39C227.383 187.029 206.757 201.246 188.091 212.166C191.435 192.131 198.622 183.218 208.639 171.848C218.641 160.477 233.293 153.353 249.735 151.3H249.719Z" fill="#0E7289"/>
<path d="M529.411 574.485C534.296 577.518 537.998 582.387 539.615 587.893" stroke="#F4F0D3" stroke-width="1.32" stroke-linecap="round" stroke-linejoin="round"/>
<path d="M413.31 561.683C410.432 557.297 363.923 498.484 359.552 492.682C340.56 498.748 265.368 578.887 219.885 600.882C210.879 605.237 180.189 607.804 171.93 606.124C146.762 601.006 123.398 586.882 108.901 565.759C98.8062 551.044 93.3931 511.923 93.3153 488.902L221.503 452.566C238.567 443.435 323.107 404.377 337.635 403.615C352.164 402.837 367.096 405.264 379.851 412.248C424.898 436.949 470.163 526.918 470.163 526.918L413.325 561.668L413.31 561.683Z" fill="#DD5941"/>
<path d="M118.483 483.785C123.678 500.771 127.194 524.181 140.198 536.267C153.202 548.368 171.665 555.446 189.071 551.868C200.862 549.442 211.143 542.504 221.099 535.738C248.071 517.352 275.043 498.982 302.015 480.596C321.972 467.001 357.499 449.548 368.465 456.999C374.065 460.81 409.997 506.23 427.449 528.489" stroke="#AF3222" stroke-width="1.32" stroke-miterlimit="10" stroke-linecap="round"/>
<path d="M111.639 485.838C116.834 502.824 121.672 533.483 134.676 545.569C147.68 557.67 166.143 564.748 183.549 561.17C195.34 558.744 211.159 554.839 221.099 548.057C248.071 529.672 275.043 511.301 302.015 492.915C321.972 479.321 357.499 461.868 368.465 469.319C373.785 472.943 403.339 510.975 419.765 532.363" stroke="#AF3222" stroke-width="1.32" stroke-miterlimit="10" stroke-linecap="round"/>
<path d="M188.293 483.054C204.579 468.354 219.201 457.217 237.136 444.586" stroke="#AF3222" stroke-width="1.32" stroke-miterlimit="10" stroke-linecap="round"/>
<path d="M401.022 543.749C401.986 542.551 403.526 541.587 404.942 540.871C423.763 531.227 441.527 519.514 457.797 505.997" stroke="#AF3222" stroke-width="1.32" stroke-miterlimit="10" stroke-linecap="round"/>
<path d="M382.153 405.031C359.241 422.016 327.183 436.607 301.284 448.553C292.464 452.628 265.803 452.613 256.097 452.831C246.391 453.048 238.162 444.835 229.436 440.558C226.511 439.127 212.201 427.912 195.9 413.228L241.631 375.476C250.279 384.094 257.512 392.027 262.365 397.704C296.742 393.551 317.787 386.878 360.937 365.988L382.169 405.031H382.153Z" fill="#EAA471"/>
<path d="M349.286 423.65C361.372 416.821 373.085 409.899 384.098 403.024L359.35 370.188C359.35 370.188 346.44 376.643 327.043 386.318" fill="#EAA471"/>
<path d="M353.766 375.741C356.644 371.37 362.865 360.419 365.728 356.064C368.045 352.533 370.565 348.831 374.376 346.995C374.407 346.98 374.454 346.964 374.485 346.949C379.727 344.538 384.502 350.682 381.547 355.628C375.869 365.148 371.094 373.765 365.976 381.465" fill="#EAA471"/>
<path d="M358.604 371.743C364.794 368.43 363.379 370.063 369.601 366.797C371.716 365.692 385.125 357.899 387.473 357.417C394.566 355.986 397.817 362.503 402.484 368.041C404.895 370.919 407.275 374.73 409.235 378.649C411.708 383.596 409.515 391.715 404.755 394.515C393.742 401.002 381.205 405.606 370.332 411.346" fill="#EAA471"/>
<path d="M375.418 364.743C385.358 358.537 395.297 352.346 405.237 346.14C407.928 344.46 410.806 342.733 413.979 342.795C417.152 342.858 421.15 346.964 420.59 350.091C420.123 352.642 417.432 354.415 415.348 355.955C405.268 363.437 394.862 370.452 384.16 377.001" fill="#EAA471"/>
<path d="M388.111 373.905C398.051 367.699 407.99 361.508 417.93 355.302C420.621 353.622 423.498 351.895 426.672 351.957C429.845 352.02 433.158 354.742 432.598 357.853C432.131 360.404 430.467 362.737 428.383 364.277C418.303 371.759 406.855 378.214 396.153 384.763" fill="#EAA471"/>
<path d="M386.758 388.853C397.288 383.72 407.819 378.587 418.35 373.454C421.196 372.07 424.245 370.639 427.387 371.028C430.529 371.416 433.547 374.465 432.66 377.498C431.929 379.987 429.067 381.465 426.843 382.787C416.048 389.18 404.957 395.091 393.633 400.488" fill="#EAA471"/>
<path d="M395.842 366.688C398.922 365.832 417.914 355.317 417.914 355.317" stroke="#823521" stroke-width="1.32" stroke-linecap="round" stroke-linejoin="round"/>
<path d="M403.386 379.723C411.412 374.185 420.403 369.596 428.367 362.923" stroke="#823521" stroke-width="1.32" stroke-linecap="round" stroke-linejoin="round"/>
<path d="M452.15 352.844C450.424 356.422 444.062 356.935 437.918 353.979C431.789 351.024 428.211 345.735 429.922 342.158C431.649 338.58 438.011 338.067 444.155 341.022C450.284 343.978 453.861 349.266 452.15 352.844Z" fill="#EAA471"/>
<path d="M461.717 352.113C463.614 356.188 457.781 362.908 448.697 367.139C439.613 371.37 430.716 371.479 428.834 367.419C426.936 363.343 432.769 356.624 441.853 352.393C450.937 348.162 459.834 348.053 461.717 352.113Z" fill="#EAA471"/>
<path d="M472.963 361.492C474.86 365.568 469.027 372.287 459.943 376.518C450.859 380.749 441.962 380.858 440.08 376.798C438.182 372.723 444.015 366.003 453.099 361.772C462.183 357.541 471.081 357.433 472.963 361.492Z" fill="#EAA471"/>
<path d="M479.216 372.132C481.114 376.207 475.28 382.927 466.196 387.142C457.112 391.373 448.215 391.482 446.333 387.422C444.435 383.347 450.268 376.627 459.352 372.396C468.436 368.165 477.334 368.057 479.216 372.116V372.132Z" fill="#EAA471"/>
<path d="M440.64 369.923C447.577 366.019 454.515 362.115 461.452 358.21" stroke="#823521" stroke-width="1.32" stroke-linecap="round" stroke-linejoin="round"/>
<path d="M448.417 380.158C455.246 375.43 462.681 371.556 470.474 368.679" stroke="#823521" stroke-width="1.32" stroke-linecap="round" stroke-linejoin="round"/>
<path d="M258.072 295.789C297.16 295.789 328.847 263.886 328.847 224.532C328.847 185.178 297.16 153.275 258.072 153.275C218.985 153.275 187.298 185.178 187.298 224.532C187.298 263.886 218.985 295.789 258.072 295.789Z" fill="#EAA471"/>
<path d="M211.361 247.351C218.878 247.351 224.971 241.257 224.971 233.74C224.971 226.224 218.878 220.13 211.361 220.13C203.844 220.13 197.75 226.224 197.75 233.74C197.75 241.257 203.844 247.351 211.361 247.351Z" fill="#EA7663"/>
<path d="M300.055 277.138C307.572 277.138 313.665 271.045 313.665 263.528C313.665 256.011 307.572 249.917 300.055 249.917C292.538 249.917 286.444 256.011 286.444 263.528C286.444 271.045 292.538 277.138 300.055 277.138Z" fill="#EA7663"/>
<path d="M257.699 250.042C260.888 251.675 265.336 250.602 267.094 247.522C268.867 244.458 267.047 240.227 263.299 237.971" stroke="#823521" stroke-width="1.32" stroke-linecap="round" stroke-linejoin="round"/>
<path d="M248.133 233.678C246.873 236.774 243.171 238.189 239.857 236.836C236.544 235.483 234.88 231.889 236.14 228.794C237.4 225.699 241.102 224.283 244.415 225.636C247.728 226.99 249.393 230.583 248.133 233.678Z" fill="#F4F0D3"/>
<path d="M248.071 233.834C247.931 234.176 247.619 234.814 247.324 235.14C244.275 238.516 240.511 237.069 240.511 237.069C240.511 237.069 240.449 237.007 240.418 236.976C238.924 235.576 238.52 232.9 239.546 230.349C240.76 227.363 243.528 225.652 245.846 226.383C245.939 226.414 245.768 226.336 245.846 226.383C247.744 227.596 249.486 230.629 248.086 233.818L248.071 233.834Z" fill="#75261B"/>
<path d="M289.851 247.242C288.747 250.4 285.107 252.002 281.747 250.82C278.387 249.637 276.536 246.122 277.64 242.964C278.745 239.807 282.385 238.205 285.744 239.387C289.12 240.569 290.955 244.084 289.851 247.242Z" fill="#F4F0D3"/>
<path d="M289.804 247.398C289.68 247.74 289.4 248.393 289.12 248.735C286.242 252.251 282.4 251.006 282.4 251.006C282.4 251.006 282.338 250.96 282.307 250.929C280.751 249.606 280.207 246.946 281.109 244.349C282.182 241.3 284.858 239.449 287.191 240.071C287.284 240.102 287.113 240.025 287.191 240.071C289.151 241.191 291.033 244.131 289.789 247.382L289.804 247.398Z" fill="#75261B"/>
<path d="M283.1 230.427C286.973 230.598 290.753 232.434 293.273 235.389" stroke="#823521" stroke-width="1.32" stroke-linecap="round" stroke-linejoin="round"/>
<path d="M241.071 217.05C246.033 215.852 250.31 217.734 252.504 220.643" stroke="#823521" stroke-width="1.32" stroke-linecap="round" stroke-linejoin="round"/>
<path d="M245.146 250.96C248.335 259.421 259.581 263.715 267.592 259.515" stroke="#823521" stroke-width="1.32" stroke-linecap="round" stroke-linejoin="round"/>
<path d="M188.169 237.271C177.56 239.231 168.087 228.358 167.325 217.594C167.045 213.628 167.621 209.521 169.581 206.068C174.512 197.358 188.589 195.973 195.122 203.564" fill="#EAA471"/>
<path d="M175.771 208.946C179.1 204.979 188.2 205.057 191.575 210.641" stroke="#93452A" stroke-width="1.32" stroke-linecap="round" stroke-linejoin="round"/>
<path d="M178.058 231.765C179.57 231.765 180.796 230.539 180.796 229.027C180.796 227.515 179.57 226.29 178.058 226.29C176.546 226.29 175.32 227.515 175.32 229.027C175.32 230.539 176.546 231.765 178.058 231.765Z" fill="#F4F0D3"/>
<path d="M270.843 157.817C263.081 157.257 255.677 152.933 251.384 146.447C247.091 139.96 245.986 131.467 248.49 124.094C253.732 108.71 273.332 101.82 288.933 106.393C298.297 109.13 306.728 115.29 311.721 123.69C316.714 132.089 318.098 142.651 314.925 151.891C312.732 158.268 308.563 163.759 304.208 168.908C302.792 170.588 301.253 172.314 299.184 173.076C297.115 173.839 294.393 173.279 293.444 171.303" fill="#0E7289"/>
<path d="M266.425 152.435C261.059 145.327 261.541 135.091 265.414 127.065C269.287 119.054 273.938 109.861 285.573 106.782" stroke="#09505B" stroke-width="1.32" stroke-linecap="round" stroke-linejoin="round"/>
<path d="M296.819 111.51C306.448 125.836 305.406 146.447 294.408 159.73" stroke="#09505B" stroke-width="1.32" stroke-linecap="round" stroke-linejoin="round"/>
<path d="M277.345 156.511C273.612 139.4 279.74 120.485 292.791 108.804" stroke="#09505B" stroke-width="1.32" stroke-linecap="round" stroke-linejoin="round"/>
<path d="M259.41 151.766C251.181 149.309 244.757 141.64 243.762 133.1C242.766 124.561 247.293 115.632 254.744 111.37C257.606 109.721 260.81 108.742 263.968 107.777C269.91 105.957 276.271 104.137 282.26 105.848" stroke="#0E7289" stroke-width="1.32" stroke-miterlimit="10"/>
<path d="M288.264 108.337C292.168 107.342 296.306 108.43 299.977 110.079C312.576 115.757 321.738 128.932 321.614 142.744C321.489 156.557 311.425 169.981 297.939 172.999" stroke="#0E7289" stroke-width="1.32" stroke-miterlimit="10"/>
<path d="M314.35 176.981C307.739 198.571 309.294 221.919 318.456 242.56C320.509 247.18 323.418 251.628 324.274 253.853C333.684 236.214 336.593 204.373 314.35 176.981Z" fill="#0E7289"/>
<path d="M197.579 191.711C209.961 203.984 239.702 206.442 258.181 200.609C274.809 195.367 290.395 178.023 294.393 161.053C280.409 151.393 260.81 147.893 244.151 151.284C227.491 154.675 206.664 177.338 197.579 191.696V191.711Z" fill="#0E7289"/>
<path d="M330.745 212.524C323.107 218.948 325.814 235.265 316.232 232.449C295.186 226.258 280.253 202.537 274.809 191.136C269.365 179.734 268.307 164.475 272.585 152.575C283.084 153.057 293.008 157.864 301.688 163.79C307.723 167.912 313.852 173.341 318.55 178.941C327.571 189.689 328.349 198.68 330.745 212.508V212.524Z" fill="#0E7289"/>
<path d="M254.775 150.273C210.941 141.376 188.34 178.35 184.14 198.509C188.418 200.904 193.24 202.024 198.077 202.817C203.724 193.329 211.361 182.394 217.334 173.092C221.176 167.119 248.926 154.286 254.775 150.257V150.273Z" fill="#0E7289"/>
<path d="M314.676 228.887C306.199 257.259 302.933 281.618 302.015 311.219C303.726 312.604 305.281 313.35 307.49 313.335C311.192 287.451 327.556 264.01 327.214 237.862" fill="#0E7289"/>
<path d="M212.232 198.882C223.354 207.157 238.349 209.973 251.71 206.302C265.072 202.615 276.52 192.52 281.824 179.718" stroke="#0E7289" stroke-width="1.32" stroke-linecap="round" stroke-linejoin="round"/>
<path d="M274.934 185.583C276.583 197.7 280.782 209.817 289.042 218.823C297.302 227.83 310.103 233.243 322.034 230.567" stroke="#0E7289" stroke-width="1.32" stroke-linecap="round" stroke-linejoin="round"/>
<path d="M319.249 231.112C315.641 248.797 312.048 266.499 308.439 284.185C307.086 290.842 305.717 297.593 306.106 304.359" stroke="#09505B" stroke-width="1.32" stroke-linecap="round" stroke-linejoin="round"/>
<path d="M218.127 186.485C211.501 212.181 196.724 247.258 185.027 271.072C182.289 269.361 179.054 266.763 176.316 265.052C181.231 237.754 193.473 185.878 193.473 185.878" fill="#0E7289"/>
<path d="M194.873 263.155C204.641 237.971 212.621 212.104 218.75 185.8" stroke="#0E7289" stroke-width="1.32" stroke-linecap="round" stroke-linejoin="round"/>
<path d="M181.978 276.205C191.529 251.411 200.224 226.29 208.063 200.904" stroke="#09505B" stroke-width="1.32" stroke-linecap="round" stroke-linejoin="round"/>
<path d="M176.938 277.387C184.607 252.733 191.42 227.814 197.346 202.693" stroke="#09505B" stroke-width="1.32" stroke-linecap="round" stroke-linejoin="round"/>
<path d="M274.498 192.022C276.863 182.907 279.227 173.808 281.591 164.692" stroke="#09505B" stroke-width="1.32" stroke-linecap="round" stroke-linejoin="round"/>
<path d="M276.94 182.3C281.918 203.611 298.219 221.919 318.814 229.307" stroke="#09505B" stroke-width="1.32" stroke-linecap="round" stroke-linejoin="round"/>
<path d="M279.771 173.559C289.477 190.902 309.948 200.313 328.738 206.768" stroke="#09505B" stroke-width="1.32" stroke-linecap="round" stroke-linejoin="round"/>
<path d="M282.493 164.941C295.264 181.009 310.01 193.593 328.054 203.346" stroke="#09505B" stroke-width="1.32" stroke-linecap="round" stroke-linejoin="round"/>
<path d="M276.645 184.478C271.589 190.109 263.485 191.571 256.003 192.707C244.928 194.387 233.791 196.067 222.607 195.631C211.423 195.211 200.068 192.536 190.828 186.205" stroke="#09505B" stroke-width="1.32" stroke-linecap="round" stroke-linejoin="round"/>
<path d="M277.454 184.494C265.445 185.987 253.359 186.858 241.273 187.091C226.542 187.387 210.303 186.127 199.819 175.767" stroke="#09505B" stroke-width="1.32" stroke-linecap="round" stroke-linejoin="round"/>
<path d="M280.907 164.537C264.154 168.55 245.831 165.579 231.209 156.479C230.167 155.826 229 154.799 229.342 153.617" stroke="#09505B" stroke-width="1.32" stroke-linecap="round" stroke-linejoin="round"/>
<defs>
<filter id="filter0_f_93_7779" x="22.2811" y="0.281052" width="580.438" height="580.438" filterUnits="userSpaceOnUse" color-interpolation-filters="sRGB">
<feFlood flood-opacity="0" result="BackgroundImageFix"/>
<feBlend mode="normal" in="SourceGraphic" in2="BackgroundImageFix" result="shape"/>
<feGaussianBlur stdDeviation="58.3595" result="effect1_foregroundBlur_93_7779"/>
</filter>
<filter id="filter1_f_93_7779" x="21.0917" y="172.092" width="453.817" height="453.817" filterUnits="userSpaceOnUse" color-interpolation-filters="sRGB">
<feFlood flood-opacity="0" result="BackgroundImageFix"/>
<feBlend mode="normal" in="SourceGraphic" in2="BackgroundImageFix" result="shape"/>
<feGaussianBlur stdDeviation="57.4541" result="effect1_foregroundBlur_93_7779"/>
</filter>
<linearGradient id="paint0_linear_93_7779" x1="-15.2349" y1="202.712" x2="764.106" y2="328.525" gradientUnits="userSpaceOnUse">
<stop stop-color="#7D9FF3"/>
<stop offset="1" stop-color="#1947BA"/>
</linearGradient>
<linearGradient id="paint1_linear_93_7779" x1="485.538" y1="338.164" x2="25.022" y2="338.164" gradientUnits="userSpaceOnUse">
<stop stop-color="#02BE83"/>
<stop offset="1" stop-color="#B3F6DC"/>
</linearGradient>
<linearGradient id="paint2_linear_93_7779" x1="502.279" y1="436.917" x2="484.69" y2="407.028" gradientUnits="userSpaceOnUse">
<stop stop-color="#8AA8F8"/>
<stop offset="1" stop-color="#315BFF"/>
</linearGradient>
</defs>
</svg>
