<svg width="147" height="144" viewBox="0 0 147 144" fill="none" xmlns="http://www.w3.org/2000/svg">
<g clip-path="url(#clip0_17_522)">
<path d="M107.732 100.082C107.66 100.243 107.589 100.33 107.589 100.42C107.589 108.768 107.401 117.123 107.645 125.463C107.86 132.871 114.333 138.896 121.751 139.099C130 139.325 136.801 132.871 136.888 124.599C136.97 116.709 136.91 108.817 136.903 100.924C136.903 100.638 136.82 100.352 136.779 100.082H107.732Z" fill="#FC637D"/>
<path d="M88.0098 88.2123C88.0098 87.9266 87.927 87.6411 87.8855 87.3704H58.8386C58.7671 87.5321 58.6957 87.6185 58.6957 87.7086C58.6957 96.0563 58.5076 115.946 58.7521 124.286C58.9664 131.695 65.4402 137.72 72.8581 137.922C81.1072 138.148 87.9082 131.695 87.9946 123.422C88.0775 115.533 88.0173 96.1053 88.0098 88.2161V88.2123Z" fill="#FC637D"/>
<path d="M73.3282 65.4432C91.4147 65.4432 106.077 50.7933 106.077 32.7217C106.077 14.65 91.4147 0 73.3282 0C55.2419 0 40.58 14.65 40.58 32.7217C40.58 50.7933 55.2419 65.4432 73.3282 65.4432Z" fill="#F6D3D6"/>
<path d="M119.788 144C118.813 143.748 117.832 143.519 116.865 143.241C108.503 140.839 102.691 133.24 102.676 124.542C102.642 107.238 102.665 89.934 102.665 72.6298C102.665 72.0322 102.665 71.4346 102.665 70.6678C101.728 70.6678 100.923 70.7168 100.13 70.6566C98.7642 70.5513 97.8201 69.5667 97.7863 68.2963C97.7524 66.962 98.7229 65.9321 100.156 65.8044C100.51 65.7743 100.867 65.7892 101.224 65.7892C115.232 65.7892 129.241 65.7892 143.245 65.7892C143.651 65.7892 144.065 65.763 144.468 65.8156C145.792 65.9811 146.755 67.0372 146.671 68.3C146.585 69.6456 145.814 70.4687 144.487 70.6377C143.685 70.7393 142.861 70.6566 141.804 70.6566C141.804 71.3068 141.804 71.8894 141.804 72.4757C141.804 89.4228 141.643 106.374 141.861 123.317C142.011 134.969 133.503 142.79 125.069 143.782C124.934 143.797 124.809 143.925 124.681 144H119.788ZM107.732 100.082C107.66 100.244 107.589 100.33 107.589 100.42C107.589 108.768 107.401 117.123 107.645 125.463C107.86 132.871 114.333 138.896 121.751 139.099C130 139.325 136.801 132.871 136.888 124.599C136.971 116.71 136.91 108.817 136.903 100.924C136.903 100.638 136.82 100.353 136.779 100.082H107.732ZM136.801 95.0531V70.8032H107.642V95.0531H136.801Z" fill="#1947BA"/>
<path d="M115.906 107.449C116.666 107.449 117.283 106.833 117.283 106.073C117.283 105.313 116.666 104.697 115.906 104.697C115.146 104.697 114.529 105.313 114.529 106.073C114.529 106.833 115.146 107.449 115.906 107.449Z" fill="#1947BA"/>
<path d="M115.906 118.619C116.666 118.619 117.283 118.003 117.283 117.243C117.283 116.484 116.666 115.868 115.906 115.868C115.146 115.868 114.529 116.484 114.529 117.243C114.529 118.003 115.146 118.619 115.906 118.619Z" fill="#1947BA"/>
<path d="M115.906 130.47C116.666 130.47 117.283 129.854 117.283 129.094C117.283 128.334 116.666 127.719 115.906 127.719C115.146 127.719 114.529 128.334 114.529 129.094C114.529 129.854 115.146 130.47 115.906 130.47Z" fill="#1947BA"/>
<path d="M128.94 107.449C129.7 107.449 130.317 106.833 130.317 106.073C130.317 105.313 129.7 104.697 128.94 104.697C128.18 104.697 127.563 105.313 127.563 106.073C127.563 106.833 128.18 107.449 128.94 107.449Z" fill="#1947BA"/>
<path d="M128.94 118.619C129.7 118.619 130.317 118.003 130.317 117.243C130.317 116.484 129.7 115.868 128.94 115.868C128.18 115.868 127.563 116.484 127.563 117.243C127.563 118.003 128.18 118.619 128.94 118.619Z" fill="#1947BA"/>
<path d="M128.94 130.47C129.7 130.47 130.317 129.854 130.317 129.094C130.317 128.334 129.7 127.719 128.94 127.719C128.18 127.719 127.563 128.334 127.563 129.094C127.563 129.854 128.18 130.47 128.94 130.47Z" fill="#1947BA"/>
<path d="M9.94945 100.082C9.87798 100.243 9.80651 100.33 9.80651 100.42C9.80651 108.768 9.61843 117.123 9.86294 125.463C10.0773 132.871 16.551 138.896 23.9689 139.099C32.2181 139.325 39.019 132.871 39.1054 124.599C39.1883 116.709 39.1281 108.817 39.1206 100.924C39.1206 100.638 39.0379 100.352 38.9963 100.082H9.94945Z" fill="#FC637D"/>
<path d="M22.0018 144C21.0275 143.748 20.0456 143.519 19.0789 143.241C10.717 140.839 4.90529 133.24 4.89025 124.542C4.85639 107.238 4.87896 89.934 4.87896 72.6298C4.87896 72.0322 4.87896 71.4346 4.87896 70.6678C3.94233 70.6678 3.13734 70.7168 2.34366 70.6566C0.978199 70.5513 0.0340413 69.5667 0.00018709 68.2963C-0.0336672 66.962 0.936822 65.9321 2.36999 65.8044C2.72358 65.7743 3.08092 65.7892 3.43828 65.7892C17.4465 65.7892 31.4546 65.7892 45.4589 65.7892C45.8652 65.7892 46.2789 65.763 46.6815 65.8156C48.0055 65.9811 48.9685 67.0372 48.8857 68.3C48.7993 69.6456 48.0281 70.4687 46.7004 70.6377C45.8991 70.7393 45.0753 70.6566 44.0183 70.6566C44.0183 71.3068 44.0183 71.8894 44.0183 72.4757C44.0183 89.4228 43.8565 106.374 44.0747 123.317C44.2251 134.969 35.7164 142.79 27.2829 143.782C27.1476 143.797 27.0234 143.925 26.8956 144H22.0018ZM9.94582 100.082C9.87435 100.244 9.80289 100.33 9.80289 100.42C9.80289 108.768 9.6148 117.123 9.85931 125.463C10.0737 132.871 16.5473 138.896 23.9652 139.099C32.2144 139.325 39.0154 132.871 39.1019 124.599C39.1846 116.71 39.1244 108.817 39.1169 100.924C39.1169 100.638 39.0342 100.353 38.9928 100.082H9.94958H9.94582ZM39.0154 95.0531V70.8032H9.85555V95.0531H39.0154Z" fill="#1947BA"/>
<path d="M18.1199 107.449C18.8803 107.449 19.4967 106.833 19.4967 106.073C19.4967 105.313 18.8803 104.697 18.1199 104.697C17.3596 104.697 16.7432 105.313 16.7432 106.073C16.7432 106.833 17.3596 107.449 18.1199 107.449Z" fill="#1947BA"/>
<path d="M18.1199 118.619C18.8803 118.619 19.4967 118.003 19.4967 117.243C19.4967 116.484 18.8803 115.868 18.1199 115.868C17.3596 115.868 16.7432 116.484 16.7432 117.243C16.7432 118.003 17.3596 118.619 18.1199 118.619Z" fill="#1947BA"/>
<path d="M18.1199 130.47C18.8803 130.47 19.4967 129.854 19.4967 129.094C19.4967 128.334 18.8803 127.719 18.1199 127.719C17.3596 127.719 16.7432 128.334 16.7432 129.094C16.7432 129.854 17.3596 130.47 18.1199 130.47Z" fill="#1947BA"/>
<path d="M31.1538 107.449C31.9142 107.449 32.5306 106.833 32.5306 106.073C32.5306 105.313 31.9142 104.697 31.1538 104.697C30.3934 104.697 29.777 105.313 29.777 106.073C29.777 106.833 30.3934 107.449 31.1538 107.449Z" fill="#1947BA"/>
<path d="M31.1538 118.619C31.9142 118.619 32.5306 118.003 32.5306 117.243C32.5306 116.484 31.9142 115.868 31.1538 115.868C30.3934 115.868 29.777 116.484 29.777 117.243C29.777 118.003 30.3934 118.619 31.1538 118.619Z" fill="#1947BA"/>
<path d="M31.1538 130.47C31.9142 130.47 32.5306 129.854 32.5306 129.094C32.5306 128.334 31.9142 127.719 31.1538 127.719C30.3934 127.719 29.777 128.334 29.777 129.094C29.777 129.854 30.3934 130.47 31.1538 130.47Z" fill="#1947BA"/>
<path d="M70.8946 142.82C69.9204 142.568 68.9387 142.339 67.9719 142.061C59.6099 139.659 53.7982 132.059 53.7832 123.362C53.7494 106.058 53.772 51.8527 53.772 34.5485C53.772 33.9509 53.772 33.3533 53.772 32.5865C52.8354 32.5865 52.0303 32.6353 51.2367 32.5753C49.8712 32.47 48.9271 31.4854 48.8932 30.215C48.8593 28.8807 49.8298 27.8508 51.2629 27.7231C51.6166 27.693 51.9739 27.708 52.3313 27.708C66.3394 27.708 80.3476 27.708 94.3519 27.708C94.7582 27.708 95.172 27.6817 95.5745 27.7343C96.8985 27.8996 97.8615 28.9559 97.7788 30.2187C97.6923 31.5643 96.9211 32.3874 95.5932 32.5564C94.7921 32.658 93.9683 32.5753 92.9112 32.5753C92.9112 33.2255 92.9112 33.8081 92.9112 34.3944C92.9112 51.3415 92.7495 105.193 92.9677 122.137C93.1181 133.788 84.6094 141.61 76.176 142.602C76.0405 142.617 75.9164 142.745 75.7886 142.82H70.8946ZM58.8388 87.3669C58.7673 87.5286 58.6959 87.615 58.6959 87.7051C58.6959 96.0528 58.5079 115.943 58.7523 124.283C58.9667 131.691 65.4403 137.716 72.8582 137.919C81.1074 138.144 87.9083 131.691 87.9949 123.419C88.0776 115.53 88.0174 96.1018 88.0099 88.2126C88.0099 87.9269 87.9272 87.6413 87.8858 87.3706H58.8388V87.3669ZM87.9083 82.9281V32.7219H58.7485V82.9281H87.9083Z" fill="#1947BA"/>
<path d="M67.0128 106.268C67.7732 106.268 68.3896 105.653 68.3896 104.893C68.3896 104.133 67.7732 103.517 67.0128 103.517C66.2526 103.517 65.6362 104.133 65.6362 104.893C65.6362 105.653 66.2526 106.268 67.0128 106.268Z" fill="#1947BA"/>
<path d="M67.0128 117.439C67.7732 117.439 68.3896 116.823 68.3896 116.063C68.3896 115.303 67.7732 114.687 67.0128 114.687C66.2526 114.687 65.6362 115.303 65.6362 116.063C65.6362 116.823 66.2526 117.439 67.0128 117.439Z" fill="#1947BA"/>
<path d="M67.0128 129.29C67.7732 129.29 68.3896 128.674 68.3896 127.914C68.3896 127.154 67.7732 126.538 67.0128 126.538C66.2526 126.538 65.6362 127.154 65.6362 127.914C65.6362 128.674 66.2526 129.29 67.0128 129.29Z" fill="#1947BA"/>
<path d="M80.0469 106.268C80.8072 106.268 81.4236 105.653 81.4236 104.893C81.4236 104.133 80.8072 103.517 80.0469 103.517C79.2865 103.517 78.6701 104.133 78.6701 104.893C78.6701 105.653 79.2865 106.268 80.0469 106.268Z" fill="#1947BA"/>
<path d="M80.0469 117.439C80.8072 117.439 81.4236 116.823 81.4236 116.063C81.4236 115.303 80.8072 114.687 80.0469 114.687C79.2865 114.687 78.6701 115.303 78.6701 116.063C78.6701 116.823 79.2865 117.439 80.0469 117.439Z" fill="#1947BA"/>
<path d="M80.0469 129.29C80.8072 129.29 81.4236 128.674 81.4236 127.914C81.4236 127.154 80.8072 126.538 80.0469 126.538C79.2865 126.538 78.6701 127.154 78.6701 127.914C78.6701 128.674 79.2865 129.29 80.0469 129.29Z" fill="#1947BA"/>
<path d="M67.0128 94.418C67.7732 94.418 68.3896 93.8021 68.3896 93.0424C68.3896 92.2826 67.7732 91.6667 67.0128 91.6667C66.2526 91.6667 65.6362 92.2826 65.6362 93.0424C65.6362 93.8021 66.2526 94.418 67.0128 94.418Z" fill="#1947BA"/>
<path d="M80.0469 94.418C80.8072 94.418 81.4236 93.8021 81.4236 93.0424C81.4236 92.2826 80.8072 91.6667 80.0469 91.6667C79.2865 91.6667 78.6701 92.2826 78.6701 93.0424C78.6701 93.8021 79.2865 94.418 80.0469 94.418Z" fill="#1947BA"/>
</g>
<defs>
<clipPath id="clip0_17_522">
<rect width="147" height="144" fill="white"/>
</clipPath>
</defs>
</svg>
