<svg width="160" height="185" viewBox="0 0 160 185" fill="none" xmlns="http://www.w3.org/2000/svg">
<path d="M127.902 31.5282C125.579 28.6664 124.139 25.051 124.017 21.0833C123.72 11.4525 131.286 3.40439 140.917 3.1066C150.548 2.80947 158.596 10.3761 158.894 20.007C159.191 29.6378 151.624 37.6859 141.994 37.9837C139.315 38.0664 136.759 37.539 134.458 36.5295L126.696 39.3959L127.902 31.5282V31.5282Z" fill="white"/>
<g opacity="0.5">
<path d="M141.02 6.46007C132.024 6.73752 124.831 13.7795 124.164 22.5563C124.08 21.9469 124.025 21.3284 124.005 20.7C123.708 11.0692 131.274 3.02109 140.905 2.7233C150.536 2.42617 158.584 9.99218 158.882 19.6237C158.902 20.2553 158.885 20.8791 158.839 21.495C157.637 12.772 150.021 6.18261 141.021 6.46007H141.02Z" fill="white"/>
</g>
<path d="M126.695 40.4946C126.446 40.4946 126.199 40.41 126 40.2473C125.698 40.0013 125.549 39.6137 125.608 39.2293L126.742 31.8345C124.359 28.7372 123.039 25.0425 122.917 21.1174C122.602 10.8963 130.661 2.32409 140.882 2.00859C145.831 1.85117 150.548 3.64052 154.157 7.03358C157.766 10.4266 159.838 15.022 159.991 19.9735C160.144 24.925 158.359 29.6391 154.966 33.2486C151.573 36.8575 146.978 38.9295 142.026 39.0824C139.394 39.1637 136.842 38.7026 134.429 37.7115L127.076 40.427C126.952 40.4729 126.823 40.4952 126.695 40.4952V40.4946ZM141.467 4.19673C141.295 4.19673 141.123 4.19936 140.95 4.20461C136.586 4.33907 132.535 6.16514 129.544 9.347C126.553 12.5282 124.98 16.6841 125.114 21.0486C125.226 24.6535 126.485 28.038 128.755 30.8349C128.95 31.0756 129.035 31.3878 128.988 31.6941L128.064 37.7181L134.076 35.4978C134.343 35.3994 134.638 35.4079 134.899 35.522C137.132 36.5013 139.507 36.9605 141.959 36.8837C146.324 36.7493 150.375 34.9225 153.366 31.7413C156.356 28.5601 157.929 24.4042 157.795 20.0398C157.66 15.6753 155.834 11.6243 152.653 8.63336C149.597 5.7611 145.643 4.19608 141.468 4.19608L141.467 4.19673Z" fill="#000072"/>
<g opacity="0.25">
<path d="M127.782 31.3745C133.055 34.7459 139.815 35.6262 146.079 33.1455C153.025 30.3946 157.587 24.2132 158.602 17.3169C158.765 18.1912 158.865 19.0892 158.893 20.0062C159.19 29.637 151.624 37.6851 141.993 37.9829C139.314 38.0655 136.759 37.5382 134.457 36.5287L126.695 39.3951L127.901 31.5273C127.86 31.4768 127.822 31.425 127.782 31.3745H127.782Z" fill="#000072"/>
</g>
<path d="M148.214 20.7651C147.799 20.5953 147.357 20.5946 146.959 20.7553C142.919 22.3833 140.115 23.4439 138.447 24.6783C137.909 25.0765 137.476 25.6432 137.198 26.3267C137.195 26.3326 137.193 26.3385 137.19 26.3444C136.631 27.729 135.373 28.4899 134.062 28.1652C133.144 27.9369 132.299 27.2804 131.946 26.2748C131.761 25.7468 131.712 25.1231 131.86 24.4153C131.857 24.414 131.856 24.4127 131.853 24.4114C131.839 24.4035 131.824 24.395 131.81 24.3871C131.73 24.3412 131.654 24.294 131.58 24.2441C128.375 22.1078 131.412 17.3839 134.157 19.2775C134.158 19.2775 134.159 19.2775 134.16 19.2788C134.212 19.3142 134.263 19.3523 134.314 19.3923C134.318 19.3949 134.321 19.3976 134.325 19.4008C134.459 19.5064 134.591 19.6291 134.722 19.7688C134.981 20.0449 135.333 20.1446 135.647 20.0351C139.019 18.861 142.203 17.5374 145.225 16.0858C145.46 15.973 145.592 15.6811 145.551 15.3689C145.184 12.5255 147.491 11.9142 148.822 12.9735C149.485 13.5015 149.906 14.4421 149.637 15.7277L149.828 15.7329L150.046 15.7395C150.283 15.7467 150.521 15.7815 150.754 15.8556C150.876 15.8943 150.991 15.9402 151.101 15.9933C151.137 16.0104 151.171 16.0281 151.205 16.0471C151.945 16.4453 152.408 17.1642 152.578 17.9401C153.001 19.8705 151.619 22.157 148.214 20.7658V20.7651Z" fill="#F6D6BF"/>
<g opacity="0.8">
<path d="M134.522 19.652C134.522 19.652 134.523 19.652 134.525 19.6533C134.577 19.6887 134.628 19.7267 134.679 19.7668C134.682 19.7694 134.686 19.772 134.689 19.7753C134.823 19.8809 134.956 20.0035 135.087 20.1433C135.346 20.4194 135.698 20.5191 136.012 20.4096C139.384 19.2355 142.568 17.9118 145.589 16.4603C145.825 16.3475 145.957 16.0556 145.916 15.7434C145.549 12.9 147.856 12.2886 149.187 13.3479C149.194 13.3532 149.2 13.3584 149.207 13.3637C149.092 13.2155 148.963 13.0849 148.822 12.9728C147.49 11.9135 145.184 12.5248 145.551 15.3682C145.592 15.6804 145.46 15.9716 145.225 16.0851C142.203 17.5366 139.018 18.8603 135.647 20.0344C135.333 20.1439 134.981 20.0449 134.722 19.7681C134.591 19.6284 134.458 19.5064 134.325 19.4001C134.321 19.3968 134.317 19.3942 134.314 19.3916C134.263 19.3509 134.212 19.3135 134.16 19.2781C134.159 19.2768 134.159 19.2768 134.157 19.2768C131.53 17.4651 128.639 21.7096 131.199 23.9515C131.018 23.7934 130.438 23.2464 130.25 22.3288C129.981 21.0051 130.758 20.0396 130.93 19.8258C131.023 19.7097 131.854 18.714 133.134 18.9291C133.812 19.0433 134.301 19.4447 134.522 19.652V19.652Z" fill="white"/>
</g>
<path d="M134.654 28.7103C134.419 28.7103 134.181 28.6807 133.949 28.623C132.473 28.257 131.037 26.8599 131.34 24.6508C130.214 23.907 129.634 22.7689 129.745 21.5194C129.867 20.1597 130.785 18.9226 131.98 18.5107C132.26 18.4143 132.551 18.3651 132.843 18.3651C133.648 18.3651 134.395 18.7285 135.067 19.4448C135.164 19.5477 135.278 19.6048 135.389 19.6048C135.424 19.6048 135.459 19.5989 135.491 19.5877C138.749 18.453 141.955 17.1307 145.02 15.6588C145.049 15.645 145.1 15.5598 145.083 15.4279C144.9 14.0157 145.321 12.8902 146.236 12.3412C146.598 12.1241 147.019 12.0093 147.454 12.0093C148.001 12.0093 148.535 12.1838 148.999 12.5137C149.839 13.1119 150.266 14.1128 150.178 15.2718C150.429 15.2882 150.671 15.3328 150.896 15.4043C151.651 15.6437 152.283 16.1645 152.677 16.8722C152.857 17.1956 152.985 17.5518 153.058 17.9316C153.291 19.1437 152.909 20.3276 152.062 21.0216C151.706 21.3135 151.079 21.6618 150.118 21.6618C149.483 21.6618 148.782 21.507 148.036 21.202C147.882 21.139 147.726 21.1075 147.57 21.1075C147.422 21.1075 147.276 21.1364 147.136 21.1928L145.934 21.6755C142.592 23.0169 140.177 23.9857 138.728 25.0574C138.26 25.4038 137.884 25.899 137.641 26.4906L137.602 26.5857C137.047 27.8976 135.922 28.7096 134.654 28.7103V28.7103ZM132.84 19.309C132.657 19.309 132.471 19.3411 132.288 19.4041C131.448 19.6934 130.775 20.6189 130.687 21.6034C130.636 22.1773 130.751 23.2524 132.091 24.0027C132.272 24.1037 132.365 24.3084 132.323 24.5117C132.17 25.247 132.253 25.9318 132.565 26.4913C132.899 27.0928 133.487 27.5355 134.177 27.7067C134.338 27.7467 134.502 27.767 134.664 27.767C135.549 27.767 136.346 27.161 136.747 26.1837V26.164L136.765 26.1404C137.074 25.3861 137.559 24.7492 138.168 24.2985C139.714 23.1546 142.176 22.1668 145.584 20.7992L146.784 20.3171C147.035 20.2161 147.3 20.165 147.571 20.165C147.842 20.165 148.13 20.2201 148.395 20.3283C149.027 20.5867 149.611 20.7179 150.128 20.7179C150.646 20.7179 151.12 20.5742 151.466 20.2915C152.036 19.8245 152.297 18.9686 152.133 18.1106C151.963 17.2284 151.395 16.5541 150.614 16.3062C150.436 16.2498 150.241 16.2183 150.034 16.2117L149.625 16.1999C149.485 16.1953 149.355 16.1304 149.268 16.0202C149.182 15.91 149.148 15.7677 149.177 15.6306C149.389 14.6179 149.126 13.7625 148.454 13.285C148.158 13.0751 147.804 12.9597 147.453 12.9597C147.187 12.9597 146.935 13.0266 146.725 13.1532C146.138 13.5054 145.888 14.2709 146.022 15.3085C146.089 15.8267 145.852 16.3101 145.431 16.5115C142.335 17.9985 139.096 19.3346 135.804 20.4811C135.671 20.5277 135.532 20.5506 135.392 20.5506C135.016 20.5506 134.658 20.3873 134.38 20.0915C133.894 19.5727 133.376 19.309 132.842 19.309H132.84Z" fill="#000072"/>
<path d="M147.453 12.1026C147.966 12.1026 148.491 12.2666 148.944 12.5899C149.785 13.1881 150.193 14.2022 150.077 15.3599C150.355 15.3697 150.622 15.4143 150.868 15.493C151.613 15.7292 152.217 16.2362 152.596 16.9177C152.769 17.2286 152.895 17.5756 152.967 17.9495C153.193 19.1281 152.824 20.2786 152.003 20.9509C151.665 21.2277 151.057 21.5701 150.118 21.5701C149.558 21.5701 148.879 21.4481 148.07 21.1175C147.905 21.05 147.736 21.0159 147.569 21.0159C147.402 21.0159 147.252 21.0467 147.101 21.1077C146.687 21.2743 146.287 21.435 145.899 21.5904C142.551 22.9338 140.131 23.9045 138.673 24.9835C138.187 25.343 137.798 25.8565 137.549 26.4698L137.19 26.3439L137.543 26.4862C137.007 27.8112 135.877 28.6173 134.654 28.6173C134.428 28.6173 134.199 28.5897 133.97 28.5333C132.492 28.1667 131.111 26.7893 131.439 24.6057C130.307 23.8796 129.726 22.7711 129.838 21.5275C129.956 20.2025 130.849 18.9983 132.009 18.5982C132.222 18.5247 132.509 18.4571 132.843 18.4571C133.454 18.4571 134.226 18.6828 134.999 19.5079C135.115 19.6312 135.253 19.6975 135.389 19.6975C135.434 19.6975 135.478 19.6903 135.521 19.6752C138.782 18.5391 141.992 17.2155 145.059 15.7423C145.131 15.7082 145.195 15.5822 145.174 15.4163C144.996 14.0422 145.401 12.95 146.283 12.4207C146.638 12.2075 147.042 12.1019 147.453 12.1019M135.389 20.4577C135.047 20.4577 134.706 20.3075 134.444 20.0274C133.94 19.4902 133.395 19.216 132.839 19.216C132.646 19.216 132.451 19.2495 132.257 19.3164C131.384 19.6168 130.685 20.5751 130.594 21.595C130.541 22.1913 130.658 23.3076 132.045 24.0829C132.19 24.1636 132.265 24.3296 132.231 24.4922C132.059 25.3148 132.184 26.0008 132.482 26.5354C132.852 27.2005 133.49 27.6308 134.153 27.7954C134.324 27.8381 134.495 27.8584 134.662 27.8584C135.581 27.8584 136.418 27.2399 136.838 26.2009L136.845 26.1825C137.148 25.44 137.623 24.8143 138.221 24.3722C139.757 23.2348 142.215 22.249 145.616 20.8847C146.003 20.7292 146.403 20.5692 146.817 20.4026C147.058 20.3055 147.313 20.257 147.569 20.257C147.825 20.257 148.102 20.3094 148.358 20.4137C149.005 20.6781 149.602 20.8099 150.126 20.8099C150.683 20.8099 151.158 20.661 151.522 20.3626C152.117 19.8746 152.392 18.9838 152.221 18.0924C152.045 17.1761 151.453 16.4756 150.639 16.2178C150.453 16.1588 150.25 16.126 150.035 16.1194L149.625 16.1076C149.512 16.1044 149.408 16.0512 149.338 15.9633C149.268 15.8748 149.242 15.76 149.265 15.6498C149.484 14.5997 149.207 13.7103 148.504 13.2098C148.186 12.9828 147.812 12.8674 147.45 12.8674C147.173 12.8674 146.905 12.9356 146.674 13.074C146.053 13.4466 145.788 14.2442 145.927 15.3205C145.989 15.7987 145.772 16.2441 145.388 16.4284C142.295 17.914 139.059 19.2488 135.771 20.3941C135.646 20.4373 135.517 20.459 135.389 20.459M147.453 11.9189C147.001 11.9189 146.563 12.0383 146.188 12.264C145.239 12.8326 144.803 13.991 144.99 15.4419C145.001 15.5291 144.974 15.5777 144.966 15.5855C141.917 17.0482 138.715 18.3686 135.46 19.5027C135.437 19.5105 135.413 19.5145 135.388 19.5145C135.303 19.5145 135.213 19.4679 135.133 19.3833C134.443 18.6473 133.673 18.2741 132.842 18.2741C132.539 18.2741 132.239 18.3246 131.948 18.425C130.721 18.8481 129.777 20.1179 129.653 21.5131C129.54 22.7796 130.117 23.934 131.24 24.6975C130.961 26.9296 132.423 28.3418 133.925 28.7144C134.165 28.7741 134.41 28.8042 134.653 28.8042C135.933 28.8042 137.07 28.0034 137.652 26.7033H137.653L137.696 26.5997C137.702 26.5859 137.708 26.5721 137.713 26.5577L137.725 26.5275C137.962 25.9516 138.328 25.4702 138.782 25.1337C140.221 24.0692 142.631 23.1017 145.967 21.7636C146.355 21.6082 146.756 21.4475 147.169 21.2809C147.298 21.229 147.433 21.2021 147.568 21.2021C147.712 21.2021 147.857 21.2317 147.999 21.29C148.756 21.5996 149.469 21.7564 150.117 21.7564C151.104 21.7564 151.75 21.397 152.118 21.0952C152.992 20.3796 153.386 19.1616 153.147 17.9167C153.072 17.5277 152.941 17.1617 152.756 16.8298C152.351 16.1017 151.699 15.5652 150.923 15.3192C150.718 15.2543 150.5 15.211 150.275 15.19C150.336 14.0376 149.896 13.0432 149.051 12.4417C148.571 12.1006 148.018 11.9203 147.452 11.9203L147.453 11.9189ZM135.389 20.644C135.539 20.644 135.689 20.6184 135.832 20.5685C139.127 19.4207 142.369 18.0833 145.468 16.595C145.925 16.3759 146.182 15.8538 146.11 15.2969C145.981 14.298 146.215 13.5646 146.769 13.2327C146.965 13.1147 147.2 13.053 147.45 13.053C147.781 13.053 148.117 13.1626 148.397 13.3613C149.038 13.8172 149.287 14.6377 149.083 15.6131C149.049 15.7771 149.089 15.9463 149.192 16.0781C149.296 16.21 149.452 16.2887 149.619 16.2933L150.029 16.3051C150.227 16.311 150.413 16.3411 150.582 16.3949C151.331 16.6324 151.876 17.2804 152.039 18.1285C152.197 18.9537 151.949 19.7749 151.404 20.2209C151.076 20.4898 150.646 20.6263 150.126 20.6263C149.606 20.6263 149.049 20.4977 148.428 20.2439C148.151 20.131 147.862 20.0733 147.569 20.0733C147.276 20.0733 147.009 20.1271 146.748 20.2327C146.341 20.3967 145.948 20.5548 145.566 20.7076L145.547 20.7148C142.133 22.0844 139.666 23.0741 138.111 24.2259C137.486 24.6883 136.99 25.3416 136.674 26.1156C136.672 26.1222 136.669 26.1281 136.667 26.1346C136.283 27.0857 135.515 27.6767 134.663 27.6767C134.509 27.6767 134.352 27.657 134.198 27.619C133.533 27.4544 132.967 27.0273 132.645 26.4488C132.344 25.909 132.264 25.2465 132.413 24.5329C132.465 24.2896 132.352 24.0449 132.136 23.9242C130.841 23.2001 130.73 22.1657 130.779 21.6141C130.864 20.6636 131.511 19.7722 132.318 19.4941C132.492 19.4344 132.668 19.4036 132.84 19.4036C133.347 19.4036 133.843 19.6568 134.31 20.1566C134.605 20.4715 134.989 20.6453 135.389 20.6453L135.389 20.644Z" fill="#000072"/>
<path d="M132.197 27.4541C131.768 27.0002 131.506 26.4053 131.417 25.8038C131.326 25.2003 131.39 24.5825 131.594 24.0118C131.801 23.4445 132.157 22.9132 132.662 22.5472C132.788 22.4579 132.919 22.374 133.06 22.3084C133.129 22.2723 133.201 22.2441 133.274 22.2159L133.326 22.1949L133.356 22.1851C133.377 22.1779 133.396 22.1693 133.417 22.1608C133.579 22.0893 133.743 21.968 133.934 21.743L133.937 21.7404C133.965 21.7069 134.015 21.703 134.048 21.7312C134.059 21.7404 134.067 21.7528 134.072 21.766C134.178 22.0742 134.044 22.4606 133.743 22.6783C133.706 22.7059 133.666 22.7295 133.625 22.7518L133.522 22.803C133.47 22.8292 133.417 22.8541 133.368 22.8856C133.267 22.9427 133.175 23.0142 133.086 23.0883C132.738 23.3953 132.482 23.8111 132.344 24.2683C132.199 24.7228 132.164 25.2141 132.233 25.6818C132.3 26.1508 132.486 26.5896 132.769 26.9536L132.774 26.9608C132.903 27.1268 132.874 27.3655 132.708 27.4941C132.552 27.6148 132.331 27.5951 132.198 27.4554L132.197 27.4541Z" fill="#000072"/>
<path d="M149.604 16.085C149.527 16.0568 149.41 16.0463 149.281 16.0431C149.151 16.0391 149.008 16.0391 148.859 16.0247C148.712 16.0103 148.559 15.9801 148.418 15.9243C148.276 15.8699 148.148 15.7918 148.037 15.7026C147.991 15.6659 147.984 15.599 148.02 15.5537C148.049 15.5183 148.096 15.5059 148.137 15.5196L148.145 15.5223C148.263 15.5623 148.381 15.5846 148.497 15.5859C148.612 15.5878 148.724 15.5701 148.838 15.54C148.952 15.5104 149.067 15.4685 149.199 15.4258C149.33 15.3845 149.479 15.3379 149.671 15.3281L149.718 15.3255C149.934 15.3143 150.118 15.4809 150.129 15.6967C150.14 15.9125 149.974 16.0968 149.758 16.108C149.705 16.1106 149.652 16.1021 149.604 16.085V16.085Z" fill="#000072"/>
<g opacity="0.3">
<path d="M133.476 22.4745C133.614 22.3485 133.714 22.2259 133.775 22.1426C133.682 22.2823 133.449 22.5945 133.06 22.7736C133.191 22.6909 133.315 22.6221 133.476 22.4745V22.4745Z" fill="#4D1348"/>
</g>
<g opacity="0.3">
<path d="M149.364 15.8116C149.206 15.8353 149.016 15.8471 148.801 15.8267C148.518 15.7998 148.274 15.7251 148.082 15.6477L148.049 15.6162C148.136 15.5893 148.445 15.4778 148.654 15.0646C148.692 14.9911 148.881 14.6034 148.824 14.0531C148.741 13.2385 148.196 12.8003 148.147 12.7629C148.244 12.8003 148.876 13.0607 149.239 13.941C149.615 14.8547 149.396 15.6962 149.365 15.8116H149.364Z" fill="#4D1348"/>
</g>
<g opacity="0.8">
<path d="M131.753 20.9159C132.001 20.5283 132.373 19.9386 132.867 20.1308C133.189 20.2567 133.261 19.6513 132.942 19.5254C132.563 19.3759 132.198 19.5451 131.904 19.7963C131.765 19.915 131.599 20.0521 131.52 20.2397C131.443 20.4227 131.463 20.6555 131.52 20.8563C131.553 20.9737 131.694 21.0071 131.753 20.9153L131.753 20.9159Z" fill="white"/>
</g>
<g opacity="0.8">
<path d="M133.784 20.3288C133.789 20.3288 133.794 20.3288 133.799 20.3288C133.863 20.3288 133.932 20.2842 133.972 20.2271C134.011 20.1707 134.036 20.0795 134.025 20.0021C134.014 19.9215 133.984 19.8388 133.927 19.7857C133.869 19.7313 133.806 19.7037 133.736 19.7044C133.731 19.7044 133.726 19.7044 133.721 19.7044C133.656 19.7044 133.587 19.749 133.548 19.806C133.509 19.8624 133.484 19.9536 133.495 20.031C133.506 20.1117 133.536 20.1943 133.593 20.2475C133.65 20.3019 133.713 20.3294 133.784 20.3288Z" fill="white"/>
</g>
<g opacity="0.8">
<path d="M146.608 14.6258C146.759 14.5589 146.829 14.3949 146.933 14.2611C147.063 14.0951 147.18 13.9935 147.376 13.958C147.697 13.8997 147.639 13.2792 147.313 13.3362C147.013 13.388 146.818 13.4982 146.608 13.7462C146.457 13.9246 146.249 14.202 146.378 14.49C146.423 14.5916 146.512 14.6684 146.608 14.6258Z" fill="white"/>
</g>
<g opacity="0.8">
<path d="M148.071 13.8407C148.135 13.8367 148.199 13.7994 148.239 13.7423C148.277 13.6878 148.3 13.6 148.29 13.5252C148.279 13.4471 148.25 13.3678 148.195 13.3159C148.141 13.2648 148.078 13.234 148.01 13.2379C147.947 13.2418 147.883 13.2792 147.843 13.3363C147.805 13.3907 147.782 13.4786 147.792 13.5534C147.803 13.6314 147.832 13.7108 147.886 13.7626C147.941 13.8138 148.004 13.8446 148.071 13.8407Z" fill="white"/>
</g>
<g opacity="0.3">
<path d="M131.901 19.3884C131.951 19.3608 132.019 19.3228 132.103 19.2834C132.034 19.3156 131.967 19.3503 131.901 19.3884Z" fill="#4D1348"/>
</g>
<g opacity="0.3">
<path d="M134.356 19.4678C134.344 19.4599 134.332 19.452 134.32 19.4448C134.018 19.2546 133.713 19.1425 133.413 19.0933C133.501 19.1116 133.908 19.2067 134.329 19.4527C134.331 19.4534 134.355 19.4671 134.355 19.4671L134.356 19.4678Z" fill="#4D1348"/>
</g>
<g opacity="0.3">
<path d="M131.898 19.39C131.737 19.4812 131.654 19.5271 131.553 19.6274C131.553 19.6274 131.552 19.6287 131.551 19.6294C131.662 19.5395 131.779 19.4589 131.901 19.3887C131.9 19.3887 131.899 19.39 131.898 19.3906L131.898 19.39Z" fill="#4D1348"/>
</g>
<g opacity="0.3">
<path d="M133.414 19.093C133.402 19.0904 133.396 19.0898 133.396 19.0898C132.851 18.9881 132.386 19.1481 132.103 19.2833C132.505 19.0963 132.952 19.0189 133.414 19.0937V19.093Z" fill="#4D1348"/>
</g>
<g opacity="0.3">
<path d="M152.582 17.9918C152.61 18.3749 152.57 18.7586 152.456 19.1115C152.153 20.0455 151.448 20.3977 151.2 20.5217C150.569 20.8366 149.97 20.7637 149.654 20.7257C149.011 20.6476 148.863 20.4345 148.132 20.321C147.601 20.239 147.184 20.1846 146.867 20.3118C142.792 21.9418 139.965 23.0037 138.282 24.2388C137.74 24.6369 137.302 25.2037 137.021 25.8878C137.019 25.8937 137.017 25.8996 137.014 25.9055C136.449 27.2908 135.179 28.0523 133.858 27.7276C133.092 27.5387 132.377 27.0573 131.953 26.3266C131.767 25.7986 131.719 25.1748 131.866 24.4671C131.864 24.4657 131.863 24.4644 131.86 24.4631C131.845 24.4553 131.831 24.4467 131.817 24.4389C131.737 24.3929 131.66 24.3457 131.587 24.2959C131.6 24.1935 131.619 24.0892 131.641 23.9823C131.632 23.9764 131.624 23.9705 131.616 23.9646C131.608 23.96 131.599 23.9554 131.592 23.9509C131.592 23.9495 131.593 23.9489 131.593 23.9482C129.865 22.6908 130.327 20.6208 131.553 19.629C131.145 20.035 130.994 20.7572 131.098 21.4C131.128 21.5889 131.244 22.3052 131.739 22.6685C132.194 23.003 132.737 22.8686 132.993 22.805C133.103 22.7774 133.193 22.744 133.258 22.7171C133.18 22.763 133.098 22.8128 133.004 22.8863C132.801 23.0431 132.674 23.1979 132.589 23.3015C132.55 23.3487 132.507 23.4038 132.463 23.4681C132.168 23.8872 132.164 24.5222 132.457 24.9957C132.459 24.999 132.461 25.0016 132.463 25.0049C133.098 26.0203 134.134 25.9947 134.291 25.9914C134.441 25.9875 135.151 25.9704 135.613 25.3775C135.965 24.9262 135.858 24.5773 136.179 24.0007C136.43 23.5494 136.863 23.3015 137.277 23.0745C138.031 22.6626 138.788 22.2625 139.551 21.8722L146.507 18.6681C146.761 18.5658 147.025 18.4772 147.298 18.5199C147.753 18.5907 148.028 18.8504 148.281 19.0151C149.183 19.6047 150.722 19.4001 151.274 18.3683C151.527 17.8961 151.634 17.1346 151.327 16.4321C151.263 16.2858 151.188 16.1585 151.106 16.0464C151.142 16.0634 151.177 16.0811 151.211 16.1002C151.951 16.4983 152.413 17.2172 152.583 17.9931L152.582 17.9918Z" fill="#4D1348"/>
</g>
<g opacity="0.2">
<path d="M78.2749 184.219C116.983 184.219 148.362 179.441 148.362 173.548C148.362 167.655 116.983 162.878 78.2749 162.878C39.5667 162.878 8.1875 167.655 8.1875 173.548C8.1875 179.441 39.5667 184.219 78.2749 184.219Z" fill="#000072"/>
</g>
<path d="M148.113 149.802C148.094 149.85 147.925 150.242 147.588 150.877C147.074 151.85 146.173 153.386 144.832 155.094C139.825 161.478 128.707 170.243 108.92 160.758C108.92 160.758 116.816 156.291 122.577 145.143C124.136 142.132 125.537 138.633 126.583 134.602C128.353 127.799 129.117 119.485 127.924 109.45C127.924 109.45 128.29 109.586 128.892 109.897C128.981 109.942 129.073 109.993 129.173 110.045C132.044 111.612 138.902 116.533 139.091 127.98C139.091 127.98 139.619 127.559 140.399 126.713C140.568 126.528 140.749 126.325 140.942 126.103C142.32 124.493 144.164 121.85 145.442 118.178C145.46 118.122 145.483 118.063 145.501 118.004C145.501 118.004 145.508 118.015 145.519 118.041C145.667 118.355 146.783 120.775 147.57 124.344C147.574 124.359 147.577 124.374 147.581 124.389C149.026 130.974 149.351 141.43 140.512 149.799C140.512 149.799 144.547 151.905 148.113 149.803V149.802Z" fill="#6E787A"/>
<g opacity="0.6">
<path d="M126.582 134.601C128.352 127.798 129.117 119.485 127.923 109.449C127.923 109.449 128.289 109.585 128.892 109.896C128.98 109.941 129.073 109.992 129.172 110.044C130.48 112.338 131.681 115.658 131.834 119.563C132.052 125.137 130.177 130.252 126.582 134.601Z" fill="white"/>
</g>
<g opacity="0.6">
<path d="M147.58 124.388C142.493 132.783 133.735 135.776 133.735 135.776C133.735 135.776 138.438 131.626 141.415 126.353C144.186 121.445 145.442 118.177 145.442 118.177L145.519 118.041C145.666 118.355 146.783 120.776 147.569 124.344C147.573 124.359 147.577 124.374 147.58 124.389V124.388Z" fill="white"/>
</g>
<g opacity="0.25">
<path d="M140.398 126.712C138.628 130.256 136.366 133.733 133.736 135.776C133.736 135.776 135.369 119.156 128.892 109.896C131.57 111.282 138.894 116.145 139.09 127.979C139.09 127.979 139.618 127.558 140.398 126.712V126.712Z" fill="#000072"/>
</g>
<g opacity="0.25">
<path d="M148.117 149.799C148.117 149.799 137.663 174.537 108.92 160.758C108.92 160.758 116.816 156.29 122.577 145.143C122.633 145.191 122.692 145.239 122.747 145.283C125.141 147.212 129.709 149.127 132.547 147.934C143.456 143.352 146.324 131.146 147.57 124.344C149.025 130.925 149.369 141.411 140.512 149.799C140.512 149.799 144.551 151.905 148.116 149.799H148.117Z" fill="#000072"/>
</g>
<g opacity="0.6">
<path d="M147.587 150.877C147.074 151.85 146.172 153.386 144.831 155.094C140.604 154.329 137.773 151.255 137.773 151.255C142.255 152.6 145.547 151.838 147.587 150.877Z" fill="white"/>
</g>
<path d="M125.179 166.485C119.935 166.485 114.274 165.039 108.253 162.153C107.734 161.904 107.395 161.387 107.375 160.811C107.356 160.235 107.657 159.697 108.158 159.413C108.26 159.355 113.896 156.06 118.92 148.358C123.577 141.219 128.653 128.706 126.388 109.634C126.324 109.099 126.543 108.569 126.966 108.236C127.389 107.904 127.955 107.813 128.461 108C128.907 108.165 138.568 111.884 140.356 124.364C141.564 122.814 143.013 120.522 144.037 117.506C144.238 116.912 144.778 116.498 145.404 116.459C146.028 116.423 146.618 116.761 146.892 117.325C146.99 117.525 149.283 122.295 149.805 128.801C150.432 136.616 148.208 143.575 143.356 149.081C144.517 149.275 145.988 149.259 147.328 148.467C147.903 148.128 148.631 148.195 149.133 148.634C149.636 149.074 149.8 149.786 149.54 150.401C149.361 150.824 145.043 160.8 134.376 164.839C131.478 165.937 128.407 166.485 125.178 166.485H125.179ZM112.058 160.47C119.983 163.772 127.1 164.275 133.245 161.959C139.176 159.725 142.952 155.283 144.946 152.274C142.173 152.385 139.933 151.241 139.798 151.171C139.355 150.94 139.05 150.508 138.981 150.013C138.911 149.518 139.086 149.019 139.449 148.676C144.879 143.534 147.329 136.965 146.729 129.15C146.519 126.424 145.956 124.007 145.406 122.183C143.059 126.745 140.203 129.068 140.055 129.187C139.594 129.556 138.963 129.63 138.429 129.378C137.895 129.127 137.551 128.594 137.541 128.004C137.39 118.816 132.717 114.203 129.757 112.199C131.309 130.661 126.151 142.999 121.407 150.208C117.992 155.396 114.36 158.693 112.057 160.47L112.058 160.47Z" fill="#000072"/>
<path d="M106.666 175.128C93.6626 175.128 90.9215 171.85 90.6513 171.481C90.6362 171.458 90.629 171.447 90.629 171.447C89.2063 175.009 85.8257 175.988 83.7419 176.214C79.0494 176.723 70.085 176.214 64.8567 176.214C58.575 176.214 57.2559 172.038 57.2559 172.038H50.9637C46.5664 175.959 38.7702 174.773 30.4531 174.773C23.3476 174.773 23.0524 170.021 23.0524 170.021C15.6661 165.295 13.6708 152.241 17.4653 146.699C18.2485 145.557 19.2796 144.733 20.558 144.367C28.04 142.227 31.6023 151.495 31.6023 151.495L36.0435 126.676L39.4432 107.668C39.4432 107.668 70.9167 101.135 91.7014 108.618C92.4846 108.903 93.2533 109.22 94.0037 109.575C97.6027 111.275 100.799 113.761 103.618 116.729C108.118 121.455 111.681 127.4 114.43 133.308C119.122 143.377 121.461 153.331 122.104 156.956C123.412 164.32 120.441 175.128 106.666 175.128H106.666Z" fill="white"/>
<path d="M120.031 168.82C117.728 172.434 113.542 175.127 106.666 175.127C93.6628 175.127 90.9217 171.85 90.6515 171.48L94.2872 151.295C94.2872 151.295 90.0749 158.382 86.4352 157.591C82.7923 156.796 80.2571 150.304 83.4239 133.836C85.5668 122.699 90.8246 114.023 94.0025 109.575C96.3671 110.691 98.5618 112.15 100.587 113.865C114.919 125.97 121.001 150.748 122.103 156.955C122.757 160.643 122.339 165.195 120.03 168.819L120.031 168.82Z" fill="#6E787A"/>
<g opacity="0.25">
<path d="M106.666 175.127C93.6626 175.127 90.9215 171.85 90.6513 171.48C90.6362 171.458 90.629 171.447 90.629 171.447C89.2063 175.009 85.8257 175.988 83.7419 176.214C79.0494 176.723 70.085 176.214 64.8567 176.214C58.575 176.214 57.2559 172.038 57.2559 172.038H50.9637C46.5664 175.958 38.7702 174.773 30.4531 174.773C23.3476 174.773 23.0524 170.021 23.0524 170.021C15.6661 165.295 13.6708 152.241 17.4653 146.699C19.4495 151.757 23.4145 157.004 31.1884 154.583C31.1884 154.583 31.5059 158.984 28.9531 160.758C26.3996 162.531 24.8149 169.666 36.0435 169.666C47.2722 169.666 46.6891 162.494 46.6891 162.494C46.6891 162.494 39.0404 156.56 43.157 133.519C43.157 133.519 48.8582 157.355 68.8479 154.583L66.9563 160.717C66.9563 160.717 63.169 160.85 59.7327 164.05C59.7327 164.05 58.7717 171.447 71.0761 171.366C83.3765 171.284 92.2039 168.203 96.224 134.708C96.224 134.708 99.5088 143.033 108.189 147.064C108.189 147.064 98.1051 149.041 97.8684 160.758C97.6283 172.474 118.656 169.385 117.88 157.746C117.33 149.466 116.332 141.551 114.43 133.307C119.122 143.376 121.461 153.331 122.104 156.955C123.412 164.319 120.441 175.127 106.666 175.127L106.666 175.127Z" fill="#000072"/>
</g>
<g opacity="0.25">
<path d="M103.617 116.729C93.7148 125.519 78.4733 131.146 61.384 131.146C52.2281 131.146 43.6041 129.531 36.0439 126.676L39.4436 107.668C39.4436 107.668 70.9171 101.135 91.7018 108.618C92.485 108.903 93.2537 109.22 94.0041 109.575C97.6031 111.275 100.799 113.761 103.619 116.729H103.617Z" fill="#000072"/>
</g>
<path d="M77.9101 177.989C75.5383 177.989 72.9809 177.924 70.5868 177.865C68.4728 177.812 66.4762 177.762 64.8574 177.762C59.5589 177.762 57.214 175.128 56.295 173.587H51.5259C47.5123 176.753 41.5021 176.585 35.1542 176.408C33.6232 176.365 32.0399 176.321 30.4538 176.321C24.4673 176.321 22.1781 173.149 21.6363 170.931C15.5862 166.609 13.299 157.665 14.2435 151.219C14.8902 146.805 17.0371 143.766 20.1336 142.881C24.9369 141.507 28.5694 144.093 30.8297 147.035L37.9215 107.397C38.033 106.775 38.5111 106.283 39.1303 106.155C40.433 105.884 71.2723 99.6196 92.2262 107.163C93.073 107.471 93.8922 107.812 94.6656 108.178C103.133 112.175 110.364 120.644 116.153 133.348C120.465 142.81 122.88 152.47 123.628 156.687C124.584 162.072 123.312 167.485 120.225 171.169C117.206 174.772 112.518 176.676 106.667 176.676C97.6447 176.676 93.214 175.126 91.0882 173.831C89.5428 176.019 87.0208 177.417 83.9098 177.754C82.2838 177.931 80.1822 177.989 77.9114 177.989L77.9101 177.989ZM50.9644 170.493H57.2573C57.9322 170.493 58.5291 170.93 58.7324 171.574C58.7698 171.679 59.877 174.668 64.858 174.668C66.5155 174.668 68.5312 174.719 70.6649 174.772C75.2543 174.887 80.4564 175.017 83.576 174.678C85.1764 174.504 88.0336 173.78 89.1939 170.875C89.4077 170.341 89.901 169.969 90.4742 169.91C91.039 169.856 91.5906 170.111 91.9094 170.579C92.0707 170.763 94.7475 173.583 106.666 173.583C111.643 173.583 115.406 172.102 117.854 169.182C120.805 165.661 121.197 160.699 120.58 157.228C120.515 156.863 113.883 120.672 93.3426 110.976C92.6545 110.651 91.9251 110.347 91.1728 110.074C73.1187 103.575 46.3185 107.971 40.7786 108.99L33.1254 151.77C33.0034 152.453 32.4406 152.971 31.7493 153.037C31.0599 153.104 30.4079 152.7 30.1587 152.052C30.0334 151.731 27.0024 144.134 20.9837 145.857C19.1078 146.394 17.7664 148.512 17.304 151.669C16.4592 157.439 18.69 165.395 23.8861 168.721C24.302 168.987 24.5657 169.435 24.5965 169.928C24.628 170.242 25.0766 173.229 30.4532 173.229C32.0825 173.229 33.6875 173.273 35.2401 173.317C41.4674 173.49 46.8459 173.64 49.9346 170.886C50.218 170.634 50.5846 170.494 50.9644 170.494V170.493Z" fill="#000072"/>
<path d="M23.0515 171.569C22.248 171.569 21.5698 170.948 21.5101 170.134C21.0228 163.462 26.7732 160.05 29.0348 158.974L30.0712 151.287C30.1853 150.44 30.9645 149.847 31.8107 149.961C32.6574 150.075 33.2517 150.854 33.1369 151.7L31.9845 160.251C31.9084 160.818 31.5253 161.296 30.9881 161.495C30.7133 161.599 24.1731 164.127 24.5949 169.909C24.6572 170.761 24.017 171.502 23.165 171.564C23.1263 171.567 23.0883 171.568 23.0509 171.568L23.0515 171.569Z" fill="#000072"/>
<path d="M29.8559 158.617C29.9517 158.583 29.9937 158.575 30.056 158.558C30.1163 158.541 30.1649 158.531 30.22 158.518C30.3275 158.491 30.4299 158.472 30.5322 158.453C30.7375 158.413 30.9369 158.384 31.1363 158.357C31.5344 158.308 31.9273 158.272 32.3169 158.263C33.0968 158.237 33.8649 158.273 34.6192 158.364C35.3722 158.467 36.1134 158.594 36.831 158.8C37.193 158.885 37.5426 159.015 37.8942 159.124C38.2431 159.243 38.5842 159.384 38.9253 159.513C39.2119 159.621 39.3562 159.941 39.2487 160.227C39.1562 160.472 38.9102 160.613 38.6616 160.582L38.617 160.576C38.2753 160.533 37.9395 160.478 37.601 160.447C37.2606 160.426 36.9267 160.383 36.5883 160.385C35.9166 160.354 35.2482 160.401 34.5949 160.464C33.941 160.54 33.3008 160.664 32.6862 160.834C32.3779 160.915 32.0795 161.018 31.7915 161.126C31.6492 161.182 31.5062 161.239 31.375 161.3C31.3088 161.33 31.2419 161.36 31.1835 161.393C31.1546 161.408 31.1192 161.424 31.0976 161.439C31.0773 161.452 31.0359 161.473 31.0504 161.472C30.2619 161.801 29.3561 161.429 29.0262 160.641C28.6969 159.853 29.0688 158.947 29.8572 158.617H29.8559Z" fill="#000072"/>
<path d="M44.3781 126.802C44.2279 128.552 44.1866 130.391 44.2305 132.187C44.281 133.992 44.3899 135.794 44.6031 137.581C44.8123 139.368 45.1173 141.138 45.4892 142.888C45.8723 144.635 46.3623 146.352 46.9487 148.028C47.5278 149.707 48.2382 151.331 49.0404 152.898C49.4241 153.691 49.8898 154.436 50.3214 155.201C50.8035 155.933 51.2534 156.687 51.7887 157.379C52.2865 158.099 52.8499 158.766 53.3996 159.444C53.6803 159.778 53.9873 160.089 54.2798 160.413L54.7226 160.895C54.8754 161.05 55.0368 161.197 55.1935 161.349C56.4103 162.604 57.8028 163.665 59.1979 164.723L59.2471 164.761C59.9273 165.277 60.0604 166.247 59.5449 166.927C59.049 167.581 58.1301 167.727 57.4551 167.279C54.247 165.142 51.3905 162.42 49.1689 159.258C48.5904 158.483 48.1044 157.65 47.5882 156.836C47.1231 155.994 46.6443 155.158 46.2449 154.286C45.8126 153.428 45.4538 152.539 45.0924 151.653L44.6024 150.307C44.4371 149.859 44.3086 149.4 44.1603 148.947C43.0348 145.307 42.3776 141.556 42.1585 137.798C42.0444 135.919 42.0109 134.04 42.0922 132.165C42.1382 131.227 42.1946 130.292 42.2884 129.357C42.3795 128.417 42.491 127.504 42.6642 126.54C42.7488 126.069 43.1994 125.756 43.6704 125.84C44.1138 125.92 44.4175 126.324 44.3814 126.764L44.3781 126.802V126.802Z" fill="#000072"/>
<path d="M55.7447 172.361C55.7086 172.177 55.6968 172.085 55.6798 171.958C55.664 171.84 55.6522 171.725 55.6417 171.61C55.6207 171.382 55.6096 171.158 55.603 170.934C55.5925 170.486 55.6109 170.043 55.6489 169.601C55.7362 168.719 55.9185 167.844 56.2051 166.999C56.7712 165.305 57.7872 163.766 59.0459 162.546C60.3027 161.312 61.7877 160.407 63.3094 159.712C64.837 159.017 66.4217 158.556 68.0071 158.215H68.0084L66.789 159.573C66.9799 157.306 67.2049 155.043 67.4502 152.781C67.6988 150.52 67.9612 148.26 68.2445 146.003C68.5252 143.745 68.8152 141.488 69.1497 139.236C69.4868 136.983 69.8397 134.733 70.2805 132.492C70.3658 132.057 70.7868 131.775 71.2211 131.86C71.6054 131.935 71.8704 132.274 71.8678 132.652C71.8514 134.937 71.7458 137.212 71.6258 139.486C71.5025 141.76 71.3345 144.029 71.1581 146.298C70.9843 148.567 70.7888 150.833 70.5796 153.099C70.3671 155.363 70.1342 157.626 69.8673 159.885L69.8653 159.902C69.7853 160.58 69.2796 161.105 68.6479 161.243H68.6466C67.2318 161.547 65.8504 161.954 64.5819 162.534C63.3166 163.112 62.1432 163.838 61.2059 164.762C60.264 165.678 59.5431 166.775 59.1338 167.998C58.9272 168.608 58.7941 169.246 58.7291 169.891C58.7022 170.214 58.6885 170.539 58.6957 170.859C58.7003 171.019 58.7081 171.178 58.7226 171.332C58.7298 171.41 58.737 171.485 58.7468 171.557L58.7711 171.723L58.7888 171.841C58.9141 172.685 58.331 173.471 57.4868 173.595C56.6676 173.717 55.9028 173.168 55.744 172.363L55.7447 172.361Z" fill="#000072"/>
<path d="M89.1127 171.151L92.427 151.116C92.9846 147.776 93.4798 144.43 94.0294 141.091C94.5725 137.75 95.1124 134.411 95.7571 131.073L95.7584 131.067C95.8444 130.623 96.274 130.332 96.7187 130.417C97.109 130.493 97.3805 130.835 97.3825 131.218C97.4015 134.642 97.1969 138.055 96.8906 141.453C96.5737 144.849 96.1389 148.231 95.6778 151.607C95.4344 153.293 95.1891 154.979 94.928 156.662C94.6644 158.344 94.3836 160.024 94.099 161.703C93.51 165.06 92.8875 168.401 92.1509 171.742C91.9666 172.577 91.1408 173.104 90.3065 172.92C89.5003 172.742 88.9808 171.966 89.112 171.16L89.1133 171.152L89.1127 171.151Z" fill="#000072"/>
<path d="M93.5081 148.761C93.6229 148.645 93.6885 148.587 93.7744 148.509C93.8551 148.437 93.9357 148.367 94.0158 148.3C94.1765 148.165 94.3372 148.038 94.5005 147.915C94.8271 147.67 95.1577 147.437 95.5001 147.225C96.1796 146.795 96.8933 146.426 97.6299 146.116C99.1024 145.496 100.681 145.122 102.263 145.053C103.054 145.014 103.844 145.042 104.619 145.15C105.009 145.189 105.39 145.276 105.772 145.345C106.148 145.442 106.528 145.517 106.893 145.641C108.369 146.091 109.749 146.75 111.019 147.545C111.311 147.728 111.4 148.112 111.217 148.405C111.047 148.677 110.7 148.773 110.418 148.636L110.412 148.634C109.147 148.018 107.823 147.556 106.482 147.299C106.149 147.223 105.809 147.196 105.475 147.144C105.137 147.122 104.802 147.08 104.466 147.083C103.795 147.061 103.128 147.109 102.474 147.213C101.165 147.411 99.9118 147.858 98.7672 148.491C98.1953 148.807 97.6482 149.168 97.1406 149.573C96.8841 149.772 96.6421 149.986 96.4092 150.203C96.2931 150.311 96.1803 150.422 96.0747 150.533L95.9206 150.698C95.8766 150.747 95.815 150.818 95.8064 150.834C95.3899 151.598 94.4329 151.88 93.6688 151.464C92.9047 151.047 92.6226 150.09 93.0391 149.326C93.1093 149.198 93.1946 149.082 93.2923 148.983L93.5094 148.762L93.5081 148.761Z" fill="#000072"/>
<path d="M68.0878 158.2C68.3488 158.18 68.5489 158.175 68.7726 158.171C68.9897 158.166 69.2055 158.166 69.42 158.169C69.8489 158.173 70.2753 158.191 70.6997 158.217C71.5491 158.271 72.3939 158.371 73.2315 158.514C74.0691 158.652 74.8988 158.864 75.7115 159.115C76.5255 159.368 77.3152 159.71 78.0735 160.099C78.4054 160.27 78.5366 160.677 78.3654 161.009C78.2145 161.303 77.8767 161.439 77.571 161.347L77.5363 161.337C76.8082 161.119 76.0723 160.947 75.316 160.856C74.5604 160.768 73.8028 160.714 73.0387 160.728C72.2765 160.737 71.5143 160.785 70.758 160.874C70.3802 160.92 70.0037 160.973 69.6325 161.037C69.4462 161.069 69.2619 161.103 69.0802 161.14C68.9044 161.176 68.7057 161.219 68.5692 161.256C67.7408 161.486 66.8829 161.002 66.652 160.173C66.4218 159.345 66.9065 158.487 67.7349 158.256C67.832 158.229 67.9291 158.212 68.0261 158.204L68.0885 158.2H68.0878Z" fill="#000072"/>
<path d="M52.079 173.113L49.8482 170.969L49.8154 171.005C49.8318 170.986 51.4559 169.005 52.1702 162.331C52.2607 161.481 53.0235 160.865 53.8729 160.957C54.7224 161.048 55.3376 161.811 55.2464 162.66C54.4265 170.324 52.464 172.712 52.079 173.113V173.113Z" fill="#000072"/>
<path d="M25.1746 145.557C25.2022 145.519 25.1733 145.55 25.1648 145.556C25.1543 145.562 25.1346 145.588 25.1195 145.603C25.0874 145.635 25.0533 145.681 25.0185 145.723C24.9503 145.809 24.8814 145.909 24.8171 146.011C24.6873 146.217 24.5692 146.444 24.4708 146.685C24.2688 147.164 24.135 147.693 24.0576 148.245C23.9894 148.798 23.9835 149.375 24.034 149.96C24.0523 150.254 24.1133 150.546 24.1501 150.843L24.3462 151.729L24.3632 151.806C24.4675 152.276 24.1711 152.741 23.7014 152.844C23.2823 152.938 22.8671 152.711 22.709 152.328C22.5759 152.007 22.4368 151.686 22.3083 151.358C22.202 151.02 22.0741 150.688 21.9875 150.34C21.8025 149.646 21.6786 148.923 21.6399 148.176C21.6104 147.429 21.6595 146.66 21.8307 145.893C21.9134 145.509 22.0288 145.127 22.1797 144.747C22.2551 144.556 22.3384 144.367 22.4381 144.175C22.488 144.079 22.5365 143.984 22.5988 143.883C22.6303 143.832 22.6533 143.788 22.6933 143.73C22.7339 143.671 22.753 143.636 22.833 143.536C23.3912 142.889 24.3685 142.817 25.0152 143.376C25.662 143.934 25.7335 144.912 25.1746 145.558V145.557Z" fill="#000072"/>
<path d="M18.9579 147.082C18.9264 147.343 18.906 147.674 18.891 147.975C18.8759 148.283 18.8667 148.594 18.8654 148.903C18.8601 149.523 18.8811 150.142 18.9408 150.749C18.9992 151.355 19.0831 151.959 19.2347 152.521C19.3829 153.082 19.5816 153.619 19.865 154.051L19.8958 154.099C20.1418 154.473 20.0368 154.976 19.6623 155.222C19.333 155.439 18.9041 155.384 18.6384 155.113C18.0737 154.538 17.69 153.88 17.3719 153.22C17.0518 152.557 16.8248 151.881 16.6267 151.203C16.4286 150.524 16.2758 149.841 16.1512 149.155C16.0876 148.812 16.0331 148.468 15.9846 148.121C15.9367 147.767 15.8934 147.443 15.8639 147.048L15.8613 147.01C15.7976 146.152 16.4411 145.406 17.2984 145.342C18.1557 145.279 18.9021 145.922 18.9651 146.779C18.9723 146.88 18.969 146.987 18.9579 147.082V147.082Z" fill="#000072"/>
<path d="M28.5123 174.437C28.5399 174.109 28.5799 173.853 28.6232 173.568C28.6671 173.289 28.7156 173.014 28.772 172.739C28.8842 172.19 29.0121 171.646 29.1781 171.106C29.346 170.566 29.5303 170.031 29.7776 169.507C30.0255 168.984 30.318 168.47 30.7037 168.003C30.9333 167.725 31.3452 167.686 31.6233 167.916C31.8503 168.102 31.9178 168.411 31.8109 168.669L31.7919 168.714C31.622 169.124 31.5158 169.572 31.4449 170.033C31.3741 170.495 31.3531 170.978 31.3472 171.457C31.3419 171.938 31.3708 172.427 31.4121 172.91C31.4325 173.152 31.46 173.394 31.4921 173.633C31.5236 173.865 31.5604 174.126 31.6036 174.316C31.7965 175.163 31.2665 176.005 30.4197 176.198C29.5729 176.391 28.7301 175.861 28.5372 175.015C28.5012 174.856 28.49 174.696 28.5025 174.542L28.5116 174.439L28.5123 174.437Z" fill="#000072"/>
<path d="M36.6523 174.499C36.6549 174.308 36.6667 174.178 36.6778 174.025C36.6903 173.879 36.7034 173.733 36.7211 173.589C36.7533 173.301 36.7946 173.017 36.8431 172.734C36.9402 172.168 37.0688 171.606 37.2301 171.052C37.3974 170.497 37.606 169.95 37.8585 169.418C38.1222 168.887 38.4436 168.375 38.8293 167.908C39.1093 167.569 39.6111 167.521 39.9502 167.802C40.2362 168.038 40.3149 168.432 40.164 168.753L40.1372 168.81C39.9476 169.214 39.8053 169.641 39.7056 170.088C39.615 170.541 39.558 171.003 39.5331 171.473C39.514 171.946 39.5212 172.421 39.5554 172.895C39.5724 173.132 39.5954 173.369 39.6262 173.602C39.6406 173.72 39.6583 173.835 39.676 173.949C39.6944 174.056 39.7161 174.187 39.7364 174.255C39.983 175.089 39.5062 175.966 38.6712 176.212C37.8369 176.459 36.9605 175.982 36.7139 175.147C36.6687 174.994 36.6477 174.84 36.649 174.689L36.6516 174.5L36.6523 174.499Z" fill="#000072"/>
<path d="M64.8194 175.745C64.847 175.417 64.887 175.161 64.9303 174.876C64.9742 174.598 65.0228 174.322 65.0792 174.047C65.1913 173.498 65.3192 172.955 65.4852 172.414C65.6531 171.874 65.8374 171.339 66.0847 170.815C66.3326 170.292 66.6252 169.779 67.0109 169.312C67.2404 169.033 67.6523 168.994 67.9305 169.224C68.1574 169.411 68.225 169.719 68.118 169.977L68.099 170.023C67.9291 170.432 67.8229 170.88 67.752 171.342C67.6812 171.803 67.6602 172.286 67.6543 172.766C67.6491 173.246 67.6779 173.735 67.7193 174.218C67.7396 174.46 67.7671 174.703 67.7993 174.941C67.8308 175.173 67.8675 175.435 67.9108 175.624C68.1036 176.471 67.5736 177.314 66.7268 177.507C65.8801 177.699 65.0372 177.169 64.8444 176.323C64.8083 176.164 64.7971 176.005 64.8096 175.85L64.8188 175.747L64.8194 175.745Z" fill="#000072"/>
<path d="M72.9594 175.807C72.962 175.615 72.9738 175.486 72.985 175.333C72.9974 175.186 73.0106 175.041 73.0283 174.897C73.0604 174.609 73.1017 174.325 73.1503 174.042C73.2473 173.476 73.3759 172.914 73.5373 172.36C73.7045 171.805 73.9124 171.257 74.1656 170.726C74.4293 170.195 74.7507 169.683 75.1364 169.216C75.4165 168.877 75.9182 168.829 76.2573 169.109C76.5433 169.345 76.622 169.74 76.4712 170.061L76.4443 170.118C76.2547 170.522 76.1124 170.949 76.0127 171.396C75.9222 171.848 75.8651 172.311 75.8402 172.781C75.8212 173.253 75.8284 173.729 75.8625 174.203C75.8795 174.44 75.9025 174.677 75.9333 174.91C75.9478 175.028 75.9655 175.142 75.9832 175.257C76.0015 175.364 76.0232 175.495 76.0435 175.563C76.2901 176.397 75.8133 177.274 74.9783 177.52C74.144 177.767 73.2677 177.29 73.021 176.455C72.9758 176.302 72.9548 176.148 72.9561 175.996L72.9587 175.808L72.9594 175.807Z" fill="#000072"/>
<path d="M123.175 88.7838C121.719 94.6031 115.049 104.306 101.748 111.375C101.726 111.39 101.711 111.397 101.7 111.404C92.4962 116.289 80.1217 119.914 64.1114 120.128C63.6129 120.135 63.1098 120.139 62.6041 120.139C45.8624 120.139 32.9999 116.441 23.5075 111.404C23.4963 111.397 23.4819 111.389 23.4596 111.375C10.1576 104.307 3.48819 94.6038 2.03271 88.7838C-0.213807 79.8017 5.62779 67.0651 15.6561 49.7869C16.7686 47.8769 17.9282 45.9111 19.1331 43.8895C19.1331 43.8895 17.0532 23.5896 22.5767 10.9599C22.5767 10.9599 22.5806 10.9599 22.5806 10.9559C24.4985 6.56259 27.34 3.09672 31.5116 1.737C33.2924 1.15717 35.2359 1.92919 36.1522 3.56242C39.1452 8.89766 46.4757 21.4683 51.2016 25.3625C51.2016 25.3625 53.7216 24.9637 56.7402 24.6528C58.3583 24.4869 60.1208 24.3458 61.7133 24.3052C61.8504 24.3012 61.9908 24.3012 62.1272 24.2979C62.286 24.294 62.4447 24.294 62.6041 24.294C67.2342 24.294 74.0033 25.3618 74.0033 25.3618C78.7331 21.4677 86.0636 8.897 89.0526 3.56177C89.969 1.92853 91.9164 1.15652 93.6972 1.73635C97.4477 2.95964 100.123 5.8824 102.018 9.65459C108.303 22.136 106.072 43.8882 106.072 43.8882C118.188 64.1994 125.67 78.8054 123.175 88.7819L123.175 88.7838Z" fill="#6E787A"/>
<g opacity="0.6">
<path d="M56.7396 24.6534C51.0751 25.3368 47.3508 26.7707 47.3508 26.7707C39.5913 22.2442 36.1071 7.38699 32.6228 5.80557C30.7751 4.96337 26.3378 7.9596 22.5801 10.9565C24.498 6.56316 27.3394 3.09729 31.5111 1.73757C33.2919 1.15774 35.2354 1.92975 36.1517 3.56299C39.1446 8.89822 46.4752 21.4689 51.201 25.3631C51.201 25.3631 53.7211 24.9643 56.7396 24.6534Z" fill="white"/>
</g>
<g opacity="0.6">
<path d="M68.4238 24.6534C74.0883 25.3368 77.8126 26.7707 77.8126 26.7707C85.5721 22.2442 89.0564 7.38699 92.5406 5.80557C94.3883 4.96337 98.8256 7.9596 102.583 10.9565C100.665 6.56316 97.824 3.09729 93.6524 1.73757C91.8716 1.15774 89.9281 1.92975 89.0118 3.56299C86.0188 8.89822 78.6883 21.4689 73.9624 25.3631C73.9624 25.3631 71.4424 24.9643 68.4238 24.6534V24.6534Z" fill="white"/>
</g>
<path d="M101.748 111.376C101.726 111.391 101.711 111.398 101.7 111.405C97.3476 113.715 92.2859 115.743 86.466 117.262C79.5952 119.056 71.6678 120.14 62.6037 120.14C57.6253 120.14 52.9906 119.813 48.6845 119.221C38.5105 117.822 30.1771 114.944 23.5071 111.405C23.4959 111.398 23.4815 111.39 23.4592 111.376C22.2549 110.7 6.32595 101.023 7.37477 86.649C8.44654 72.0391 24.7854 72.0391 24.7854 72.0391C24.7854 72.0391 18.423 51.7312 37.3043 41.0417C56.1895 30.3522 62.6037 66.3372 62.6037 66.3372C62.6037 66.3372 69.0179 30.3516 87.9031 41.0417C106.784 51.7312 100.421 72.0391 100.421 72.0391C100.421 72.0391 116.76 72.0391 117.832 86.649C118.881 101.022 102.952 110.7 101.748 111.376H101.748Z" fill="white"/>
<g opacity="0.25">
<path d="M123.18 88.9427C121.759 94.762 115.251 104.465 102.27 111.534C102.249 111.549 102.234 111.556 102.224 111.563C92.9609 116.599 77.1225 120.287 62.6005 120.287C49.8855 120.287 32.2407 116.599 22.9771 111.563C22.9667 111.556 22.9516 111.548 22.9299 111.534C9.94931 104.466 3.4413 94.7627 2.02058 88.9427C-0.171493 79.9606 5.52909 67.224 15.3147 49.9458C13.0938 60.6537 7.23513 81.3702 14.0173 90.1312C23.5727 102.469 50.5198 107.627 62.5998 107.627C74.6799 107.627 99.3666 103.974 108.921 91.6372C115.704 82.8761 112.107 60.6537 109.885 49.9458C119.671 67.2233 125.371 79.9599 123.179 88.9427H123.18Z" fill="#000072"/>
</g>
<path d="M48.6371 120.762C48.5669 120.762 48.4954 120.757 48.4239 120.747C38.9072 119.434 30.2799 116.751 22.7821 112.772C22.7539 112.757 22.7263 112.741 22.6988 112.725C22.6955 112.723 22.6916 112.72 22.6876 112.718C9.72737 105.817 2.22104 95.9169 0.530744 89.1596C-1.98404 79.0998 4.56136 65.3406 17.5439 43.5327C17.1209 38.7772 14.7714 5.56552 31.0309 0.267016C33.5018 -0.538451 36.2232 0.529383 37.5002 2.80607C43.2389 13.0364 48.4731 20.748 51.6805 23.7266C53.5709 23.4498 58.7474 22.7486 62.6035 22.7486C66.4596 22.7486 71.6361 23.4504 73.5245 23.7266C78.2347 19.3805 85.52 6.70222 87.7022 2.80673C88.9806 0.529383 91.7033 -0.539107 94.1754 0.267016C110.435 5.56552 108.082 38.7772 107.658 43.5327C120.644 65.3386 127.191 79.0972 124.676 89.1596C122.985 95.9169 115.479 105.817 102.519 112.718C102.515 112.719 102.512 112.722 102.508 112.724C102.481 112.74 102.452 112.756 102.425 112.771C96.4174 115.959 89.643 118.328 82.2922 119.813C81.4552 119.982 80.6386 119.441 80.4694 118.603C80.3002 117.765 80.8419 116.95 81.6796 116.78C88.7215 115.358 95.1987 113.097 100.933 110.06C100.962 110.042 100.992 110.025 101.022 110.009C114.904 102.632 120.535 92.9606 121.674 88.4086C123.934 79.3674 117.178 65.5295 104.742 44.6825C104.572 44.3965 104.498 44.0633 104.532 43.7327C104.541 43.6415 105.45 34.5184 104.4 24.9105C103.466 16.3685 100.768 5.66981 93.2171 3.20881C92.1428 2.8592 90.9588 3.32687 90.4013 4.31993C86.694 10.9368 79.7616 22.6253 74.9859 26.5575C74.6442 26.8382 74.1982 26.9596 73.7613 26.8914C73.6951 26.8809 67.0559 25.8426 62.6035 25.8426C58.1511 25.8426 51.508 26.8809 51.4418 26.8914C51.0049 26.9609 50.5589 26.8389 50.2172 26.5568C45.4585 22.6358 38.5162 10.9414 34.8024 4.31927C34.2449 3.32622 33.0629 2.85855 31.9899 3.20815C24.4389 5.6685 21.7398 16.3678 20.8052 24.9098C19.7537 34.5177 20.6622 43.6409 20.6713 43.732C20.7055 44.0626 20.6313 44.3958 20.4608 44.6818C8.02788 65.5315 1.27259 79.37 3.53222 88.4092C4.6709 92.9606 10.3019 102.632 24.1844 110.009C24.2146 110.025 24.2448 110.042 24.2736 110.06C31.4409 113.856 39.708 116.42 48.8463 117.682C49.6924 117.798 50.2841 118.579 50.1673 119.426C50.0604 120.2 49.3973 120.762 48.6364 120.762H48.6371Z" fill="#000072"/>
<path d="M38.7503 28.4469C38.7503 28.4469 29.8331 31.1611 25.1801 36.3953C25.1801 36.3953 23.9922 21.3216 28.6348 14.8963C29.5098 13.6854 31.3883 13.9537 31.9393 15.3423C33.0504 18.1437 35.2071 22.949 38.7503 28.4469V28.4469Z" fill="#FF67A0"/>
<path d="M86.6089 28.4459C86.6089 28.4459 95.5261 31.1601 100.179 36.3943C100.179 36.3943 101.367 21.3207 96.7244 14.8953C95.8495 13.6845 93.9709 13.9527 93.4199 15.3413C92.3088 18.1427 90.1522 22.948 86.6089 28.4459V28.4459Z" fill="#FF67A0"/>
<path d="M96.2031 15.2724C96.026 15.0717 95.8037 14.9536 95.5702 14.9011C95.3373 14.8447 95.0821 14.8657 94.8624 14.9595C94.6414 15.0467 94.4538 15.1923 94.3311 15.378C94.3075 15.4304 94.2721 15.4731 94.2511 15.5262L94.1776 15.7099L93.9691 16.27C93.4043 17.7596 92.7878 19.2276 92.1266 20.6752C91.4648 22.1228 90.7603 23.5514 90.0145 24.959C89.2701 26.3679 88.4659 27.7446 87.6329 29.1044L86.9645 27.2822C87.6447 27.5249 88.2586 27.7709 88.8896 28.0411C89.516 28.3061 90.1339 28.5868 90.7452 28.88C91.9685 29.4671 93.1642 30.1092 94.3298 30.8058C95.4908 31.5116 96.6131 32.2869 97.6861 33.1291C98.7474 33.9909 99.7444 34.9394 100.637 35.9876C100.856 36.2453 100.825 36.6317 100.568 36.8507C100.324 37.0593 99.9622 37.0416 99.7385 36.8179L99.7214 36.8009C98.8222 35.897 97.8304 35.0863 96.7757 34.355C95.7066 33.6407 94.5935 32.99 93.4417 32.4049C92.2853 31.8284 91.1014 31.3043 89.8958 30.8353C89.293 30.6012 88.6856 30.3788 88.0743 30.1735C87.4702 29.9669 86.836 29.7695 86.2542 29.6107C85.6199 29.4376 85.246 28.783 85.4185 28.1487C85.4526 28.0241 85.5051 27.9099 85.572 27.8076L85.5851 27.7879C86.4529 26.505 87.2761 25.1931 88.0763 23.8655C88.8752 22.5373 89.6361 21.1848 90.3569 19.8113C91.0771 18.4372 91.7553 17.0401 92.3824 15.6226L92.6146 15.09C92.6297 15.0526 92.6598 14.9903 92.6926 14.9254L92.7884 14.7391C92.8553 14.6171 92.9432 14.5043 93.0232 14.3902C93.3748 13.9481 93.8667 13.6326 94.3921 13.4817C94.9188 13.3295 95.4868 13.3479 96.0011 13.5342C96.516 13.7172 96.9614 14.0825 97.2441 14.52C97.4376 14.8185 97.3516 15.2173 97.0532 15.4108C96.7816 15.5866 96.4274 15.5321 96.2202 15.296L96.2005 15.2737L96.2031 15.2724Z" fill="#000072"/>
<path d="M28.045 14.5187C28.333 14.0845 28.781 13.729 29.2932 13.5499C29.8042 13.3656 30.3683 13.3486 30.8917 13.4994C31.4145 13.6457 31.9077 13.9553 32.2619 14.3934C32.3426 14.5069 32.4318 14.6184 32.4994 14.7404L32.5964 14.9254C32.6299 14.9903 32.6601 15.0526 32.6765 15.0894L32.9198 15.6174C33.577 17.0224 34.2848 18.4044 35.0332 19.7621C36.5313 22.477 38.1862 25.0987 39.9827 27.6082L39.9932 27.6239C40.4668 28.2963 40.3054 29.225 39.6338 29.6986C39.479 29.8075 39.3058 29.8836 39.1327 29.9269C38.5627 30.0672 37.9231 30.2522 37.3197 30.4437C36.7077 30.6346 36.0984 30.8425 35.4943 31.0629C34.2848 31.5037 33.0949 32.0002 31.93 32.5499C30.7704 33.1081 29.6474 33.7325 28.5652 34.4219C27.4973 35.129 26.4898 35.9167 25.5702 36.8015L25.5538 36.8173C25.3098 37.0521 24.9222 37.0442 24.6874 36.8009C24.4696 36.5753 24.4604 36.225 24.6546 35.9882C25.527 34.9217 26.5082 33.9496 27.5564 33.0635C28.6163 32.1963 29.7288 31.3948 30.8819 30.6622C32.0389 29.938 33.2294 29.2683 34.4481 28.6537C35.0581 28.3468 35.674 28.0516 36.2997 27.7722C36.9314 27.4875 37.5401 27.2284 38.2321 26.9674L37.382 29.2854C35.7744 26.5115 34.3326 23.6537 33.0654 20.7257C32.4325 19.2617 31.8454 17.7786 31.3108 16.2766L31.1134 15.7118L31.0439 15.5262C31.0235 15.4724 30.9894 15.4291 30.9665 15.376C30.8464 15.1864 30.6595 15.0349 30.4358 14.9424C29.98 14.7496 29.427 14.8703 29.0892 15.2737L29.0761 15.2894C28.8479 15.5623 28.4419 15.5977 28.169 15.3694C27.9152 15.1569 27.8666 14.7896 28.0457 14.52L28.045 14.5187Z" fill="#000072"/>
<path d="M71.7384 98.2033C69.5771 98.2033 68.1551 97.7238 66.7705 97.2562C65.601 96.8613 64.4957 96.4887 62.8415 96.4067C62.6487 96.4008 62.4132 96.3936 62.1712 96.3936C60.0047 96.3936 59.0352 96.6973 57.913 97.0495C56.5952 97.4621 55.101 97.9304 51.8733 97.9304C51.2541 97.9304 50.6159 97.8563 49.977 97.7107C49.1178 97.5152 48.2487 97.1866 47.3947 96.7347C44.4857 95.2031 42.5317 92.6838 42.4504 92.5775C41.9302 91.8999 42.0575 90.9285 42.7357 90.4084C43.4126 89.8889 44.3827 90.0148 44.9028 90.6911C44.9297 90.7252 46.5511 92.7933 48.8396 93.9982C49.4562 94.3249 50.0695 94.5584 50.6644 94.6935C51.0848 94.7892 51.4797 94.8358 51.8733 94.8358C54.6275 94.8358 55.774 94.4764 56.9875 94.0959C58.2376 93.7037 59.5311 93.299 62.1712 93.299C62.4467 93.299 62.7136 93.3069 62.9655 93.3141C65.0775 93.4177 66.5022 93.8992 67.7596 94.3235C69.2944 94.8417 70.6207 95.2877 73.1361 95.0326C73.5238 94.9939 73.9042 94.9244 74.2702 94.826C77.7381 93.9129 79.8193 90.8131 79.8396 90.7822C80.3106 90.0693 81.2702 89.8725 81.9832 90.3441C82.6961 90.815 82.8923 91.7747 82.4213 92.4876C82.3105 92.6555 79.656 96.6081 75.0652 97.8163C74.5457 97.956 73.9987 98.0557 73.4471 98.1108C72.8279 98.1738 72.2612 98.202 71.7384 98.202V98.2033Z" fill="#000072"/>
<path d="M74.6714 96.3222C73.4816 103.15 70.3037 115.034 62.6038 115.034C54.904 115.034 51.5634 103.014 50.3218 96.2042C50.8242 96.319 51.3417 96.3852 51.8737 96.3852C57.6451 96.3852 57.1833 94.8484 62.1716 94.8484C67.1598 94.8484 68.0211 97.1133 73.2933 96.5741C73.7735 96.5262 74.2319 96.441 74.6714 96.3229V96.3222Z" fill="#000072"/>
<path d="M62.6038 116.581C53.7817 116.581 50.1682 103.988 48.8 96.4816C48.7068 95.97 48.8767 95.4459 49.2525 95.0864C49.6284 94.727 50.1597 94.5801 50.6661 94.6962C51.0865 94.7919 51.4814 94.8385 51.8736 94.8385C54.6278 94.8385 55.7743 94.4791 56.9878 94.0986C58.238 93.7064 59.5314 93.301 62.1715 93.301C64.8116 93.301 66.3359 93.8461 67.7612 94.3262C69.2967 94.8444 70.623 95.2911 73.1358 95.0346C73.5254 94.9953 73.9052 94.9264 74.2686 94.8287C74.7796 94.6909 75.324 94.8234 75.7142 95.1802C76.1045 95.5364 76.2862 96.0677 76.195 96.5878C74.8943 104.055 71.399 116.581 62.6031 116.581H62.6038ZM52.2435 97.9305C53.518 103.796 56.5431 113.487 62.6038 113.487C68.6644 113.487 71.5059 104.006 72.7396 98.1719C69.9973 98.347 68.3601 97.7941 66.7721 97.2582C65.4557 96.8141 64.2121 96.395 62.1715 96.395C60.005 96.395 59.0356 96.6987 57.9133 97.0509C56.6467 97.4477 55.2181 97.8957 52.2442 97.9305H52.2435Z" fill="#000072"/>
<path d="M62.9201 103.433H62.9195C58.8528 103.433 55.5562 106.73 55.5562 110.796V120.773C55.5562 124.84 58.8528 128.136 62.9195 128.136H62.9201C66.9868 128.136 70.2835 124.84 70.2835 120.773V110.796C70.2835 106.73 66.9868 103.433 62.9201 103.433Z" fill="#FF67A0"/>
<path d="M62.9191 129.245C58.2476 129.245 54.4473 125.444 54.4473 120.773V110.796C54.4473 106.125 58.2476 102.324 62.9191 102.324C67.5905 102.324 71.3909 106.125 71.3909 110.796V120.773C71.3909 125.444 67.5905 129.245 62.9191 129.245V129.245ZM62.9191 104.541C59.4703 104.541 56.6643 107.347 56.6643 110.796V120.773C56.6643 124.222 59.4703 127.028 62.9191 127.028C66.3679 127.028 69.1739 124.222 69.1739 120.773V110.796C69.1739 107.347 66.3679 104.541 62.9191 104.541V104.541Z" fill="#000072"/>
<g opacity="0.25">
<path d="M82.6561 90.1775C81.4406 91.734 79.6106 93.7693 77.1759 95.6394C76.5022 96.0014 75.7742 96.2972 75.0061 96.4743C74.5109 96.5891 74.0012 96.6554 73.4771 96.6554C67.7897 96.6554 68.2449 95.1186 63.3301 95.1186C63.0749 95.1186 62.8277 95.1258 62.5948 95.1336C62.362 95.1264 62.114 95.1186 61.8595 95.1186C56.9441 95.1186 57.3993 96.6554 51.7125 96.6554C51.1884 96.6554 50.6781 96.5891 50.1835 96.4743C49.4155 96.2972 48.6874 96.0014 48.0138 95.6394C45.577 93.7674 43.7457 91.7307 42.5303 90.1736C41.9983 89.4921 42.7382 88.5548 43.526 88.9096C46.2146 90.1224 50.1029 91.6881 51.6692 91.3897C54.1709 90.9128 54.6694 89.9637 57.2432 89.2652C59.8177 88.5666 62.5955 88.6591 62.5955 88.6591C62.5955 88.6591 65.3733 88.5666 67.9478 89.2652C70.5216 89.9637 71.0207 90.9128 73.5217 91.3897C75.0868 91.6881 78.9724 90.1237 81.6604 88.9116C82.4494 88.5561 83.19 89.4947 82.6574 90.1769L82.6561 90.1775Z" fill="#000072"/>
</g>
<g opacity="0.25">
<path d="M106.072 43.8897C106.072 43.8897 102.188 37.5456 96.8599 33.4737C96.8599 33.4737 101.357 23.0282 102.018 9.65601C108.303 22.1375 106.072 43.8897 106.072 43.8897V43.8897Z" fill="#000072"/>
</g>
<g opacity="0.25">
<path d="M19.2544 43.8894C19.2544 43.8894 23.1381 37.5454 28.4661 33.4734C28.4661 33.4734 23.9691 23.028 23.3079 9.65576C17.0229 22.1372 19.2544 43.8894 19.2544 43.8894V43.8894Z" fill="#000072"/>
</g>
<path d="M51.4326 26.8933C50.839 26.9307 50.1778 27.0028 49.5488 27.0835C48.9125 27.1661 48.2776 27.2658 47.6466 27.3813C46.3853 27.6135 45.1397 27.9172 43.9479 28.3356L43.9315 28.3415C43.4829 28.499 42.9922 28.2628 42.8348 27.8148C42.6944 27.4141 42.8676 26.9799 43.2257 26.7798C44.4431 26.0963 45.7123 25.5434 47.0012 25.0646C47.646 24.8258 48.2966 24.6041 48.9532 24.3995C49.617 24.1948 50.2559 24.0072 50.9695 23.8341C51.8032 23.6314 52.6428 24.1437 52.8448 24.9767C53.0468 25.8104 52.5352 26.6499 51.7015 26.852C51.6149 26.8729 51.5185 26.8867 51.4326 26.8926V26.8933Z" fill="#000072"/>
<path d="M74.7143 23.8429C75.4529 24.0417 76.1331 24.2515 76.8323 24.4765C77.5262 24.7015 78.2149 24.9416 78.8991 25.1954C80.266 25.7097 81.6191 26.2836 82.9251 27.0064C83.3403 27.2366 83.4911 27.7601 83.2609 28.1752C83.0536 28.5491 82.6089 28.7085 82.2187 28.5688L82.2023 28.5629C80.9304 28.1077 79.5897 27.7778 78.2359 27.5069C77.5577 27.3737 76.8762 27.2543 76.1927 27.15C75.5145 27.0471 74.8107 26.9513 74.1581 26.8857H74.1555C73.3028 26.7998 72.6803 26.0389 72.7662 25.1862C72.8522 24.3329 73.613 23.7111 74.4657 23.797C74.5477 23.8055 74.6362 23.8226 74.7136 23.8429H74.7143Z" fill="#000072"/>
<path d="M52.2304 77.6208C54.5267 73.3449 69.4908 73.9785 71.9459 77.6208C74.4004 81.2631 67.7363 90.1311 62.1925 90.1311C56.6486 90.1311 50.2869 81.2402 52.2304 77.6208V77.6208Z" fill="#000072"/>
<path d="M62.1576 78.2132C64.6065 78.2132 66.5916 77.7346 66.5916 77.1441C66.5916 76.5536 64.6065 76.075 62.1576 76.075C59.7088 76.075 57.7236 76.5536 57.7236 77.1441C57.7236 77.7346 59.7088 78.2132 62.1576 78.2132Z" fill="white"/>
<path d="M63.8429 103.433L63.3982 116.83C63.3896 117.095 63.1679 117.302 62.9029 117.293C62.6498 117.284 62.4484 117.079 62.4399 116.83L61.9952 103.433C61.9781 102.923 62.3782 102.496 62.8885 102.479C63.3988 102.462 63.8258 102.862 63.8429 103.372C63.8429 103.392 63.8429 103.414 63.8429 103.434V103.433Z" fill="#000072"/>
<g opacity="0.25">
<path d="M55.8029 113.495C56.3794 112.144 57.4453 110.956 58.8313 110.47C60.2172 109.984 61.9167 110.314 62.854 111.444C63.5565 110.111 65.4127 109.736 66.8164 110.284C68.2201 110.832 69.2361 112.066 70.0507 113.333C71.0241 112.107 71.2504 110.409 70.9526 108.873C70.6555 107.336 69.8887 105.931 69.0406 104.616C68.327 103.509 67.4992 102.404 66.3173 101.824C65.0592 101.207 63.5434 101.279 62.2276 101.762C60.9125 102.244 59.7686 103.104 58.7178 104.031C58.2534 104.44 57.7995 104.869 57.4486 105.378C56.9934 106.04 56.7284 106.811 56.5054 107.582C56.0292 109.229 55.7202 110.924 55.5845 112.632" fill="#000072"/>
</g>
<path d="M43.5472 58.3821C47.2459 58.4923 49.7778 63.1651 49.2019 68.8184C48.6266 74.4724 45.1614 78.9661 41.4634 78.8559C37.7647 78.7457 35.2328 74.073 35.8087 68.4196C36.3839 62.7663 39.8492 58.2719 43.5472 58.3821V58.3821Z" fill="#000072"/>
<path d="M43.3495 60.7564C44.4048 61.428 44.5347 63.3971 43.6394 65.1556C42.744 66.9135 41.162 67.7944 40.1066 67.1227C39.0512 66.4511 38.9214 64.482 39.8167 62.7241C40.712 60.9663 42.2941 60.0854 43.3495 60.757V60.7564Z" fill="white"/>
<path d="M44.9155 73.2996C45.3793 73.8046 45.2428 74.862 44.6118 75.6609C43.9808 76.4598 43.0927 76.6979 42.6297 76.1928C42.1659 75.6878 42.3023 74.6304 42.9333 73.8322C43.5643 73.0333 44.4524 72.7952 44.9155 73.3002V73.2996Z" fill="#B199C5"/>
<path d="M78.9453 58.9809C75.4716 59.0845 73.0932 63.4733 73.6344 68.7836C74.1748 74.0939 77.4288 78.3147 80.9032 78.2111C84.377 78.1074 86.7553 73.7187 86.2149 68.4084C85.6744 63.0981 82.4197 58.8772 78.946 58.9809H78.9453Z" fill="#000072"/>
<path d="M79.1311 61.2109C78.1393 61.8419 78.018 63.6916 78.8588 65.3425C79.6997 66.9935 81.1854 67.8212 82.1771 67.1902C83.1689 66.5599 83.2902 64.7096 82.4493 63.0586C81.6085 61.4077 80.1228 60.5799 79.1311 61.2109V61.2109Z" fill="white"/>
<path d="M77.6603 72.992C77.2248 73.4662 77.3527 74.4593 77.9457 75.2097C78.5386 75.96 79.3723 76.1837 79.8078 75.7095C80.2433 75.2353 80.1154 74.2422 79.5225 73.4918C78.9295 72.7415 78.0959 72.5178 77.6603 72.992Z" fill="#B199C5"/>
</svg>
