<svg width="126" height="122" viewBox="0 0 126 122" fill="none" xmlns="http://www.w3.org/2000/svg">
<path d="M101.601 44.4355C101.294 48.5173 98.8093 57.4581 98.405 58.32C102.334 58.3265 104.385 58.346 106.642 58.2941C107.343 54.5667 108.054 50.5078 108.693 46.8911C110.939 34.2066 101.861 21.3173 92.3237 16.9298C81.8306 12.1065 68.0278 15.0923 59.7258 24.1015C59.2302 24.638 58.7182 25.1585 58.1313 25.7731C57.4074 24.9926 56.8107 24.3323 56.1944 23.6819C47.8533 14.8841 34.1907 12.1488 23.6813 17.0925C14.45 21.4377 5.42426 34.0928 7.59593 46.7806C8.23504 50.5142 9.1024 54.7262 9.82303 58.5575C13.1392 58.5705 17.0358 58.5282 17.8021 58.4989C15.2294 50.3159 12.6338 41.7978 17.0717 33.3968C26.0291 16.4388 45.5317 20.3644 52.8325 31.0454C53.3869 31.8552 54.1043 32.626 54.3944 33.527C55.5423 37.059 60.3454 36.8801 61.9464 33.6148C64.6104 28.1799 69.1234 24.5373 75.0286 22.8395C89.1249 18.7838 102.709 29.7119 101.601 44.4323V44.4355Z" fill="#1947BA"/>
<path d="M58.2841 108.032C69.0462 97.1934 80.2968 86.9084 89.486 74.6546C90.0429 73.9144 91.2705 73.3967 92.2344 73.3084C94.3737 73.1086 96.5425 73.2461 99.3461 73.2461C96.6923 76.836 94.6473 80.2361 92.0031 83.0661C81.7653 94.0195 71.3582 104.806 60.964 115.608C59.1633 117.479 57.2225 117.633 55.5586 115.962C43.5525 103.885 30.8496 92.4603 20.6704 78.6573C19.4722 77.0293 18.3781 75.326 16.9615 73.2527C19.9247 73.2527 22.4516 73.1741 24.9656 73.3116C25.5484 73.3444 26.2257 74.0225 26.6328 74.5694C35.7309 86.797 46.9131 97.0527 57.6263 107.75C57.724 107.846 57.8934 107.868 58.2841 108.032Z" fill="#1947BA"/>
<path d="M106.786 58.4819C106.786 58.4819 98.0221 58.5946 97.0451 58.5747C92.575 58.4886 88.0983 58.6244 83.6283 58.4786C82.6839 58.4488 81.4781 57.816 80.8834 57.064C78.0014 53.403 75.3873 49.5201 72.4464 45.9122C71.6034 44.8752 70.012 44.0271 68.7017 43.9276C66.9731 43.7984 66.0256 45.3125 65.4799 46.9856C62.9441 54.7812 60.3627 62.5636 57.7977 70.3493C57.5395 71.1279 57.2683 71.9031 56.8794 73.0328C53.5661 68.8353 50.439 65.0053 47.4654 61.0562C46.0931 59.234 44.5083 58.4753 42.2405 58.5018C34.1335 58.6012 26.0266 58.5415 17.704 58.5415H0V65.923C13.1162 65.923 26.2325 65.9595 39.3454 65.8799C41.185 65.8701 42.3909 66.3538 43.5377 67.8711C47.2204 72.7512 50.9847 77.5817 54.9255 82.2498C55.8208 83.31 57.5395 84.1249 58.9119 84.178C60.6274 84.2442 61.4542 82.6175 61.9901 80.9577C64.3591 73.5895 66.8 66.2478 69.2278 58.8993C69.5742 57.8525 69.9826 56.8286 70.4858 55.4538C72.6262 58.3229 74.6161 60.8276 76.4166 63.4581C77.6746 65.2969 79.2333 65.9728 81.4127 65.9562C92.3299 65.8832 103.247 65.9263 114.164 65.9197C114.893 65.9197 115.625 65.8502 116.308 65.817V58.4786H106.786V58.4819Z" fill="#FC637D"/>
<path d="M120.375 19.218L115.129 15.6511C114.764 15.4032 114.569 15.0047 114.569 14.5928C114.569 14.375 114.623 14.1574 114.741 13.9564L117.907 8.48033C118.072 8.19564 118.15 7.89086 118.15 7.59613C118.15 7.12388 117.954 6.68178 117.634 6.35689C117.317 6.03202 116.872 5.82102 116.373 5.82102C116.197 5.82102 116.019 5.84781 115.837 5.9014L109.757 7.7502C109.633 7.78704 109.505 7.80713 109.38 7.80713C108.864 7.80713 108.378 7.49566 108.183 6.99661L105.85 1.122C105.705 0.753584 105.458 0.468897 105.162 0.281338C104.868 0.0937793 104.528 0 104.191 0C103.853 0 103.513 0.0937793 103.22 0.281338C102.926 0.468897 102.68 0.753584 102.532 1.122L100.198 6.99661C99.9995 7.49566 99.5175 7.80713 99.0016 7.80713C98.8768 7.80713 98.7486 7.79038 98.624 7.7502L92.5447 5.9014C92.3626 5.84781 92.1839 5.82102 92.0086 5.82102C91.513 5.82102 91.0678 6.03202 90.7475 6.35689C90.4306 6.68178 90.2316 7.12388 90.2316 7.59613C90.2316 7.88752 90.3092 8.1923 90.4744 8.48033L93.6405 13.9564C93.7552 14.1574 93.8125 14.375 93.8125 14.5928C93.8125 15.0047 93.6135 15.4032 93.2527 15.6511L88.0063 19.218C87.4804 19.5765 87.2274 20.129 87.2308 20.6683C87.2308 21.0735 87.369 21.4754 87.6286 21.797C87.8883 22.1185 88.2727 22.3597 88.7481 22.4301L95.033 23.3846C95.6668 23.4817 96.1288 24.0209 96.1288 24.6472V24.741L95.6636 31.0377L95.6568 31.1749C95.6568 31.694 95.876 32.1428 96.2097 32.451C96.5435 32.7625 96.9886 32.94 97.4506 32.94C97.8653 32.94 98.2969 32.7893 98.6509 32.4644L103.321 28.1774C103.567 27.9496 103.88 27.8391 104.194 27.8358C104.508 27.8358 104.821 27.9496 105.067 28.1774L109.737 32.4644C110.091 32.7893 110.519 32.94 110.937 32.94C111.399 32.94 111.845 32.7625 112.178 32.451C112.512 32.1428 112.735 31.694 112.731 31.1749L112.724 31.0377L112.263 24.741V24.6472C112.259 24.0209 112.721 23.4783 113.352 23.3846L119.637 22.4301C120.112 22.3597 120.496 22.1185 120.756 21.797C121.016 21.4754 121.154 21.0735 121.154 20.6683C121.154 20.129 120.904 19.5765 120.378 19.218H120.375Z" fill="#FC637D"/>
</svg>
