<svg width="24" height="24" viewBox="0 0 24 24" fill="none" xmlns="http://www.w3.org/2000/svg">
<path fill-rule="evenodd" clip-rule="evenodd" d="M11.9999 4.85002C8.05107 4.85002 4.8499 8.05119 4.8499 12C4.8499 15.9489 8.05107 19.15 11.9999 19.15C15.9487 19.15 19.1499 15.9489 19.1499 12C19.1499 8.05119 15.9487 4.85002 11.9999 4.85002ZM3.1499 12C3.1499 7.1123 7.11218 3.15002 11.9999 3.15002C16.8876 3.15002 20.8499 7.1123 20.8499 12C20.8499 16.8877 16.8876 20.85 11.9999 20.85C7.11218 20.85 3.1499 16.8877 3.1499 12Z" fill="#FF6C6C"/>
<path fill-rule="evenodd" clip-rule="evenodd" d="M7.1499 12C7.1499 11.5306 7.53046 11.15 7.9999 11.15H15.9999C16.4693 11.15 16.8499 11.5306 16.8499 12C16.8499 12.4695 16.4693 12.85 15.9999 12.85H7.9999C7.53046 12.85 7.1499 12.4695 7.1499 12Z" fill="#FF6C6C"/>
</svg>
