<svg width="126" height="126" viewBox="0 0 126 126" fill="none" xmlns="http://www.w3.org/2000/svg">
<g clip-path="url(#clip0_17_410)">
<path d="M109.217 18.7524C122.319 35.4347 121.955 58.3164 106.029 72.0356L55.0283 6.67657C70.9556 -7.04636 96.1196 2.07018 109.217 18.7524Z" fill="#FC637D"/>
<path d="M56.0286 123.833H73.0395V100.813C73.0395 97.4615 71.1031 93.767 68.4396 92.0237C66.3601 90.6651 64.093 89.9802 61.8628 89.9802C59.9926 89.9802 58.1521 90.4613 56.4804 91.4351C52.9348 93.4938 50.7303 97.4111 50.7303 101.656V123.833H56.0286Z" fill="#FC637D"/>
<path d="M107.938 42.8966C108.408 43.2776 108.868 43.6701 109.353 44.028C110.914 45.1827 112.038 46.5948 111.392 48.7269C110.719 50.9432 109.029 51.5246 106.987 51.4089C106.108 51.359 105.227 51.4013 104.15 51.4013C103.658 56.3886 103.166 61.2261 102.703 66.0672C101.108 82.6763 99.5243 99.2894 97.9371 115.902C97.7535 117.834 97.5623 119.766 97.3823 121.698C97.0884 124.83 95.9495 125.981 92.988 125.992C87.5727 126.015 82.157 126 76.7412 126C61.5344 126 46.3275 126 31.1202 126C27.3616 126 26.4101 125.111 26.0353 121.224C23.8271 98.2769 21.6264 75.33 19.4219 52.3863C19.3999 52.1631 19.3338 51.9399 19.2235 51.4089C18.1837 51.4089 17.0962 51.3819 16.0124 51.4166C14.0908 51.4746 12.6506 50.697 12.0554 48.7305C11.4822 46.841 12.3273 45.4748 13.7528 44.3282C25.2233 35.1077 36.6828 25.868 48.1352 16.6245C52.6761 12.9571 57.1914 9.2512 61.7216 5.57227C77.1273 18.0176 92.5326 30.4629 107.938 42.9082V42.8966ZM75.9699 118.338H90.5229C90.7065 116.668 90.9014 115.133 91.0445 113.593C92.889 94.1288 94.7115 74.6564 96.5777 55.1957C96.9156 51.6821 97.4228 48.1919 97.9007 44.2743C98.1356 44.5514 98.0109 44.3513 97.8417 44.2127C86.1579 34.7806 74.4561 25.3716 62.802 15.901C61.7144 15.0198 61.1375 15.5547 60.3365 16.205C54.7079 20.7653 49.0572 25.2985 43.4137 29.8395C37.3074 34.7576 31.2084 39.6795 25.734 44.0934C28.1626 69.2226 30.5361 93.794 32.9279 118.535C35.4556 118.535 37.8144 118.535 40.1769 118.535C42.5393 118.535 45.0009 118.535 47.4773 118.535C47.4773 113.513 47.4624 108.852 47.4773 104.196C47.5142 95.391 53.6643 88.6986 61.7036 88.7027C69.7752 88.7027 75.9074 95.3447 75.9587 104.165C75.9843 108.825 75.9627 113.481 75.9627 118.338H75.9699ZM54.6269 118.373H68.8311C68.8311 113.174 68.945 108.136 68.7942 103.107C68.6768 99.2043 65.4287 96.1758 61.74 96.1682C58.0442 96.1646 54.7812 99.1854 54.6638 103.08C54.513 108.113 54.6269 113.154 54.6269 118.373Z" fill="#1947BA"/>
<path d="M75.9632 51.7324C75.8345 59.9021 69.2249 66.4942 61.3512 66.3056C53.6247 66.1247 47.4044 59.3324 47.4926 51.1744C47.5808 42.9698 54.1022 36.3662 61.9907 36.4855C69.8166 36.6048 76.0919 43.4547 75.9632 51.7283V51.7324ZM68.8392 51.3476C68.8172 47.303 65.5988 43.9511 61.7369 43.9472C57.8867 43.9434 54.6462 47.3066 54.6165 51.3359C54.5873 55.4728 57.8867 58.9094 61.8363 58.8478C65.6978 58.7861 68.8649 55.3999 68.8428 51.3476H68.8392Z" fill="#1947BA"/>
</g>
<defs>
<clipPath id="clip0_17_410">
<rect width="126" height="126" fill="white"/>
</clipPath>
</defs>
</svg>
